<svg xmlns="http://www.w3.org/2000/svg" viewBox="0 0 750 500"><g fill="#ebebeb"><path d="M344.4 153.8c-.7 0-.8-1.5 0-1.6 3.4-.4 6.8-3.4 10.2-3.9s6.7-.8 9.7-2.3c5-2.5 8.1-7.6 13.3-10 9.2-4.3 18.6-2.4 27.5 1.3a31.3 31.3 0 0 0 16.8 2.5c5.2-.7 10.3-2.1 15.4-2.8 4.6-.7 9.4-.8 13.9.6s8.6 4.4 13 6.5c5.7 2.8 11.4 2.3 17.6 2.5 4.5.2 13.8 3 13.8 6 0 2-142.4 1.2-151.2 1.2ZM696 234c-6.3 0-162-1-205.9-1-3 0 .8-5.4 2.5-5.8 5.4-1.2 11-1.2 16.5-1.8a54.2 54.2 0 0 0 15.8-4c4.3-1.8 8.6-4 13.3-4.7 9-1.4 17 3.5 25.5 5.7a19.3 19.3 0 0 0 15.4-2.1c4-2.4 7.6-5.2 11.7-7.3a63.6 63.6 0 0 1 50.8-2.3 58.9 58.9 0 0 1 11.1 5.7c4.2 2.7 7.8 6.2 12 8.9 9.1 6 20.5 4 30.6 7.4.5.3 1.2 1.3.6 1.3ZM210.3 66.5c-8.3 0-147 .9-155.8.6-.6 0-1-1-.3-1.3 5.5-2.7 11.7-2.1 17.4-4 3.4-1.2 5.5-3.4 7.8-5.9a16.1 16.1 0 0 1 7.2-4.7 15.2 15.2 0 0 1 7.9-.3c2.8.7 5.2 2.3 8 3.3 6.6 2.5 13.1.2 17.9-4.8 4-4 7.8-7.9 13.1-10a17.4 17.4 0 0 1 13.9-.3c5 2.3 8.6 7 13.4 9.8 5.6 3.3 12.4 2.5 18.7 3.5s11 6.3 16.5 9.3a11.7 11.7 0 0 0 6 1.9c1.2 0 2.4-.4 3.7-.6 1.8-.2 3.6-.1 5 1.4.2.4.1 2-.4 2ZM588.9 94.7c-8.3 0-147 1-155.7.6-.7 0-1-.9-.4-1.2 5.5-2.7 11.8-2.2 17.5-4.1 3.3-1.1 5.4-3.3 7.7-5.8a16.1 16.1 0 0 1 7.2-4.8 15.2 15.2 0 0 1 7.9-.2c2.8.7 5.3 2.3 8 3.3 6.6 2.5 13 .1 17.8-4.8 4-4 7.8-8 13.2-10.1a17.4 17.4 0 0 1 13.9-.2c5 2.3 8.6 7 13.4 9.7 5.6 3.3 12.4 2.6 18.7 3.6s11 6.2 16.5 9.3a11.7 11.7 0 0 0 6 1.8c1.2 0 2.4-.3 3.7-.5 1.9-.2 3.7-.2 5 1.4.2.4.1 2-.4 2ZM217.5 297.5c-8.3 0-147 1-155.8.7-.6 0-1-1-.3-1.3 5.5-2.7 11.7-2.2 17.5-4 3.3-1.2 5.4-3.4 7.7-6a16 16 0 0 1 7.2-4.6 15.2 15.2 0 0 1 7.9-.3c2.8.7 5.2 2.3 8 3.3 6.6 2.5 13.1.1 17.9-4.8 4-4 7.8-7.9 13.1-10 4.5-2 9.4-2.3 14-.3 5 2.3 8.5 7 13.3 9.7 5.6 3.4 12.4 2.6 18.7 3.6s11 6.2 16.5 9.3a11.7 11.7 0 0 0 6 1.8c1.3 0 2.5-.3 3.7-.5 1.9-.2 3.7-.2 5 1.4.2.4.1 2-.4 2ZM258.3 120.9c-6 0-107.3.6-113.7.4-.4 0-.7-.6-.2-.9 4-2 8.5-1.6 12.7-3 2.5-.8 4-2.4 5.7-4.2a11.8 11.8 0 0 1 5.2-3.5 11.2 11.2 0 0 1 5.8-.1c2 .4 3.8 1.6 5.8 2.4 4.9 1.8 9.6 0 13-3.6 3-3 5.7-5.7 9.6-7.3a12.8 12.8 0 0 1 10.2-.2c3.7 1.7 6.2 5.1 9.7 7.1 4.2 2.5 9.1 1.9 13.7 2.6s8 4.6 12 6.8a8.5 8.5 0 0 0 4.4 1.4 24 24 0 0 0 2.7-.4c1.4-.2 2.7-.1 3.6 1 .2.3.2 1.5-.2 1.5ZM663 271c-6 0-107.3.7-113.7.5-.5 0-.7-.7-.2-1 4-2 8.5-1.5 12.7-3 2.5-.8 4-2.4 5.7-4.2a11.8 11.8 0 0 1 5.2-3.5 11.3 11.3 0 0 1 5.8-.2c2 .5 3.8 1.7 5.8 2.5 4.8 1.8 9.6 0 13-3.6 3-3 5.7-5.7 9.6-7.3a12.7 12.7 0 0 1 10.2-.1c3.7 1.6 6.2 5 9.7 7 4.2 2.5 9.1 1.9 13.7 2.6s8 4.6 12 6.8a8.6 8.6 0 0 0 4.4 1.4 26.2 26.2 0 0 0 2.7-.4c1.4-.2 2.7-.1 3.6 1 .3.3.2 1.5-.2 1.5Z"/></g><path fill="#263238" d="M242.7 65.8c-12.4 2.2-18.6 17.9-21.5 31.5S220 122 210.6 129c0 0 7.8 14.2 37.6 16.5C273 147.2 287 142 287 142a139.4 139.4 0 0 0 4-30.7c0-16.7-4.3-34-15.7-41.9-19-13.1-32.6-3.6-32.6-3.6Z"/><path fill="#263238" d="M242.7 65.8a19.7 19.7 0 0 0-8.1 4 26 26 0 0 0-6 6.7c-3.3 5.1-5.1 11-6.7 16.9s-2.5 12-4 18a45.3 45.3 0 0 1-3 8.9 15 15 0 0 1-6.2 6.8 15.5 15.5 0 0 0 5.4-7.2 46 46 0 0 0 2.4-8.8c1.2-6 2-12.2 3.6-18.2s3.5-12 7.3-17.2A27.1 27.1 0 0 1 234 69a18.6 18.6 0 0 1 8.7-3.3ZM267.3 65a34 34 0 0 1 16.3 13.2 50.7 50.7 0 0 1 7.8 20.3 84.5 84.5 0 0 1 .2 21.8q-1 10.9-3.1 21.5l1-10.8.8-10.8c.5-7.2.6-14.4-.7-21.4a51.6 51.6 0 0 0-7.1-19.8 39.2 39.2 0 0 0-6.7-8 32.2 32.2 0 0 0-8.6-6Z"/><path fill="#37474f" d="m287 247.3-36.3 142.5c-11.4 45-21.2 83.7-21.5 85.7a11.4 11.4 0 0 0 0 1.3h-81.6l.1-1.2c2.2-20 62.6-228.3 62.6-228.3Z"/><path fill="#263238" d="m219.6 247.3 23.5 173.1L287 247.3h-67.4z"/><path fill="#37474f" d="M334.2 476.8h-80.5a54795.2 54795.2 0 0 0-5.4-150.6c-13.4-8-22.2-11.2-22.2-11.2-8.8-13.4-13.2-66.2-13.3-67.7h104.5s11 29.1 13 53.8c.8 10.2-6.4 30.4-6.4 30.4 4.6 60 9.8 128.6 10.3 145.3Z"/><path fill="#eb9481" d="M247.9 165.2c-27.5 25.3-54.2 51.3-74.3 49.1-19-2.1-43.9-61.2-45.4-78.3-.5-5.8 43.8-13.6 47-8.1 6 10.2 13.6 37.8 16.5 38.3s27-12.3 54.5-21.7c16.8-5.7 17 6.5 1.7 20.7Z"/><path fill="#eb9481" d="M124.3 124.2c1.4 9.4 11.9 27.7 16.1 31.1s35.9-13.3 36.8-18.8-6.3-37-13.4-43.7-41 21.5-39.5 31.4Z"/><path fill="#eb9481" d="M168.7 105.7a59.3 59.3 0 0 1-10.8 9.2c.2.5 4.2 8.6 0 12.3-4.6 3.8-8.7-3.4-9-3.8.2.5 1.2 7.2-2.7 9.3-6.7 3.5-10-13.7-15.1-17l-6.8 8.5s-3.4-16.3 1.4-23.1a5.3 5.3 0 0 1 6.4-2s-1.7-5 1.6-8c1.7-1.6 5.7-.2 5.7-.2s-7.6-28 .5-28.7S153.7 92 153.7 92 150 61.6 158 61c8.5-.7 12.4 42.8 10.7 44.7Z"/><path fill="#263238" d="M139.3 90.8c0-.1 0-.2.2-.2 8 5 15.8 14 18.8 24.3 0 .4-.2.8-.4.4a79.8 79.8 0 0 0-18.6-24.5ZM149 124.2a60.7 60.7 0 0 0-16.4-25c4.5 2.5 8.7 7.6 11.6 11.8a27.2 27.2 0 0 1 5 13c.1.3-.2.4-.3.2Z"/><path fill="#263238" d="M131 115.8a11 11 0 0 1 2.6 3.4l2 3.8a46.5 46.5 0 0 0 4.3 7.6 8 8 0 0 0 3.6 3 4.5 4.5 0 0 0 4.7-1.4 8 8 0 0 0 1.7-4.4l.1-1.4a9.7 9.7 0 0 0 2.3 2.1 5 5 0 0 0 3.3.8 5.8 5.8 0 0 0 3-1.5 7.5 7.5 0 0 0 2.3-5.9c-.3-4.8-3.9-10.5-3.9-10.5l-.1 1.5a25.8 25.8 0 0 1 2.4 9 6 6 0 0 1-1.8 4.7 3.5 3.5 0 0 1-4.4.4 10.6 10.6 0 0 1-3.4-4l-2.4-4.3.8 4.8a15.9 15.9 0 0 1 .2 4.1 6.5 6.5 0 0 1-1.3 3.6 3.1 3.1 0 0 1-3.2 1 7 7 0 0 1-3-2.3 55.4 55.4 0 0 1-4.7-7.2L134 119a10.1 10.1 0 0 0-2.8-3.3Z"/><path fill="#eb9481" d="M177 130.9s10.3-39.4-7-35.9c-5.2 1-25.1 11.5-23 15.6 2.5 5.2 11.7 2.4 17.1-.3 0 0-5.4 12.9 2.5 19.3A10.1 10.1 0 0 0 177 131Z"/><path fill="#263238" d="M171.4 94.8a21.7 21.7 0 0 0-6 1.4 45.9 45.9 0 0 0-5.7 2.5 72.2 72.2 0 0 0-10.7 6.6 11.5 11.5 0 0 0-2.3 2.3 4.3 4.3 0 0 0-.8 1.8 3.2 3.2 0 0 0 0 1 3.3 3.3 0 0 0 .3 1 5.3 5.3 0 0 0 2.7 2.4 9.8 9.8 0 0 0 3.3.6 18.6 18.6 0 0 0 6.4-1 42.3 42.3 0 0 0 5.8-2.5l-1-1a25.6 25.6 0 0 0-1.3 4.7 24.1 24.1 0 0 0-.4 4.7 16.3 16.3 0 0 0 .9 4.7 12.2 12.2 0 0 0 2.3 4 14 14 0 0 1-1.8-4.2 16.7 16.7 0 0 1-.5-4.5 23.3 23.3 0 0 1 .7-4.5 24.8 24.8 0 0 1 1.4-4.3l.7-1.7-1.7.8a45.7 45.7 0 0 1-5.7 2.1 18.3 18.3 0 0 1-5.8 1c-1.8 0-3.8-.7-4.5-2.1-.7-1.3.9-2.9 2.3-4.1s3.3-2.5 5-3.6l5.1-3.3c3.6-1.9 7.2-4 11.3-4.8Z"/><path fill="#f4e3d7" d="m181 136.3-47.9 23.1s20.6 54.2 39.2 56.4 60.9-32.3 82.2-57.5c14.8-17.4 2.4-18.4-13.2-13s-48.5 19-49.7 18.2-10.5-27.2-10.5-27.2Z"/><path fill="#000102" d="M254.5 158.3c-21.4 25.2-63.7 59.7-82.2 57.5-7.2-.9-14.7-9.5-21.1-19.7 22.8-10.8 76.6-37.2 109.2-52 1.8 2.3.4 6.8-5.9 14.2Z" opacity=".1"/><path fill="#263238" d="M142 169.7c6.7-3.1 34.3-16.8 40-20.2.4-.2.4-.6 0-.4-20.8 8.8-33.7 17-40.2 20.3a.1.1 0 0 0 .1.3Z"/><path fill="#f4e3d7" d="M317.3 247.3h-107l8.2-32.6s-8.2-11.9-2.8-25.3c3.8-9.6 18.2-28 27-36.8 21.2-21.2 37-9.3 41.7-2.9 18.2 24.5 32.9 97.6 32.9 97.6Z"/><path fill="#263238" d="M251.6 214a98.2 98.2 0 0 0-14.5-.9 102.5 102.5 0 0 0-10.8.7 15.8 15.8 0 0 1-3.8-.1v.2a27.7 27.7 0 0 0 3.5.7 26.7 26.7 0 0 0 3.4.1l7.4-.2c5-.2 9.9-.3 14.8 0 .2-.1.2-.5 0-.5ZM262.3 220.8a105.8 105.8 0 0 0-11.6-3.2c-2-.5-3.9-.8-5.9-1l-2.8-.4-3.2-.1c-.1 0-.2.1 0 .1l3 .7 2.9.6 5.8 1.2c4 .7 7.9 1.5 11.8 2.4.2 0 .2-.2 0-.3Z"/><path fill="#f4e3d7" d="M268 159c8.3 10 44.7 45 45.3 49.2 0 .7-3 8.6-2.9 10.2 1 6.7 22.6 61.8 28.1 57 7.3-6.5 32.2-53.3 26.5-71.6s-76.2-58-88.5-61.1-16.5 6.4-8.4 16.3Z"/><path fill="#263238" d="M280.4 174.6c10.6 9.5 21.5 18.8 30.8 29.6 1 1.2 2.2 2.3 2.5 4a45.4 45.4 0 0 1-3.1 9.3 68.2 68.2 0 0 0 2.3-9.4c-.3-1.2-1.5-2.3-2.3-3.4-9.5-10.5-20.3-19.8-30.1-30Z"/><path fill="#263238" d="M282.2 180.2a27.6 27.6 0 0 1 7 2.7 27.6 27.6 0 0 1-7-2.7ZM341.9 255.9a909.1 909.1 0 0 0-23.4-38.4c-.3-.4-.6-.3-.3.2 10.4 19.9 19.5 32 23.4 38.3.1.2.4 0 .3-.1Z"/><path fill="#eb9481" d="M315 286.8c-5.6-3.6 1.8-8.2 1.8-8.2s-12.2 4.1-16.7-1.7c-4.2-5.7 4.9-11 5.5-11.4-.6.2-12 3.7-15.8-2.6-4-6.6 6-10.4 6.7-10.6-.6 0-9.6 0-11.4-5.5-3.1-9.5 22.4-11.6 27.7-17.7l-3.1-12.8s3 4.8 7.5 5.9c5.6 1.3 10.6 2 13 4.6a7.3 7.3 0 0 1 1.1 8.6s7-1 10.2 3.9c1.6 2.5-1 7.3-1 7.3s5.6-.6 8.2 4c2 3.5-.9 7.8-.9 7.8s5.7 2 6.6 6.3c1.8 8.8-27.2 29.6-39.3 22Z"/><path fill="#263238" d="m347.5 259.2.1.1a61.9 61.9 0 0 1-31.2 19.6c-.4 0-.7-.5-.3-.7a126.4 126.4 0 0 0 31.4-19ZM340.7 246.6c.1-.1.3 0 .2.2a58 58 0 0 1-35.4 19.2c-.5 0-1-.4-.4-.5 9.2-1.8 26.8-11.4 35.6-19ZM295.5 252c13.4-2 24.7-8.2 35.5-16.1.2-.1.3 0 .2.2a52 52 0 0 1-17.6 12.6 35.6 35.6 0 0 1-18 3.8c-.3 0-.4-.4 0-.4Z"/><path fill="#263238" d="M348.2 258.4c1.9-2.6 3.1-5.7 1.6-8.8a6.4 6.4 0 0 0-3.2-3.1c-1.8-.8-4.2-.4-5.3-.3 1.6-3 2-6.8-.2-9.5a6.4 6.4 0 0 0-4.2-2 20.9 20.9 0 0 0-5.5.5 7.5 7.5 0 0 0 1.4-6.6 8 8 0 0 0-5.2-5.2c-2.8-1.1-5.8-1.3-8.7-1.7a19.5 19.5 0 0 1-4.5-1 8.6 8.6 0 0 1-3.8-3.1c-.2-.3-.2 0 0 .2a10.7 10.7 0 0 0 2.3 2.5 13 13 0 0 0 3 1.8c2.7 1.2 5.6 1.4 8.4 2.1a11.6 11.6 0 0 1 6.3 3.9 6.9 6.9 0 0 1 .5 7.2c0 .1 0 .3.3.2a20.1 20.1 0 0 1 4.9.4 6.8 6.8 0 0 1 3.5 2c1.9 2.4 2 6 .7 8.8 0 .1 3 0 5.2 1.1a6.4 6.4 0 0 1 2.5 2.6 7.6 7.6 0 0 1-.5 8 .2.2 0 0 0 0 .1.1.1 0 0 0 .1.2s1.8.6 2 .6a11.6 11.6 0 0 0-1.6-.9Z"/><path fill="#f4e3d7" d="M255 164.3s20-17.9 30.8-18.1l9.8 7.7s3 .8 3.9-1.2c2-4.9 1.8-16.4-8.5-23.3-9.5-6.4-28-3.9-40.2 0-11.7 4-17.9 11.3-13.8 18.8s18 16.1 18 16.1Z"/><path d="M253.7 160.7s-10.3-9.4-12-15 9.5-12 16.8-14.5c11.4-4 19.3-3.8 26.1 2s-31 27.5-31 27.5Z" opacity=".1"/><path fill="#eb9481" d="M271.8 146.5c-.5 2-10.8 11.1-20 10.7-3-.2-2.4-12.7-2.4-12.7l-.2-1.2-3.8-17 20-12.8 3-1.6 1.5 10.6v.8l.2 1 .4 2.7.3 2 .2 2.2a111.6 111.6 0 0 1 .8 15.3Z"/><path fill="#263238" d="M270 122.5a35 35 0 0 1-20.8 20.8l-3.7-17 20-12.8 2.9-1.6 1.5 10.6Z"/><path fill="#eb9481" d="M222.8 96.4c-7.9 29.6 9 37.7 15.3 39.3 5.8 1.6 25.7 6 36.6-22.5s-.4-41.6-13.4-45.8-30.7-.5-38.5 29Z"/><path fill="#263238" d="M232 95h2a3.4 3.4 0 0 0 2.2-.5 1 1 0 0 0 .2-1.3 2.7 2.7 0 0 0-2.5-1 4 4 0 0 0-2.7.8 1.2 1.2 0 0 0 .7 2ZM253 98.9a19.6 19.6 0 0 1-2-.9 3.4 3.4 0 0 1-1.8-1.2 1 1 0 0 1 .3-1.3 2.7 2.7 0 0 1 2.7 0 4 4 0 0 1 2.2 1.8 1.2 1.2 0 0 1-1.4 1.6ZM247.5 103.8s.1.1 0 .2c-.4 2-.7 4.4 1 5.5v.1c-2.2-.8-1.8-4-1-5.8Z"/><path fill="#263238" d="M249.7 102c3.4.5 2.2 7.2-.9 6.7s-1.8-7 1-6.6Z"/><path fill="#263238" d="M251 102.6c.5.5 1 1.3 1.6 1.5s1.6-.4 2.2-1l.1.1c-.2 1.3-1 2.5-2.3 2.5s-2-1.4-2-2.7c-.1-.2.2-.5.4-.4ZM235.4 100.1s-.2 0-.2.2c-.3 2-1 4.4-3 4.7v.1c2.4.1 3.2-3 3.2-5Z"/><path fill="#263238" d="M234 97.7c-3.4-.8-4.7 5.7-1.7 6.5s4.3-5.9 1.6-6.5Z"/><path fill="#263238" d="M232.4 97.8c-.6.2-1.2.8-1.8.7s-1.1-1-1.5-1.7c0-.1 0 0 0 0-.4 1.2-.2 2.6 1 3.1s2-.4 2.6-1.6c0-.2 0-.6-.3-.5ZM243 120.5c-.7.4-1.2 1-2 1a5.5 5.5 0 0 1-2.1-.8h-.1a2.8 2.8 0 0 0 2.4 1.5 2.2 2.2 0 0 0 1.9-1.6c0-.1-.1-.2-.2-.1ZM235.8 111.4s-1 3-1.3 4.5l.8.3a7 7 0 0 0 7.2-1.3c.1 0 0-.3-.2-.2a10.6 10.6 0 0 1-6.6.6c0-.4 1.9-5 1.6-5a12.4 12.4 0 0 0-3.4 0c2-6.2 4.8-12.1 6.6-18.4 0-.2-.2-.4-.3-.2-3.5 6-5.9 13.2-8 19.6-.2.8 3 .3 3.6.1Z"/><path fill="#263238" d="M235.5 115.7a8.4 8.4 0 0 0 2.7 3.4 3.8 3.8 0 0 0 2.2.7c1.7 0 2.1-1.5 2.1-2.8a8.9 8.9 0 0 0-.2-2.2 11 11 0 0 1-6.8 1Z"/><path fill="#ff9abb" d="M238.2 119.1a3.8 3.8 0 0 0 2.2.7c1.7 0 2.1-1.5 2.1-2.8-1.8-.3-3.8.5-4.3 2.1Z"/><path fill="#263238" d="M272.5 114.8c-5-.7-3.8-11.2-3.8-11.2s-10-2.2-10-17.3a22.6 22.6 0 0 0 1.7 12.9s-17-5.9-21.1-22.2c0 0 1.2 8.1 3.4 11.4 0 0-7-3.7-9.2-10.5 0 0-5 7.8-7.8 9.6 0 0 7.6-30.5 35.3-20.8 0 0 17.5 5.2 20.7 20.7s-9.2 27.4-9.2 27.4Z"/><path fill="#eb9481" d="M270 111.5s8.1-8.3 12-5.2-3.5 15.9-8.8 16.9a5.2 5.2 0 0 1-6.4-4Z"/><path fill="#263238" d="M279.8 110c-3.8.9-6.2 3.8-8 7 1.2-1.2 2.8-1.6 4.3 0l-.2.1a3.2 3.2 0 0 0-3.6.5 15.1 15.1 0 0 0-2.1 2.5c-.3.3-.8 0-.6-.3v-.1c.7-4.5 5.3-10.2 10.2-9.8Z"/><path fill="#f4e3d7" d="M253.7 160.7s16.1-24 32.8-27.3l-.7 12.8s-14 1-30.7 18.1Z"/><path fill="#263238" d="M290.4 146.2a21.4 21.4 0 0 0-9 1.7 70.8 70.8 0 0 0-22.6 13.6l-3.2 3.3-.4.4-.4-.2c-5.9-2.8-12-9.6-13.1-11a74.8 74.8 0 0 0 13.6 9.7l-.8.1 3.2-3.4c1.1-1 13.5-10.3 23.4-13.3l2.3-.7a16 16 0 0 1 2.3-.3 13.6 13.6 0 0 1 4.7 0Z"/><path fill="#263238" d="M295.6 153.9a50.1 50.1 0 0 1-9.8-7.7 44.9 44.9 0 0 1 5.1 3.5 46.4 46.4 0 0 1 4.7 4.2Z"/><path fill="#f4e3d7" d="M257.8 157.1a93.2 93.2 0 0 1 3.8 15.6c.5 3.7 1 17.2-3.2 17.3s1.3-9.4 1.5-16.6-2.4-12-3.2-16.2Z"/><path d="M257.8 157.1a93.2 93.2 0 0 1 3.8 15.6c.5 3.7 1 17.2-3.2 17.3s1.3-9.4 1.5-16.6-2.4-12-3.2-16.2Z" opacity=".1"/><path fill="#f4e3d7" d="M247.5 158.2a84.8 84.8 0 0 0-3 14.4c-.5 3.4-.6 15.7 3.3 15.6s-1.5-8.5-1.8-15 1.8-11.1 2.5-15Z"/><path d="M247.5 158.2a84.8 84.8 0 0 0-3 14.4c-.5 3.4-.6 15.7 3.3 15.6s-1.5-8.5-1.8-15 1.8-11.1 2.5-15Z" opacity=".1"/><path fill="#263238" d="M294 135.5s4.8-8 12.3-8 9 4.7 13.6 5S334 131 339 135s4.1 12.8 6.5 15.3 9.8 2.3 12 8.7c2.6 7.5-2 12.4-1.4 16.3.9 6.5 6 11.4 3 19.3-3.5 8.5-11 8.9-15.7 11.9-4.5 2.9-4.8 11.6-15.4 13s-13.8-5-20.2-6.8-15 2.7-22-1.1-5.4-10.1-7.5-13.2-7.4-2.9-10-8.4 2.4-11 2.6-13.3c.4-3.9-2.5-5.8-2-11.3s7.2-9.7 8.4-11.5c3-4.2.6-8.7 4.4-14 3.3-4.5 12.2-4.4 12.2-4.4Z"/><path fill="#263238" d="m342.3 139.4 1.2 3.9c1.3 5 4 5.9 8.4 7.5a16 16 0 0 1 6.7 4.8c3.8 5 2.4 10.8 0 15.8-.7 1.6-1.3 3-.8 4.6 2.3 5.8 5.1 12.8 1.3 18.6 3.1-5.6.7-12-1.7-17.3-1.1-2-.5-4.4.3-6.2 1-2.5 2.1-5 2.3-7.6.5-5.6-3.4-10-8.4-12-1.8-.9-3.9-1.4-5.4-2.8-2.8-2.2-3-6-4-9.3ZM291.7 213.1c-7.6 0-12.4-1.5-14-9.6-.5-2-.8-4-2.7-4.9-2.6-1.6-5.7-3.2-7.2-6.1a11 11 0 0 1-.2-9.3 49.6 49.6 0 0 1 3.1-5.4c-.9 1.9-1.9 3.7-2.6 5.6a10 10 0 0 0 2.3 11c1.8 1.8 4.4 2.7 6.4 4.4 1.2 1.1 1.3 3 1.7 4.5 1.5 8 6 9.1 13.2 9.8Z"/><path fill="#ad6359" d="M322.6 231.8c5.8 18.3 24 62.5 38.6 74.3 12.5 10.2 38.6 23 53 29.3 6.7 2.9 23.6-46.3 15.2-48.9a547.5 547.5 0 0 1-45.5-19.2c-3-1.6-19.5-22.7-41-44.9-17.1-17.8-25-5.3-20.3 9.4Z"/><path fill="#ad6359" d="M414.3 335.4c5 2.7 31.9 16.3 39.2 17.7s28.6 4 30.3-1.5-4.5-6.7-4.5-6.7 9.1-.3 10.3-6-8.5-7.3-8.5-7.3 9.4-1 10.1-6.8-9.2-5.7-9.2-5.7 8.6-.6 7.3-5.6c-1.7-6-17.5-3.2-25.5-5.3L428 295.5Z"/><path fill="#263238" d="M482.8 319c-11.6 2-17 1-27.8-3.4-.2-.1-.4.2-.2.3 10.2 5.3 16.8 7.7 28.2 3.7.5-.2.4-.6-.2-.5ZM482 331.4c-12.3 1-18.2 0-29.8-3.9-.1 0-.2.2 0 .3 11 4.7 17.7 7 29.8 4.2.5 0 .6-.6 0-.6ZM478.7 344.7c-12 .2-18.5-.8-29.3-6a.2.2 0 0 0-.2.4 39.6 39.6 0 0 0 29.4 6c.8-.2.8-.4 0-.4Z"/><path fill="#ad6359" d="M424.6 287s14.5-2.5 21.2-2.2 31 10.6 29 16c-2.4 7-17.6 3.8-25 1.3 0 0-5.7 16-17 16.1s-8.3-31.2-8.3-31.2Z"/><path fill="#263238" d="M473.5 302.4c-6.8 4.8-16.1.8-23.3-1.1a.7.7 0 0 0-1 .7c-2.8 6.6-8.7 15-16.1 16.5a.2.2 0 0 0 0 .4c8.2-.6 14.7-8.4 17.3-15.8 7.4 2 17 5.6 23.2-.6Z"/><path fill="#455a64" d="m375.5 254.7-42.8 9.6s-11.2-25.6-13.7-42.6c-2-12.9 5.2-15 12.2-9.8 23.5 16.9 44.3 42.8 44.3 42.8Z"/><path fill="#263238" d="M332.6 257c6.5-2 24.3-6.7 36.2-8.3a648.8 648.8 0 0 1-36.1 8.7c-.1 0-.2-.3 0-.4Z"/><path fill="#000102" d="m367 256.6-34.3 7.7s-11.2-25.6-13.7-42.6c-1-6.6.4-10.4 3-11.8Z" opacity=".1"/><path fill="#ad6359" d="m354.8 291.8 6.8 28.7H251s18.5-80 36.9-102.5c12.5-15.3 28.3-15.1 38.8-5.6 2.7 2.5 29 35.1 33 50.2 3.7 13.3-5 29.2-5 29.2Z"/><path fill="#455a64" d="m253 301.9 77-6.7 28.7 6-4-9.4s8.7-15.9 5.2-29.2c-4.1-15-30.4-47.7-33-50.1-10.7-9.6-26.4-9.7-38.9 5.5-12.8 15.7-29.5 58.9-35 83.9Z"/><path fill="#263238" d="M313.8 286.3a113.6 113.6 0 0 1 16.7 1.3 123.5 123.5 0 0 1 12.2 2.6 17.8 17.8 0 0 0 4.3.5c.1 0 .1.2 0 .2a29.4 29.4 0 0 1-4.1.3 29 29 0 0 1-4-.5l-8.3-1.5c-5.6-1-11.2-2-16.8-2.5-.3 0-.3-.4 0-.4ZM300.5 292.3a121 121 0 0 1 13.7-1.8 79.4 79.4 0 0 1 10.2 0l3.6.3c.1 0 .2.2 0 .2l-3.4.2-3.4.2-7 .4-13.7.9c-.2 0-.2-.4 0-.4ZM327.2 300.5c-2.2 1.4-2.8 4.4-2.4 6.9.1.6.4 1.2 1 1.2 1.3 0 1.3-2 1.2-2.9a3.8 3.8 0 0 0-.6-1.8 4.5 4.5 0 0 1 .9 3.8 1.4 1.4 0 0 1-2.5.8c-1.3-2.5-.3-6.8 2.4-8Z"/><path fill="#ad6359" d="M301.2 230.4c-8.6 17.2-33.3 58-49.6 67.5-14 8.1-41.7 16.7-57 20.7-7 1.8-16-49.4-7.4-50.6 12-1.7 46.6-11.5 48-12 3.2-1 22.7-19.4 47.3-38 19.8-15 25.6-1.4 18.7 12.4Z"/><path fill="#ad6359" d="M194.6 318.6c-5.3 2-34 11.2-41.5 11.5s-28.9-.5-29.6-6.1 5.5-6 5.5-6-9-1.8-9.3-7.6 9.5-5.9 9.5-5.9-9.1-2.4-9-8.2 10-4.3 10-4.3-8.4-1.8-6.3-6.6c2.5-5.6 17.7-.4 26-1.4 1.8-.2 37.3-6.9 37.3-6.9Z"/><path fill="#263238" d="M129.4 292a41.4 41.4 0 0 0 28 .8c.2 0 .4.3.1.4-10.8 3.6-17.7 5-28.3-.7-.5-.3-.3-.7.2-.5ZM128.3 304.3c12 3 18 2.7 30 .7.2 0 .3.3.1.3-11.7 3-18.6 4.1-30.1-.4-.5-.2-.5-.8 0-.6ZM129.6 317.9c11.7 2 18.4 2 29.8-1.4a.2.2 0 0 1 .2.4 39.7 39.7 0 0 1-30 1.4c-.8-.3-.8-.5 0-.4Z"/><path fill="#ad6359" d="M192 269.2s-14-4.7-20.7-5.4-32.3 5.7-31.2 11.3c1.4 7.2 17 6.5 24.5 5 0 0 3.2 16.8 14.4 18.7s13-29.6 13-29.6Z"/><path fill="#263238" d="M141.2 277c6 5.7 15.8 3.3 23.2 2.5a.7.7 0 0 1 .8.8c1.8 7 6.4 16.2 13.5 18.8a.2.2 0 0 1-.1.4c-8-1.8-13.3-10.6-14.7-18.3-7.7 1-17.6 3-22.8-4.1v-.1Z"/><path fill="#455a64" d="m244.9 242.9 40.3 17.5s15.8-23.1 21.4-39.3c4.3-12.3-2.3-15.7-10.2-12A269.8 269.8 0 0 0 245 243Z"/><path fill="#263238" d="M286.6 253.2c-6-3.1-22.6-11.2-34-15 0 0-.2.2-.1.3 9 4.6 27.7 12.4 34 15 0 .1.2-.2.1-.3ZM285.6 260.6c2-3 3.8-6.1 5.6-9.2l2-2.3a20.5 20.5 0 0 0 2.2-3.3s0-.1-.1 0l-1.1 1.5-1.2 1.5-1.2 1.5c1.7-3 3.4-6 5-9.2l-.2-.1c-2.1 3-4.1 6.2-6 9.5s-3.8 6.2-5.5 9.5l-1.7-.6a.1.1 0 0 0-.1.3l1.8 1a.3.3 0 0 0 .5-.1Z"/><path fill="#ad6359" d="M305 213.5c.7 3 8.7 12 17.6 11 4.6-.5 3.5-13 3.5-13l.1-1.2 2-16.9-23.8-11.7s.3 31 .5 31.8Z"/><path fill="#263238" d="M304.6 193.3a34.1 34.1 0 0 0 21.6 17l2-16.8-23.8-11.7.2 11.5Z"/><path fill="#ad6359" d="M349.5 166.2c4.9 29.4-12.2 35.6-18.5 36.7-5.8.9-25.5 3.4-33.4-25.4s4.3-40.3 17.3-43.2 29.8 2.4 34.6 31.8Z"/><path fill="#263238" d="M340.4 163.2a18.4 18.4 0 0 1-2-.2 3.4 3.4 0 0 1-2.2-.6 1 1 0 0 1-.1-1.3 2.7 2.7 0 0 1 2.5-1 4 4 0 0 1 2.7 1.2 1.2 1.2 0 0 1-.9 2ZM319.3 165.1a18 18 0 0 0 2-.7 3.4 3.4 0 0 0 2-1 1 1 0 0 0-.2-1.4 2.7 2.7 0 0 0-2.7-.3 4 4 0 0 0-2.3 1.7 1.2 1.2 0 0 0 1.2 1.7ZM324.5 170.4s-.2.1-.1.2c.3 2 .4 4.5-1.4 5.4v.1c2.3-.6 2.1-3.8 1.5-5.7Z"/><path fill="#263238" d="M322.3 168.5c-3.3.3-2.6 7 .5 6.7s2.3-6.8-.5-6.7Z"/><path fill="#263238" d="M321 169c-.5.4-1 1.2-1.7 1.3s-1.5-.5-2-1c-.1-.2-.2 0-.2 0 .1 1.3.7 2.5 2.1 2.6s2.1-1.2 2.3-2.5c0-.2-.2-.6-.4-.4ZM336.6 168s.2 0 .2.2c.1 2 .6 4.4 2.6 5-2.3 0-3-3.2-2.8-5.2Z"/><path fill="#263238" d="M338.3 165.7c3.3-.6 4.2 6.1 1.1 6.6s-3.9-6.1-1.1-6.6Z"/><path fill="#263238" d="M339.7 166c.6.3 1.2.9 1.8.8s1.2-.8 1.6-1.6h.1c.2 1.4 0 2.7-1.2 3.1s-2-.6-2.5-1.8c-.1-.3 0-.7.2-.5ZM327.8 187.4c.5.4 1 1 1.8 1a5.6 5.6 0 0 0 2.2-.6c.1 0 .2 0 .1.1a2.8 2.8 0 0 1-2.5 1.3 2.2 2.2 0 0 1-1.8-1.7c0-.2.1-.2.2-.1ZM335.6 178.9s.8 3 1 4.5l-.9.3a7 7 0 0 1-7-1.8c-.1-.1 0-.3.2-.2a10.4 10.4 0 0 0 6.5 1c0-.3-1.5-5.1-1.3-5.1a13 13 0 0 1 3.4.3c-1.4-6.4-3.9-12.5-5.2-18.8 0-.3.3-.4.4-.2 3 6.2 4.8 13.5 6.5 20.1.2.8-3 0-3.6-.1Z"/><path fill="#263238" d="M335.5 183.2a8.5 8.5 0 0 1-2.9 3.2 3.8 3.8 0 0 1-2.2.5c-1.7-.1-2-1.6-2-3a8.6 8.6 0 0 1 .4-2.1 10.9 10.9 0 0 0 6.7 1.4Z"/><path fill="#ff9abb" d="M332.6 186.4a3.8 3.8 0 0 1-2.2.5c-1.7-.1-2-1.6-2-3 1.8-.1 3.8.8 4.2 2.5Z"/><path fill="#263238" d="M298.9 180.9a12.2 12.2 0 0 0 6-10.5A32 32 0 0 0 317 159c-.1.6-1.2 5.1-1.9 7.4 18.5-5 23.2-19.8 23.2-19.8 6.5 5.6 8.1 8.7 9.2 10.6 0 0-.9-10.8-7.4-18-8-9-17.7-6.3-17.7-6.3a26.5 26.5 0 0 0-25.2 10c-11.2 14.2 1.7 38 1.7 38Z"/><path fill="#263238" d="M329.2 162.2a34.3 34.3 0 0 1-9.4 4.3A29.4 29.4 0 0 0 333 157a27.5 27.5 0 0 0 3.6-6 19.3 19.3 0 0 0 2-7.4.1.1 0 0 1 .2 0 22.4 22.4 0 0 1-.9 7.5 20.4 20.4 0 0 1-3.6 6.6 23.1 23.1 0 0 1-5 4.4"/><path fill="#ad6359" d="M302.6 177s-7.2-8.8-11.2-6.1 1.9 15.7 7 17.1a5 5 0 0 0 6.5-3.2Z"/><path fill="#263238" d="M293.2 174.6v.1c3.6 1.2 5.7 4.2 7.2 7.5-1.1-1.2-2.6-1.8-4.2-.5-.1 0 0 .2 0 .2a3.1 3.1 0 0 1 3.6.8 15.1 15.1 0 0 1 1.8 2.6c.2.3.8.1.6-.2v-.1c-.3-4.4-4.2-10.3-9-10.4Z"/><path fill="#455a64" d="M298.9 186.9a1.3 1.3 0 1 0 .7-1.6 1.3 1.3 0 0 0-.7 1.6Z"/><path fill="#263238" d="M299.5 186.7a.6.6 0 1 0 .4-.8.6.6 0 0 0-.4.8Z"/><path fill="#455a64" d="M296.5 185.5a.9.9 0 1 0 1.7-.6.9.9 0 0 0-1.1-.5 1 1 0 0 0-.6 1.1Z"/><path fill="#f4e3d7" d="M366.3 476.8h-96.5l.2-3.2.2-2.6.2-4.3.5-9.3.3-4.6.2-3 .1-2.7.4-6.7.2-4.1.2-2.8.2-4.6v-.8l.5-8.1v-.7l.2-4.3.3-5.1.3-6v-1l.2-2.3.2-4.6.3-4.6v-.5l.3-6.1.2-4v-.4l.2-4.3a.4.4 0 0 1 0-.1l.2-4v-.8l1.2-21.7v-.5l.1-1.9.8-14.8a.5.5 0 0 1 0-.1v-1.5l.8-15h83s11.7 46.4 12 57c.4 4.4-3 54.3-7 104Z"/><path fill="#000102" d="M366.3 476.8h-96.5l.2-3.2.2-2.6.2-4.3.5-9.3.3-4.6.2-3 .1-2.7.4-6.7.2-4.1.2-2.8.2-4.6v-.8l.5-8.1v-.7l.2-4.3.3-5.1.3-6v-1l.2-2.3.2-4.6.3-4.6v-.5l.3-6.1.2-4v-.4l.2-4.3a.4.4 0 0 1 0-.1l.2-4v-.8l1.2-21.7v-.5l.1-1.9.8-14.8a.5.5 0 0 1 0-.1v-1.5l.8-15h83s11.7 46.4 12 57c.4 4.4-3 54.3-7 104Z" opacity=".2"/><path fill="#f4e3d7" d="M365.6 350a25.7 25.7 0 0 0-3.3-.8 19.6 19.6 0 0 1-3.5-1.3 26.2 26.2 0 0 1-6.4-4.6 24.2 24.2 0 0 1-5-7.9l-4-10.6-.4.1c.2 1.3 2.6 9 3.2 10.9a25.3 25.3 0 0 0 5.2 9.2 20.4 20.4 0 0 0 7 4.7 15.3 15.3 0 0 0 3.9 1 6 6 0 0 0 3.4-.2c.2 0 .1-.5 0-.5ZM292.2 319.7l-.5 13.1-.1 4.3-1.1 28.5-2 45.9-3.1 65.3h-1.9l3.5-65.4 2.5-45.9 1.7-27.6.2-4.5.8-13.7z"/><path d="M344.4 476.8h-74.6l.2-3.2.2-2.6.2-4.3.5-9.3.3-4.6.2-3 .1-2.7.4-6.7.2-4.1.2-2.8.2-4.6v-.8l.5-8.1v-.7l.2-4.3.3-5.1.3-6v-1l.2-2.3.2-4.6.3-4.6v-.5l.3-6.1.2-4v-.4l.2-4.3a.4.4 0 0 1 0-.1l.2-4v-.8l.4-5.7.1-2.8.2-3.5.5-9.7v-2.4l.5-7v-.8l.1-2.5.2-2.6v-2l.1-1.5.1-1V328l.1-1.4a.5.5 0 0 1 0-.1l.1-1.3a1.2 1.2 0 0 1 0-.2l.1-2v-1l.3-5.6a.3.3 0 0 1 0-.1v-.7H320l5 32.6 1 6.2 2.6 17.2.2 1.4.6 4.5.1.4.2 1.1Z" opacity=".1"/><path fill="#f4e3d7" d="M345 315.6s-.3 4.3-1 11l-.2 1.3a213.2 213.2 0 0 1-10.6 48.2l-.2.2-3.6 1.6-4.8 2.2-1.2.5a45.9 45.9 0 0 0-6.8 3.5v.4l20.6 92.2H255a7714 7714 0 0 1-19.3-92.4c-3.4-20.4 15.4-68.7 15.4-68.7Z"/><path fill="#000102" d="M345 315.6s-.3 4.3-1 11l-.2 1.3a213.2 213.2 0 0 1-10.6 48.2l-.2.2-3.6 1.6-4.8 2.2-1.2.5a45.9 45.9 0 0 0-6.8 3.5v.4l20.6 92.2H255a7714 7714 0 0 1-19.3-92.4c-3.4-20.4 15.4-68.7 15.4-68.7Z" opacity=".2"/><path fill="#f4e3d7" d="M261.8 350c1.7-.4 3.5-.3 5.3-.5a39.3 39.3 0 0 0 5.4-1 40 40 0 0 0 9.9-4 21 21 0 0 0 7-7.6c1-1.6 5.7-10.3 5.7-10.3s.6-.1.5.1c-.3 1.2-3.3 8.8-4.2 10.7a20.6 20.6 0 0 1-7.3 8.9 32.3 32.3 0 0 1-10.9 4.1 34.5 34.5 0 0 1-6 .7 15.7 15.7 0 0 1-5.6-.5c-.3-.2-.1-.6.1-.6ZM335 375.4a143.5 143.5 0 0 0-22.6 10.3.3.3 0 0 0 .2.5c7.6-3.2 15.4-6.3 22.9-9.9a.5.5 0 0 0-.4-.9ZM338 323.1c0-.3-.5-.3-.5 0a254 254 0 0 1-1.5 25.4c-.4 4-3.7 25.6-10.5 24-1.2-.2-1.8-1.4-2-3-.1-2.2.7-4.7 1-6.7.9-4.6 1.5-9.1 2-13.7a124.5 124.5 0 0 0 0-25.7.2.2 0 0 0-.5 0c-.1 11.9-.5 23.7-2.4 35.4-1 5.7-3.8 14.1 2 15s10-13.2 10.9-17.1c2-10.9 2.3-22.6 1.5-33.6Z"/><path fill="#f4e3d7" d="M325.6 373a36.7 36.7 0 0 0-1.5 4.6 10.4 10.4 0 0 0-.7 3.6.3.3 0 0 0 .5.2 13 13 0 0 0 1.6-3.6l1.6-4.2a.8.8 0 0 0-1.5-.5ZM266.1 476.8h-1.9L253.8 425l-5.3-27.4L246 384l-1-7a60.4 60.4 0 0 1 .5-7c1.3-9.3 3.4-18.3 5.6-27.4s4.5-18 7-27c-2.3 9-4.5 18-6.6 27.1s-4 18.2-5 27.4l-.4 3.4v3.5l1 6.8 2.5 13.7 5.6 27.3Z"/><path fill="#263238" d="M401 213.7c-.3 6.7-.6 13.5-.6 20.3 0 4.1.3 8.2.7 12.3a25.8 25.8 0 0 0 4.6 3.8l-.2-3a158.7 158.7 0 0 1-.3-14.7 197.6 197.6 0 0 0 1.7 18.4 36.3 36.3 0 0 0 5 2.4l-.5-3.5-.8-8.3a157.8 157.8 0 0 1-.4-16.4c0-.3.3-.2.3 0a289.2 289.2 0 0 0 1.9 24.9l.6 3.8a56.8 56.8 0 0 0 9.6 2.6c9.3 1.7 19 0 28-3a48.8 48.8 0 0 0 20.7-12.9 54.1 54.1 0 0 1-6.5-13c0-.1.1-.2.2 0q2.2 4.2 4.7 8.3l2.4 3.8a3.5 3.5 0 0 1 .3-.3l1.7-2a87.3 87.3 0 0 1-4.4-8 79.3 79.3 0 0 1-5-12.1c-.1-.3.2-.5.3-.2l5.6 11.4c1.3 2.7 2.8 5.3 4.2 7.9 1.6-2.3 3-5 2.5-8-.4-2.6-1.7-4.8-2.8-7-1.3-2.5-2.5-5-3.5-7.6a268.8 268.8 0 0 1-14.5-47.5c-1-5.2-1.3-10.6-2.4-15.9-1-4.5-2.9-8.6-6.1-11.4a19.2 19.2 0 0 0-9.3-4.2c0-.1-18.8-15.7-37.2-2.1-20.9 15.4-10.9 93-8.5 100.5.9 3.2 3.7 8 6.7 11.7-.3-3.4-.3-6.9-.3-10.3 0-7 .6-13.9 1.3-20.8 0-.2.3-.2.3 0Z"/><path fill="#f7a9a0" d="M413.3 209.2a836.1 836.1 0 0 0-27-84.6c-6.6-18-15.1-39.9-18.1-47.6-4-10.3-49.6 19-46.1 25.7 2.2 4.3 9.7 18.5 23.2 41.4 15.5 26.2 28.6 48 47.7 74.4 14.5 19.9 25.3 9.7 20.3-9.3Z"/><path fill="#f7a9a0" d="M336 116.5c-10.2-3.4-41.8-23.3-47.1-28.6S269.3 66.2 273 61.7s8.2 0 8.2 0-5.5-8.5-.8-12c3.7-2.9 10.4 3 10.4 3s-5.5-9.6-.4-12.5c4.6-2.6 10.3 5.6 10.3 5.6s-3.9-8.5 1-10.2c6-2 12.7 12.7 19 18.2 1.4 1.2 41.1 22.5 41.1 22.5Z"/><path fill="#263238" d="M300.8 45.3c6.1 10.6 9 14.8 18.7 21.3.2.1 0 .4-.1.3-10.2-5.5-14-10.2-19.1-21.4-.3-.5.2-.7.5-.2ZM291 52.7a62.4 62.4 0 0 0 20.2 22.4c.1.2 0 .4-.2.3-10.2-6.6-15.8-11-20.5-22.6-.2-.5.1-.6.4 0ZM281.7 62c6.6 10.2 11.1 15 21.5 21.2a.2.2 0 0 1-.2.4 40.1 40.1 0 0 1-21.6-21.3c-.3-.7-.2-.9.3-.2Z"/><path fill="#f7a9a0" d="M369.4 79.8s-5-16.1-20.8-21.4c-6.4-2-16.1-20.2-21.8-19.6-6.5.8-1 17.4 7.3 26 0 0-9.6 17.2-2 26 1.6 1.8 13.2 7.4 16 6.7Z"/><path fill="#263238" d="M334.6 66c-4 6.5-6.5 16.4-3 23.2a.2.2 0 0 1-.4.2c-4.6-6.9-1.8-18.2 2.1-23.9.8-1 2.4-1.2 1.3.5Z"/><path fill="#000102" d="M393 218.5 381 201.2l6.6-73.4c12 32.8 18.6 53.5 25.8 81.4 5 19-5.8 29.2-20.2 9.3Z" opacity=".1"/><path fill="#455a64" d="m450 305.3-.1.6-.2.8-.6 3.2-.4 2.1a693 693 0 0 0-1 5.3l-.7 3-.1.7-.8 4-.3 1.3-.7 3.4-.6 3.3-.1.6-.2.8-.6 3-.8 4.2-.4 2-1.3 6.5-.7 3.4-.7 3.5-.3 1.8-1.9 9.1-1.1 5.7-.3 1.6-.9 4.3-3.6 18c0 .7-.2 1.4-.4 2.1l-4 19.9-.5 3a227 227 0 0 0-1 5.2l-.6 3.2-6.2 30.8-.6 3.3-1 4.6-.7 3.6-.7 3.5h-83.1c15.4-67.9 39.8-166.6 41-171.2a1.7 1.7 0 0 0 0-.2Z"/><path fill="#263238" d="M437.8 315.7C429.3 364 418 411.2 409 459.2l-.5 2.9-2.5 13.3-.3 1.4h-2.1l1.5-7.8.2-.9 2.6-14.2 11-57.8c5.2-27.1 12.6-53.6 18-80.7.2-.6 1.1-.3 1 .3Z"/><path fill="#263238" d="M450 305.3a5.8 5.8 0 0 1-.1.6l-.2.8-.6 3.2a267.1 267.1 0 0 0-1.5 7.3l-.6 3.2-.1.6-.8 4-.3 1.3-.7 3.4-.6 3.3-.1.6-.2.8-.6 2.9-.8 4.3-.4 2-1.3 6.4-.7 3.5-.7 3.5c0 .6-.2 1.1-.3 1.7l-1.9 9.2-1.1 5.7-.3 1.5-.9 4.4-3.6 18c0 .7-.2 1.4-.4 2.1l-4 19.9-.5 3a227 227 0 0 0-1 5.2l-.6 3.2-6.2 30.8-.6 3.3-1 4.6-.7 3.6-.7 3.5H406l-.2-1.3-.8-6.4-11.8-87.1-.1-1.5-.1-.5-1.3-9.6-1-6.7-4.4-33.2-1.1-8.4-2.3-16.6H450Z"/><path fill="#455a64" d="m392 380 .1.1s-.2-.1 0-.1Z"/><path fill="#455a64" d="M496 476.8h-86.6l-1-14.7-.5-8.2c-2.4-34.3-4-64-4.2-67.5v-.4l-1.8-1-1-.5-7.8-4.1a5.3 5.3 0 0 0-1-.4l-.2-.5c-11-28-17.5-70.5-18-74v-.3h101c25.2 48.2 11.7 80 11.7 80 3.1 26.8 6.4 61 9.3 91.6Z"/><path fill="#263238" d="M388.3 378.2a165.8 165.8 0 0 1 26.3 12.2.3.3 0 0 1-.3.6c-8.8-3.9-17.9-7.5-26.5-11.8a.6.6 0 0 1 .5-1ZM385.5 317.4c0-.3.5-.4.5 0a294.8 294.8 0 0 0 1.5 29.6c.4 4.5 4 29.8 12 28 1.3-.4 2-1.7 2.2-3.7.3-2.4-.6-5.3-1-7.7-.9-5.3-1.6-10.6-2-16a144.4 144.4 0 0 1 .3-29.8.3.3 0 0 1 .5 0c0 13.8.4 27.5 2.4 41.2 1 6.6 4.3 16.4-2.5 17.4s-11.5-15.5-12.4-20a148.5 148.5 0 0 1-1.5-39Z"/><path fill="#263238" d="M399.3 375.6a42.9 42.9 0 0 1 1.8 5.2 11.8 11.8 0 0 1 .7 4.3.3.3 0 0 1-.5 0 15.2 15.2 0 0 1-1.9-4l-1.8-5a.9.9 0 0 1 1.7-.6ZM486 476.8h-1.4c-.5-5-1-10-1.7-15l-4.3-38.2-2-19.3c-.8-6.1-1.6-12.3-1.4-18.5s1.7-12 2.7-18.2a84.5 84.5 0 0 0 1-16.8 87.9 87.9 0 0 0-7.9-32.7c-1.1-2.5-1.8-5.1-3.2-7.5-.4-.7 0-1.1.5-.5a84.8 84.8 0 0 1 11 30.7 93.8 93.8 0 0 1-1 32.7 73 73 0 0 0-1.5 19.3c.5 6.5 1.4 13.1 2.1 19.7l4.3 38.5 2.8 25.8Z"/><path fill="#263238" d="M438.4 314.4A165 165 0 0 0 444 327c1.7 3.7 3.6 7.5 6.7 10.2a25.3 25.3 0 0 0 10.2 5.2 57.7 57.7 0 0 0 6.6 1.5 46 46 0 0 1 6.8 1.2.5.5 0 0 1 0 .9 29.7 29.7 0 0 1-7.3.2 42.3 42.3 0 0 1-6.9-1 24.9 24.9 0 0 1-11.2-5.7c-3.3-3-5.2-7-6.8-11.2a73.6 73.6 0 0 1-4.1-13.7.3.3 0 0 1 .5-.2Z"/><path fill="#f4e3d7" d="M479 309.8H372l8.2-32.6s-8.1-11.8-2.8-25.2a156 156 0 0 1 27-36.8c21.2-21.3 37-9.4 41.7-3 18.2 24.5 32.9 97.6 32.9 97.6Z"/><path fill="#fff" d="M373.3 304.7H478l.2.9h-105Zm2.2-8.7H476l-.2-.9h-100Zm2.4-9.6h95.8l-.3-.9h-95.3Zm1.6-10.4.5.9h91.2l-.2-.9Zm-3.5-9.6.2.9h92.3l-.2-.9Zm-.1-8.7h89.8l-.3-.9H376l-.1.8Zm3.4-9.6h83.3l-.3-.9h-82.5l-.5.8Zm6-9.6H459l-.3-.9H386l-.6.8Zm7.1-9.6h62.8l-.3-.9H393a7 7 0 0 0-.6.8Zm8-9.6h50c0-.3-.2-.6-.4-.9h-48.7l-.8.8Zm10.2-9.6h33.2l-1-.9h-31l-1.1.9Z"/><path fill="#263238" d="M413.3 276.5a98.3 98.3 0 0 0-14.5-1 108.9 108.9 0 0 0-10.8.8 15.8 15.8 0 0 1-3.8-.1v.1a26 26 0 0 0 3.5.8 25 25 0 0 0 3.5 0l7.3-.2c5-.1 9.9-.2 14.8 0a.2.2 0 0 0 0-.4ZM424 283.3a105.8 105.8 0 0 0-11.6-3.2l-5.9-1-2.9-.3-3.1-.2c-.1 0-.2.1 0 .1l3 .7 2.8.6 6 1.2 11.7 2.4c.2.1.2-.2 0-.3Z"/><path fill="#f7a9a0" d="M435.2 210.3c-.5 2-10.7 9.2-20 8.7-3-.2-2.3-10.7-2.3-10.7l-.2-1.2-3.8-17 20-12.7 3-1.7 1.5 10.6v.9l.2 1 .4 2.6.3 2.1.2 2.1c.8 7.1 1 14.5.7 15.3Z"/><path fill="#263238" d="M433.4 186.3a35 35 0 0 1-20.7 20.8l-3.8-17 20-12.7 3-1.7 1.5 10.6Z"/><path fill="#f7a9a0" d="M387.7 158c-10.2 28.9 6 38.2 12.1 40.4 5.7 2 25.2 8 38.3-19.6s3-41.5-9.8-46.7-30.4-3-40.6 25.9Z"/><path fill="#263238" d="m396.9 157.3 2.1.1a3.5 3.5 0 0 0 2.2-.2 1 1 0 0 0 .3-1.3 2.7 2.7 0 0 0-2.4-1.3 4 4 0 0 0-2.7.7 1.2 1.2 0 0 0 .5 2ZM417.6 162.8a19.5 19.5 0 0 1-1.9-1 3.4 3.4 0 0 1-1.7-1.4 1 1 0 0 1 .4-1.2 2.7 2.7 0 0 1 2.7 0 4 4 0 0 1 2 2 1.2 1.2 0 0 1-1.5 1.6ZM405.8 183.5c-.6.4-1.2 1-2 .8a5.5 5.5 0 0 1-2-1l-.2.1a2.8 2.8 0 0 0 2.4 1.7 2.2 2.2 0 0 0 2-1.5s0-.2-.2 0ZM399.4 174s-1.2 2.9-1.6 4.3l.8.5a7 7 0 0 0 7.2-.8.1.1 0 0 0-.1-.2 10.5 10.5 0 0 1-6.6 0c0-.3 2.2-4.8 2-4.9a12.6 12.6 0 0 0-3.4-.1c2.4-6.1 5.7-11.8 8-17.9 0-.2-.2-.4-.3-.2-4 5.7-6.9 12.7-9.5 18.9-.3.7 2.9.4 3.5.4Z"/><path fill="#263238" d="M398.9 178.2a8.4 8.4 0 0 0 2.3 3.6 3.8 3.8 0 0 0 2.2.9c1.7 0 2.2-1.4 2.3-2.7a9.3 9.3 0 0 0 0-2.1 11 11 0 0 1-6.8.3Z"/><path fill="#ff9abb" d="M401.2 181.8a3.8 3.8 0 0 0 2.1.9c1.8 0 2.3-1.4 2.4-2.7-1.7-.4-3.8.2-4.5 1.8Z"/><path fill="#263238" d="M395.8 162.3a2 2 0 0 1-.6.4 1.4 1.4 0 0 1-1.1 0c-1.1-.6-1.2-2-.8-3.1 0-.1.1-.2.1 0 .3.7.6 1.5 1.3 1.7a2.4 2.4 0 0 0 1.4-.4 7 7 0 0 0-.3 1.4Z"/><path fill="#263238" d="M395.4 161.8a3.1 3.1 0 0 1 1.1-1.2 2.3 2.3 0 0 1 1.8-.2 2 2 0 0 1 1.3 1.3 3.5 3.5 0 0 1 0 1.7 6.1 6.1 0 0 1-.2 1 4.4 4.4 0 0 1-1 1.7 7.3 7.3 0 0 0 .4-1.4 10.4 10.4 0 0 0 .1-1.4c0-.9-.2-1.7-.9-2a1.8 1.8 0 0 0-2 1 14.7 14.7 0 0 0-1.4 2.5 6.5 6.5 0 0 1 .8-3ZM414.9 169a1.9 1.9 0 0 0 .3.6 1.3 1.3 0 0 0 1 .6c1.2.1 2-1 2.4-2.2 0 0 0-.1 0 0-.7.4-1.5 1-2 .6-.5-.1-.8-.6-1-1a7 7 0 0 1-.7 1.3Z"/><path fill="#263238" d="M415.6 168.7a3.2 3.2 0 0 0-.3-1.6 2.2 2.2 0 0 0-1.3-1.2 2 2 0 0 0-1.8.4 3.6 3.6 0 0 0-1 1.3 6.6 6.6 0 0 0-.4 1 4.4 4.4 0 0 0-.1 2 6.5 6.5 0 0 1 .5-1.5 9 9 0 0 1 .6-1.2c.5-.7 1.2-1.3 1.9-1s1 .9 1.1 1.8a15 15 0 0 1-.2 2.8 6.5 6.5 0 0 0 1-2.8ZM435.4 178.3c-7.2-2.2-3.4-25.1-2.9-28-.4 1.8-2.6 11-3.4 11.3a7.2 7.2 0 0 1-2.2-1 24.2 24.2 0 0 0 .7-3.4c0-.5-.5 1-1.3 3l-1.3-.7a27.4 27.4 0 0 0 1.2-7.2c0-1-1.3 3-3 6.1a85.6 85.6 0 0 0-23-9.7c.7-2.7 1.8-5.5 1.5-5a27.5 27.5 0 0 0-2.5 4.8l-2.1-.4c.8-3.9 4.2-9.5 3.4-8.7a28 28 0 0 0-6.2 8.4c-2.8-.2-3.6.2-3.5-.5.2-1.3 4.5-11.6 15-17.3 11.3-6.1 30-3.5 36.8 12.4 0 0 7 7.7 6 17s-9 20.2-13.2 18.9Z"/><path fill="#f7a9a0" d="M432.8 176.6s8.8-7.5 12.4-4.2-4.7 15.6-10.1 16.1a5.2 5.2 0 0 1-6-4.4Z"/><path fill="#263238" d="M442.7 175.9v.1c-3.8.5-6.4 3.2-8.5 6.2 1.3-1 2.9-1.3 4.3.4l-.2.1a3.2 3.2 0 0 0-3.6.2 15.6 15.6 0 0 0-2.4 2.3c-.2.3-.7 0-.5-.3v-.1c1-4.4 6.1-9.7 11-9Z"/><path fill="#f7a9a0" d="M439.3 208.8c-12.7 4.4-1 65.2 14.7 67.4s12.9-33.4 9.8-44.6-17.3-25.3-24.5-22.8Z"/><path fill="#f7a9a0" d="M439.1 228c10.2 16.5 39 55.5 56.3 63.6 14.8 7 43.6 13 59.4 15.7 7.2 1.2 11.7-51.4 2.9-51.8-12.3-.6-48.1-7.4-49.5-7.7-3.4-.8-24.8-17.6-51.3-34.1-21.4-13.3-26 .9-17.8 14.2Z"/><path fill="#f7a9a0" d="M554.8 307.3c5.6 1.5 35.4 8.2 43 7.8s29.1-3 29.4-8.9-6-5.5-6-5.5 8.9-2.6 8.6-8.4-10.2-5.2-10.2-5.2 9-3.3 8.4-9.1-10.5-3.4-10.5-3.4 8.3-2.7 5.7-7.2c-3-5.5-18 1.1-26.3 1-1.9 0-38.4-3.6-38.4-3.6Z"/><path fill="#263238" d="M618.3 274.4a42 42 0 0 1-28.3 3.4c-.2 0-.3.3 0 .4 11.2 2.7 18.3 3.4 28.5-3.3.5-.3.3-.7-.3-.5ZM620.5 286.8c-11.8 4-18 4.3-30.3 3.4-.2 0-.2.3 0 .4 12 1.8 19.1 2.4 30.4-3.2.5-.3.4-.8-.1-.6ZM620.5 300.6a56.6 56.6 0 0 1-30.3 1.4.2.2 0 0 0-.1.4 40.2 40.2 0 0 0 30.4-1.4c.7-.3.7-.6 0-.4Z"/><path fill="#f7a9a0" d="M553 257.1s13.7-6 20.4-7.3 33 2.8 32.5 8.5c-.7 7.5-16.5 8.1-24.3 7.4 0 0-1.7 17.3-12.9 20.2S553 257 553 257Z"/><path fill="#263238" d="M605 260.3c-5.6 6.3-15.7 4.8-23.3 4.6a.7.7 0 0 0-.7 1c-1.2 7.1-5 17-11.9 20.2a.2.2 0 0 0 .2.3c7.9-2.5 12.4-11.8 13.2-19.8 7.7.3 18 1.4 22.6-6.2 0 0 0-.1-.1 0ZM443.7 235.5c7.5 9 14.7 18.8 21.5 28.2a220.7 220.7 0 0 1-21.5-28.2Z"/><path fill="#263238" d="M444.2 240c2.3 1.7 5.2 4.5 7.3 6.3a13.2 13.2 0 0 1-7.3-6.2Z"/><path fill="#37474f" d="m641.7 422.4-1 54.4h-87c2.6-69.5 6.7-151.1 6.7-151.1l67 .6h2.1a219.6 219.6 0 0 1 15 54c1.2 8.1 0 31.4-2.8 42Z"/><path fill="#263238" d="M568 347.7c-1 23-1.8 45.9-2.4 68.9v.5l-.3 14.5q-.5 18.7-.7 37.4v7.7h-2v-2.9c.7-42 2.2-84.2 4.8-126.1.1-.3.6-.4.6 0Z"/><path fill="#37474f" d="M627.4 326.3s-1.3 46.8-23 80.4l-9.5 4.5-6.3 3.3-.3.6v.3c-2.2 5-12.5 29.6-23.7 57l-1.8 4.3h-96.5c7.9-22.2 17.3-47 27-72.4 10-26.5 23.5-52.5 30.5-79l36.6.3Z"/><path fill="#263238" d="M564.8 416.6a85.3 85.3 0 0 0 14.3-1.2 138.2 138.2 0 0 0 13.8-3.7c4.4-1.2 9.1-1.4 13.6-2a47.5 47.5 0 0 0 13.3-3.9c.2 0 .4.2.2.3a82.5 82.5 0 0 1-12.8 5.4c-4.6 1.4-9.3 1.6-14 2.7s-9.4 2.6-14.3 3a51.5 51.5 0 0 1-14.2-.3c-.2 0 0-.3 0-.3Z"/><path fill="#263238" d="M588.6 414c0 .4-.2.7-.3 1v.1a1.4 1.4 0 0 1 0 .3c-1.7 5.4-3.8 10.6-5.8 15.9-2.1 5.7-4.4 11.3-6.6 17-3.8 9.4-7.4 18.7-11.4 28l-.1.4h-2.9l1.2-3 2-4.7c.2-.8.5-1.6 1-2.4 4.6-11.2 9-22.5 14-33.7 2.6-5.8 5-11.6 7.8-17.3l.9-1.6c0-.2.3-.1.2 0ZM537.2 331.8c-.8 8.4-2.3 17.4-5.2 25.3l-8.8 24.4-17.6 48.8-16.8 46.5H487c11.7-32.2 24-64.6 35.4-95.6l9.2-24.2c3.1-8 4.3-16.7 5.3-25.3 0-.3.3-.1.3 0Z"/><path fill="#d3766a" d="M550.2 215.3c5.2.5 16.6-8.6 21.4-16.5.3-.5-.3-6.4-.8-13.6-.2-4.4-.4-9.3-.2-13.7l-28.2 5.7s2.4 9.5 2 17.2a11.2 11.2 0 0 1-.2 1.9 1.9 1.9 0 0 0 0 .3c-.8 3.4-2.1 17.8 6 18.7Z"/><path fill="#263238" d="M544.1 196.6a16.6 16.6 0 0 0 3 .2c15.4.2 20.4-18.4 21.7-25l-26.4 5.4s2.4 9.4 2 17.2a9.3 9.3 0 0 1-.2 1.8v.4Z"/><path fill="#d3766a" d="M572.5 133.8c3.8 9.6 1 38.5-5.5 45.5-9.4 10-26 12.4-34.9.8-8.6-11.2-4.2-49 3.1-55.4 10.9-9.5 31.6-5.2 37.3 9Z"/><path fill="#d3766a" d="M573.3 160.4c-1.2 8.2-3.4 15.8-6.3 18.9-9.4 10-26 12.4-34.9.8-6-7.9-5.7-28.7-2.4-42.7 1.4-6 3.3-10.7 5.5-12.7 10.9-9.4 31.6-5.1 37.3 9 2.1 5.4 2.2 16.5.8 26.7Z"/><path fill="#263238" d="m549.6 152.8.1.1c-.3 2-.3 4.3 1.4 5.1v.1c-2.2-.5-2.1-3.5-1.5-5.3Z"/><path fill="#263238" d="M551.6 151c3.2.1 2.6 6.5-.3 6.3s-2.4-6.5.3-6.3ZM538.3 151.3l-.2.2c-.1 2-.6 4.2-2.4 4.7 2.2 0 2.8-3 2.6-4.9Z"/><path fill="#263238" d="M536.7 149.1c-3.1-.5-4 5.8-1 6.3s3.6-5.8 1-6.3ZM554.3 148.4a25.2 25.2 0 0 1-2.4-1 4.2 4.2 0 0 1-2.2-1.6 1.3 1.3 0 0 1 .3-1.6 3.3 3.3 0 0 1 3.4 0 4.8 4.8 0 0 1 2.6 2.3 1.4 1.4 0 0 1-1.8 2ZM534.7 146.2a24.9 24.9 0 0 0 2.5-.5 4.2 4.2 0 0 0 2.5-1 1.3 1.3 0 0 0 .1-1.6 3.4 3.4 0 0 0-3.2-.9 4.9 4.9 0 0 0-3.2 1.6 1.4 1.4 0 0 0 1.3 2.3ZM549.5 170.7c-.5.4-1 1-1.7 1a5 5 0 0 1-2-.7c-.1 0-.2 0-.1.1a2.6 2.6 0 0 0 2.3 1.3 2 2 0 0 0 1.7-1.6c0-.1 0-.2-.2-.1Z"/><path fill="#263238" d="M548 164.7a6.7 6.7 0 0 1-4.7 2.6 8.4 8.4 0 0 1-2.4-.1 3 3 0 0 1-.4-.1l-.5-.1a.5.5 0 0 1-.3-.5 1.4 1.4 0 0 1 0-.2v-.1c0-1.6.4-3.8.4-3.8-.6.2-3.5 1.2-3.4.4 1-6.4 2-13.6 4.3-19.9a.2.2 0 0 1 .3.1c-.6 6.3-2.4 12.4-3.1 18.6a12 12 0 0 1 3.2-.7c.2.1-.7 4.4-.7 5.1 2.5.6 4.4 0 7-1.5.3-.1.4 0 .3.2Z"/><path fill="#263238" d="M541.9 166.5a8 8 0 0 0 2.9 2.7 3.6 3.6 0 0 0 2.2.3c1.5-.3 1.7-1.7 1.5-3a8 8 0 0 0-.5-2 10.2 10.2 0 0 1-6.1 2Z"/><path fill="#ff9abb" d="M544.8 169.2a3.6 3.6 0 0 0 2.1.3c1.6-.3 1.8-1.7 1.6-3-1.7 0-3.4 1-3.7 2.7Z"/><path fill="#263238" d="M573.4 159.6c-2.1-2.3-5.1-8.8-6.5-11.7-1.6-3.2-.8-17.1-.4-22.3a20.8 20.8 0 0 1 6 8.2c2 5.1 2.2 15.9.9 25.8Z" opacity=".2"/><path fill="#263238" d="M539.9 133.3a10.1 10.1 0 0 0 8.8 4.3 10.3 10.3 0 0 0 8.5-5.3c0-.1.2 0 .2 0a10.2 10.2 0 0 1-8.6 6.1 10.4 10.4 0 0 1-9.1-5c-.1-.1 0-.3.1-.1ZM552.8 109.5c5.9.7 10.9 4.5 12.6 8.7a11.3 11.3 0 0 1 .4 7.4h-.3a12.5 12.5 0 0 0-4.7-11.8 16 16 0 0 0-14-3.1 10.2 10.2 0 0 0-5.8 3.8c-.2.2-.6 0-.5-.2 2-3.5 7-5.5 12.3-4.8ZM517.6 118.6a13 13 0 0 1 6.2-6.3c3.8-1.9 7.8-1.1 11.8-.3.1 0 0 .2 0 .2-3.4-.7-6.9-1.2-10.2 0a12.7 12.7 0 0 0-6.4 5.6 12.4 12.4 0 0 0 3.5 15.9 12.6 12.6 0 0 0 9.8 2c.1 0 .2.1 0 .2a12.7 12.7 0 0 1-14.6-17.3Z"/><path fill="#263238" d="M573.9 140.4s6.6-9.9 2.5-16.4c-2.3-3.7-11-4-11-4s-2.3-5.4-9.4-7.7-16.2 1-16.2 1-6.5-4.7-13.4-1.6c-9.5 4.3-9.7 18.2-1 23.5 6 3.7 15.3-1 15.3-1 .8.1 8.8 6.1 16-.9 0 0 4.8 5.2 9.9 2.4a7.6 7.6 0 0 0 7.3 4.7Z"/><path fill="#d3766a" d="M566.8 157.3s5.8-9.6 10.2-7.6.3 15.7-4.5 17.9a5 5 0 0 1-6.9-2.3Z"/><path fill="#263238" d="M575.7 153.6v.1c-3.3 1.7-5 5-6 8.4 1-1.4 2.3-2.2 4.1-1 .1 0 0 .2 0 .2a3 3 0 0 0-3.4 1.2 14.3 14.3 0 0 0-1.4 2.9c-.2.3-.7.2-.7-.2-.3-4.5 2.7-10.8 7.4-11.6Z"/><path fill="#f4e3d7" d="m642 351.3-131.6 3.4c-.3-.3-3-15.9-2.3-22.9 3.4-30.1 19.7-106 33.7-129.2 4.3-7.2 23.5-14 32.1-8.8 24.2 14.3 60 99.6 70 133 2.4 8.3-1.6 24.2-1.8 24.5Z"/><path fill="#f4e3d7" d="m510.4 354.7 131.7-3.4s3 9.2 1.7 10.8-135 4.2-137 3.3 3.6-10.7 3.6-10.7Z"/><path fill="#000102" d="m510.4 354.7 131.7-3.4s3 9.2 1.7 10.8-135 4.2-137 3.3 3.6-10.7 3.6-10.7Z" opacity=".2"/><path fill="#d3766a" d="M551.6 218.8c-5 45.1-23.9 99.5-39.3 102.4-17.2 3.2-10.9-58.5-8.7-60 1.6-1.2 15.2-22.2 31-50.3s18.3-3.3 17 7.9Z"/><path fill="#f4e3d7" d="M503.4 261c2.5-3.8 22.7-37.5 32.3-53s18.2-13.5 16.9 10-9.1 65.5-25.4 89.9c-15.6 23.4-25.8 15-27.7-7-1.5-18.2 3.9-39.9 3.9-39.9Z"/><path fill="#000102" d="M503.4 261c2.5-3.8 22.7-37.5 32.3-53s18.2-13.5 16.9 10-9.1 65.5-25.4 89.9c-15.6 23.4-25.8 15-27.7-7-1.5-18.2 3.9-39.9 3.9-39.9Z" opacity=".2"/><path fill="#d3766a" d="M512.3 321.7c-12.9-2-23.2-17-54.6-57.9-4.3-5.6 27.4-48.8 32.3-43 6.3 7.3 28.9 37 30.3 39.4 11.6 20 .7 62.8-8 61.5Z"/><path fill="#d3766a" d="M488.6 218.6c-9-11.8-13.2-13.5-15.4-27.6-1.5-9.2-8-12.2-11.1-3-5 15.1 3.3 32.9 8 38.2Z"/><path fill="#000102" d="M488.6 218.6c-9-11.8-13.2-13.5-15.4-27.6-1.5-9.2-8-12.2-11.1-3-5 15.1 3.3 32.9 8 38.2Z" opacity=".1"/><path fill="#d3766a" d="M506.3 256.4s-5.2-18.2-13.6-31.9a57.9 57.9 0 0 0-53.5-27.9c-7.8.2-18.8 5.9-6 10.3 9.1 3.1 15.9 2.4 20.8 5.2 0 0-13.1 9-12.7 16.7a144.2 144.2 0 0 0 2.6 20.4 31.1 31.1 0 0 0 3.8-.2s1.1 7.3 9.8 14.4Z"/><path fill="#d3766a" d="M485.8 216.4a86.6 86.6 0 0 0-27.9-4.6c-11.8.5-34.3 4.8-33.8 13.5.4 6.4 9.1 5.5 9.1 5.5s-9 3.7-7.3 9.4c1.4 5.2 8.2 4 8.2 4s-5 3.3-2.7 8c2.8 5.7 13-2 20.8 1.3 1.7.8 33.6-37 33.6-37Z"/><path fill="#263238" d="M460.6 224.1a47 47 0 0 0-27.3 6.5c-.2.1-.2.3 0 .2a115.9 115.9 0 0 1 27.3-6.6ZM460.8 236a52.8 52.8 0 0 0-26.8 8.4 124 124 0 0 1 26.8-8.3v-.1Z"/><path fill="#f4e3d7" d="m494.6 224.8-24.4 61.7s29 35 42.3 35.7c8.7.5 21.2-42.7 6.6-64Z"/><path fill="#000102" d="m494.6 224.8-24.4 61.7s29 35 42.3 35.7c8.7.5 21.2-42.7 6.6-64Z" opacity=".2"/><path fill="#263238" d="M525.5 289c.8-5 1.9-18.4-6.3-30.8-.1-.1-.3 0-.2 0a72 72 0 0 1 6.5 30.8ZM483 293.6c3-6.6 5.7-13.4 8.4-20.2s5.4-13.6 7.9-20.4l4.1-11.7a496.5 496.5 0 0 0-8.7 20l-8 20.5c-1.4 3.9-2.8 7.8-4 11.7-.1.2.2.4.3.1Z"/><path fill="#263238" d="M495.1 224.5a63.3 63.3 0 0 1 5.4 6.6 231 231 0 0 1 5 6.9c3.3 4.6 10.8 14 15.4 23.2l-.8-.3c-2-4.5-23.9-32.9-25.3-35.4a4.1 4.1 0 0 1-.4.6c-.1 0-.3 0-.3-.2l.3-1.2a.4.4 0 0 1 .7-.2Z"/><path fill="#263238" d="m471.9 282.3-1.6 4.2c4 4.6 8.7 10 13.3 14.5 6.9 6.9 14 14 22.6 18.6 6.1 3.6 12.3-.4 16.5-5.1C536 298.7 543 271 547.6 251c1.4-6.4 2.6-13 3.7-19.4-.8 6.5-1.8 13-3 19.5-4 20.3-11 48.4-24.6 64.3-3.3 3.6-8 7.2-13.3 6.9-9.7-1.8-20.6-14-27.5-20.8-4.5-4.9-8.7-10-12.9-15v-.1l1.8-4.2Z"/><path fill="#263238" d="M552.5 233.2a11.2 11.2 0 0 1-2.7 6.3l2.7-6.3Z"/><path fill="#f4e3d7" d="M553 192.6c2.6-1.5 19.5-4 31.1-3 9 .9 23 12 25 17.4 2.6 7 6 37.7-16.5 40.2-18.8 2-38.7-49.4-45-49.9-1.6-.1 1.7-2.6 5.4-4.7Z"/><path fill="#000102" d="M553 192.6c2.6-1.5 19.5-4 31.1-3 9 .9 23 12 25 17.4 2.6 7 6 37.7-16.5 40.2-18.8 2-38.7-49.4-45-49.9-1.6-.1 1.7-2.6 5.4-4.7Z" opacity=".2"/><path fill="#455a64" d="M166.4 329.1a.7.7 0 0 1 0 .1c.2 1.3 2.6 15.2 5.8 35.3l.8 5.1a3601 3601 0 0 1 15.8 107.1h83.7c-12.4-67-34-147-34-147h-1l-45-.4Z"/><path fill="#263238" d="M175.4 334.2c4.5 24.9 9 49.7 13.1 74.7q5.6 33.9 10.4 67.9h2.1q-4-29-8.8-58a1814.1 1814.1 0 0 0-16-84.8.4.4 0 0 0-.8.2Z"/><path fill="#455a64" d="M124.8 380.9c.4 27.9 14.7 63.9 29.3 95.9h90.3c-12.8-28-26.9-54.1-32.8-66.4a1.7 1.7 0 0 0-.1-.2 139.2 139.2 0 0 1-2.5-5.6c-.3-.7-.4-1.2-.3-1.3.2 0 .3-.3.5-.7a53.4 53.4 0 0 0 3-6.1l.7-1.9c3.5-8.4 8.6-21.6 13.2-34l2.8-7.4 8.7-23.6v-.1l-45.2-.2-26-.1-28.7-.1s-13.1 33.5-12.9 51.8Z"/><path fill="#263238" d="m208.4 403.6.5 1 .7 1.5a298 298 0 0 1 1.8 4 1.7 1.7 0 0 1 .2.3c4.5 9.8 9 19.7 13.6 29.4l16.7 36.4.2.5h2.9q-7.7-16.6-15.7-33l-9.9-20.2c-3.2-6.4-6.6-12.7-10-19l-.6-1.2a.2.2 0 0 0-.4.3Z"/><path fill="#263238" d="M221 399.3a167 167 0 0 0-27.5 9.5.3.3 0 0 0 .2.5c9.2-2.8 18.5-5.6 27.6-9a.6.6 0 0 0-.4-1ZM229.8 339c0-.2-.6-.4-.6 0a294.9 294.9 0 0 1-4.5 29.3c-.9 4.5-7.1 29.3-14.8 26.6-1.3-.4-1.8-1.8-1.8-3.8 0-2.4 1.2-5.3 1.8-7.6 1.4-5.2 2.7-10.4 3.7-15.6a145 145 0 0 0 2.7-29.8.3.3 0 0 0-.5 0 274.3 274.3 0 0 1-6.6 40.8c-1.7 6.4-6 16 .7 17.6s13.1-14.2 14.4-18.7c3.7-12.3 5.1-25.9 5.5-38.7Z"/><path fill="#263238" d="M210 395.6a41.6 41.6 0 0 0-2.3 5 11.8 11.8 0 0 0-1.1 4.2.3.3 0 0 0 .5.2 15.2 15.2 0 0 0 2.3-4l2.2-4.7a.9.9 0 0 0-1.5-.7ZM130.4 382.6c-.2 12.5 2.6 24.7 6.6 36.4 4.2 12.3 9.5 24.2 14.7 36q4.8 11 9.8 21.7h2c-7.1-15.1-13.8-30.4-20-46-4.8-11.7-9-23.9-10.8-36.5-1.7-13.3-.5-26.9 2.5-39.9a218 218 0 0 1 2.4-9.7c0-.2-.3-.3-.4 0-3.9 12.3-6.6 25-6.8 38Z"/><path fill="#263238" d="M175.7 347.3c0-.2-.3-.1-.4 0-1 7.6-1.6 15.5-5.3 22.4a31.3 31.3 0 0 1-15.6 13.3 117.8 117.8 0 0 1-11.4 4.2c-.3 0-.2.5 0 .4a60.4 60.4 0 0 0 21-7.3 26.2 26.2 0 0 0 11.4-19.1 66.9 66.9 0 0 0 .3-13.9Z"/><path fill="#ebebeb" d="M117.3 368c.3.4 133-9.3 134.1-10.8 1.6-2-44.2-137.5-59.2-154.3-3.2-3.5-13.4-5.5-21-2.2-26.7 11.7-41.6 83.2-44.6 102.6-5 32-10.5 63.6-9.3 64.8Z"/><path fill="#263238" d="M171.2 200.7s28.6 48.6 31.6 63.8 7.3 107.1 7.3 107.1l-102.6 7.8s13.9-55 13.8-58.4c0 0 10-63.1 22.5-90.7 14.2-31.4 27.4-29.6 27.4-29.6ZM193 202.2s21.2 50.9 22.5 55.8L244 368.3l11.8-8-14.3-43.7S204 214.1 193 202.2Z"/><path fill="#263238" d="M172.6 216.7c30.8 19.3 81 66.9 82.2 79.7.8 9.2.7 18.4-3 23-7.7 9.7-23.5 8.4-29 4.8-24.2-15.5-50.2-49.3-66.7-84.5-14.5-30.8 6.4-29.3 16.5-23Z"/><path fill="#37474f" d="M241 275.8a668.2 668.2 0 0 0-45-42l-3.1-2.6a286.7 286.7 0 0 1 25.2 21c8 7.5 16 15 22.9 23.5ZM161 249.5c11.9 23 28 43.6 46.3 61.7 7.3 7 15.5 14.5 26 14.7a31.9 31.9 0 0 0 15-3.3 28.7 28.7 0 0 1-15 4.2c-10.8 0-19.2-8-26.6-15a235.4 235.4 0 0 1-45.7-62.3Z"/><path fill="#37474f" d="M166.6 260a23.3 23.3 0 0 1-6.3-7l6.3 7ZM184.8 225c-6.5-4.5-22-15.8-29.6-10.1-7.2 6.1.7 23.8 4 31-4.2-7.7-9.7-19.4-7.1-28.1 5.6-13.4 26 1.4 32.7 7.3Z"/><path fill="#ffc4c0" d="M233.9 257.8c-16.7-7.8-22.5-6.3-27.4-4.4-10.2 3.9-25.6 14.4-22 21.6 3.3 6.5 25-11.4 25-11.4s-25.2 14.5-19.8 21.7 29.4-15.1 29.4-15.1-25.5 15.5-18.8 22c5 4.8 28-14 28-14s-21.9 13.5-16.9 18.8c5.5 5.8 27.8-10.3 27.8-10.3 4 1 8.8 1.8 10 1.3 2-.7-4.1-25-15.3-30.2Z"/><path fill="#263238" d="M217.9 258c-3 1.6-6.1 3.2-9 5s-5.7 4-8.4 6a57.6 57.6 0 0 0-9.6 9.3c5.5-5.7 15.6-12.6 18.5-14.4s5.6-3.9 8.5-5.8c.1-.1 0-.2 0-.1ZM224.8 268.2c-3.8 2.2-7.6 4.3-11.3 6.7s-6.9 4.9-10.3 7.5c-.3.2-.1.3.2.1 3.5-2.5 7-4.5 10.7-7s7-5 10.8-7.2c0 0 0-.2-.1-.1ZM232.3 275.9a98 98 0 0 0-16.1 11.6c5.4-4 9.6-7 16.2-11.4.1-.1 0-.3 0-.2Z"/><path fill="#ffc4c0" d="M193.4 219.4c-6.2 1.6-21.5-7-26.2-15.7-.4-.6 1.2-21.2 1.2-26 0-1 30 7.5 30 7.5s-3 10-3 18.4a11.2 11.2 0 0 0 .2 2 2.5 2.5 0 0 1 0 .3c.6 3.8 4.4 11.7-2.2 13.5Z"/><path fill="#263238" d="M195.6 205.6v.3a20 20 0 0 1-3.1.2c-17.7-.6-22.2-22.8-23-28.4 5.3.9 29 7.6 29 7.6s-3 10-3.2 18.4a11 11 0 0 0 .3 1.9Z"/><path fill="#ffc4c0" d="M156.8 143.8c-1.6 11 8.7 40.6 17.2 46.2 12.4 8.2 30.3 6.4 36.7-8 6.1-13.9-7.9-52.2-17.2-57-13.7-7.2-34.3 2.5-36.7 18.8Z"/><path fill="#263238" d="M186 158s-.1.1 0 .2c.6 2 1.2 4.4-.4 5.7 0 0 0 .1 0 0 2.2-1 1.5-4.2.4-5.9Z"/><path fill="#263238" d="M183.6 156.5c-3.3.8-1.4 7.3 1.7 6.6s1-7.3-1.8-6.6ZM197.8 154.8l.2.1c.6 2 1.5 4.3 3.6 4.4v.2c-2.3.3-3.6-2.7-3.8-4.7Z"/><path fill="#263238" d="M199 152.2c3.2-1.3 5.4 5.2 2.4 6.3s-5-5.3-2.4-6.3ZM180 154.3a24 24 0 0 0 2.4-1.7c.8-.6 1.6-1 2-2a1.4 1.4 0 0 0-.8-1.7 3.5 3.5 0 0 0-3.5.7 5.2 5.2 0 0 0-2.3 3 1.5 1.5 0 0 0 2.3 1.7ZM200.6 148.1a23.6 23.6 0 0 1-2.8.1 4.5 4.5 0 0 1-2.9-.4 1.4 1.4 0 0 1-.4-1.7 3.5 3.5 0 0 1 3.2-1.7 5.2 5.2 0 0 1 3.6 1 1.5 1.5 0 0 1-.8 2.7ZM189.8 177.3a3.2 3.2 0 0 0 2 .6 5.6 5.6 0 0 0 2-1.1h.1a2.8 2.8 0 0 1-2.2 2 2.2 2.2 0 0 1-2.1-1.4c0-.1 0-.2.2-.1Z"/><path fill="#263238" d="M190 170.6a7.1 7.1 0 0 0 5.6 1.7 8.9 8.9 0 0 0 2.5-.7 3.2 3.2 0 0 0 .5-.1l.4-.2a.5.5 0 0 0 .2-.6.7.7 0 0 0 0-.2l-.1-.2c-.4-1.6-1.3-3.9-1.3-3.9.7.1 4 .6 3.7-.2-2.4-6.6-5.1-14-8.9-20a.2.2 0 0 0-.3.2c2 6.4 5.2 12.4 7.4 18.9a12.4 12.4 0 0 0-3.6 0c-.2 0 1.8 4.4 1.9 5.1a.3.3 0 0 1 0 .1c-2.5 1.1-4.7 1-7.8 0-.2-.2-.3 0-.1 0Z"/><path fill="#263238" d="M210.7 182c-6.4 14.4-24.3 16.2-36.7 8a38.8 38.8 0 0 1-10.3-15.8l4.6-13.1s5 8.6 9.5 10.3c6.2 2.3 17 1.2 19.4-5.5l3.5-1s8.3 3 10.2-3.3a37.3 37.3 0 0 1-.2 20.5Z" opacity=".3"/><path fill="#263238" d="M162.6 169.8c4.7.1 6.2-4.3 6.6-7.3s-5-19.3-3.9-23.9 5-8 8.9-8 9.7 3.6 12.3 2.7 1.7-6.9 3.5-7.4c4-1 11 7.9 12.9 12.1 0 0-4.9-19-24.8-15.7-19.3 3.3-22 18-22.2 24a50.8 50.8 0 0 0 6.7 23.5Z"/><path fill="#455a64" d="M186 171.3a9.5 9.5 0 1 1 6.8-13.4 9.5 9.5 0 0 1-4.6 12.6 9.3 9.3 0 0 1-2.2.8Zm-3.4-17.4a8.2 8.2 0 1 0 9 4.6 8.2 8.2 0 0 0-9-4.6ZM206.7 164.6c-3.6.7-7.5-2.4-9-7a11.4 11.4 0 0 1-.1-7 5.9 5.9 0 0 1 9.6-3 11.3 11.3 0 0 1 4 5.7c1.5 5-.2 10-4 11.1a4.4 4.4 0 0 1-.5.2Zm-4.3-17.1a4 4 0 0 0-.5 0 5 5 0 0 0-3.1 3.5 10 10 0 0 0 0 6.1c1.5 4.3 5 7 8 6.1s4.5-5.3 3-9.6a10 10 0 0 0-3.4-5 5.2 5.2 0 0 0-4-1.1Z"/><path fill="#455a64" d="m192.8 159-1-.6c1-1.6 3.6-4.1 6.5-2.5l-.6 1.1c-2.6-1.5-4.8 2-5 2ZM157 173.4l-1.3-.2c0-.5 1-5.7 3.6-7 2.4-1.2 15.4-4 16.1-4.2l.3 1.2c-4.8 1-14 3.2-15.8 4.2-1.7.8-2.7 4.6-3 6Z"/><path fill="#ffc4c0" d="M168.8 166.7s-8.6-8.6-12.6-5.4 3.6 16.5 9.2 17.5a5.4 5.4 0 0 0 6.6-4Z"/><path fill="#263238" d="M158.5 165c-.1 0-.1.1 0 .1 3.9.9 6.4 4 8.4 7.2-1.3-1.1-3-1.6-4.5 0-.1.1 0 .2 0 .2a3.3 3.3 0 0 1 3.9.5 16 16 0 0 1 2.2 2.6c.2.3.8 0 .6-.3-.8-4.8-5.5-10.7-10.6-10.3Z"/><path fill="#a6a6a6" d="M185 122.7a42.7 42.7 0 0 0-12.3-1.8c-4.7.1-19 3.4-22 6.8s-2 17.2-1.7 19.2 2.9 14 7.7 16.2 2.1-18.3 8-26.1 20.4-14.3 20.4-14.3Z"/><path d="M185 122.7s-14.4 6.5-20.3 14.3-3.2 28.4-8 26.1c-2.1-1-3.3-2.7-4.6-5.8a50 50 0 0 1 5-23c3.8-6.8 11.4-11 19.9-13.3a49.8 49.8 0 0 1 8 1.7Z" opacity=".1"/><path fill="#a6a6a6" d="M159.7 175.1c-.4-5.5 3-21 7.5-30.2s21-16.7 23.4-17c5.8-.5 7.5 2 8.3 1.4s-6-6.4-7.7-7a19 19 0 0 0-8.3-.9c-2.6.4-17.9 4.3-22.6 11.8s-9.8 27.3-7.7 31.9c.6 1 2.2 1.6 3 3.1 1 2 1.7 4.5 2.6 5.9.7 1 1.5 1.5 1.5 1Z"/><path fill="#263238" d="M168 141a28.3 28.3 0 0 1-4.2-2.3 20.3 20.3 0 0 1-3.7-3l-.2.1a15.5 15.5 0 0 0 3.5 3.5 13 13 0 0 0 4.5 1.9c.2 0 .2-.2.1-.3ZM158.8 169.7a12.5 12.5 0 0 0-.8-1 7.5 7.5 0 0 1-.7-1.3 12.3 12.3 0 0 0-1-2.6 9.5 9.5 0 0 0-1.5-1.6 3.7 3.7 0 0 1-1.4-2c0-.2-.2-.2-.2 0 .2 1.6 1.5 2.6 2.5 4a18.4 18.4 0 0 1 1.1 2.7 4.3 4.3 0 0 0 1.8 2c.1 0 .3-.1.2-.3ZM159.8 163.5a23 23 0 0 1-1.8-1.7 16.6 16.6 0 0 1-1.5-1.8l-1.2-2-1.7-2.3c0-.1-.2 0-.1.1l1.3 2.6a20.7 20.7 0 0 0 1.4 2 12.7 12.7 0 0 0 1.6 1.8 6 6 0 0 0 2 1.3ZM161 157.8a15.7 15.7 0 0 1-3.5-2.9c-1-1-1.9-2.3-2.8-3.4 0-.1-.2 0-.1 0a18.5 18.5 0 0 0 2.5 4 9.9 9.9 0 0 0 1.6 1.4 10.4 10.4 0 0 0 2.2 1.1c.1 0 .2-.1.1-.2ZM162.4 152.4a5.2 5.2 0 0 1-1.7-1.2l-1.6-1.7-1.6-1.6a5.2 5.2 0 0 1-1.2-1.9h-.2a5.5 5.5 0 0 0 1 2 14.6 14.6 0 0 0 1.5 2 22 22 0 0 0 1.8 1.7 3.7 3.7 0 0 0 2 1 .1.1 0 0 0 0-.3ZM163 145.7a24 24 0 0 1-3.3-2.8l-1.6-1.5h-.1a12.6 12.6 0 0 0 2.9 3.5 16.2 16.2 0 0 0 1.7 1.3 5.5 5.5 0 0 0 2 1 .1.1 0 0 0 .1-.2 10.6 10.6 0 0 0-1.7-1.3ZM171.7 137.2a24.2 24.2 0 0 0-2-1.7 21.7 21.7 0 0 0-2.2-1.5 23.8 23.8 0 0 0-4.7-2.2s-.2.1 0 .2l8.7 5.3.2-.1ZM174.3 132a11.5 11.5 0 0 0-2.1-1.5 24.8 24.8 0 0 0-5.1-1.9v.2l4.6 2.2a23 23 0 0 1 2.2 1.3l2 1.7v-.1a6.5 6.5 0 0 0-1.6-1.9ZM178.5 129.2a12.5 12.5 0 0 0-2-1.5 14 14 0 0 0-4.3-1.7v.1a27.5 27.5 0 0 1 4 2.2l2 1.3 2 1.4a12.4 12.4 0 0 0-1.7-1.8ZM181.4 126l-2-1a6.8 6.8 0 0 0-2-.8c-.2 0-.2 0 0 .1l3.6 2.2a19.2 19.2 0 0 1 3 2.7l.1-.1a7 7 0 0 0-2.7-3.1ZM185.3 124.5a11.4 11.4 0 0 0-4-1.7s-.1.1 0 .1a14.2 14.2 0 0 1 3.7 2 19.4 19.4 0 0 1 3 2.9s.2 0 .2 0a9.5 9.5 0 0 0-2.9-3.3ZM191 126.1a6.2 6.2 0 0 0-.5-.7 8.5 8.5 0 0 0-1.5-1.3 19 19 0 0 0-3.4-2c-.1 0-.2.2 0 .2a15.6 15.6 0 0 1 3.2 2 12 12 0 0 1 1.4 1.3l.6.7a4.8 4.8 0 0 0 .5.7h.2a2.5 2.5 0 0 0-.4-.9ZM194.4 126a13.5 13.5 0 0 0-1.2-1.1 13.2 13.2 0 0 0-1.3-1l-1.4-.8v.1a9 9 0 0 1 1.3 1l1.2 1 1.2 1a14.5 14.5 0 0 0 1.2 1 7 7 0 0 0-1-1.3ZM166.2 203.8l-.8-8.1s14 10.7 15.3 12.6 5.6 24 5.6 24-16.6-19.5-20.1-28.5ZM64.5 476.8c199-.7 422-.7 621 0-199 .6-422 .6-621 0Z"/><g fill="#263238"><path d="M663.7 461.2H567v-3.9h92.9V365h3.8v96.2zM663.7 135h-3.8V42.7H567v-3.9h96.7V135zM90.1 135h-3.8V38.8h96.6v3.9H90.1V135zM182.9 461.2H86.3V365h3.8v92.3h92.8v3.9zM484.5 344.4h-43.8v-3.8h40v-39.8h3.8v43.6zM484.5 199.2h-3.8v-39.8h-40v-3.8h43.8v43.6zM269.3 199.2h-3.8v-43.6h43.8v3.8h-40v39.8zM309.3 344.4h-43.8v-43.6h3.8v39.8h40v3.8z"/><path d="M640.7 77.3h-42.1V58.2h42.1ZM600 75.9h39.3V59.6H600Z"/><path d="M601.8 61.2h27.6v13.1h-27.6zM642 62.4h3.8V73H642zM115 58.9a6 6 0 1 1-6-5.9 6 6 0 0 1 6 5.9Z"/></g></svg>