<svg xmlns="http://www.w3.org/2000/svg" viewBox="0 0 750 500"><path fill="#ebebeb" d="m82.7 73.6 13.1-.3h6.7l6.7-.1h.4v12.1H95.9L82.6 85h-.2v-.3l.1-5.7Zm0 0 .1 5.7.2 5.5-.3-.3 13.2-.1 13.3-.1-.5.5V73.6l.5.5h-6.6l-6.6-.2ZM517 114l13-.3h6.7c2.2-.1 4.5 0 6.7-.2h.4v12.2h-13.7l-13.2-.2h-.3v-.3l.1-5.7Zm0 0v5.7l.2 5.5-.3-.3 13.3-.1 13.2-.1-.5.5.1-11.2.5.4h-13.2ZM53.1 73.6l13.2-.3h6.6l6.7-.1h.5v12.1H66.4L53 85H53v-6Zm0 0 .2 5.7.1 5.5-.3-.3 13.3-.1 13.2-.1-.5.5V73.6l.5.5H73l-6.6-.2ZM567.2 258.7l-13.1.3h-6.7l-6.7.1h-.4V247H554l13.2.2h.3v.3l-.1 5.7Zm0 0-.1-5.7-.2-5.5.3.3-13.2.1-13.3.1.5-.5v11.2l-.5-.4h6.5l6.6.1ZM682.4 305.2v.2l-.2 5.7-.1 5.5-13.1.3-6.7.1H655.2V305H668.8l13.2.3ZM529 128.1l.1 11.2v.5h-13.7l-13.2-.2h-.3v-.3l.1-5.7.1-5.5 13.2-.3h6.6l6.7-.1h.5ZM94.8 87.7v11.7H81.2L68 99.1h-.3v-.3l.2-5.6.1-5.6 13.1-.3h6.7l6.7-.1h.4ZM696.9 330.7l-13.2.3-6.6.1h-7.2V319h.5l13.2.1 13.3.2h.2v5.9Zm0 0-.2-5.6-.1-5.5.3.2-13.3.2h-13.2l.5-.4v11.1l-.5-.4h6.6l6.6.2ZM94.6 330.7l-13.1.3-6.7.1H67.7V319h13.7l13.3.3h.2v5.9Zm0 0-.1-5.6-.2-5.5.3.2-13.2.2H68l.5-.4v11.1l-.4-.4h6.5l6.6.2ZM655.5 73.6l13.1-.3h6.7l6.7-.1h.4v12.1h-13.6l-13.3-.2h-.3v-.3l.2-5.7Zm0 0 .1 5.7.2 5.5-.3-.3 13.2-.1 13.3-.1-.5.5V73.6l.5.5h-6.6l-6.6-.2ZM237.6 212.3h-13.8l-13.2-.2h-.3v-.3l.1-5.6.2-5.5 13.1-.3 6.7-.1 6.6-.1h.5v11.6Z"/><path fill="#ebebeb" d="M644.6 261.5a35 35 0 0 0-1 15.3c1.5 10.7 9.6 19.2 11.3 29.7a45 45 0 0 1-.8 3.8.1.1 0 0 0 0 .2c.2-.1.2-.3.3-.4l.3-.8.5-1.2v-.2c4-10.8.4-22.8-1.4-33.8-1-6.3-.6-12.7-1.6-19-.2-1.4-.2-4.3-2.3-3.7-2.5.7-4.7 8-5.3 10Z"/><path fill="#fff" d="M646.2 270.7c-.7 13 11.3 24.4 8.5 37.5l-.3 1-.2.8-.1.3a.1.1 0 0 0 0 .2h.1a.1.1 0 0 0 .1 0l.4-1.2a16.6 16.6 0 0 0 .7-3 41.6 41.6 0 0 0-.3-17.4c-1.4-7.4-3.3-14.5-4.7-22-.1-1-.2-4.6-1.6-4.1-2 .7-2.6 6.4-2.6 8Zm.6-2c.1-.7 1-5.6 2.3-5 .7.2.8 4 1 4.5l1.2 6 2.8 12.7a56 56 0 0 1 1.4 15.7c-.6-11.4-10.6-22-8.7-33.8Z"/><path fill="#ebebeb" d="M641.5 386.6c0 .2.1.4.3.3 10-6.4 22.2-1.2 32.5-6.9a52.7 52.7 0 0 0 11-8.8 42 42 0 0 0 6.6-7.9c.3-.4 1.5-2 1.3-2.8-1.6-6.1-17.4 4.2-20 5.7-10.3 5.6-19.8 10.7-28.9 18l-2.8 2.3v.1Z"/><path fill="#fff" d="m641.5 386.6 1-.7c6.8-3.2 14.4-4.4 21.7-6.2s13.6-5 19.1-10.3c1-1 5-4.6 3.8-6.4-1-1.6-5.1 1.5-6 2-7.4 4.2-14.6 8.4-22.3 11.9-4.9 2.3-9.8 4.5-14.5 7.3l-2.8 2.3v.1Zm4.6-2.7c5.4-3 11-5.6 16.7-8.2a138 138 0 0 0 11.3-6l6-3.6 3.2-1.7c.5-.3 2.2-1.2 2.6-.5 1.2 2.2-10.2 13-24.3 15.7a87.9 87.9 0 0 0-15.5 4.3Z"/><path fill="#ebebeb" d="M657.9 368a.1.1 0 0 0 .1 0l.6-.5 2.2-2.3.4-.4a.3.3 0 0 0 .1 0c8-8 19.9-10.5 26.6-19.9a45.6 45.6 0 0 0 6.3-13.9c.6-2.1 3.7-8.6 1-10.3-2-1.2-5.3 1.6-6.6 2.8-4.3 3.8-7.4 9.1-10.4 14s-5.6 9.6-8.4 14.4a93.9 93.9 0 0 1-8.8 12.3l-3.1 3.7Z"/><path fill="#fff" d="m657.9 368 2-2-1.2 1.5a76.4 76.4 0 0 0 3.2-3.5 126 126 0 0 1 14.5-12 26.9 26.9 0 0 0 6.6-6.5c3.3-4.7 8.4-15.9 7.4-17.6s-3 1.9-3.6 2.7c-4.6 6.2-8.3 13-13.3 19l-10 12.1a65.4 65.4 0 0 0-5.6 6.2Zm31.8-39.7c.8.3-.5 3.3-.8 4.1-1.7 3.8-3.5 7.7-5.6 11.3a27.4 27.4 0 0 1-8.8 9 92.2 92.2 0 0 0-8.6 6.7c3.4-3.8 6.7-7.6 9.8-11.6 2.5-3.3 4.8-6.8 7-10.3l3.4-5.2c.4-.5 2.7-4.4 3.5-4"/><path fill="#ebebeb" d="M599 417.7h.2l.2-.8.5-2.7v-.5a.2.2 0 0 0 .1 0c1.8-10 9.3-17.8 9.6-28a40.1 40.1 0 0 0-2.4-13.5c-.6-1.9-1.6-8.1-4.4-8-2.2 0-3.2 3.8-3.5 5.4-1.3 5-.8 10.4-.6 15.5s.7 9.9 1 14.8a82.5 82.5 0 0 1-.2 13.6l-.4 4.2Z"/><path fill="#fff" d="M599 417.7h.2l.4-2.4-.2 1.6a65.8 65.8 0 0 0 .7-4.1 113.3 113.3 0 0 1 4.6-16.2 23.9 23.9 0 0 0 1.5-8.1c0-5.2-1.8-16-3.4-16.7s-1.3 3-1.3 3.8c-.2 7 .5 13.8-.1 20.7l-1.3 14a58.7 58.7 0 0 0-1 7.4Zm1.7-10.3c.6-4.5 1-9 1.3-13.5.3-3.7.1-7.4 0-11.1v-5.6c0-.5-.2-4.5.5-4.7s1.4 2.7 1.5 3.5a109 109 0 0 1 1.6 11c.4 4-.6 7.4-2 11a82.8 82.8 0 0 0-2.9 9.4Z"/><path fill="#ebebeb" d="M598 426a1.4 1.4 0 0 0 .7-.3c10.1-4 21.2-4 31.3-8a29.5 29.5 0 0 0 11.8-7.7c1.4-1.5 6-6.8 5-9.3-3-7.4-37.2 15.9-48.4 24.2a2.1 2.1 0 0 0-.5.4c-.3.3-.3.6 0 .6Z"/><path fill="#fff" d="m598 426 2.2-1.3c2.5-1 5-2 7.5-2.7 4-1.3 8-2 12.1-3a38.7 38.7 0 0 0 17-9.1c1-1 4.2-3.6 3.5-5.4-.6-1.6-3.2 0-4 .4-12.8 6.1-25.3 13.2-37.7 20.1l-.7.3c-.3.3-.3.6 0 .6Zm5.9-3.3 14.6-8 11.5-6 5.7-3c.8-.4 3.7-1.9 4-.8s-1.8 3-2.2 3.4c-5.7 5.9-13.1 9-21 10.7a92 92 0 0 0-12.6 3.7Z"/><path fill="#ebebeb" d="M646.3 340.6a.4.4 0 0 0 0 .4.5.5 0 0 0 .4.3.5.5 0 0 0 .3 0 .2.2 0 0 0 .2 0c4.8-4.8 12-9 17-13.6a52.3 52.3 0 0 0 9.5-11.9 70.6 70.6 0 0 0 7-15.5c.7-2.6 3-8.7.8-11.3-4.3-5.2-13 13.8-14.2 16-7.1 11.8-14 23.6-21 35.6Z"/><path fill="#fff" d="M646.3 341a.5.5 0 0 0 .4.3l.9-1.2c1.8-2.2 3.7-4.4 5.7-6.5 3.2-3.4 7-6.3 10-9.8 5.5-6.2 15.7-25.6 12.8-27.6-1.6-1-3.5 3-4 4-2.2 3.7-4 7.7-6.2 11.5-2.3 3.9-5 7.7-7.5 11.4a1489.4 1489.4 0 0 0-12.1 17.9Zm3.9-4.7 10.5-15.5c2.4-3.5 4.8-7.1 7-10.9l3.2-6.4c.6-1 1-2 1.7-3s2.4-4.6 3.3-3.3-1.8 7-2.4 8.4l-3 6.4a56 56 0 0 1-7.9 11.7c-3.2 3.5-6.8 6.5-10 10l-2.4 2.6Z"/><path fill="#ebebeb" d="M589.1 350c8.8 9.6 23 12.2 28.1 29h.2v-.1c-.4-1.7-.7-3.4-1.2-5a73.1 73.1 0 0 0-12.1-25 55 55 0 0 0-11.9-11.7c-2.3-1.6-7.3-5.8-10.2-5.1-6.2 1.3 5.5 16.2 7.1 18Z"/><path fill="#fff" d="M589.7 344.2c3.5 7 10.5 11.4 15.9 16.8a63 63 0 0 1 9.7 12.3l2 5.7-1-5-.2-.4a77.8 77.8 0 0 0-7.3-14.6 80.4 80.4 0 0 0-14.5-17.2c-1-.8-4.1-4.6-5.8-3.6s.7 5 1.2 6Zm-.6-5.4c1.2-.4 6.8 5.1 9 7.4a80.5 80.5 0 0 1 12.2 16.4 76.7 76.7 0 0 1 3.9 8 64.4 64.4 0 0 0-6.4-8c-4.8-5.1-10.9-9.3-15.3-14.8a22.6 22.6 0 0 1-2.9-4.8c-.2-.7-1.6-3.8-.5-4.2Z"/><path fill="#ebebeb" d="M600 298a59.9 59.9 0 0 0 0 14 58.6 58.6 0 0 0 9 25.3c.2.1.2.3.3.4l.3 1.3a1.8 1.8 0 0 0 0 .3.1.1 0 0 0 .3 0v-1.6c.2-11.3 2.2-22.4.7-33.7-.3-2.5-2-18.6-7.6-15.9-2.5 1.4-2.7 7.6-3 9.9Z"/><path fill="#fff" d="M602.3 300.3c-.4 7 1.4 14.4 2.9 21.2a160.8 160.8 0 0 0 4 15.9c0 .4.2.8.4 1.2a4.8 4.8 0 0 0 0 .5 1.6 1.6 0 0 0 .2.4.1.1 0 0 0 .2-.1v-1.7c0-.6-.3-.8-.4-1.2a131.6 131.6 0 0 1-.7-18.6c0-3.3 0-6.7-.3-10s-.4-6.7-1.4-9.8c-.5-1.4-1.4-4-3.3-3-1.6.8-1.5 3.7-1.6 5.2Zm4.1-2.3c1.2 3.6 1.4 8 1.7 11.7.2 3.7.2 7.4.1 11a114.9 114.9 0 0 0 .3 11.8 188.4 188.4 0 0 1-5.4-26.7 30.4 30.4 0 0 1-.2-6.2 15.7 15.7 0 0 1 .3-2.2c.5-2.2 2.7-1 3.2.6Z"/><path fill="#ebebeb" d="m669.4 268.7-.1.5a.3.3 0 0 0 .4.4.3.3 0 0 0 .2-.2l.2-1 .2-.8.8-1.3c3-4.5 8.2-8.4 11.7-12.2a70.6 70.6 0 0 0 8.7-11.3 35 35 0 0 0 5-13.5c.2-1.3.8-4.6-.8-5.4-2-1-5.2 2.9-6.3 4a58.8 58.8 0 0 0-9.7 12.1 85 85 0 0 0-10.3 28.7Z"/><path fill="#fff" d="M670.3 266.5a19.6 19.6 0 0 0-1 2.2v.5a.3.3 0 0 0 .4.4 2.4 2.4 0 0 1 .1-.4l.3-.8 1-2a46.3 46.3 0 0 1 4.4-7c3-4 6-7.7 8.7-11.6 1.3-2 11.9-17.2 7.7-18.6-.8-.3-1.5.7-2 1.1a32 32 0 0 0-3.7 5.1 206 206 0 0 0-7.5 12.7 135 135 0 0 0-8.4 18.4Zm7.5-15.8c2-3.8 4.1-7.5 6.4-11.2 1-1.8 2.1-3.6 3.3-5.3.6-.9 3.6-4.8 4.4-4.2 1.2.7-1.6 6.7-2.5 8.3q-1.5 2.8-3.2 5.4c-2.2 3.6-4.7 7-7.3 10.3-2.2 3-5 6.1-7 9.6a135.2 135.2 0 0 1 6-12.9Z"/><path fill="#ebebeb" d="m633.2 321.7.2.5a.3.3 0 0 0 .5.1.3.3 0 0 0 .1-.3l-.3-1-.2-.8v-1.5c.3-5.4 2.9-11.3 4-16.4a71.6 71.6 0 0 0 1.8-14.2A35.2 35.2 0 0 0 637 274c-.5-1.2-1.6-4.3-3.4-4.2-2.3.1-3 5-3.5 6.5a59 59 0 0 0-2.4 15.4 84.5 84.5 0 0 0 5.5 30Z"/><path fill="#fff" d="M632.9 319.3a21 21 0 0 0 .3 2.4l.2.5a.3.3 0 0 0 .5.1v-.4l-.2-.9-.2-2.3a46 46 0 0 1 .3-8.2c.6-4.8 1.3-9.5 1.7-14.3.2-2.4 1.6-20.8-2.7-20-.8.2-1 1.4-1 2a31.2 31.2 0 0 0-.8 6.3c-.2 5-.2 9.8 0 14.7a136.8 136.8 0 0 0 1.9 20Zm-1.4-17.4a213.8 213.8 0 0 1 0-19.2c.2-1 .8-5.9 1.7-5.8 1.4 0 2 6.6 2 8.5a93.6 93.6 0 0 1-1.1 18.8c-.5 3.7-1.2 7.8-1.3 11.8a132.4 132.4 0 0 1-1.3-14Z"/><path fill="#ebebeb" d="M608.6 329.3a264.4 264.4 0 0 0 6 29c2 7.4 4 14.8 4.3 22.5.3 9.2-2.4 19.4-7 28.2l8-9.1c5.3-6.3 10.7-12.8 14.5-20.2l1-2.2a.3.3 0 0 1 0-.2 99.8 99.8 0 0 0 2-29.8 83 83 0 0 0-6.5-14.8 65.8 65.8 0 0 1-6.7-15.1c0-.4.3-.5.5-.2 2.7 7.2 8.4 14.2 11.7 21.6a168 168 0 0 0-.6-3.7c-2.2-11.8-6.3-23.6-2-35.5.2-.4.7 0 .6.3-4 13.2 2.4 27.7 4.3 40.7a79.7 79.7 0 0 1-.5 30 156 156 0 0 0 4.3-16.4c7.5-33.2 16-66.2 32.2-96.3.1-.3.6 0 .5.2-16.5 32.7-23 68.3-31.7 103.5l-.3 1.2a66.4 66.4 0 0 1 10.4-12.5.2.2 0 0 1 .3.2c-4.7 6.1-8.3 12.7-12.6 19a69 69 0 0 1-6.2 14.2 113.4 113.4 0 0 1-11 15c6.8-5.6 13.6-11.2 19.9-17.3a301 301 0 0 0 26.9-29.6c.1-.1.3 0 .2.2a252 252 0 0 1-26.8 32 168.7 168.7 0 0 1-27.4 23.2c-9.6 11-19.9 22.2-32 30.3a.5.5 0 0 1-.7-.8l6.6-6c2-4.7 5-9 6.9-13.9a76.2 76.2 0 0 0 4.4-17.6c0-.5.7-.4.7 0a64 64 0 0 1-6.8 26.4q4.7-4.6 9-9.3c8-12 13-26.4 11.4-40.8-.9-7.4-3-14.6-4.7-21.9a160.8 160.8 0 0 1-3.7-24.5.3.3 0 0 1 .6 0ZM158.2 282.5c1.7 4.7 1.4 10.5 1.2 15.4a121.7 121.7 0 0 1-2 16.7c-1 5.1-2.1 10.2-3.4 15.3v.1l-.3 1-.1 1.3a.2.2 0 0 1-.3.2.2.2 0 0 1-.2-.3v-.6c.9-9.5-4.6-18.2-5-27.6-.1-5.2 1.1-10.3 2-15.4.6-2.8.7-6.4 1.8-9 .3-.7.4-1.4 1.1-1.8 2.5-1.1 4.6 3 5.2 4.7Z"/><path fill="#fff" d="M156 286c-1.5-1.2-2.4 2.2-2.7 3.1-2 6.3-3 13.7-1.9 20.2 1.2 7.2 2.5 14.3 2 21.5l-.2.7v.7a.2.2 0 0 0 .2.3v-.5l.6-2v-.1a133.9 133.9 0 0 0 2.5-14.8 95.4 95.4 0 0 0 1.1-21 47.5 47.5 0 0 0-.6-5c-.1-.8-.3-2.5-1-3.1Zm.8 4.2.6 5.4a98.5 98.5 0 0 1-1 18.3 135.4 135.4 0 0 1-2.7 15.8 55.6 55.6 0 0 0-.5-12.3l-1.6-9.2a34.7 34.7 0 0 1 .4-10.4 44.2 44.2 0 0 1 2-9.6c.3-.6 1-2 1.5-1.9 1 .2 1.2 3.3 1.3 4Z"/><path fill="#ebebeb" d="M153.6 420.7a.2.2 0 0 1 .1.2.3.3 0 0 1-.2.2.3.3 0 0 1-.2 0c-5.8-3-11.3-7.6-18-8-5.3-.2-9.9.4-14.9-1.7a39.8 39.8 0 0 1-13.4-9.6 40.6 40.6 0 0 1-4.5-6c-.7-1-2.7-3.6-2.4-5 1.3-6.1 19.6 4.9 22 6.4C133 403.7 144 411 153 420v.1a.2.2 0 0 1 0 .1Z"/><path fill="#fff" d="m153.6 420.7-.7-.5a.2.2 0 0 0 0-.1 254 254 0 0 0-18.6-12.6c-6.8-4.2-13.8-8.6-21.1-11.9-1-.4-5.2-3-6-1.3s3.5 5.3 4.4 6.1a48.5 48.5 0 0 0 19.4 9.1c4.4 1.3 8.8 2.6 12.8 5 3.3 2 6.4 4.5 9.7 6.6a.3.3 0 0 0 .2-.2c-1.7-1-3.3-2.2-5-3.4l5 3.4a.2.2 0 0 0-.1-.2Zm-15-9.2c-6.7-2.6-13.8-3.8-20.3-7a28.5 28.5 0 0 1-8.3-6.2c-.4-.5-2.6-2.7-2-3.5.2-.6 2 0 2.2 0a50.9 50.9 0 0 1 5.6 2.5 249.2 249.2 0 0 1 28.1 17 32.1 32.1 0 0 0-5.3-2.8Z"/><path fill="#ebebeb" d="M127 292.8c.8 5.6-.3 11.4-1.8 16.7-3.6 12.4-10.4 24-12.5 36.8l-.2 1.5c0 .6 0 .5-.2-.3-1-3.4-4.2-18.4-2.7-29.2 1-6.7 3.2-13 5.5-19.4l4-10.8c.5-1.1 1-4.5 2.8-4.7 3.4-.5 4.9 7.2 5.2 9.4Z"/><path fill="#fff" d="M121.2 293.9a1.1 1.1 0 0 0-1.5.4 5.7 5.7 0 0 0-.7 2.2l-1 4c-2.4 9-5.5 18.3-6.4 27.7a77.1 77.1 0 0 0 .7 18.7v.6c.2.8.3 1 .2.2l.2-1.5v-2A57.3 57.3 0 0 1 116 330c2.9-8.8 5.4-17.7 6.4-26.8a27.5 27.5 0 0 0 .3-6.2c-.2-.9-.4-2.7-1.4-3.2Zm.8 3a10.3 10.3 0 0 1 .2 1.3 28 28 0 0 1 0 2.9l-1 7a195.7 195.7 0 0 1-6.4 24 51.8 51.8 0 0 0-2.5 12c-.3-3.4-.5-6.9-.5-10.3 0-8.9 2.5-17.2 4.7-25.7l1.6-6.4.8-3.1.4-1.6c.3-1 .1-1.5 1.3-1.8 1.5-.4 1.2.4 1.4 1.6Z"/><path fill="#ebebeb" d="M136 344.6a70.1 70.1 0 0 1 3.3 12.8c1.4 8.7.1 18.7 2.4 27.4a21.6 21.6 0 0 1 .7 2.4c0 .2-.1.2-.2 0l-.5-1-.3-.6c-4.3-8.5-9.9-16.2-11.7-25.7-1.2-5.8-3-21.9.9-23.1 1.7-.6 4.4 5.3 5.3 7.8Z"/><path fill="#fff" d="M132.4 345.5c-.9.4-.9 2.2-1 3a36.5 36.5 0 0 0 .3 6 60 60 0 0 0 2.2 11 118.7 118.7 0 0 0 7.5 20l.2.6.6 1.1c0 .2.2.1.2 0l-.2-.7c-2.8-7.4-4-15.2-5-23.1-.2-1.8-1.6-19.4-4.8-17.9Zm2.9 7.1.7 5 1.5 11.7a89.7 89.7 0 0 0 2.7 12.6 150 150 0 0 1-5.3-14.4 80.7 80.7 0 0 1-2.4-9.8 41.5 41.5 0 0 1-.5-5.4c0-.9-.4-6 .6-6.3 1.3-.6 2.6 6 2.7 6.6Z"/><path fill="#ebebeb" d="M172.7 327.5c2.1 2.6 1.1 7.8 0 10.5-1.6 4-4.7 7-8 9.7-4.8 3.8-10.1 6.7-14.2 11.4s-2.7 3.2-5.5 9.1c0 .2-.2.2-.3 0a1.1 1.1 0 0 1-.1-.9 1.4 1.4 0 0 1 0-.2 61.2 61.2 0 0 1 14.2-25c3.8-4.4 6-9.8 10-14 1.5-1.5 2.4-2.4 3.9-.6Z"/><path fill="#fff" d="M170.4 332.6c-1.4-.7-3.2 2.2-4 3.3a61 61 0 0 1-6.8 8.7 74.3 74.3 0 0 0-6.7 7.2 49.2 49.2 0 0 0-7.3 13l-1 2.5a1.1 1.1 0 0 0 .2 1v-.4c2.4-6.2 6.4-11 12-15.2s10.5-8.8 13.5-15.1c.5-1.2 1.5-4.4.1-5Zm-.2 4.2a25.9 25.9 0 0 1-1.6 3.1 33.9 33.9 0 0 1-3.9 5.2 61 61 0 0 1-8.6 7.5 36.5 36.5 0 0 0-9 9.6 49.9 49.9 0 0 1 6.8-11c2.5-3 5.5-5.5 8-8.5 1.2-1.3 2.2-2.8 3.2-4.2l1.7-2.4c.5-.7 2-3.2 3-3 1.4.3.6 3.2.4 3.6Z"/><path fill="#ebebeb" d="M83.2 302.8c8.7 9.8 16.7 20 24.3 30.6a.3.3 0 0 1 0 .4l.2.2a.1.1 0 0 1 0 .2.2.2 0 0 1-.2 0C102 329 97 324 90.2 320.5c-6.2-3.2-12.4-5.8-17.7-10.4-4.6-3.8-17.7-23-15.5-27.6 1.4-3 19.3 12.6 26.2 20.3Z"/><path fill="#fff" d="M72.5 296.3c-1-1-4.4-5.4-6.5-4.5s1.3 5.2 1.9 6.1a62.6 62.6 0 0 0 7.6 9.5c3 2.9 6.4 4.7 9.8 7 8.3 5.4 15.6 12.6 22.2 19.9a.1.1 0 0 0 0-.2l-.1-.2v-.1a338.2 338.2 0 0 0-34.9-37.5Zm34.3 37A138.6 138.6 0 0 0 92.1 319c-6.1-5-13.4-8.3-18.7-14.4a47.2 47.2 0 0 1-6.9-9.6c-.2-.5-1-2-.5-2.6s2 .1 3.8 1.8c1.6 1.4 3 3 4.5 4.4A612 612 0 0 1 91.7 316q8 8.4 15.1 17.2Z"/><path fill="#ebebeb" d="M119.2 374.3a.3.3 0 0 1 0 .1.2.2 0 0 1-.3.2l-.9-.3c-6.2-.8-11.2.3-17.2 1.8a27.2 27.2 0 0 1-13.3 0A45.6 45.6 0 0 1 74 370c-1.7-1-7.1-3.5-6.2-6.5 1.4-4.9 17.9 1.5 20.7 2.4A128.4 128.4 0 0 0 104 370c5.2 1 10.3 1.9 15.1 4a.2.2 0 0 1 .2.3Z"/><path fill="#fff" d="m115.9 373.5-9-2c-3.4-.5-6.8-.5-10.2-1-6.4-1.1-12.4-3.4-18.6-4.8-.9-.2-2.5-.5-2 .9.1.5 1 1 1.5 1.4a30 30 0 0 0 4.4 2.5 36.6 36.6 0 0 0 17 4c6.8-.3 13.4-1.6 20-.1a.3.3 0 0 0 0-.2 20.7 20.7 0 0 0-3.1-.7Zm-14.6.5a37.3 37.3 0 0 1-21.3-5 28.6 28.6 0 0 1-2.7-1.9c-.5-.4-1.3-1.3.7-1a11.1 11.1 0 0 1 1.4.3l4.8 1.3c3.4 1 6.8 2 10.3 2.7a62.9 62.9 0 0 0 9.4 1.1 75 75 0 0 1 11.3 2c-4.6-.6-9.4 0-14 .5Z"/><path fill="#ebebeb" d="M101.4 360.9a.5.5 0 0 1 0 .3.3.3 0 0 1 0 .1.4.4 0 0 1-.2.2.4.4 0 0 1-.4 0 17.4 17.4 0 0 1-2.6-1.2 93.2 93.2 0 0 1-29-15.3A67.2 67.2 0 0 1 58 332.4c-1.6-2.2-6-7-4.5-10.2s4.2-1.1 6.1.2a144.9 144.9 0 0 1 14.4 10.8 79.6 79.6 0 0 1 12 13c4.1 5.7 8.2 11.6 15 14.2a.5.5 0 0 1 .3.5Z"/><path fill="#fff" d="M82.5 346.4a173.5 173.5 0 0 0-18.7-16.9c-.9-.7-3.4-2.4-3.7-.5-.5 2.3 3 5 4.2 6.4a132 132 0 0 0 16 14.6 73.9 73.9 0 0 0 21 11.3.3.3 0 0 0 0-.1 94.2 94.2 0 0 1-32.5-21.8c-2.2-2.3-4.5-4.5-6.6-6.9-.3-.4-2.2-3-1.5-3.7s3.4 1.5 3.7 1.8l4.4 3.7a203.8 203.8 0 0 1 15.8 15 50.3 50.3 0 0 0 16.7 11.9.5.5 0 0 0 0-.3 58.6 58.6 0 0 1-18.8-14.5Z"/><path fill="#ebebeb" d="M82.5 254.5a50 50 0 0 1 8.1 15.3c2.5 8.7 2.4 17.7 3.6 26.5v.1a60.4 60.4 0 0 0 1.4 7.2l.4 1.5a.3.3 0 0 1 0 .3.3.3 0 0 1-.2 0 .3.3 0 0 1-.2 0 .4.4 0 0 1-.2-.1l-.7-2.2a.2.2 0 0 1-.1 0c-5.3-11-11.3-22.3-17.3-33.2a88.3 88.3 0 0 1-6.8-15c-1-3.2-2.2-8 0-10.9a.7.7 0 0 1 .6-.3c5 .9 8.7 7 11.5 10.8Z"/><path fill="#fff" d="M77 255.2c-2.4-.8-2 2-1.5 3.5a98.8 98.8 0 0 0 4.2 11.1l5.2 12.3c3.4 7.7 8.1 15.3 10.6 23.3a.3.3 0 0 0 .2 0 .3.3 0 0 0 .2 0c0-.7-.2-1.3-.3-1.9l-1.4-7.1v-.1A106.2 106.2 0 0 0 83.4 263c-1.4-2.4-3.4-6.9-6.4-7.8Zm7.1 10a83.1 83.1 0 0 1 7.6 21c1.3 5.8 2.2 11.7 3.4 17.5-1.6-4.7-4-9.1-6.2-13.7q-4.9-10.6-9.3-21.5l-2-5.2c-.6-1.6-2-4-2-5.7 0-3.3 2.8-1 3.7 0a20 20 0 0 1 2 2.7l2.9 5Z"/><path fill="#ebebeb" d="M155.5 314a240.6 240.6 0 0 1-6.5 31.9c-2.7 9.6-5.5 19.2-6.8 29.1a62 62 0 0 0 6.2 39A155.3 155.3 0 0 1 122 370c-10.8-27.2-20.6-55-33.7-81.2-.2-.5-.8-.1-.7.3 5.4 14.3 11.7 28.2 17.2 42.5s10.5 28.4 16.2 42.4l2 4.5A76.8 76.8 0 0 0 90 356.2a85.3 85.3 0 0 1 23.3 15.5c6 5.5 10.6 12 15.4 18.4a130.8 130.8 0 0 0 45.6 47.6.2.2 0 0 0 .2-.3 130.6 130.6 0 0 1-21.1-17.7c-10.8-14.3-11.3-33.3-8-50.7 1.6-9 4-18 6.2-27s4.5-18.5 4.3-28a.3.3 0 0 0-.5 0Z"/><path fill="#263238" d="m48.8 437.9 81.6-.2 81.5-.1 163.1-.2 163.1.2 81.5.1 81.6.2-81.6.2-81.5.1-163.1.2-163.1-.2-81.5-.1-81.6-.2z"/><path fill="#f4e3d7" d="M686 409.8c-3.4-4.4-7.3-9.2-7-15 .2-5.3 2-11.2 6.8-14 1.4-.8 2.5-1.1 2.9.7.7 2.7-.5 6-1 8.7a55.4 55.4 0 0 0-1.5 10.4l.1 7.4V409.4a.3.3 0 0 1 0 .3.3.3 0 0 1-.4 0Z"/><path fill="#fff" d="M686.4 409.8c-2.8-4-6-8.1-5.6-13.2a22.4 22.4 0 0 1 1.8-6.8c.4-1 1.7-3.9 3-4 2.3 0-.8 9.2-1 10.3a23.8 23.8 0 0 0 1.7 12v.8a26.4 26.4 0 0 1-2.1-8.2c-.4-4 1-7.3 1.7-11.2.1-.8.8-3.4-.6-3.2-1 .1-2.2 3-2.4 3.6a22.4 22.4 0 0 0-1.8 6.5c-.5 5 2.7 9.2 5.4 13.3a.2.2 0 0 1-.1 0Z"/><path fill="#f4e3d7" d="m685 414.2-.6.3a.1.1 0 0 1-.1 0 .2.2 0 0 1-.1-.4h.4v-.1c2.3-3 5.2-5.5 7.5-8.4s4.3-5.8 6.8-8.5c1.6-1.6 9.8-9.4 11.5-4.6.8 2.1-1 5.2-2 7a23.1 23.1 0 0 1-5.5 6.2c-5.3 4.2-11.8 5.8-17.9 8.5Z"/><path fill="#fff" d="M697.3 407.3a27 27 0 0 0 5.7-5c.5-.7 3.3-4 2.4-5-.6-.8-2.2.2-2.7.4-2.2 1.2-3.8 3.4-5.5 5.2a103.2 103.2 0 0 1-11 10.2l-1 .5-.6.3-.3.2h-.2a.2.2 0 0 0 .1.4l.6-.3-.4.3.5-.2.7-.6a112.3 112.3 0 0 0 11.6-6.4Zm-10.2 5.3q3.4-2.8 6.6-5.8l5-5.2a25.5 25.5 0 0 1 2.8-2.8c.8-.6 4-2.7 3.2.2-.6 2.2-3.3 4.6-4.9 6a37.7 37.7 0 0 1-5.7 4l-7 3.6Z"/><path fill="#f4e3d7" d="m674.5 425.4-.2-.2c-2.7-4.2-7-9.3-6.7-14.7.2-4 2.3-9.2 6.3-10.8 4.4-1.8 3.5 6.5 3.4 8.6a153 153 0 0 1-2.5 17s0 .1 0 .1h-.3Z"/><path fill="#fff" d="M674.7 425.4v-1c-.3-3.9-.4-7.8-.3-11.7 0-1 .9-8.5-1.1-8.1-1.2.2-1.9 3-2.2 4a15.6 15.6 0 0 0-.5 5c.3 4 2.3 7.5 3.7 11.2a4.5 4.5 0 0 1 .2.5.3.3 0 0 0 0 .1s.2.1.2 0Zm-3.5-9.7a15.3 15.3 0 0 1-.1-5.2c.1-1.2.8-5.4 2.3-5.4.8 0 .7.4.8 1.3a9.9 9.9 0 0 1 .2 1.2l-.1 3a93.7 93.7 0 0 0 .1 14c-1-3-2.6-5.8-3.2-8.9Z"/><path fill="#f4e3d7" d="M688.2 426.8a29.7 29.7 0 0 1-17.2 1.8.2.2 0 0 1 0-.4h.4c6-3.3 12.1-6.5 18-10 1.4-.8 10.5-5.7 11-2.2.3 2.2-3 4.8-4.4 6a30 30 0 0 1-7.8 4.8Z"/><path fill="#fff" d="M694.6 420c.4-.5.7-1 0-1.4-1.3-.5-5.5 2-6.7 2.5-5 2.6-10 4.6-15.2 6.7l-1.3.5h-.5a.2.2 0 0 0 0 .3H671.8a35.2 35.2 0 0 0 10.7-1.6 33.3 33.3 0 0 0 6.4-2.8c1.8-1.1 4.4-2.5 5.7-4.2Zm-22.6 8.3h-.3l.5-.2a97.6 97.6 0 0 0 12-4.8l5.9-3c.8-.4 3.2-1.5 4-1.1s0 1-.5 1.3l-1.2 1a34.6 34.6 0 0 1-20.4 6.8Z"/><path fill="#f4e3d7" d="m659.5 437.9-.6-.8 2.2-1.6a491 491 0 0 0 13-10.6l.2-.1.3-.4.4-.3a43 43 0 0 0 8.7-10.5l2-4 .2-.5.2-.5.2-.3c2-4.3 3.6-8.7 5.3-13l1.5-3.8a1 1 0 0 1 0-.2l.2-.3c2.2-5.5 4.5-11 6.5-16.5.1-.2.4 0 .3.2l-3.9 11.1-.5 1.5-1 3-2 5.8a143.6 143.6 0 0 1-6.8 16.3l-.7 1.1-.4.7-.4.9a46.5 46.5 0 0 1-10.9 12l-.9.7-.4.3-.2.2-.3.2-.2.2-.8.6-8.5 6.5-2.7 2Z"/><path fill="#f4e3d7" d="M694.5 375.8c1.4-4.4 5.5-11.8 11.1-10.8a4.3 4.3 0 0 1 3.7 4.4c0 2.7-1.8 5.2-3.4 7.2-4.1 5.2-8.8 10-12.6 15.7l-.4.6s-.2 0-.1-.2l.3-.5c0-5.4-.3-11.2 1.4-16.4Z"/><path fill="#fff" d="M693.4 392.3a.6.6 0 0 0 0-.1 46 46 0 0 1 2.3-4.9 89.9 89.9 0 0 1 6.3-9.4c.9-1.1 5.3-6.7 1.6-7.1-1.5-.2-3 1.1-4 2a17.1 17.1 0 0 0-4 5.5c-2 4-2.4 8.6-2.4 13v.6l-.1.2a.3.3 0 0 0 0 .1.1.1 0 0 0 .2.2Zm0-1.3a36.7 36.7 0 0 1 1.7-10.8 19 19 0 0 1 2.7-5 14.7 14.7 0 0 1 1.8-2 10.7 10.7 0 0 1 1.4-1.2c1.2-.8 2.7-1.2 3.3-.6s.5 1.3 0 2.6a10.7 10.7 0 0 1-.7 1.2l-2 2.8-3.3 4.6-2 3.2a47.7 47.7 0 0 0-3 5.9Z"/><path fill="#f4e3d7" d="M52.6 402.8c2.7 2.4 5.3 5.1 7.8 7.8l4.3 4.7c1.5 1.6 3 3.5 5.2 4.4a1.4 1.4 0 0 1 .3.1.3.3 0 0 1-.3.4h-.2a8.7 8.7 0 0 1-2-.6 48 48 0 0 1-5.4-1.6 45.4 45.4 0 0 1-10.2-5 39 39 0 0 1-7.7-6.8c-1.8-2-4.5-5.1-5-8-.5-2.5 2.8-2 4.3-1.5 3.5 1 6.3 3.7 9 6Z"/><path fill="#fff" d="M44.4 400.9c-.8 1 2.2 4.4 3.4 5.9a37.8 37.8 0 0 0 6.7 6.1 48.4 48.4 0 0 0 14.6 7l.6.2h.2a.3.3 0 0 0 .3-.3l-1.2-.6a7 7 0 0 1-1-.6c-3.8-2.3-7-5.4-10.3-8.4-3.8-3.4-12.3-10.7-13.3-9.3Zm24.1 18.4 1.6.8a27 27 0 0 1-1.2-.4 53.3 53.3 0 0 1-13-6.1 38.4 38.4 0 0 1-6.2-5.2 35.3 35.3 0 0 1-2.8-3.3c-.4-.5-2.8-3.4-2.1-4 .4-.3 3.1 1.4 3.2 1.5l1.6 1.1 3.2 2.5 6.4 6a50.4 50.4 0 0 0 9.3 7.1Z"/><path fill="#f4e3d7" d="M73.1 391.5c2.5 4.8 3 10.3 3.1 15.6v8.5a37.4 37.4 0 0 0 .2 7.6v.3a9.6 9.6 0 0 0 .7 2 .1.1 0 0 1 0 .2 1.3 1.3 0 0 1 .2.2l-.3-.1a.1.1 0 0 1-.1-.1.2.2 0 0 1 0-.1 1.3 1.3 0 0 1-.2-.2c-4.1-3.8-6.5-10.3-8-15.5s-2.4-10.7-1-16c.4-1.3 1-4.5 2.6-5s2.3 1.6 2.8 2.6Z"/><path fill="#fff" d="M71 394.6c-1.7.3-1.4 4.7-1.3 5.8a58 58 0 0 0 1.5 9.8 51.2 51.2 0 0 0 5.4 15 1.3 1.3 0 0 1 0 .2l.2.2a.1.1 0 0 0 .1.2v-.3l-.5-2-.1-.3a112 112 0 0 1-1.3-14 52.4 52.4 0 0 0-1.5-9.8c-.2-.8-1.2-5-2.6-4.8Zm1.4 2.4c2.2 5.2 2.1 11.3 2.5 16.8a58.4 58.4 0 0 0 1.5 11 54.5 54.5 0 0 1-4.7-13.7 74.7 74.7 0 0 1-1.5-8.1 30.4 30.4 0 0 1-.2-4.5 11.7 11.7 0 0 1 .4-2.7c.5-1.6 1.6.3 2 1.2Z"/><path fill="#f4e3d7" d="M86 432.8a.3.3 0 0 1 0 .3h.1a.1.1 0 0 1 .1 0v.2c-6.5 1-13.6 1.3-19.9-.4a25.2 25.2 0 0 1-7.5-3.4c-1.5-1-4.7-3.2-4.8-5.3-.4-4.2 10.8.2 12.5.8l9.2 4c3.3 1.4 6.7 2.6 10.2 3.7a.2.2 0 0 1 .1.1Z"/><path fill="#fff" d="M86 432.8h-1a55 55 0 0 1-16.2-4.5 49.1 49.1 0 0 0-7.9-3c-.7-.1-3.2-1-2.8.7.2.8 4.3 3.2 5.5 3.7a34.4 34.4 0 0 0 8 2.5 56.4 56.4 0 0 0 14.2 1h.4-.2a.3.3 0 0 0 0-.4Zm-12-.5a40.2 40.2 0 0 1-8.2-2 29.8 29.8 0 0 1-3-1.3 18.8 18.8 0 0 1-2.3-1.3c-1.8-1.3-2.1-1.8-2-2.1s.5-.3 2 0a14.3 14.3 0 0 1 2.5.7c1.3.4 2.5 1 3.7 1.5l7.2 3a42.1 42.1 0 0 0 11 2.2 64.2 64.2 0 0 1-10.9-.7Z"/><path fill="#f4e3d7" d="M85.3 414.5a16 16 0 0 1 3.3 6c1.5 4.3 2 9 3.1 13.3l.6 2 .4.8-.6-.6a65.6 65.6 0 0 1-8.8-11.2 32.3 32.3 0 0 1-3-7.4c-.3-1.2-.8-4 .4-5s3.8 1.2 4.6 2Z"/><path fill="#fff" d="M82.7 415.5c-1.7.8 1.8 8.3 2.3 9.3a46 46 0 0 0 6.3 10.2l.8 1 .6.6-.4-.8-.1-.3-.5-1.6-3.3-9a42 42 0 0 0-3-6.1c-.3-.5-2-3.6-2.7-3.3Zm1.4 1.6c3.8 5.5 5.2 12.1 7.7 18.2l.2.3-.4-.4a52 52 0 0 1-5.3-8.4 50.8 50.8 0 0 1-2.4-5.5 24.8 24.8 0 0 1-1-3.2c-.2-.5-.4-1.8 0-2s1 .6 1.2 1Z"/><path fill="#f4e3d7" d="M52.1 371.3c6 10 3 23 8.3 33.3l.5 1a.2.2 0 0 1-.1.3.1.1 0 0 1-.2 0 1.7 1.7 0 0 1-.1-.3A56 56 0 0 1 49 389.3c-2.5-5-4.1-10.7-3.3-16.4.3-1.4.6-4.2 2.3-4.7s3.4 1.9 4.1 3.1Z"/><path fill="#fff" d="M50 375c-.7.2-.7 1.3-.8 1.9a17.7 17.7 0 0 0-.1 4.3 29.6 29.6 0 0 0 2.2 8.5 61.2 61.2 0 0 0 7.1 13.3 34 34 0 0 0 2.1 2.7l.3.3a.2.2 0 0 0 .2-.3l-.5-1a36 36 0 0 1-3-6.3 86.5 86.5 0 0 1-2.8-10.6c-.3-1.4-2.2-13.6-4.7-12.8Zm1.6 2c1.3 2.7 1.7 5.7 2.3 8.5l2 8.5a41 41 0 0 0 2.1 6.6 31.5 31.5 0 0 0 2.7 5 44.1 44.1 0 0 1-3.3-4.5 78.9 78.9 0 0 1-4.7-9 .6.6 0 0 1 0-.2 36.7 36.7 0 0 1-2.9-8.4 21 21 0 0 1-.4-4.8c.1-1.8.3-3.3 1-3.3.3 0 .9.9 1.2 1.7Z"/><path fill="#f4e3d7" d="M52.9 392a363.5 363.5 0 0 0 7.5 12.6l.9 1.5c2.7 4.4 5.3 9 8.6 13a44.4 44.4 0 0 0 6 5.6l.6.5.4.3.2.1a106.2 106.2 0 0 0 13.9 9.1 1.3 1.3 0 0 0 .2.2l.4.2.2.1.3.2 2.7 1.6-.6.8a64.9 64.9 0 0 1-8.4-4.6h-.1l-.8-.6-1-.6-2.3-1.5a68.1 68.1 0 0 1-12.2-10.1l-.3-.4a.5.5 0 0 1-.1-.1 1.2 1.2 0 0 1-.3-.2l-.3-.4-.5-.7-.2-.2a103.5 103.5 0 0 1-7.5-12L59 404l-.6-1.1-1-1.9-4.7-9c-.1-.2.1-.3.2-.2ZM405.9 56.7c-2.1 5.7-8.2 9.6-8.2 9.6s-6.7-2.6-10-7.7c-2.7-4.3-1.8-9.3 1.6-10.7 5-2.1 7.2 6.6 7.2 6.6s.3-9 5.6-8c3.6.7 5.5 5.4 3.8 10.2ZM499.1 248.4C462.1 323.2 374 367.6 374 367.6s-88.2-44.4-125.2-119.2C217.8 186.1 237.4 118.6 286 104c69.9-21 87.8 59 87.8 59s17.9-80 87.8-59c48.8 14.8 68.3 82.2 37.4 144.5Z"/><path fill="#fff" d="M499.1 248.4C462.1 323.2 374 367.6 374 367.6s-88.2-44.4-125.2-119.2C217.8 186.1 237.4 118.6 286 104c69.9-21 87.8 59 87.8 59s17.9-80 87.8-59c48.8 14.8 68.3 82.2 37.4 144.5Z" opacity=".5"/><path fill="#f4e3d7" d="M245.5 178c-1.3 6-6.7 10.7-6.7 10.7s-7-1.5-11-6c-3.3-4-3.2-9 0-11 4.6-2.7 8 5.5 8 5.5s-1-8.9 4.4-8.7c3.7.1 6.3 4.5 5.3 9.5ZM428.3 105c-7.6 5.2-18.4 4.6-18.4 4.6s-6-9-5.6-18.1c.4-7.7 6-13 11.4-11.9 7.9 1.8 3 14.4 3 14.4s8.3-10.7 13.9-4.9c3.8 4.1 2 11.6-4.3 15.9Z"/><path fill="#263238" d="M347 249.2c0 .2.4.2.4 0 .3-11.4 11.5-19 11.1-30.5a27 27 0 0 0-5-14.2 75.5 75.5 0 0 0-6.5-7.6l-.9-1.3a54.1 54.1 0 0 1-5.2-8.3 32 32 0 0 1-2.7-10.8c-.8-7-1-14.3-6-20a31.4 31.4 0 0 0-16.2-8.9c-13.6-3.3-29.8-1-38.8 10.7a25.1 25.1 0 0 0-3.8 6.8s-7.9 5.8-10.3 15c-2 8.2 3.4 14.9 2.9 19-.5 3.5-2.7 6.6-4.1 9.9a62 62 0 0 0-4 8.4 22 22 0 0 0-.3 12.7 24 24 0 0 0 5 10.4 19.7 19.7 0 0 0 9.5 5.5l2.5.7c3 1.7 6.3 3 9.2 4.8a15.5 15.5 0 0 1 6.3 9c1 3.3 1.3 6.8 2 10.2a25 25 0 0 0 3.8 9 29.4 29.4 0 0 0 15.3 11 44.6 44.6 0 0 0 22.2.8 24 24 0 0 0 16.4-10 21 21 0 0 0 2.4-17c-1-3.5-3.1-6.5-4.8-9.6a17 17 0 0 1-2.1-10.2c1.5-11.7 12.8-20.8 9.8-33.3a28.9 28.9 0 0 0-4-9 28.7 28.7 0 0 1 6.5 14.3c.8 5.9-1.4 11.1-4.3 16.1s-6.4 10.3-6.3 16.3Zm-74.4-3.6c-5-1.5-9.1-4.2-11.7-8.9a26 26 0 0 1-3.2-16.3 29.4 29.4 0 0 1 2.8-7.6v-.2a28.2 28.2 0 0 0-.9 5.3 31.5 31.5 0 0 0 3.2 16.5 29 29 0 0 0 10 11.3Z"/><path fill="#d3766a" d="M316.5 251.8a4949.3 4949.3 0 0 1 72.8 133.3c4.7 9.3-46.3 38.9-48.6 32.1-2.8-8.6-31.5-109.1-38.7-155.5-3.6-23 6.7-23.4 14.5-9.9Z"/><path fill="#d3766a" d="M339.2 409.5c1.4 8.5 7.6 25.4 11.9 27.9s26.8 1.4 38.1 1.1 13.5-3.5 13.2-7.4-24-4-24-4 32 8.3 40 9.6 26.5 5.5 29-1.2c1.1-3-4-6-4-6s7.8 2.1 8.9-1.7c1.3-4.4-5-6.7-5-6.7s5 .9 5-2.7c0-8-30.3-11.1-30.3-11.1s23.4 10.7 24 4.1c.8-9-46.8-17.7-51.8-21.5a33.6 33.6 0 0 1-8.2-9.5Z"/><path fill="#263238" d="M402.3 433.1a3.5 3.5 0 0 0-1.1-3 9.6 9.6 0 0 0-2.8-1.7 36.7 36.7 0 0 0-6.6-2c-4.5-1-9-1.7-13.7-2.7a55.3 55.3 0 0 1 14 1.2 25.6 25.6 0 0 1 6.8 2.4 9 9 0 0 1 2.8 2.3 3.6 3.6 0 0 1 .6 3.5ZM443.4 429.6c-3.3-.7-6.5-1.6-9.7-2.4l-9.7-2.7-9.7-2.8-9.6-2.7a74.2 74.2 0 0 1 10 1.6A141 141 0 0 1 434 426a138 138 0 0 1 9.3 3.6ZM412.1 411a64.5 64.5 0 0 1 9.2 1 84.8 84.8 0 0 1 9 2 82.2 82.2 0 0 1 8.8 3 65.8 65.8 0 0 1 8.3 4l-8.7-2.9-8.8-2.6-8.8-2.5c-3-.8-6-1.4-9-2ZM416.6 403.2a61.6 61.6 0 0 1 28.3 9c-4.8-1.6-9.4-3.3-14-4.7l-14.3-4.3Z"/><path fill="#37474f" d="m256.8 353.7 3.7 41.7.2 2.2 3.7 40.3h77.5L331 354v-.2Z"/><path fill="#37474f" d="M206.6 438h77.9v-1.3l1.3-.7c4.3-2.4 8-4.2 11.2-5.6l1.5-.7 3.7-1.5 4.2-1.5.3-.7c10.6-27 17-68.3 17.6-72v-.4H219.6s-23.6 46.8-13 84.3Z"/><path fill="#37474f" d="m219.7 353.6 111.4.3-6-37.4s8.5-12.7 7-26.1S301.3 240 299 238c-9.3-8-19.3-6.8-25.6-3.4-36.8 20-53.7 119-53.7 119Z"/><path fill="#263238" d="M301.1 312a116.7 116.7 0 0 0-17.2 3 126.4 126.4 0 0 0-12.4 3.8 18.7 18.7 0 0 1-4.5 1 .1.1 0 0 0 0 .1 32.2 32.2 0 0 0 4.3 0 31.5 31.5 0 0 0 4-.9c3-.7 5.7-1.6 8.6-2.4 5.7-1.5 11.5-3 17.3-4.1.3-.1.2-.6 0-.5ZM315.6 317a128.7 128.7 0 0 0-14.5-.6c-2.4 0-4.8.3-7.2.5l-3.4.5c-1.3.1-2.5.5-3.7.6-.2 0-.2.2 0 .2h3.6l3.6-.2 7.2-.2c4.8-.2 9.6-.4 14.4-.4.2 0 .2-.4 0-.4Z"/><path fill="#d3766a" d="M283.6 232c-7.4.8-4.5 14 2.7 24.8 6 9.1 19.4 22.3 21.6 21.4s1.3-26.8-5-33.8-15.1-12.9-19.3-12.4Z"/><path fill="#d3766a" d="M282 238c0 2.2 6.9 18.6 16.8 20.6 3.2.6 7.4-16.9 7.4-16.9l.6-1.2 8.5-17-17.9-18.9-2.6-2.5-4.5 10.8-.3.9c0 .3-.3.7-.4 1l-1.1 2.7-.8 2.2c-.2.8-.6 1.4-.9 2.2-2.6 7.3-4.7 15.1-4.7 16Z"/><path fill="#263238" d="M290.4 213a38.2 38.2 0 0 0 16.4 27.5l8.5-17-17.9-18.9-2.6-2.5-4.4 10.8Z"/><path fill="#d3766a" d="M346.6 196.6c-.4 33.4-20.4 37-27.6 37-6.6-.1-28.8-1.2-32-34.5s12.6-43.7 27.5-44.3 32.4 8.4 32 41.8Z"/><path fill="#263238" d="M341.5 190.7a21.7 21.7 0 0 1-2.3-.5 3.6 3.6 0 0 1-2.2-1 1.2 1.2 0 0 1 0-1.4 3 3 0 0 1 3-.7 4.4 4.4 0 0 1 2.7 1.6 1.3 1.3 0 0 1-1.2 2ZM318.3 189.6l2.2-.5a3.8 3.8 0 0 0 2.2-.9 1.2 1.2 0 0 0 0-1.4 3 3 0 0 0-2.8-.7 4.4 4.4 0 0 0-2.8 1.5 1.3 1.3 0 0 0 1.2 2ZM323.1 196l-.2.3c.1 2.2-.1 4.9-2.2 5.6v.2c2.6-.4 2.9-3.9 2.4-6Z"/><path fill="#263238" d="M321 193.7c-3.6-.2-3.8 7.1-.4 7.3s3.5-7 .5-7.3Z"/><path fill="#263238" d="M319.6 194c-.7.5-1.3 1.2-2 1.2s-1.6-.7-2.2-1.4c0-.1-.1 0-.1 0 0 1.4.4 2.9 2 3.1s2.3-1 2.7-2.3c0-.3-.1-.7-.4-.5ZM336.7 195.3l.1.2c-.1 2.3 0 5 2.1 5.8 0 0 0 .1 0 0-2.5-.3-2.7-3.8-2.2-6Z"/><path fill="#263238" d="M338.8 193c3.6-.1 3.7 7.2.3 7.3s-3.4-7.1-.3-7.3Z"/><path fill="#263238" d="M340.3 193.5c.6.4 1.2 1.1 1.9 1.1s1.4-.7 1.9-1.5v.1c0 1.4-.3 2.9-1.7 3.2s-2.1-1-2.4-2.4c-.1-.3 0-.7.3-.5ZM323.4 215.3c.5.5 1 1.3 1.8 1.4a6 6 0 0 0 2.5-.3 3 3 0 0 1-3 1 2.4 2.4 0 0 1-1.5-2c0-.2.1-.2.2-.1ZM333 207.2s.5 3.4.4 5c0 .1-.4.2-.9.2a7.6 7.6 0 0 1-7.4-3c-.1-.1 0-.3.2-.2a11.4 11.4 0 0 0 7 2.1c0-.4-1-5.8-.7-5.8a14 14 0 0 1 3.6.9c-.6-7.1-2.4-14-3-21.2a.2.2 0 0 1 .4 0c2.4 7 3.4 15.3 4.3 22.6.1 1-3.2-.3-3.8-.6Z"/><path fill="#263238" d="M287.9 198.9c5.4 1.1 8-11.3 8-11.3s11 1.5 16.9-13.9a24.7 24.7 0 0 1-6.7 12.5s20 1.8 30.4-13.4c0 0-4.4 7.9-7.9 10.4 0 0 8.5-1.1 13.4-7.2 0 0 2.1 9.8 4.4 12.8 0 0 3.9-34.2-28.2-35 0 0-20-1.3-29.3 13.4s-1 31.7-1 31.7Z"/><path fill="#f4e3d7" d="M286.2 196.8c.5 4.6-6.6-17.6-6.1-20.8s8.8-18 23.2-22.8c12-4 25.2 1.7 27.5 2.8a19.9 19.9 0 0 1 6.8 5s-17.4-7.7-33.3-5.3c-7.8 1.1-19.8 23.8-18 41Z"/><path fill="#f4e3d7" d="M297.7 151s4.8-9 13.6-10.6c0 0 .2 8.7-2.7 11.8-1.5 1.5-8.4 2.6-9.3 1.5a16 16 0 0 1-1.6-2.8Z"/><path fill="#050400" d="M297.7 151a16.6 16.6 0 0 0 1.6 2.7.4.4 0 0 0 .2 0 .7.7 0 0 0 .2.2h.2a9.8 9.8 0 0 0 3.8 0 22 22 0 0 0-1.2-3.7 5.8 5.8 0 0 0-2.8-2.2 21.2 21.2 0 0 0-2 3Z" opacity=".1"/><path fill="#f4e3d7" d="M295.6 152.3s-12.4-1.2-18.1 1.8c0 0 3.6 6.2 9.8 7.4 2.8.6 10.6-5 10-6.3a12.3 12.3 0 0 0-1.7-3Z"/><path fill="#050400" d="M292.8 152a7.1 7.1 0 0 0 .5 4 6.2 6.2 0 0 0 1.7 2c1.5-1.2 2.6-2.3 2.4-2.9a12.6 12.6 0 0 0-1.8-2.9s-1 0-2.8-.1Z" opacity=".1"/><path fill="#f4e3d7" d="M294.5 155.1a4 4 0 1 0 1.4-5.5 4 4 0 0 0-1.4 5.5Z"/><path fill="#d3766a" d="M292.6 200s-6.3-11-11.3-9-1 17.8 4.4 20.4a5.7 5.7 0 0 0 7.8-2.3Z"/><path fill="#263238" d="M282.6 195.4v.2c3.7 2 5.4 5.7 6.5 9.6-1-1.6-2.5-2.5-4.6-1.3l.1.2a3.5 3.5 0 0 1 3.7 1.6 16.4 16.4 0 0 1 1.5 3.2c.2.4.8.3.7-.1a.3.3 0 0 1 0-.1c.5-5-2.6-12.3-8-13.3Z"/><path fill="#d3766a" d="M255 252.1c-25.6 34.1-46.9 73.7-41.9 98.6 3.4 16.7 29.5 5.8 31.7 4.5 22.7-13.2 26.4-65.4 31-95.5 4.7-30-11.3-20.1-20.8-7.6Z"/><path fill="#d3766a" d="M216.1 355.9c11.3 10.7 33.7 8.2 90 2.8 7.8-.8 15.7-55 7.3-54.7-10.5.5-51.3 4.6-54.2 5.3-24.9 5.7-50 40-43 46.6Z"/><path fill="#d3766a" d="M306 308s18.3-10.4 29.6-12.8c15.2-3.3 29.6.2 35.5 2 12.5 3.7 40 21.3 36.2 30.1-3.4 8-30.5-11.5-30.5-11.5s31 15.3 25.2 24.1-36-15.5-36-15.5 31.4 16.4 24 24.6c-5.6 6.2-34.3-14.4-34.3-14.4s27 14.3 21.5 21c-6.1 7.2-33.7-10-33.7-10a48.5 48.5 0 0 1-40.6 13.2c-2.4-.3 3.1-50.9 3.1-50.9Z"/><path fill="#263238" d="M366.4 309.9c3.7 1.6 7.5 3.3 11 5.3s7 4 10.4 6.4c8.2 5.6 12.4 10.5 12.1 10.2-7-6.4-19.5-13.7-23-15.7l-10.6-6.1s0-.2.1-.1ZM359 322.5c4.6 2.3 9.3 4.5 13.8 7s8.6 5.3 13 8.2c.3.2 0 .3-.3 0-4.4-2.6-8.7-4.7-13.2-7.3s-8.8-5.4-13.4-7.8c0 0 .1-.1.1 0ZM350.7 332.2c7.3 3.2 14 7.8 20.4 12.4.3.2 0 .3-.4 0-6.6-4.1-11.9-7.5-20.1-12.1l.1-.3ZM268.3 307.8l-12.6 3.8-6 2.1a25.7 25.7 0 0 0-5.7 2.9 56.1 56.1 0 0 0-5.2 3.8l-5 4.2a99.2 99.2 0 0 0-9 9.4 52 52 0 0 1 8-10.5 61.6 61.6 0 0 1 10-8.6 27 27 0 0 1 6.2-3c2-.7 4.2-1.3 6.3-1.8a101.5 101.5 0 0 1 13-2.3ZM314.8 303.4a84.7 84.7 0 0 1 8-4.3 72.4 72.4 0 0 1 8.6-3.4l2.3-.6 2.2-.5a32.8 32.8 0 0 1 4.6-.5 65.3 65.3 0 0 1 9.2 0l-4.6.3-4.5.5a41 41 0 0 0-4.5.6l-2.2.6a127 127 0 0 0-15 5.5l-4.1 1.8ZM333.2 352.9a60 60 0 0 0 5.2-3.6 46.8 46.8 0 0 0 4.8-4l.2-.3.3.2a167.8 167.8 0 0 0 17.7 9 48 48 0 0 0 4.7 1.6 26.4 26.4 0 0 0 4.8 1 9.7 9.7 0 0 0 4.8-.4 4.6 4.6 0 0 0 1.8-1.5 2.4 2.4 0 0 0 .2-2.4 2.5 2.5 0 0 1 0 2.4 4.8 4.8 0 0 1-1.9 1.8 9.5 9.5 0 0 1-5 .8 35 35 0 0 1-9.7-2.5 84.5 84.5 0 0 1-9.1-4.2 117 117 0 0 1-8.7-5h.4a44.2 44.2 0 0 1-5 4 47 47 0 0 1-5.5 3ZM459.8 438h82.3l4.4-48.3.2-2.3 1-12.5.3-2.3.2-1.9 2.4-27.4H472v.2l-.3 2.7-.4 2.7v.7l-.1.3a3 3 0 0 1 0 .4l-2.6 20-.1 1-.2 1v.5l-1.2 9-.4 3.2-.3 2.4v.3l-.1.7-.8 6.3-.1 1-.4 3L461 428l-.2 1.8-1.1 8Z"/><path fill="#37474f" d="M530.1 438h1.2c2-19.5 4-39 5.6-58.4l.2-1.5v-1l.4-4.5.2-1.7 1.4-17.2c0-.2-.2-.2-.3 0l-1.7 16.7v.5l-.6 5.7v.8l-.3 2.6-6 58Z"/><path fill="#37474f" d="M483.3 343.2v.7l.4 2v.3l.5 3.7 3.2 21 .7 4.5.3 2.1 1.5 10 .1.6 1 6.3 1.5 10 1.4 8.7.3 2.4 1 6.3v.4l.3 1.7 1.9 12.2.2 1.9H553l7.5-42.4.3-1.5 4.1-23.6.7-4 .4-2 3.8-21.2Z"/><path fill="#263238" d="M471.9 343.2v.3l.4 2.7.3 1.8v.8a1 1 0 0 1 .1.3l.2 1a609.4 609.4 0 0 0 6 30l1.8 8 .4 1.5a258 258 0 0 0 1.8 6.9 229.4 229.4 0 0 0 7.6 23.3l.2.7 3.1 1.1 1.4.6 3 1.2 1 .4 1.5.7c3.3 1.5 7.3 3.4 12 6l1.2.6v.6l.5 6.2h77.8c-2.6-26-5-50.4-6.9-67.9l-1.3-13.3a.8.8 0 0 1 0-.2 2.6 2.6 0 0 0 0-.4l-.1-1.4-1.2-11.5Z"/><path fill="#37474f" d="m574 355.3.4 4.9.1 1.8.6 8.3 5.2 67.6h1.1q-2.9-33.8-5.5-67.6l-.7-8.6-.2-1.9-.3-4.5c-.1-.4-.7-.4-.7 0ZM486.9 418.5A172.7 172.7 0 0 1 514 431a.3.3 0 0 1-.3.6c-9.1-4-18.4-7.7-27.4-12.1a.6.6 0 0 1 .6-1.1ZM484 355.7c0-.3.6-.4.6 0a305 305 0 0 0 1.5 30.5c.4 4.7 4.2 30.8 12.4 28.9 1.4-.3 2-1.7 2.3-3.7.2-2.5-.7-5.6-1.1-8-1-5.5-1.6-11-2.1-16.5a149 149 0 0 1 .3-30.8.3.3 0 0 1 .5 0c0 14.2.4 28.4 2.5 42.5 1 6.8 4.5 17-2.6 18s-11.9-16-12.8-20.7c-2.5-12.9-2.6-27-1.5-40.2Z"/><path fill="#37474f" d="M498.2 415.8a44.5 44.5 0 0 1 1.9 5.4 12.2 12.2 0 0 1 .7 4.4c0 .3-.4.3-.5.1a15.7 15.7 0 0 1-2-4.3l-1.8-5a1 1 0 0 1 1.7-.6ZM535.2 364.2a14.1 14.1 0 0 1 .4-3.4.2.2 0 0 1 .3 0 13.7 13.7 0 0 1 .4 3c0 1 .2 2.2.4 3.3a50.7 50.7 0 0 0 1.2 6.8 24.1 24.1 0 0 0 6.2 11.2 32.4 32.4 0 0 0 10.6 7c4.3 1.9 9 2.6 13.5 3.9a.2.2 0 0 1 0 .3 39 39 0 0 1-14.7-2.9 31.3 31.3 0 0 1-11-7A24.5 24.5 0 0 1 536 375a34.8 34.8 0 0 1-1-6.8 30.4 30.4 0 0 1 .1-3.9Z"/><path fill="#f7a9a0" d="M509 232.3c-3.8 19-26.9 85.2-48 101.9-14 11.2-53.3 8.4-67 9.1-6.6.3-7.3-52-.3-53.7 7.5-1.9 41.3-1.2 45.9-3.9s31.5-36.4 49.2-57.5c10.6-12.6 22.2-6.6 20.1 4Z"/><path fill="#f7a9a0" d="M401.6 289.4c-20.2-2.9-42.2-3.2-61 6.6a10.5 10.5 0 0 0-4.8 5c-8.5 4.2-9 9.5-9 9.5-6.8 6.4-6.6 11.9-6.6 11.9s-9.3 3.9-7.2 10.4c2.3 7.3 15.2 0 25.5-.3 23.7-.5 57.4 5.5 64.2 6Z"/><path fill="#263238" d="M363 314.6c-7 .3-13.8.4-20.7 1.6-7.5 1.3-14.6 3.9-21.8 6.3a.2.2 0 0 1-.1-.3 80.3 80.3 0 0 1 42.6-7.9c.3 0 .3.3 0 .3ZM364.8 300.3c-6.8.7-18.6 1.9-38 10.4v-.1a72.2 72.2 0 0 1 38-10.6c.4 0 .4.3 0 .3ZM365.6 292.6a113.3 113.3 0 0 0-29.8 8.3 67.4 67.4 0 0 1 29.8-8.7c.4 0 .4.4 0 .4Z"/><path fill="#f7a9a0" d="M367 333.8c3.2 1.1 2.6 2.7-3 4.5s-29.4 4.1-27.9 12.4 35 4.4 44 .7 22.6-12.9 22.6-12.9c-6.6-.5-22.6-3.4-35.6-4.7Z"/><path fill="#455a64" d="m397 283.4 2.3 61.2s20.7 7 35 6.8A43 43 0 0 0 470 334c12.1-16.6 29.1-62.7 38.8-96.1 9-31-14.6-17.5-21.6-9.3-3.8 4.5-47.2 53.3-49.3 54.3-1 .6-3.5.7-17 .7l-23.8-.1Z"/><path fill="#263238" d="m412.6 288.7.6 5.2.4 5.1.4 10.4a597.8 597.8 0 0 1 .8 26.6 37.8 37.8 0 0 1-.1 5.6.1.1 0 0 1-.3 0 36.4 36.4 0 0 1-.5-5.2l-.4-5-.6-10.4a993.2 993.2 0 0 1-.9-26.3l.2-6c0-.2.4-.3.4 0Z"/><path fill="#37474f" d="M508.8 237.8c-9.7 33.4-26.7 79.5-38.8 96a42.6 42.6 0 0 1-33.1 17.6l63-132c7.6-3 14.4-.7 8.9 18.4Z"/><path fill="#455a64" d="M466.2 370c2 2.1 124.3.5 125-.3 1.8-2.1-33.5-127.4-62.4-149.9-6.2-4.8-30.9-5-36.3 6.2-23.2 47.5-28 142-26.3 144Z"/><path fill="#455a64" d="M519.8 240.2c9.6 15.6 41.5 66.5 43.6 70.5 0 0 51.4 20.6 53.5-8.7 1.4-19.9-51.7-65.8-81.2-79.3-14-6.4-29.4-4.6-15.9 17.5Z"/><path fill="#263238" d="m557.3 300.6-6.7-10.1-6.5-10.2-6.3-10.3-3-5.3-3-5.2 3.3 5 3.3 5 6.5 10.3 6.3 10.3c2.1 3.5 4.1 6.9 6 10.4ZM532.2 263.8c1 .8 1.8 1.8 2.7 2.7l2.6 3a11.2 11.2 0 0 1-1.6-1.3l-1.4-1.3a19.1 19.1 0 0 1-2.3-3.1Z"/><path fill="#f7a9a0" d="M521.2 323c-4.9 5.3 6.8 53.7 16.6 49.9 46.6-18 73.2-52 77.4-61 5.5-11.7-3.7-25-11.8-27.5-11.7-3.6-77.4 33.3-82.2 38.6Z"/><path fill="#f7a9a0" d="M524.3 322.8s-21 .6-32 4.4a73.8 73.8 0 0 0-29.5 20c-8.7 9.6-23.1 38.9-15.4 44.5 7 5 20.2-25.6 20.2-25.6s-18.7 29-9.1 33.6 22.8-31.9 22.8-31.9-18.5 30.3-7.9 33.5c8 2.4 22-30 22-30s-15.8 26.2-7.7 29c9 3.1 23.7-26 23.7-26a48.5 48.5 0 0 0 41.6-9.5c2-1.5-28.8-42-28.8-42Z"/><path fill="#263238" d="M473.4 355.6a133 133 0 0 0-12.3 21 70 70 0 0 0-5 15c2.6-9 9.6-21.7 11.6-25.2l5.9-10.7c0-.1 0-.2-.2 0ZM486.3 362.6c-2.8 4.4-5.7 8.7-8.3 13.2s-4.6 9-6.8 13.6c-.2.4 0 .3.3 0 2.4-4.6 5-8.6 7.5-13.1s4.8-9.2 7.4-13.6c0 0 0-.1 0 0ZM498.4 366.7c-4.5 6.5-8 13.8-11 21-.2.4.1.4.3 0 3.5-7 6.3-12.6 11-20.8 0-.2-.2-.3-.3-.2Z"/><path fill="#455a64" d="m530.7 315 16.1 59.8s17.3 3.3 32.6-8.2a121.4 121.4 0 0 0 37.7-58.3c2.1-10.2-5.9-25-17.3-24.4C579 285 530.7 315 530.7 315Z"/><path fill="#263238" d="m545.7 311.6 1.9 5.3 1.6 5.3 3.1 10.7 6 21.6 1.5 6.2a42.1 42.1 0 0 1 1.3 6 .1.1 0 0 1-.2 0 41.3 41.3 0 0 1-1.9-5.3l-1.6-5.3-3.3-10.7-6-21.2-1.6-6.2-1.3-6.2c0-.3.4-.5.5-.2ZM578.5 290.1c-26.3 9-47.8 24.7-47.9 24.7a.3.3 0 0 0 .2.6c4.4-2 24.3-14.7 47.9-24.6.1 0 0-.7-.2-.7Z"/><path fill="#f7a9a0" d="M502.3 246.6c7.8 0 18-14.3 20.8-24.7.2-.8-2.3-7.2-5-15.2-1.6-4.8-3.3-10.2-4.4-15.3-.3-1-30 15.1-30 15.1s5.6 10 7.6 18.8a11.6 11.6 0 0 1 .3 2v.4c.3 4.1 3 18.9 10.7 18.9Z"/><path fill="#263238" d="M511.7 192c.6 9 0 30.8-16.8 35.2a18.6 18.6 0 0 1-3.3.5 1.6 1.6 0 0 1 0-.3 13.6 13.6 0 0 0-.3-2.1c-2-8.9-7.6-18.8-7.6-18.8s21.4-11.6 28-14.5Z"/><path fill="#f7a9a0" d="M513 154.7c5 11 3.1 45.2-4.2 53.7-10.5 12.3-29.9 15.8-40.8 2.6-10.7-12.7-7.5-57.2.9-65.1 12.2-11.7 36.7-7.7 44.1 8.8Z"/><path fill="#263238" d="M461.3 186c.5 10.4 2.5 20.1 6.6 25 11 13.2 30.4 9.7 41-2.6 3-3.5 5-11.5 6.1-20.4l-7-11.5s-4.6 11-7.2 13.7c-3.3 3.6-11.1 7-23.1 1.3l-3.8.5s-6.9 7-11.3-.9a17 17 0 0 1-1.3-5.2Z" opacity=".3"/><path fill="#263238" d="M482.9 180.6c0-.1.2 0 .2.2-.2 2.3 0 5 2 5.8v.1c-2.6-.5-2.8-4-2.2-6.1Z"/><path fill="#263238" d="M485 178.3c3.8-.1 3.7 7.3.3 7.4s-3.3-7.4-.2-7.4ZM469.8 180c0-.2-.2 0-.2.1 0 2.3-.3 5-2.3 5.7-.1 0-.1.1 0 .1 2.5-.3 3-3.8 2.5-6Z"/><path fill="#263238" d="M467.8 177.5c-3.7-.3-4 7.1-.7 7.4s3.8-7.1.7-7.4ZM488 174.9l-2.9-1a5 5 0 0 1-2.7-1.6 1.6 1.6 0 0 1 .3-2c1.1-1 2.6-.7 4-.3a5.7 5.7 0 0 1 3.2 2.5 1.7 1.7 0 0 1-1.9 2.4ZM465 173.7a30.5 30.5 0 0 0 3-.7 4.9 4.9 0 0 0 2.9-1.4 1.6 1.6 0 0 0 0-1.9c-1-1-2.6-1-4-.7a5.8 5.8 0 0 0-3.5 2.1 1.7 1.7 0 0 0 1.6 2.6ZM485.7 201c-.6.5-1.1 1.3-2 1.3a6.3 6.3 0 0 1-2.4-.6l-.2.2a3.1 3.1 0 0 0 3 1.2 2.5 2.5 0 0 0 1.8-2l-.2-.1ZM483.3 194.1a7.8 7.8 0 0 1-5.3 3.4 9.8 9.8 0 0 1-2.8.1 2.4 2.4 0 0 1-.5 0 4.8 4.8 0 0 1-.5-.1.6.6 0 0 1-.5-.5 1 1 0 0 1 0-.3v-.2l.2-4.5c-.6.3-4 1.8-3.9.9.5-7.7 1.1-16.2 3.3-23.7a.2.2 0 0 1 .4 0c-.2 7.4-1.7 14.7-2 22.1a14 14 0 0 1 3.6-1c.3 0-.4 5.2-.4 6 3 .4 5.3-.4 8.2-2.4.2-.1.4 0 .2.2Z"/><path fill="#263238" d="M514.1 185.2c-6-1.5-10-21.6-10-21.6s.4 8.6-1.2 8.4-8.7-11.5-9.7-19.9c0 0-7.5 5.5-15 8s-16 2.5-16.1 1.2c-.2-3.9 3-14.1 8-18 6-4.3 14.5-8.6 27.2-4.3s16.2 12.2 18.3 18.3.8 28.5-1.5 28Z"/><path fill="#f7a9a0" d="M507.7 184.1s6.4-11.6 11.6-9.4 1.2 18.4-4.4 21.2a5.9 5.9 0 0 1-8.2-2.3Z"/><path fill="#263238" d="M518 179.3v.2c-3.8 2-5.5 6-6.6 10 1-1.6 2.6-2.6 4.7-1.3.1 0 0 .2 0 .2a3.6 3.6 0 0 0-3.9 1.7 17.5 17.5 0 0 0-1.6 3.4c-.1.3-.8.2-.7-.2v-.1c-.6-5.1 2.6-12.8 8.1-13.9Z"/><path fill="#f4e3d7" d="M482 138.3a49.9 49.9 0 0 1 13.8-4.2c5.3-.7 16.4-1.7 24.8 5.6 7 6 6.6 17.6 6.7 19.9s-.9 16.4-6 19.8-5.6-20.5-13.6-28.4-25.7-12.7-25.7-12.7Z"/><path fill="#050400" d="M482 138.3s17.6 4.9 25.7 12.7 8.6 31.8 13.7 28.4c2.2-1.5 3.3-3.8 4.2-7.5-1.1-7-4-17.7-9.8-25.2-5.4-7-14.8-10.5-24.8-11.6a57 57 0 0 0-9 3.2Z" opacity=".1"/><path fill="#f4e3d7" d="M519.2 193.6c-.5-6.4-7-23.2-13.7-33s-26.6-15.2-29.3-15c-6.8.4-9 2.4-10.1 1.8s5.8-5.7 7.7-6.8 7-3.8 10-3.8 20.9 1.8 27.4 9.5 16 29.2 14.2 34.7c-.4 1.3-2.1 2.2-2.7 4-.7 2.5-1.2 5.4-2 7-.5 1.5-1.5 2.1-1.5 1.6Z"/><path fill="#263238" d="M504 156.3a31.8 31.8 0 0 0 4.3-3.2 23.5 23.5 0 0 0 3.7-4c.1 0 .3 0 .2.1a18.1 18.1 0 0 1-3.4 4.5 15 15 0 0 1-4.7 3c-.2 0-.3-.3-.2-.4ZM519.3 187.2l.6-1.3a7.3 7.3 0 0 0 .6-1.5 14.6 14.6 0 0 1 .7-3 11.4 11.4 0 0 1 1.5-2.2 4.2 4.2 0 0 0 1.2-2.6.1.1 0 0 1 .3 0c0 2-1.3 3.3-2.1 5a21.5 21.5 0 0 0-1 3.2 4.9 4.9 0 0 1-1.6 2.7s-.3-.1-.3-.3ZM517 180.4a26.3 26.3 0 0 0 1.8-2.1 19.7 19.7 0 0 0 1.4-2.4l1-2.4 1.5-2.9.2.1-1 3.1a23.2 23.2 0 0 1-1.2 2.6 14.3 14.3 0 0 1-1.5 2.3 6.7 6.7 0 0 1-2 1.8h-.2ZM514.7 174.3a18.4 18.4 0 0 0 3.5-4 77.3 77.3 0 0 0 2.7-4.3 22.3 22.3 0 0 1-2.1 4.9 11.5 11.5 0 0 1-1.6 2 12.3 12.3 0 0 1-2.3 1.5c-.1 0-.3 0-.2-.1ZM512.2 168.3a6.1 6.1 0 0 0 1.7-1.6l1.6-2.2c.6-.7 1-1.4 1.4-2.1a6.2 6.2 0 0 0 1.2-2.4h.2a6.1 6.1 0 0 1-.7 2.5 15.6 15.6 0 0 1-1.5 2.5 20.7 20.7 0 0 1-1.7 2.2 4.2 4.2 0 0 1-2 1.4c-.2 0-.3-.2-.2-.3ZM510.4 160.9l1.7-1.8 1.5-2 1.6-2a.1.1 0 1 1 .1.1 17 17 0 0 1-1.1 2.3 17.6 17.6 0 0 1-1.5 2 21.4 21.4 0 0 1-1.8 1.8 6.5 6.5 0 0 1-2 1.5.1.1 0 0 1-.2-.2 12.6 12.6 0 0 1 1.7-1.7ZM499 152.8a29.4 29.4 0 0 1 2-2.3 28.8 28.8 0 0 1 2.2-2 27.6 27.6 0 0 1 5-3.4s.2.1 0 .2l-9 7.6a.1.1 0 0 1-.1-.1ZM495.3 147.4a13.3 13.3 0 0 1 2-2 28 28 0 0 1 5.5-3 .1.1 0 0 1 .1.1c-1.6 1.1-3.3 2.2-4.8 3.4a26.9 26.9 0 0 0-2.3 1.8l-2 2.2a7.5 7.5 0 0 1 1.4-2.5ZM490 144.9a13.5 13.5 0 0 1 2-2 16 16 0 0 1 4.6-2.7c.1 0 .2.1 0 .2a31.2 31.2 0 0 0-4.3 3.1l-2 1.9c-.6.6-1.1 1.3-1.9 1.9a14.8 14.8 0 0 1 1.6-2.4ZM486.2 141.8l2-1.6a8 8 0 0 1 2.2-1.2s.2.1 0 .2l-3.8 3.1a21.8 21.8 0 0 0-3 3.5 8 8 0 0 1 2.6-4ZM481.4 140.8a13.2 13.2 0 0 1 4.2-2.7l.1.2a15.9 15.9 0 0 0-3.8 3 22.3 22.3 0 0 0-3 3.7h-.1a10.7 10.7 0 0 1 2.6-4.2ZM475.2 143.6a7 7 0 0 1 .6-1 10.1 10.1 0 0 1 1.4-1.7 22.7 22.7 0 0 1 3.6-2.8.1.1 0 1 1 0 .2 18.5 18.5 0 0 0-3.3 2.8 13.6 13.6 0 0 0-1.3 1.7l-.6 1a5 5 0 0 1-.5.8.1.1 0 0 1-.2 0 2.7 2.7 0 0 1 .3-1ZM471.4 144a15.8 15.8 0 0 1 1.2-1.4 14.3 14.3 0 0 1 1.3-1.3l1.4-1.2a.1.1 0 1 1 .2.2 10.4 10.4 0 0 0-1.4 1.3l-1.1 1.3-1.2 1.3a15.5 15.5 0 0 1-1.2 1.4v-.1a7.6 7.6 0 0 1 .8-1.5Z"/><path fill="#37474f" d="M673.8 438H565.2c-2.4-6.6-6.3-17.7-10-31.2 0-.7-.3-1.4-.5-2a292.8 292.8 0 0 1-7.8-41h109a2.6 2.6 0 0 0 .1.2c1.8 3.6 20 40.4 17.8 74Z"/><path fill="#37474f" d="M656 363.8a2.5 2.5 0 0 1 0 .3c0 3.5-1.5 40.7-16.5 73.8H523.8c2.8-15.6 6-31 9.8-45.5l2-7.5c2-7.3 4.1-14.4 6.4-21Z"/><path fill="#263238" d="M562.4 373.3a557.7 557.7 0 0 0-12 64.6h-1.5c1.7-11 3.6-22.2 5.8-33.2a454.8 454.8 0 0 1 7.7-31.4ZM535.3 385a.2.2 0 0 1 .3 0c-.4 6.6-1.5 13.6 1.4 19.8 2.5 5.4 7.4 8.4 11.8 12 .2.2 0 .4-.1.3-6-1.8-11.9-5-14.2-11.1-2.6-6.8-1.2-14.2.8-21ZM557.6 156.3c-2.3.5-12.4.6-18 10.4-5.3 9.4-4.5 35.8-5.2 41.7s-8 7.6-9 14.4c-.8 5.9 3.6 7.5 4.5 11.6.7 3.2-2 8.4 1.5 12.9 3.2 4 7.8 2.6 10.9 3.6s5.5 7.4 11 8.6 9.6-4.2 12.4-4.5 7.2 8 16.2 6.1 10.9-9.9 14.5-11.8 13.4-.5 17.1-5.7 3.8-11.6 5.5-14.2 5.8-2.6 7.6-8.3-3.6-8.5-4.8-13c-1-3.2 1.6-6.6-1-11.3-3.6-6.5-11.7-4-15.7-10.7-3.2-5.2-11.1-28.4-26.2-32.6a32.6 32.6 0 0 0-21.3 2.8Z"/><path fill="#263238" d="M534.5 207a8.2 8.2 0 0 1-2 3.4l-2.7 2.9a25.1 25.1 0 0 0-4.6 6.2 8 8 0 0 0-.1 7 12 12 0 0 0 2.3 3 14.1 14.1 0 0 1 2.6 3.2 6.8 6.8 0 0 1 .2 4.3l-.9 3.9a9.4 9.4 0 0 0 1.1 7.1 5.4 5.4 0 0 0 2.8 2.2 9.9 9.9 0 0 0 3.8.4l3.9-.4a6.7 6.7 0 0 1 3.9.4 7.1 7.1 0 0 0-3.9 0l-3.9.7a10.7 10.7 0 0 1-4-.2 6.5 6.5 0 0 1-3.5-2.4c-1.9-2.3-2-5.4-1.5-8l.8-3.9a5.4 5.4 0 0 0-.1-3.4c-1-2-3.6-3.6-4.8-6.2a8.9 8.9 0 0 1 .2-8.2 25.5 25.5 0 0 1 5.2-6.2l2.9-2.7a8.8 8.8 0 0 0 2.3-3.1ZM593.7 165.4c3 3.7 5 8 7.5 12 1.2 2 2.4 4 3.8 5.9a16.2 16.2 0 0 0 2.2 2.5 2 2 0 0 0 .6.5 2.1 2.1 0 0 0 .7.3c.5.3 1 .4 1.6.6a70.8 70.8 0 0 1 6.8 2.2 12.1 12.1 0 0 1 5.7 4.6 7.4 7.4 0 0 1 1.2 3.6 9.7 9.7 0 0 1-.7 3.6 15.3 15.3 0 0 0-1.4 6.8c-.6-2.3.1-4.8.7-7a9 9 0 0 0 .4-3.3 6.5 6.5 0 0 0-1.1-3 11.8 11.8 0 0 0-5.4-4 69.9 69.9 0 0 0-6.7-2 27 27 0 0 1-1.7-.6 5.1 5.1 0 0 1-1.7-1.1 17 17 0 0 1-2.4-2.8 59.8 59.8 0 0 1-3.6-6.2l-3.2-6.3a60.1 60.1 0 0 0-3.3-6.3ZM621 227.6c-.8 1.4-.8 3.2-1 4.9l-.6 5a25 25 0 0 1-1.2 5 11.1 11.1 0 0 1-2.8 4.6c-3 2.4-6.8 2.6-10.2 2.4l-5-.4a10.4 10.4 0 0 0-5 .6 9.8 9.8 0 0 1 5-1.4h5c3.3 0 6.8-.3 9.2-2.3a10 10 0 0 0 2.5-4 30.7 30.7 0 0 0 1.4-4.7l1-5 .6-2.5a5 5 0 0 1 1.1-2.2Z"/><path fill="#dd6a57" d="M591 238.3c0 2.3-7.2 18.5-17.1 20.2-3.2.5-7-17-7-17l-.6-1.2-8-17.3 18.3-18.3 2.7-2.5 4.2 11 .3.8c0 .3.3.7.4 1l1 2.8.8 2.1.7 2.2c2.5 7.4 4.4 15.3 4.4 16.2Z"/><path fill="#263238" d="M583.5 213.2a38.1 38.1 0 0 1-17.2 27l-8-17.2 18.3-18.3 2.7-2.5 4.2 11Z"/><path fill="#dd6a57" d="M526.1 196c-3.4 33.3 16 39.4 23.2 39.8 6.5.4 28.7 2.2 35.6-30.5s-7.5-44.8-22.2-47-33 4.6-36.6 37.8Z"/><path fill="#263238" d="M528.7 191.5c.7 0 1.5-.3 2.2-.4a3.6 3.6 0 0 0 2.3-.9 1.2 1.2 0 0 0 0-1.4 3 3 0 0 0-2.9-.8 4.3 4.3 0 0 0-2.7 1.4 1.3 1.3 0 0 0 1 2ZM549.5 193.2a19.3 19.3 0 0 1-2.2-.6 3.7 3.7 0 0 1-2.2-1 1.2 1.2 0 0 1 0-1.4 3 3 0 0 1 3-.6 4.3 4.3 0 0 1 2.7 1.6 1.3 1.3 0 0 1-1.3 2ZM544.4 201.2l.1.2c-.2 2.3 0 4.9 2 5.8 0 0 0 .1 0 0-2.5-.4-2.7-3.9-2.1-6Z"/><path fill="#263238" d="M546.5 199c3.7-.1 3.5 7.2.1 7.3s-3.2-7.3 0-7.4Z"/><path fill="#263238" d="M548 199.4c.6.4 1.2 1.1 2 1.2s1.6-.6 2.2-1.4l.1.1c0 1.4-.6 2.9-2 3s-2.4-1-2.8-2.5c0-.2.2-.6.5-.4ZM532.8 200c0-.2-.2 0-.2.1 0 2.3-.3 5-2.3 5.7-.1 0-.1 0 0 0 2.5-.2 2.9-3.7 2.5-5.9Z"/><path fill="#263238" d="M530.8 197.6c-3.7-.4-4 7-.6 7.3s3.6-7 .6-7.3Z"/><path fill="#263238" d="M529.2 198c-.6.4-1.2 1-1.9 1s-1.3-.8-1.8-1.5c0-.1-.1 0-.1 0-.1 1.4.3 3 1.6 3.3s2.2-1 2.6-2.3c0-.3-.1-.7-.4-.5ZM544.7 218.8c-.4.6-.9 1.4-1.7 1.6a5.9 5.9 0 0 1-2.5-.3v.2a3 3 0 0 0 3 .8 2.4 2.4 0 0 0 1.5-2.2h-.3ZM534.8 210.2s-.5 3.4-.6 5c0 .2.4.3 1 .3a7.6 7.6 0 0 0 7.5-2.6c0-.1-.1-.3-.3-.2a11.4 11.4 0 0 1-7 1.8c0-.5 1.2-5.8 1-5.8a13.7 13.7 0 0 0-3.7.7c1-7 3-14 4-21a.2.2 0 0 0-.4-.1c-2.7 7-4 15.1-5.3 22.4-.2.9 3.2-.2 3.8-.5ZM583.4 211.2c-3.6-.9-13.4-14.1-10.6-31.6 0 0-1.4 15.9-.6 18.3s-4.3-6.4-2.3-20.5c0 0-8.7 4.2-15.7 5s-11 0-11.4-.7 10-1.9 13-4.5c0 0-19 5.2-27.2 4.4-1-.1 1.3-19.6 15.3-25.6s32.3 6.3 36.7 12.4c0 0 6.1 2 11.3 12.4s-4.6 31.3-8.5 30.4Z"/><path fill="#dd6a57" d="M571.2 200.6s7-10.6 11.8-8-.4 17.7-5.9 19.9a5.6 5.6 0 0 1-7.6-3Z"/><path fill="#263238" d="M581.5 196.9v.1c-4 1.7-5.9 5.3-7.3 9 1.2-1.4 2.7-2.2 4.7-1l-.1.3a3.5 3.5 0 0 0-3.8 1.3 16.3 16.3 0 0 0-1.8 3.1c-.2.4-.8.2-.7-.2v-.1c-.1-5 3.6-12 9-12.5Z"/><path fill="#f4e3d7" d="m539.3 333.4 2.7 30.4s86 2 114 0c0 0-13.4-92.5-44-120.3-16.5-15-27.6-18.1-38.9-6.7-2.8 2.9-36.8 47.7-40.4 64.9-3.2 15 6.6 31.7 6.6 31.7Z"/><path fill="#fff" d="M577.3 246a2.3 2.3 0 1 1-2.3-2.4 2.3 2.3 0 0 1 2.3 2.3Zm24-2.4a2.3 2.3 0 1 0 2.4 2.3 2.3 2.3 0 0 0-2.3-2.3ZM586.8 230a2.3 2.3 0 0 0 1.5.5 2.4 2.4 0 0 0 1.3-.3 18.6 18.6 0 0 0-2.8-.2Zm-38.2 50.6a2.3 2.3 0 1 0 2.3 2.3 2.3 2.3 0 0 0-2.3-2.3Zm26.4 0a2.3 2.3 0 1 0 2.3 2.3 2.3 2.3 0 0 0-2.2-2.3Zm26.5 0a2.3 2.3 0 1 0 2.3 2.3 2.3 2.3 0 0 0-2.3-2.3Zm26.4 0a2.3 2.3 0 1 0 2.3 2.3 2.3 2.3 0 0 0-2.3-2.3Zm-66-17.8a2.3 2.3 0 1 0 2.2 2.3 2.3 2.3 0 0 0-2.3-2.3Zm26.4 0a2.3 2.3 0 1 0 2.3 2.3 2.3 2.3 0 0 0-2.3-2.3Zm26.4 0a2.3 2.3 0 1 0 2.3 2.3 2.3 2.3 0 0 0-2.3-2.3Zm-66 54.6a2.3 2.3 0 1 0 2.2 2.3 2.3 2.3 0 0 0-2.3-2.3Zm26.3 0a2.3 2.3 0 1 0 2.3 2.3 2.3 2.3 0 0 0-2.2-2.3Zm26.5 0a2.3 2.3 0 1 0 2.3 2.3 2.3 2.3 0 0 0-2.3-2.3Zm26.4 0a2.3 2.3 0 1 0 2.3 2.3 2.3 2.3 0 0 0-2.3-2.3Zm-92.5-17.8a2.3 2.3 0 1 0 2.3 2.3 2.3 2.3 0 0 0-2.3-2.3Zm26.4 0a2.3 2.3 0 1 0 2.3 2.3 2.3 2.3 0 0 0-2.3-2.3Zm26.5 0a2.3 2.3 0 1 0 2.3 2.3 2.3 2.3 0 0 0-2.3-2.3Zm26.4 0a2.3 2.3 0 1 0 2.3 2.3 2.3 2.3 0 0 0-2.3-2.3Zm26.6 0a.5.5 0 0 0-.2 0 2.3 2.3 0 1 0 0 4.6 2.2 2.2 0 0 0 1.4-.4l-1.2-4.1Zm-92.7 54.7a2.3 2.3 0 1 0 2.3 2.3 2.3 2.3 0 0 0-2.3-2.3Zm26.4 0a2.3 2.3 0 1 0 2.3 2.3 2.3 2.3 0 0 0-2.2-2.3Zm26.5 0a2.3 2.3 0 1 0 2.3 2.3 2.3 2.3 0 0 0-2.3-2.3Zm26.4 0a2.3 2.3 0 1 0 2.3 2.3 2.3 2.3 0 0 0-2.3-2.3Zm26.5 0a2.3 2.3 0 1 0 0 4.6 2 2 0 0 0 .8-.2l-.8-4.4Zm-92.6-17.8a2.3 2.3 0 1 0 2.3 2.3 2.3 2.3 0 0 0-2.3-2.3Zm26.5 0a2.3 2.3 0 1 0 2.3 2.3 2.3 2.3 0 0 0-2.3-2.3Zm26.4 0a2.3 2.3 0 1 0 2.3 2.3 2.3 2.3 0 0 0-2.3-2.3Zm26.4 0a2.3 2.3 0 1 0 2.3 2.3 2.3 2.3 0 0 0-2.3-2.3Z"/><path fill="#dd6a57" d="M585.2 260c-7 20.7-42 90.5-62.4 94.4-32.1 6-80.6-.7-101.2-2.2-11.2-.9-6-62 6.3-59.3 20 4.6 74 2.8 79.8 3.4s34.3-31.2 56-53c18.2-18.2 30.3-9.6 21.5 16.7Z"/><path fill="#dd6a57" d="M433.8 298.8S417.3 283.4 406 278a79.6 79.6 0 0 0-37.4-7c-13.9.8-46.9 12.3-45.2 22.4 1.4 9 34.6-4.3 34.6-4.3s-36 8-32.3 18.7 41.5-7 41.5-7-37 9-31.2 19.5c4.2 7.8 39.2-6.3 39.2-6.3s-31.6 8-27.6 16.3c4.5 9 37.6-2 37.6-2a51.8 51.8 0 0 0 38.9 24c2.5.4 9.6-53.5 9.6-53.5Z"/><path fill="#263238" d="M371.8 284.5c-4.3.8-8.6 1.6-12.8 2.8s-8.3 2.4-12.4 4c-10 3.8-15.6 7.8-15.2 7.6 8.9-5 23.8-9.3 28-10.5l12.5-3.7-.1-.2ZM376.3 299.5c-5.4 1.3-10.8 2.3-16.2 3.8s-10.2 3.4-15.5 5.2c-.4.2-.1.3.3.2 5.3-1.6 10.3-2.7 15.6-4.3s10.5-3.4 15.8-4.7c.1 0 0-.2 0-.2ZM382.5 311.7c-8.4 1.5-16.5 4.6-24.3 7.7-.4.2-.1.4.3.2 8-2.7 14.3-4.9 24-7.6.2 0 .2-.3 0-.3Z"/><path fill="#f4e3d7" d="m490 293.2-.5 69.9s31.1-1.1 40.1-8.2 44.9-56.2 56-91.5-4.8-37.2-23-19.7-52.3 50-54 50.5-18.6-1-18.6-1Z"/><path fill="#fff" d="M577.3 246a2.3 2.3 0 1 1-2.3-2.4 2.3 2.3 0 0 1 2.3 2.3Zm-53.9 34.9-3.2 3a2.3 2.3 0 0 0 4.2-1.1 2.3 2.3 0 0 0-1-2Zm25.1-.4a2.3 2.3 0 1 0 2.3 2.3 2.3 2.3 0 0 0-2.3-2.3Zm26.4 0a2.3 2.3 0 1 0 2.3 2.3 2.3 2.3 0 0 0-2.2-2.3Zm-13.2-17.8a2.3 2.3 0 1 0 2.3 2.3 2.3 2.3 0 0 0-2.3-2.3Zm-66 54.6a2.3 2.3 0 1 0 2.3 2.3 2.3 2.3 0 0 0-2.3-2.3Zm26.4 0a2.3 2.3 0 1 0 2.3 2.3 2.3 2.3 0 0 0-2.3-2.3Zm26.4 0a2.3 2.3 0 1 0 2.3 2.3 2.3 2.3 0 0 0-2.3-2.3ZM509 299.5a2.3 2.3 0 1 0 2.3 2.3 2.3 2.3 0 0 0-2.3-2.3Zm26.4 0a2.3 2.3 0 1 0 2.3 2.3 2.3 2.3 0 0 0-2.3-2.3Zm26.4 0a2.3 2.3 0 1 0 2.3 2.3 2.3 2.3 0 0 0-2.3-2.3Zm-66 54.7a2.3 2.3 0 1 0 2.3 2.3 2.3 2.3 0 0 0-2.3-2.3Zm26.4 0a2.3 2.3 0 0 0-2.3 2.3 2.3 2.3 0 0 0 1.5 2.1l2.7-.8a2.5 2.5 0 0 0 .4-1.3 2.3 2.3 0 0 0-2.3-2.3ZM509 336.4a2.3 2.3 0 1 0 2.3 2.3 2.3 2.3 0 0 0-2.3-2.3Zm26.4 0a2.3 2.3 0 1 0 2.3 2.3 2.3 2.3 0 0 0-2.3-2.3Z"/><path fill="#263238" d="M501.5 357c-.6-19.3-1-38.7.2-58 0-.2.3-.2.3 0 1.2 19.2.6 38.6 0 58 0 .2-.4.2-.5 0ZM536.5 347.3c6-9.2 22.5-29.4 45.5-72.7l.2.1a133.4 133.4 0 0 1-5.9 12.9l3.4-4.3s.3 0 .2.2a26.9 26.9 0 0 1-2.9 4.1l-1.8 2c-23.9 44.8-35.5 54.4-38.4 58-.1 0-.4 0-.3-.3Z"/><path fill="#455a64" d="M224 438h-86.7l-.9-4.7-.9-5-.7-4-.4-1.9-1.3-7.5-.4-1.8v-.4l-.7-3.8-.2-.8-1.4-7.7c0-.4 0-.8-.2-1.2l-.9-5-.4-2.4-1.3-6.8-.1-.8-.2-1.3-.3-1.2-.8-4.4c0-.7-.2-1.3-.3-1.9l-.3-1.6-.2-1.1-.2-1.4-.3-1.2-.1-.9-.5-2.4-.2-1.3-.1-.7v-.7a1.2 1.2 0 0 0 0-.1v-.3a.9.9 0 0 0 0-.1v-.2h81.8l18.1 74.5Z"/><path fill="#37474f" d="M150.1 438H149l-12-64.5c0-.2.2-.3.2-.1l13 64.5Z"/><path fill="#263238" d="m189.9 363.4-2.8 29-.6 6.1-.7 7-.2 1.4v1.3l-3 29.7h-45.3l-.9-4.6-.9-5-.7-4-.4-2-1.3-7.5-.4-1.8v-.3l-.7-3.8-.2-.8a713.2 713.2 0 0 0-1.6-9l-.9-5-.4-2.4-1.3-6.8-.1-.8-.2-1.3c0-.5-.2-.8-.3-1.2l-.8-4.3a.4.4 0 0 0 0-.1c0-.7-.2-1.2-.3-1.8l-.3-1.7-.2-1-.2-1.5c0-.5-.2-.8-.3-1.2l-.1-.8-.5-2.5-.2-1.3-.1-.6v-.7a1.2 1.2 0 0 0 0-.2v-.5Z"/><path fill="#455a64" d="M203.8 363.4c-7.8 17.4-11.6 36-15.4 40.8a21.8 21.8 0 0 1-2.8 2.7c-5.9 5.1-16.8 11.6-16.8 11.6v.6l-.5 18.8h-95c-1.6-16-.1-41.1 10.5-74.6Z"/><path fill="#263238" d="M191.1 403c-5.6 2.3-10.6 5.8-15.6 9.2-5.1 3.5-9.9 7.6-14.8 11.4-.2.1 0 .4.2.3 5.2-3.3 10.7-6.3 15.9-9.7s10.2-6.6 14.6-10.8c.1-.2 0-.5-.3-.4Z"/><path fill="#263238" d="m191.8 370.6-2.3 10.7c-.7 3.4-1.3 6.8-2.1 10a17.1 17.1 0 0 1-4.7 8.4c-1.3 1.3-2.8 2.3-4.2 3.5l-2.3 1.7.3-1.4.7-4 1.4-9c1-6 1.7-12 3-17.9a.2.2 0 0 0-.4 0l-4.4 17.4a538.4 538.4 0 0 0-3.2 21.2 12.7 12.7 0 0 0 0 3.2.3.3 0 0 0 .5 0 12.5 12.5 0 0 0 1-3l.6-3.2.2-1 4-3c1.3-1 2.8-2 4.1-3.2a16 16 0 0 0 5.1-8 57.8 57.8 0 0 0 1.7-10.2c.5-4 .8-8 1.4-12.1 0-.2-.3-.3-.4 0ZM96.2 395.6c1.5-.8 7.3.6 17.9-1.2a12 12 0 0 0 5.7-2.4c2.7-2.2 4.8-5.8 6.5-9a46 46 0 0 0 4.5-11c.1-.2.4-.1.4.1-.4 2.2-.6 4.4-1.2 6.5a39.1 39.1 0 0 1-2.2 6 24.1 24.1 0 0 1-6.7 9.9c-3.3 2.5-8 3-12.1 3.3-2.4.1-11.7-.1-13-1.4a.5.5 0 0 1 .2-.8Z"/><path fill="#f4e3d7" d="m212.5 379.6-138.8-5.3s26.2-112.9 76-156.6c6.2-5.4 20.3-4.6 29 .4 23.6 13.5 34.1 161 33.8 161.5Z"/><path d="m149.9 217.6-.2.1-.5.5a2 2 0 0 1 .7 1.5 2 2 0 0 1-3.7 1.2l-.6.6a3 3 0 0 0 2.3 1.1 3 3 0 0 0 2-5Zm24.4-.8a3 3 0 1 0 3 2.9 3 3 0 0 0-3-3Zm0 4.9a2 2 0 1 1 0-4 2 2 0 1 1 0 4Zm-53 35.3a3 3 0 1 0 3 3 3 3 0 0 0-3-3Zm0 5a2 2 0 0 1-2-2 2 2 0 0 1 4 0 2 2 0 0 1-2 2Zm26.6-5a3 3 0 1 0 2.9 3 3 3 0 0 0-3-3Zm0 5a2 2 0 0 1-2-2 2 2 0 0 1 4 0 2 2 0 0 1-2 2Zm26.4-5a3 3 0 1 0 3 3 3 3 0 0 0-3-3Zm0 5a2 2 0 0 1-2-2 2 2 0 1 1 2 2Zm-39.7-24.9a3 3 0 1 0 3 3 3 3 0 0 0-3-3Zm0 5a2 2 0 0 1-2-2 2 2 0 1 1 2 2Zm26.4-5a3 3 0 1 0 3 3 3 3 0 0 0-3-3Zm0 5a2 2 0 0 1-2-2 2 2 0 0 1 2-2 2 2 0 0 1 2 2 2 2 0 0 1-2 1.9Zm26.5-5a3 3 0 0 0 0 6 3 3 0 1 0 0-6Zm0 5a2 2 0 0 1-2-2 2 2 0 0 1 4 0 2 2 0 0 1-2 1.9ZM97.1 302a2.9 2.9 0 0 0 .7-1.7l-.7 1.7Zm24.3-4.9a3 3 0 1 0 3 3 3 3 0 0 0-3-3Zm0 5a2 2 0 1 1 2-2 2 2 0 0 1-2 2Zm26.4-5a3 3 0 1 0 3 3 3 3 0 0 0-3-3Zm0 5a2 2 0 1 1 2-2 2 2 0 0 1-2 2Zm26.5-5a3 3 0 1 0 3 3 3 3 0 0 0-3-3Zm0 5a2 2 0 1 1 0-4 2 2 0 1 1 0 4Zm26.5-5a3 3 0 1 0 0 6 3 3 0 0 0 0-6Zm0 5a2 2 0 1 1 0-4 2 2 0 0 1 0 4Zm-92.7-24.8-.5 1a1.7 1.7 0 0 1 .5 0 2 2 0 0 1 0 4 2 2 0 0 1-1.8-1.3l-.5 1a3 3 0 1 0 2.3-4.8Zm26.5 0a3 3 0 1 0 3 3 3 3 0 0 0-3-3Zm0 5a2 2 0 1 1 2-2 2 2 0 0 1-2 2Zm26.4-5a3 3 0 1 0 3 3 3 3 0 0 0-3-3Zm0 5a2 2 0 1 1 2-2 2 2 0 0 1-2 2Zm26.5-5a3 3 0 1 0 3 3 3 3 0 0 0-3-3Zm0 5a2 2 0 1 1 2-2 2 2 0 0 1-2 2Zm-92.6 55a3 3 0 1 0 3 3 3 3 0 0 0-3-3Zm0 5a2 2 0 0 1-2-2 2 2 0 0 1 4 0 2 2 0 0 1-2 2Zm26.5-5a3 3 0 1 0 3 3 3 3 0 0 0-3-3Zm0 5a2 2 0 0 1-2-2 2 2 0 0 1 4 0 2 2 0 0 1-2 2Zm26.4-5a3 3 0 1 0 3 3 3 3 0 0 0-3-3Zm0 5a2 2 0 0 1-2-2 2 2 0 0 1 4 0 2 2 0 0 1-2 2Zm26.5-5a3 3 0 1 0 3 3 3 3 0 0 0-3-3Zm0 5a2 2 0 0 1-2-2 2 2 0 0 1 2-2 2 2 0 0 1 2 2 2 2 0 0 1-2 2Zm26.5-5a3 3 0 1 0 3 3 3 3 0 0 0-3-3Zm0 5a2 2 0 0 1-2-2 2 2 0 0 1 4 0 2 2 0 0 1-2 2Zm-92.7-24.9a3 3 0 1 0 3 3 3 3 0 0 0-3-3Zm0 5a2 2 0 1 1 2-2 2 2 0 0 1-2 2Zm26.5-5a3 3 0 1 0 3 3 3 3 0 0 0-3-3Zm0 5a2 2 0 1 1 2-2 2 2 0 0 1-2 2Zm26.4-5a3 3 0 1 0 3 3 3 3 0 0 0-3-3Zm0 5a2 2 0 1 1 2-2 2 2 0 0 1-2 2Zm26.5-5a3 3 0 1 0 3 3 3 3 0 0 0-3-3Zm0 5a2 2 0 1 1 2-2 2 2 0 0 1-2 2Zm-13.3 55.2a2.9 2.9 0 0 0-1.6.5l3.5.1a3 3 0 0 0-1.9-.6Zm26.5 0a3 3 0 0 0-2.6 1.5h1.1a2 2 0 0 1 1.5-.6 2 2 0 0 1 1.6.7h1a3 3 0 0 0-2.6-1.6Zm-119-20a3 3 0 1 0 3 3 3 3 0 0 0-3-3Zm0 5a2 2 0 1 1 2-2 2 2 0 0 1-2 2Zm26.4-5a3 3 0 1 0 3 3 3 3 0 0 0-3-3Zm0 5a2 2 0 1 1 2-2 2 2 0 0 1-2 2Zm26.5-5a3 3 0 1 0 3 3 3 3 0 0 0-3-3Zm0 5a2 2 0 1 1 2-2 2 2 0 0 1-2 2Zm26.5-5a3 3 0 1 0 3 3 3 3 0 0 0-3-3Zm0 5a2 2 0 1 1 2-2 2 2 0 0 1-2 2Zm26.5-5a3 3 0 1 0 3 3 3 3 0 0 0-3-3Zm0 5a2 2 0 1 1 2-2 2 2 0 0 1-2 2Z" opacity=".2"/><path fill="#774442" d="M176.6 246.6c-8 .2-18.5-14.1-21.7-24.6-.2-.8 2.2-7.4 4.8-15.5 1.5-5 3.1-10.5 4.2-15.7.2-1 30.8 14.8 30.8 14.8s-5.5 10.1-7.4 19.1a12.9 12.9 0 0 0-.2 2.2v.4c-.2 4.1-2.8 19.1-10.5 19.3Z"/><path fill="#263238" d="M162 198.7c8 19.8 23 21.6 26.4 21.8a92.6 92.6 0 0 1 6.3-15S164 189.9 163.9 191c-.5 2.5-1.2 5.2-1.9 7.8Z"/><path fill="#774442" d="M154.7 153c-3.4 11.7 3.2 45.6 11.6 53 12.2 10.9 32 11.7 41.2-3 8.9-14.2-.5-58.2-9.9-65-13.8-9.9-37.8-2.5-42.9 15Z"/><path fill="#263238" d="m188 175-.1.3c.5 2.3.7 5-1.3 6.1v.1c2.6-.8 2.3-4.3 1.4-6.4Z"/><path fill="#263238" d="M185.6 173c-3.8.5-2.7 8 .8 7.5s2.3-7.8-.8-7.4ZM201.4 172.6c0-.1.2 0 .2.2.3 2.3 1 4.9 3.2 5.3v.2c-2.6 0-3.5-3.5-3.4-5.7Z"/><path fill="#263238" d="M203.1 169.9c3.7-.9 5 6.5 1.7 7.3s-4.7-6.6-1.7-7.3ZM182.8 169.1c1-.3 1.8-.8 2.8-1.3a5 5 0 0 0 2.6-1.8 1.6 1.6 0 0 0-.4-1.9c-1.2-.9-2.7-.6-4 0a5.8 5.8 0 0 0-3.1 2.7 1.7 1.7 0 0 0 2 2.3ZM205.4 165.7a28.6 28.6 0 0 1-3-.3 5 5 0 0 1-3-1 1.6 1.6 0 0 1-.3-1.9c.9-1.2 2.4-1.4 3.8-1.3a5.8 5.8 0 0 1 3.8 1.7 1.7 1.7 0 0 1-1.3 2.8ZM188.5 195.9c.7.4 1.3 1 2.2 1a6 6 0 0 0 2.3-1l.1.1a3.1 3.1 0 0 1-2.7 1.7 2.5 2.5 0 0 1-2-1.7c-.1-.1 0-.2.1-.1ZM190 188.6a7.9 7.9 0 0 0 5.6 2.7 9.7 9.7 0 0 0 2.9-.3 3 3 0 0 0 .5-.1c.2 0 .3 0 .5-.2a.6.6 0 0 0 .4-.5 1 1 0 0 0 0-.3v-.2c-.2-1.7-.8-4.4-.8-4.4.7.2 4.2 1.2 4 .3-1.6-7.6-3.4-16-6.6-23.2a.2.2 0 0 0-.4 0c1.3 7.4 3.8 14.5 5.2 21.9a14.2 14.2 0 0 0-3.9-.6c-.2.1 1.2 5.1 1.3 6-3 .9-5.3.3-8.5-1.3-.3-.1-.5 0-.3.2Z"/><path fill="#263238" d="M151.7 184.3c9.5.2 13.9-11.3 11.2-20.3 0 0 25.4 2.1 25.6-18.2a19.9 19.9 0 0 0 16.8 8.3l2.7 6.8c2.5-.9 5.4-7.9-1.2-13.3 0 0-1-10-8.7-15.7a13.8 13.8 0 0 0-14.9-1.4 20.9 20.9 0 0 0-15.4-3c-9.2 1.7-12.6 10.3-12.6 10.3s-12.3 3-14 12a18.4 18.4 0 0 0 3.2 14.7s-3 3.6-1 11.1c1.3 4.8 5.4 8.7 8.3 8.8Z"/><path fill="#263238" d="M187.8 144a24 24 0 0 1 .3 5 20 20 0 0 1-.6 4.8 12.8 12.8 0 0 1-5.5 7.6c-2.6 1.8-6 2.3-9.2 2.8h-5l-5-.2 5 .9c1.6.3 3.4 0 5 .2 3.3-.3 6.8-.8 9.8-2.8a13.3 13.3 0 0 0 5.7-8.3 20.2 20.2 0 0 0-.5-10Z"/><path fill="#263238" d="M201.4 155a26.2 26.2 0 0 1-7.9-3.6 16.3 16.3 0 0 1-3-3 19.7 19.7 0 0 1-2.4-3.7 10.7 10.7 0 0 0 1.6 4.3 11.7 11.7 0 0 0 3.2 3.3 14.5 14.5 0 0 0 4 2 13.6 13.6 0 0 0 4.5.8Z"/><path fill="#774442" d="M164.8 184.1s-8-10.7-12.9-7.8 1.4 18.6 7.3 20.6a6 6 0 0 0 7.9-3.5Z"/><path fill="#263238" d="M153.8 180.7s-.1.2 0 .2c4.2 1.5 6.4 5.2 8 9.1-1.2-1.4-3-2.2-4.9-.7l.1.2a3.7 3.7 0 0 1 4.1 1.2 18 18 0 0 1 2 3.2c.2.3.9.1.7-.3a1 1 0 0 1 0-.1c0-5.2-4.4-12.4-10-12.8Z"/><path fill="#774442" d="M146 254.4c9.3 16.3 54.8 82.6 75.2 86.7 32 6.5 68.6.3 89.2-1 11.2-.8 5.2-61.6-7.1-59-20.1 4.4-60.5 1.6-66.4 2.2s-47.4-27.5-71.8-44.2c-21.1-14.6-32.8-8.8-19.1 15.3Z"/><path fill="#774442" d="M299 286.9s16.4-15.3 27.5-20.7a79.3 79.3 0 0 1 37.3-6.9c13.8.8 46.7 12.2 45 22.2-1.4 9.1-34.4-4.2-34.4-4.2s35.9 8 32 18.6-41.2-7-41.2-7 36.8 9 31.1 19.4c-4.3 7.8-39.1-6.3-39.1-6.3s31.5 8 27.5 16.3c-4.5 9-37.5-2-37.5-2a51.7 51.7 0 0 1-38.7 24c-2.5.3-9.5-53.4-9.5-53.4Z"/><path fill="#263238" d="M360.7 272.7c4.3.8 8.6 1.5 12.7 2.7s8.3 2.5 12.4 4c9.9 3.8 15.5 7.7 15.1 7.5-8.8-4.8-23.7-9.2-27.8-10.4l-12.5-3.7s0-.2.1-.1ZM356.2 287.6c5.4 1.3 10.8 2.3 16.1 3.8s10.2 3.4 15.4 5.2c.4.1.2.3-.2.2-5.3-1.7-10.2-2.8-15.5-4.3s-10.5-3.4-15.8-4.7c-.1 0 0-.2 0-.2ZM350 299.8c8.3 1.5 16.4 4.5 24.2 7.7.4.1.1.3-.3.2-8-2.7-14.3-5-24-7.6l.1-.3Z"/><path fill="#f4e3d7" d="m196.4 256-31.7 33.5s-20-27.9-25.7-45.6c-4-12.6-3.4-25.8 23.3-10.8s34 22.9 34 22.9Z"/><path d="M161 277.3a3 3 0 0 0-2.8 2.5l2.1 3.2a3 3 0 0 0 .8.1 3 3 0 1 0 0-5.9Zm0 5a2 2 0 1 1 2-2 2 2 0 0 1-2 2Zm0-45.2a3 3 0 1 0 3 3 3 3 0 0 0-3-3Zm0 5a2 2 0 0 1-2-2 2 2 0 0 1 2-2 2 2 0 0 1 2 2 2 2 0 0 1-2 1.9Zm13.3 14.9a3 3 0 1 0 3 3 3 3 0 0 0-3-3Zm0 5a2 2 0 0 1-2-2 2 2 0 1 1 2 2Zm-26.4-5a3 3 0 0 0-2.6 1.4l.6 1a2 2 0 0 1 2-1.5 2 2 0 0 1 2 2 2 2 0 0 1-2 2 2.2 2.2 0 0 1-.7 0l.6 1a3 3 0 0 0 0-6Z" opacity=".2"/><path fill="#263238" d="M162.3 279.5a72.2 72.2 0 0 1 6-6.8l6-6.5c2-2.2 4.2-4.3 6.3-6.4l6.7-6.3c.2 0 .4.1.3.3l-5.9 6.7-6.1 6.5-6.3 6.4a73.8 73.8 0 0 1-6.8 6.2.1.1 0 0 1-.2-.1ZM179.9 243.6a79.5 79.5 0 0 1 8.8 5.5q2.1 1.4 4.1 3a26.3 26.3 0 0 1 3.8 3.7l.1.2-.1.2-2.5 2.2 2-2.6v.3a43 43 0 0 0-3.8-3.2l-4.2-3c-2.8-2-5.5-4.1-8.2-6.3Z"/><path fill="#263238" d="m168.3 285.7-3.4 4-.2.1-.1-.2a109.5 109.5 0 0 1-15.4-22.8 87.3 87.3 0 0 1-3.8-8.4l4.4 8a206.3 206.3 0 0 0 15 22.9h-.3l3.8-3.6Z"/><path fill="#263238" d="M145.6 264a20.4 20.4 0 0 1 2.7 2.2 25.9 25.9 0 0 1 2.4 2.5 10 10 0 0 1-3-2 11.3 11.3 0 0 1-2-2.7Z"/></svg>