<svg xmlns="http://www.w3.org/2000/svg" viewBox="0 0 750 500"><g fill="#ebebeb"><path d="M67.4 110.4a2.6 2.6 0 0 1 2.8 0l.7.4.8.4a2.6 2.6 0 0 1 1.5 2.3l.1 3.4 11.2-.3-.1-3.5a2.7 2.7 0 0 1 1.4-2.4 13.8 13.8 0 0 0 1.4-.9 2.7 2.7 0 0 1 2.8-.1l3 1.6 5.3-9.9-3-1.6a2.7 2.7 0 0 1-1.4-2.4 15.3 15.3 0 0 0 0-1.6 2.6 2.6 0 0 1 1.2-2.5l2.9-1.8-6-9.5-2.9 1.8a2.6 2.6 0 0 1-2.7 0l-.7-.4-.8-.4a2.6 2.6 0 0 1-1.5-2.3l-.1-3.4-11.2.3.1 3.4a2.7 2.7 0 0 1-1.4 2.4 14 14 0 0 0-1.4.9 2.7 2.7 0 0 1-2.8.2l-3-1.7-5.3 9.9 3 1.6a2.7 2.7 0 0 1 1.4 2.4v1.7a2.6 2.6 0 0 1-1.2 2.5l-2.9 1.8 6 9.5Zm2.8-17.6A9.2 9.2 0 1 1 74 105a9.2 9.2 0 0 1-3.8-12.3ZM666 264.1a1.9 1.9 0 0 1 1 1.8v1.1a1.9 1.9 0 0 1-1 1.7l-2 1.2 3.8 6.8 2.1-1.2a1.9 1.9 0 0 1 2 0 11.1 11.1 0 0 0 1 .7 1.9 1.9 0 0 1 1 1.6v2.4h7.8v-2.4a1.8 1.8 0 0 1 1-1.6l1-.6a1.9 1.9 0 0 1 2 0l2 1.1 4-6.8-2.1-1.2a1.9 1.9 0 0 1-1-1.7V266a1.9 1.9 0 0 1 1-1.8l2-1.2-3.8-6.7-2.1 1.2a1.9 1.9 0 0 1-2-.1 9.2 9.2 0 0 0-1-.6 1.9 1.9 0 0 1-1-1.6v-2.4H674v2.4a1.9 1.9 0 0 1-1 1.6 10.4 10.4 0 0 0-1 .6 1.9 1.9 0 0 1-2 0l-2-1.1-4 6.7Zm11.8-4a6.4 6.4 0 1 1-6.4 6.3 6.4 6.4 0 0 1 6.4-6.4ZM205.8 304a1.9 1.9 0 0 1 1 1.8v1.2a1.9 1.9 0 0 1-1 1.7l-2 1.2 3.8 6.8 2.1-1.3a1.9 1.9 0 0 1 2 .1 10 10 0 0 0 1 .6 1.9 1.9 0 0 1 1 1.7v2.3h7.8v-2.3a1.9 1.9 0 0 1 1-1.7 10 10 0 0 0 1-.6 1.9 1.9 0 0 1 2 0l2 1.1 4-6.7-2.1-1.2a1.9 1.9 0 0 1-1-1.7v-1.2a1.9 1.9 0 0 1 1-1.7l2-1.2-3.8-6.8-2.1 1.2a1.9 1.9 0 0 1-2 0 10.2 10.2 0 0 0-1-.7 1.9 1.9 0 0 1-1-1.6v-2.4h-7.8v2.4a1.9 1.9 0 0 1-1 1.6 10.2 10.2 0 0 0-1 .6 1.9 1.9 0 0 1-2 .1l-2-1.2-4 6.8Zm11.8-4a6.4 6.4 0 1 1-6.4 6.4 6.4 6.4 0 0 1 6.4-6.4ZM562.3 88.2a30.5 30.5 0 1 0 30.5-30.4 30.5 30.5 0 0 0-30.5 30.4Zm16.3 0a14.2 14.2 0 1 1 14.2 14.3 14.2 14.2 0 0 1-14.2-14.3Z"/><path d="M587 59h11.7l-.7-8.3h-10.4L587 59zM609.3 63l8.2 8.3 5.5-6.4-7.4-7.3-6.3 5.4zM622.2 81.5v11.8l8.3-.7V82.2l-8.3-.7zM618.3 103.9l-8.3 8.2 6.3 5.4 7.4-7.3-5.4-6.3zM599.7 116.8H588l.7 8.3h10.4l.6-8.3zM577.4 112.9l-8.3-8.3-5.4 6.3 7.4 7.4 6.3-5.4zM564.4 94.3V82.6l-8.3.7v10.4l8.3.6zM568.4 72l8.3-8.3-6.3-5.4-7.4 7.4 5.4 6.3zM215.5 180.5a30.5 30.5 0 1 0 30.5-30.4 30.5 30.5 0 0 0-30.5 30.4Zm16.2 0a14.2 14.2 0 1 1 14.3 14.3 14.2 14.2 0 0 1-14.3-14.3Z"/><path d="M240.1 151.3h11.7l-.6-8.3h-10.4l-.7 8.3zM262.4 155.3l8.3 8.3 5.4-6.4-7.3-7.3-6.4 5.4zM275.4 173.8v11.7l8.3-.6v-10.4l-8.3-.7zM271.5 196.1l-8.3 8.3 6.3 5.4 7.4-7.3-5.4-6.4zM252.9 209.1h-11.7l.6 8.3h10.5l.6-8.3zM230.6 205.2l-8.3-8.3-5.4 6.3 7.4 7.4 6.3-5.4zM217.6 186.6v-11.7l-8.3.6V186l8.3.6zM221.6 164.3l8.3-8.3-6.4-5.4-7.3 7.4 5.4 6.3zM652.4 304.2l-13.1.3-6.7.1H625.5v-.4l-.1-11.2v-.5H639l13.3.2h.3v.3l-.2 5.7Zm0 0-.2-5.6-.1-5.6.3.3-13.3.2H626l.5-.5v11.2l-.5-.4h6.6l6.5.2ZM637.6 318.3l-13.1.3-6.7.1H610.7v-12.1h.5l13.2.1 13.3.2h.2v5.9Zm0 0-.1-5.6-.2-5.6.3.3-13.2.2H611l.5-.5v11.2l-.4-.4h6.5l6.6.2ZM667.1 318.3l-13 .3-6.7.1h-7.2v-12.1h.5l13.2.1 13.2.2h.3v.2l-.1 5.7Zm0 0-.1-5.6-.1-5.6.2.3-13.2.2h-13.2l.5-.5v11.2l-.5-.4h6.6l6.5.2ZM354.8 171l-13.1.3-6.7.2H328v-12.2h13.6l13.3.2h.3v.3l-.2 5.7Zm0 0-.1-5.6-.2-5.5.3.2-13.2.2h-13.3l.5-.4V171l-.5-.5h6.6l6.5.2ZM340 185.2l-13.1.3h-6.7l-6.7.1h-.4v-.4L313 174v-.5h13.7l13.3.2h.3v.3l-.2 5.7Zm0 0-.1-5.7-.2-5.5.3.3-13.2.1h-13.3l.5-.4v11.2l-.5-.5h6.6l6.6.2ZM369.6 185.2l-13.2.3h-6.6l-6.7.1h-.5v-12.1h13.7l13.3.2h.2v6Zm0 0-.2-5.7-.1-5.5.3.3-13.3.1h-13.2l.5-.4v11.2l-.5-.5h6.5l6.6.2ZM138.9 245.1l-13.1.3-6.7.1H112v-12.1h13.7l13.3.2h.3v.3l-.2 5.7Zm0 0-.2-5.6v-5.6l.2.3-13.3.2h-13.2l.5-.5v11.2l-.5-.4h6.6l6.5.1ZM537.9 171l-13.2.3-6.6.1-6.7.1h-.5v-12.1h13.7l13.3.2h.2V165.5Zm0 0-.2-5.6-.1-5.5.3.2-13.3.2h-13.2l.5-.4V171l-.5-.5h6.5l6.6.2ZM650.8 62.4l-13 .3H631l-6.7.1h-.5V50.7h13.8l13.2.2h.3v.3l-.2 5.6Zm0 0-.1-5.7-.1-5.5.2.3-13.2.1h-13.2l.5-.4v11.2l-.5-.5h6.5l6.6.2ZM665.6 76.5l-13.1.3h-6.7l-6.7.1h-.4V64.8H652.3l13.2.2h.3v.3l-.1 5.6Zm0 0-.1-5.7-.2-5.5.3.3-13.2.1-13.3.1.5-.5v11.2l-.4-.5 6.5.1 6.6.1ZM109.3 62.4l-13 .3h-6.7l-6.7.1h-.5V50.7h13.8l13.2.2h.3v.3l-.2 5.7Zm0 0-.1-5.7-.1-5.5.2.3-13.2.1-13.2.1.5-.5-.1 11.2-.4-.4h6.5l6.6.1Z"/></g><path fill="#263238" d="m43.6 411.5 82.9-.2 82.8-.1L375 411l165.7.2 82.8.1 82.9.2-82.9.3h-82.8L375 412l-165.7-.2h-82.8l-82.9-.3z"/><ellipse cx="375" cy="448.4" fill="#ebebeb" rx="331.4" ry="19.2"/><path fill="#f4e3d7" d="M110.2 109.5h28.5l10 35 10-35H187l-18.6 54 8.1 23.6 24.4-77.5h33.8l-44.3 113h-25.8l-16-40.4-16 40.5h-25.8L62.6 109.6h33.6l24.5 77.5 7.9-23.5Z"/><path d="M110.2 109.5h28.5l10 35 10-35H187l-18.6 54 8.1 23.6 24.4-77.5h33.8l-44.3 113h-25.8l-16-40.4-16 40.5h-25.8L62.6 109.6h33.6l24.5 77.5 7.9-23.5Z" opacity=".1"/><path fill="#f4e3d7" d="M101.2 109.5h28.5l10 35 10-35H178l-18.6 54 8.1 23.6 24.4-77.5h33.8l-44.3 113h-25.8l-16-40.4-16 40.5H97.9L53.6 109.6h33.6l24.5 77.5 7.9-23.5ZM394.5 222.7V109.6h52a34.5 34.5 0 0 1 15.2 3.4 39.6 39.6 0 0 1 12 8.9 41.5 41.5 0 0 1 8 12.6 37.8 37.8 0 0 1 2.8 14.2 40.2 40.2 0 0 1-4.3 18.4 37.4 37.4 0 0 1-12 14l24 41.6h-35l-20-34.8h-11.6v34.8Zm31-61.8h19.7c1.9 0 3.6-1.1 5.3-3.2s2.5-5.1 2.5-9-1-6.9-3-9-3.7-3-5.7-3h-18.7Z"/><path d="M394.5 222.7V109.6h52a34.5 34.5 0 0 1 15.2 3.4 39.6 39.6 0 0 1 12 8.9 41.5 41.5 0 0 1 8 12.6 37.8 37.8 0 0 1 2.8 14.2 40.2 40.2 0 0 1-4.3 18.4 37.4 37.4 0 0 1-12 14l24 41.6h-35l-20-34.8h-11.6v34.8Zm31-61.8h19.7c1.9 0 3.6-1.1 5.3-3.2s2.5-5.1 2.5-9-1-6.9-3-9-3.7-3-5.7-3h-18.7Z" opacity=".1"/><path fill="#f4e3d7" d="M385.5 222.7V109.6h52a34.5 34.5 0 0 1 15.2 3.4 39.6 39.6 0 0 1 12 8.9 41.5 41.5 0 0 1 8 12.6 37.8 37.8 0 0 1 2.8 14.2 40.2 40.2 0 0 1-4.3 18.4 37.4 37.4 0 0 1-12 14l24 41.6h-35l-20-34.8h-11.6v34.8Zm31-61.8h19.7c1.9 0 3.6-1.1 5.3-3.2s2.5-5.1 2.5-9-1-6.9-3-9-3.7-3-5.7-3h-18.7Z"/><circle cx="426.5" cy="118.2" r="3.8" fill="#a6a6a6"/><circle cx="73.7" cy="118.2" r="3.8" fill="#a6a6a6"/><circle cx="207.2" cy="118.2" r="3.8" fill="#a6a6a6"/><path fill="#f4e3d7" d="M89.1 308.6a40.6 40.6 0 0 1-.8 15.6 41.8 41.8 0 0 1-2.4 7c-1.2 2.8-2.5 5.6-2.2 8.7.3.2-.7.2-.8 0-8.3-4.9-19-5.7-25.5-13.5-3-3.7-4.6-8.4-5.3-13-.8-5.1-1-10.7.3-15.8 1-4.2 3.5-8.3 7.5-10.4s9.5-2 13.9-.6c9.3 2.9 14 13 15.3 22Z"/><path fill="#263238" d="M93.4 370.5 90 359.1c-2.2-7.4-4.6-14.8-7.3-22.1q-2.3-6.6-5-13a79.8 79.8 0 0 1 1-8.1c.7-3.3 1.7-6.4 2.7-9.6 0-.2-.3-.3-.4 0-1.8 4.3-4.3 10-4.3 15Q73.5 314 70 307a61.7 61.7 0 0 1 .4-12 .1.1 0 0 0-.3 0 42.5 42.5 0 0 0-.8 10.6c-1.8-3.6-3.7-7.1-5.7-10.6-.2-.3-.6 0-.5.4 3.2 6 6 12.2 8.8 18.5a40.5 40.5 0 0 0-13.1-7.6c-.2-.1-.4.2-.2.3a47.6 47.6 0 0 1 14.2 9.4q3 6.8 5.7 13.8A43.6 43.6 0 0 0 59 319.4c-.2 0-.3.3 0 .4a54 54 0 0 1 20.3 12.4l2 5.7q4 10.7 7.5 21.6l3.3 10.5c1.2 3.7 2 7.7 3.6 11.3.1.4.8.3.7-.1a108 108 0 0 0-3-10.7Z"/><path fill="#263238" d="M79.5 301.3a20.9 20.9 0 0 0-3 7.5h.2a66.3 66.3 0 0 1 3.2-7.4c.1-.2-.2-.3-.4-.1ZM64.6 318.7a22 22 0 0 0-7.5-2.5s-.1 0 0 .1l3.7 1.3 3.7 1.5a.2.2 0 0 0 .1-.4ZM60.4 297.7a15 15 0 0 0-2.4-1.5.1.1 0 0 0-.1.3 14.5 14.5 0 0 0 2.3 1.5c.2 0 .3-.2.2-.3Z"/><path fill="#f4e3d7" d="m117.3 337-18 5.2c-.6.2-10.8-19.4-7-29.4a32.9 32.9 0 0 1 20.4-19.5c4.3-1.4 9.6-2.6 14.1-1.6 4 .8 7 4.2 8.2 8 1.8 5.1 1.2 11.3.3 16.6a29 29 0 0 1-6 13.5 23.4 23.4 0 0 1-12 7.2Z"/><path fill="#263238" d="M126 318.5a80.2 80.2 0 0 1-11.8 4.6 49 49 0 0 0-7.8 2.9c2.5-5.7 5.3-11.3 8.3-16.8a27 27 0 0 0 10.9-5.6.2.2 0 0 0-.2-.3c-3.2 2.3-6.8 3.7-10.3 5.2l2.4-4.4c.2-.4-.3-.8-.6-.4a127 127 0 0 0-8.6 14.3 65 65 0 0 1-.6-13.2h-.2a44 44 0 0 0 .2 14.5c-2.1 4.2-4 8.6-5.8 13-.7-2.7-1.6-5.3-2.2-8a36.2 36.2 0 0 1-.8-11.5c0-.2-.2-.2-.2 0a41 41 0 0 0 2.5 21.3c-1 2.6-2 5.2-2.8 7.9a158.3 158.3 0 0 0-8 41.8.3.3 0 0 0 .5 0 207.2 207.2 0 0 1 9-41.3 164 164 0 0 1 6-15.4c3.5-1 7-2.5 10.6-3.7a33.4 33.4 0 0 0 9.7-4.8.1.1 0 0 0-.1-.1Z"/><path fill="#263238" d="M131.7 312.8c-3.7 1.3-7.2 3.1-10.9 4.5l.1.3c4-.8 7.8-2 11-4.6 0 0 0-.3-.2-.2ZM101.6 304.8c0-.2-.3-.3-.3 0-1 3.3-1.7 7-.7 10.4a.1.1 0 0 0 .2 0c.2-3.5 0-7 .8-10.4ZM116.8 297a9 9 0 0 0-1.6 5.8c0 .1.2.2.3 0 .4-2 1.2-3.7 1.8-5.6a.3.3 0 0 0-.5-.2Z"/><path fill="#f4e3d7" d="M45.6 345.6c1.8 5.6 6 13.4 12.7 13.4 4.3 0 8.6-.4 13-.5 4.6 0 9.2 0 13.8.2.4 0-.5-13.8-11.6-20.6-3.2-1.9-7-2.5-10.5-3.2a48.1 48.1 0 0 0-12.4-1.3c-2.5 0-4.6.6-5.6 3.2s-.2 6.2.6 8.8Z"/><path fill="#263238" d="M50.4 338.6c2.7.7 5.5 1.5 8.2 2.4a29 29 0 0 0-2.3-2.2c-1.1-1-2.4-1.8-3.7-2.6 0 0 0-.3.1-.2a15.3 15.3 0 0 1 6.6 5.2c3.4 1 6.7 2.3 10 3.6a37.7 37.7 0 0 1 6.3 3.4 25.7 25.7 0 0 0-2.3-4c-1.5-2-3.5-3-5.4-4.4a.2.2 0 0 1 .2-.3 15.8 15.8 0 0 1 8.6 9.4 37.3 37.3 0 0 1 6.3 5.8 48.8 48.8 0 0 1 13.2 30.8c0 .2-.5.3-.5 0a62.9 62.9 0 0 0-14-30.1l-1.6-1.8a51.2 51.2 0 0 0-6.1-.4c-2.4 0-4.7.3-7 .5-4 .3-8.3.4-11.8-1.6a.2.2 0 0 1 .2-.3c7.8 2.9 16-.7 23.8 1a36.6 36.6 0 0 0-11.6-7.5l-.7-.3c-5 .6-10.3 2-15.2.3a.1.1 0 0 1 .1-.2c4.7 1.2 9.2-.3 13.9-.6-5-2-10.2-3.5-15.3-5.5-.4-.1-.4-.5 0-.4Z"/><path fill="#263238" d="M48.2 343.6a68.4 68.4 0 0 0 7.3.5s0 0 0 .1a15 15 0 0 1-7.3-.5v-.1ZM64.7 338.7a12 12 0 0 1 3.6 2.6c.1 0 0 .3-.2.2l-1.9-1.3a19.9 19.9 0 0 1-1.7-1.1.2.2 0 0 1 .2-.4Z"/><path fill="#f4e3d7" d="M104 356.8c-.1.2.1.4.2.2a.2.2 0 0 0 .2 0 112.3 112.3 0 0 0 13.6 2.4c3.7.4 8 .6 11.1-1.6 4.4-2.9 7.3-10.6 4.9-15.5-2.8-5.8-11.2-2.7-15.4-.6a31 31 0 0 0-14.7 15Z"/><path fill="#263238" d="M100.7 359.5a43.7 43.7 0 0 1 8-6.2 27.8 27.8 0 0 1 8.3-8.4c.2 0 .3.2.2.3a37.1 37.1 0 0 0-7 7.3 75.3 75.3 0 0 1 10.2-4.6 13.6 13.6 0 0 1 5.5-5.5 22.3 22.3 0 0 0-4.9 5.2l6.2-2.2c.2 0 .3.3.1.3-3.7 1.5-7.5 3-11.2 4.8a43.4 43.4 0 0 0 13.6 0 .1.1 0 0 1 0 .2 26.7 26.7 0 0 1-14.3.2 70.9 70.9 0 0 0-6.9 3.8 17.3 17.3 0 0 1 5.6.5 41.6 41.6 0 0 0 9.6 1c.2 0 .2.3 0 .3-5.6 1-10.9-1.6-16.5-1a42.6 42.6 0 0 0-5.8 4.8 43.8 43.8 0 0 0-8.4 11.9c-2.4 4.8-3.6 9.8-5.5 14.8a.2.2 0 0 1-.4-.1 51.9 51.9 0 0 1 13.6-27.4Z"/><path fill="#263238" d="M117.6 346.1a6.5 6.5 0 0 1 1.5-1.7 5.6 5.6 0 0 1 1.6-1.2s.1 0 0 0c-.4.6-1 1-1.5 1.5l-1.4 1.5h-.2ZM127 349.2l2.5-.4a23.7 23.7 0 0 0 2.5-.7s.1 0 0 .1a8.3 8.3 0 0 1-5 1.2.1.1 0 0 1 0-.2Z"/><path fill="#37474f" d="m77.5 374.9.8 8.4 2.5 28.3h22.1l3.2-28.3.9-8.4H77.5z"/><path fill="#263238" d="m77.5 374.9.8 8.4h27.8l.9-8.4H77.5z"/><path fill="#37474f" d="M109.2 379.4H75.4v-6.8h33.8z"/><path fill="#f4e3d7" d="M529.6 434.1h5.6l45.1-219.8h57.5l-27.1 219.8h5.5L644 209.2h-68.3l-46.1 224.9z"/><path d="M529.6 434.1h5.6l45.1-219.8h57.5l-27.1 219.8h5.5L644 209.2h-68.3l-46.1 224.9z" opacity=".4"/><path fill="#f4e3d7" d="M647.6 209.2H573v-6.6h74.6z"/><path d="M647.6 209.2H573v-6.6h74.6z" opacity=".2"/><path fill="#f4e3d7" d="m575.7 209.2 22.7 243h5.5l-22.1-237h57.6l40 237h5.6l-41-243h-68.3z"/><path fill="#f4e3d7" d="M581.6 261.5h66.2v5.9h-66.2zM590.5 309.6h66.2v5.9h-66.2zM594.9 357.8h71.3v5.9h-71.3zM598.3 406h75.2v5.9h-75.2z"/><g opacity=".2"><path d="m575.7 209.2 22.7 243h5.5l-22.1-237h57.6l40 237h5.6l-41-243h-68.3z"/><path d="M581.6 261.5h66.2v5.9h-66.2zM590.5 309.6h66.2v5.9h-66.2zM594.9 357.8h71.3v5.9h-71.3zM598.3 406h75.2v5.9h-75.2z"/></g><path fill="#f4e3d7" d="M545.2 250.2h-10l-41-101 17.8-14h10l19.4 38.4 11.3-54L574 104h10l-13.9 63.7 67.4 36-31.9 16.1h-10L562 195.2l-3.7 11.8 14.7 29.2Z"/><path fill="#f4e3d7" d="m535.2 250.2-51-101 27.8-14 19.3 38.4 11.4-54L574 104l-13.9 63.7 67.4 36-31.9 16.1-43.7-24.5-3.7 11.8 14.7 29.2Z"/><path fill="#fff" d="m535.2 250.2-51-101 27.8-14 19.3 38.4 11.4-54L574 104l-13.9 63.7 67.4 36-31.9 16.1-43.7-24.5-3.7 11.8 14.7 29.2Z" opacity=".3"/><circle cx="501.9" cy="151.7" r="3.8" fill="#a6a6a6"/><circle cx="557.3" cy="123.4" r="3.8" fill="#a6a6a6"/><path fill="#f7a9a0" d="M554.7 452.7c-2 .6-59.3-.1-61.5-1.5-.8-.6-1.2-9-1.3-19V424.5c-.2-14.6 0-29.7 0-29.7l38.4.4-1.2 29.4v1.2l-.2 6.1v.6s21.8 10.1 24 12 3.9 7.5 1.8 8.2Z"/><path fill="#f4e3d7" d="M537.5 436.4h-.2Z"/><path fill="#263238" d="M554.7 452.7c-2 .6-59.3-.1-61.5-1.5a58 58 0 0 1-1.3-15.7c10.5 2.2 51.2 10.4 52.4 6.9.4-1.4-3-3.7-5.3-5 6 2.8 12.7 6 13.9 7 2.1 1.8 3.9 7.6 1.8 8.3ZM480.2 229.7s8.6 96.8 10 104.2c.3 1.7.5 10.9.6 22.7.3 25.6.2 72 .2 72h40.4s-1.2-80.3-3-95l-13.2-103.9Z"/><path fill="#37474f" d="m529.5 421.5-10.8-.3c-3 0-23.3-.2-26.2.3v.1c2.9.5 23.2.3 26.3.3 6.3 0 4.4-.1 10.7-.2a.1.1 0 0 0 0-.2ZM498.6 375.6V358c0-5.6 0-11.3-.4-17-.5-11.4-2.9-22.7-4.5-34s-3-22.8-4.3-34.2l-4-38.5h-.1c1.8 22.9 4 45.8 7.1 68.5l2.6 17c1 5.6 2 11.3 2.4 17.1s.5 11.3.5 17l.2 17.6.4 46a.2.2 0 0 0 .4 0l-.3-41.9Z"/><path fill="#37474f" d="m471.7 229.7 18.5 104.2c.3 1.7.5 10.9.7 22.7L510 229.7Z"/><path fill="#f7a9a0" d="M459.2 456c-2-.4-52.9-27-54.2-29.2-.5-.8 3-8.5 7.4-17.6l.1-.2c1-2 19-32.5 19-32.5l31.3 18.3-17.3 31-.3.5s14.9 18.8 16 21.4 0 8.6-2 8.2Z"/><path fill="#263238" d="M459.2 456c-2-.4-52.9-27-54.2-29.2-.4-.7 2-6.4 5.5-13.7 7.3 5.5 42.4 32 45 29.2.5-.6.1-2-.6-3.4a95.4 95.4 0 0 1 6.3 8.8c1.2 2.6 0 8.6-2 8.2ZM450 424.6l-37-22.9s42.8-61.3 43-66.7c.3-8.1 4.2-41.5 7.4-68.6 0 0-6.1-14.6 5.4-36.7h46.4s-3.1 21-8.4 34.4a61.5 61.5 0 0 0-10.3 4.7s-4.7 60.3-4.8 67.8c-.4 14.9-41.7 88-41.7 88Z"/><path fill="#37474f" d="M452.2 416c-5.3-3.4-3.7-2.5-9.1-5.8a453 453 0 0 0-22.7-13c2.2 1.8 19.7 12 22.4 13.6 5.4 3.2 3.9 2.2 9.3 5.3.1.1.2 0 .1-.1ZM508.5 263.1a77 77 0 0 0-12 5.7c-.2 0-.1.3 0 .2 4.1-1.7 8.3-3.4 12.2-5.4a.3.3 0 0 0-.2-.5ZM502.8 256.4c.4-2.4.8-4.8 1-7.3a66.7 66.7 0 0 0-.2-13.7.1.1 0 0 0-.2 0 125.7 125.7 0 0 1-1.1 19c-.5 3-2 7.5 1.2 8s5.2-7.2 5.6-9.3a69.4 69.4 0 0 0 .7-17.9c0-.1-.2-.2-.2 0a135.6 135.6 0 0 1-.7 13.6c-.2 2.1-1.9 13.7-5.5 12.8-.6-.1-1-.7-1-1.6a14.4 14.4 0 0 1 .5-3.6"/><path fill="#37474f" d="M503.5 262a20.6 20.6 0 0 0-.8 2.4 5.6 5.6 0 0 0-.4 2 .1.1 0 0 0 .3 0 6.9 6.9 0 0 0 .8-1.9l.8-2.2a.4.4 0 0 0-.7-.3ZM474.3 232.6a42.4 42.4 0 0 0-3.5 7.6 46.6 46.6 0 0 0-2 8.2c-.4 1.3-.4 2.7-.6 4.1s-.2 2.8 0 4.2a44.4 44.4 0 0 0 1 8.3l-3.4 35.2-3.5 35v1.1l-.1.6a1.8 1.8 0 0 1-.1.6 20.3 20.3 0 0 1-1.1 2l-2.3 3.7-4.7 7.5-9.5 14.8c-6.4 9.9-13 19.6-19.5 29.4l19-29.7 9.4-14.9 4.7-7.4 2.2-3.8a18.8 18.8 0 0 0 1-1.9 1.4 1.4 0 0 0 0-.4l.1-.6.1-1L465 300l3.6-35a44.1 44.1 0 0 1-.9-8.4l.1-4.2.6-4.2a47.4 47.4 0 0 1 2.3-8 42.4 42.4 0 0 1 3.6-7.7Z"/><path fill="#263238" d="M491.6 144.3c-1 .3-5.7.3-8.3 5-2.5 4.3-2.1 16.6-2.4 19.3s-3.8 3.6-4.2 6.7c-.4 2.8 1.6 3.5 2 5.4.4 1.5-.9 4 .8 6 1.4 2 3.6 1.2 5 1.7s2.6 3.5 5.2 4 4.4-2 5.8-2.1 3.3 3.7 7.5 2.8 5-4.6 6.7-5.5 6.2-.2 8-2.6 1.8-5.5 2.5-6.6 2.7-1.3 3.6-4-1.7-3.8-2.3-6c-.4-1.5.8-3-.4-5.2-1.7-3-5.5-1.9-7.4-5-1.4-2.4-5.1-13.3-12.2-15.2-4.8-1.3-9.9 1.3-9.9 1.3Z"/><path fill="#263238" d="M481 168a3.7 3.7 0 0 1-1 1.6l-1.3 1.3a11.4 11.4 0 0 0-2.2 3 3.7 3.7 0 0 0 0 3.2 6 6 0 0 0 1.1 1.4 6.2 6.2 0 0 1 1.2 1.5 3.2 3.2 0 0 1 .1 2l-.4 1.8a4.4 4.4 0 0 0 .5 3.3 2.5 2.5 0 0 0 1.3 1 4.8 4.8 0 0 0 1.8.2l1.8-.2a3 3 0 0 1 1.8.2 3.3 3.3 0 0 0-1.8 0l-1.8.3a5 5 0 0 1-1.9 0 2.9 2.9 0 0 1-1.6-1.2 4.8 4.8 0 0 1-.7-3.7l.4-1.9a2.6 2.6 0 0 0 0-1.6c-.5-.9-1.7-1.6-2.3-2.8a4.1 4.1 0 0 1 .1-3.9 12 12 0 0 1 2.4-2.8l1.4-1.3a4 4 0 0 0 1-1.4ZM508.5 148.6a52.4 52.4 0 0 1 3.5 5.6c.6.9 1 1.9 1.7 2.7a7.5 7.5 0 0 0 1 1.2 1 1 0 0 0 .3.2 2.2 2.2 0 0 0 .3.2l.8.2a31.6 31.6 0 0 1 3.1 1 5.6 5.6 0 0 1 2.7 2.2 3.5 3.5 0 0 1 .6 1.6 4.4 4.4 0 0 1-.4 1.7 7.2 7.2 0 0 0-.6 3.2 6.8 6.8 0 0 1 .3-3.3 4.2 4.2 0 0 0 .2-1.6 3 3 0 0 0-.5-1.4 5.5 5.5 0 0 0-2.5-1.8 29.8 29.8 0 0 0-3.1-1c-.3 0-.6-.2-.8-.3a2.5 2.5 0 0 1-.8-.5 8 8 0 0 1-1.1-1.3 27.7 27.7 0 0 1-1.7-2.9l-1.5-2.8a27 27 0 0 0-1.5-3ZM521.2 177.5a5.9 5.9 0 0 0-.5 2.3l-.2 2.3a12.1 12.1 0 0 1-.6 2.4 5.2 5.2 0 0 1-1.3 2.1 6.6 6.6 0 0 1-4.7 1.2l-2.4-.2a4.8 4.8 0 0 0-2.3.2 4.6 4.6 0 0 1 2.3-.6h2.4a6.7 6.7 0 0 0 4.2-1.1 4.7 4.7 0 0 0 1.2-1.8 13.5 13.5 0 0 0 .7-2.2l.4-2.3.3-1.2a2.3 2.3 0 0 1 .5-1Z"/><path fill="#455a64" d="m514.3 221.2 1.4 11-47.4-1.6s2.4-34.9 16-48c7-6.7 14.4-5.7 19-.5 1 1.3 14.5 18.8 15.6 26.2 1 6.6-4.6 12.9-4.6 12.9Z"/><path fill="#263238" d="M507.1 217.5a43.5 43.5 0 0 0-6.8 1.1l-3.3 1-1.6.5a7 7 0 0 1-1.7.4 11.8 11.8 0 0 0 1.6 0 11 11 0 0 0 1.6-.3c1.2-.2 2.3-.6 3.4-.9a90 90 0 0 1 6.8-1.8ZM512.7 219.9a44.3 44.3 0 0 0-5.7-.4h-2.8l-1.3.2-1.5.3h11.3v-.1Z"/><path fill="#fff" d="M489.1 230.8a5.1 5.1 0 0 0 .3.5h.8a4.2 4.2 0 0 0-1-.5Zm13.5-48.4a5.7 5.7 0 0 0-1.8-1 6 6 0 0 0 3.1 2.6 5.5 5.5 0 0 0-1.3-1.6Zm-29 27.2a5.5 5.5 0 0 0-1 1.8 5.4 5.4 0 0 0 1.5-1.3 5.7 5.7 0 0 0 1-1.8 5.4 5.4 0 0 0-1.5 1.3Zm10.3-24.9a5.7 5.7 0 0 0-1 1.8 6 6 0 0 0 2.6-3.1 6.1 6.1 0 0 0-1.6 1.3Zm15.3 22.1a5.8 5.8 0 0 0-1.1 1.8 6.1 6.1 0 0 0 1.6-1.3 5.6 5.6 0 0 0 1-1.8 5.8 5.8 0 0 0-1.5 1.3Zm-12 7.9a5.6 5.6 0 0 0-2 .5 5.5 5.5 0 0 0 2.1.2 5.3 5.3 0 0 0 2-.5 5.5 5.5 0 0 0-2-.2Zm28-5.6a5.5 5.5 0 0 0-2 .6 5.7 5.7 0 0 0 2.1.2 5.5 5.5 0 0 0 2-.6 5.7 5.7 0 0 0-2-.2ZM497.8 192a5.5 5.5 0 0 0-2 .5 6.1 6.1 0 0 0 4-.3 6 6 0 0 0-2-.2Zm8.2 31.2a5.4 5.4 0 0 0-.5-2 6.2 6.2 0 0 0-.3 2.1 6 6 0 0 0 .6 2 5.7 5.7 0 0 0 .2-2Zm-30.3 1.6a6 6 0 0 0-.5-2 5.3 5.3 0 0 0-.2 2 5.5 5.5 0 0 0 .5 2 5.7 5.7 0 0 0 .2-2Zm36.8-28.5v-.6l-.6-1.3a6.2 6.2 0 0 0-.1 2 5.7 5.7 0 0 0 .5 2 6 6 0 0 0 .2-2.2Zm-26.6 4.1a5.2 5.2 0 0 0-.6-2 5.7 5.7 0 0 0-.1 2.1 5.8 5.8 0 0 0 .5 2 5.8 5.8 0 0 0 .2-2Z"/><path fill="#f7a9a0" d="M492.3 181.8c.3 1 5 6.8 9.2 6.5 1.4 0 1.1-7.7 1.1-7.7l.1-.6 1.5-7.9-9.4-5.6-1.3-.8-.6 5v.4l-.1.4-.2 1.2v1l-.1 1a54.4 54.4 0 0 0-.2 7.1Z"/><path fill="#263238" d="m504.3 172.1-1.5 7.6a17.3 17.3 0 0 1-10-8.3v-.7l.7-5 1.3.8Z"/><path fill="#f7a9a0" d="M513.2 157.5c4 13.6-3.7 17.5-6.6 18.3-2.7.8-11.8 3-17.2-10s-.3-19.2 5.7-21.3 14.2-.6 18.1 13Z"/><path fill="#263238" d="M510.6 156a8 8 0 0 1-1 0 1.6 1.6 0 0 1-1-.2.5.5 0 0 1-.1-.6 1.3 1.3 0 0 1 1-.5 1.9 1.9 0 0 1 1.4.3.5.5 0 0 1-.3 1ZM501.3 158.1a9 9 0 0 0 .8-.4 1.5 1.5 0 0 0 .9-.6.5.5 0 0 0-.2-.6 1.2 1.2 0 0 0-1.2 0 1.9 1.9 0 0 0-1 1 .5.5 0 0 0 .6.6ZM503.8 160.2c.2 1 .4 2-.4 2.6 1-.4.8-1.8.4-2.7Z"/><path fill="#263238" d="M502.7 159.4c-1.5.3-.8 3.3.6 3s.7-3.2-.6-3Z"/><path fill="#263238" d="M502.2 159.7c-.2.2-.4.6-.8.7s-.7-.2-1-.4c.1.6.5 1.2 1.1 1.1s.9-.6 1-1.3c-.1 0-.2-.2-.3-.1ZM509 158.9h.2c.1 1 .5 2 1.4 2.2-1 .1-1.5-1.3-1.5-2.2Z"/><path fill="#263238" d="M509.7 157.7c1.5-.4 2.3 2.6 1 3s-2.3-2.6-1-3Z"/><path fill="#263238" d="M510.4 157.7c.2.1.6.4.8.3s.5-.5.7-.8c.2.5.2 1.2-.4 1.4s-1-.1-1.2-.6v-.3ZM506.2 167.7a1.5 1.5 0 0 0 1 .3 2.5 2.5 0 0 0 .9-.5 1.3 1.3 0 0 1-1 .9 1 1 0 0 1-1-.6ZM505.2 165.3a3.3 3.3 0 0 0 2.4.8 4 4 0 0 0 1.2-.3 1.2 1.2 0 0 0 .2-.1l.2-.1a.2.2 0 0 0 0-.3v-.1l-.5-1.8c.3 0 1.8.3 1.6-.1a48.2 48.2 0 0 0-4-9l-.2.2c1 2.8 2.4 5.5 3.4 8.4a5.5 5.5 0 0 0-1.6 0l.9 2.3a4.5 4.5 0 0 1-3.5 0c-.2 0-.2 0-.1.1Z"/><path fill="#263238" d="M490.5 167.4c2.3-.6 1.3-5.5 1.3-5.5s4.6-1.4 4-8.5a10.7 10.7 0 0 1-.3 6s7.8-3.3 9-11.2c0 0-.2 3.9-1 5.5a10 10 0 0 0 3.8-5.3s2.6 3.5 4 4.2c0 0-3.3-19.2-19.4-7.5 0 0-7.5 2.3-8.4 9.8s7 12.5 7 12.5Z"/><path fill="#f7a9a0" d="M491.9 166.2s-4-3.7-5.7-2.2 1.8 7.3 4.3 7.7a2.4 2.4 0 0 0 2.9-2Z"/><path fill="#263238" d="M487.3 165.6a6 6 0 0 1 3.8 3.2 1.3 1.3 0 0 0-2 0 1.5 1.5 0 0 1 1.8.2 7.3 7.3 0 0 1 1 1.2s.3 0 .2-.2c-.4-2-2.6-4.6-4.8-4.4Z"/><path fill="#fff" d="M492 170.7a.7.7 0 0 1-.5.8.7.7 0 1 1-.3-1.3.7.7 0 0 1 .8.5Z"/><path fill="#f7a9a0" d="M480.8 195.7c1 7.5 8.2 36.1 14.5 43.2 4.2 4.7 31 11.8 38.7 13 3.2.6 10.2-22.1 6.7-22.2-2.5 0-30.4-7.7-32.8-8.6l-16.7-27.2c-6.1-10.3-12.2-12.1-10.4 1.8Z"/><path fill="#f7a9a0" d="M550 233.6c-1.3-.8-1-1.5 1.8-2s13.7.4 13.6-3.5-15.7-4.6-20.1-3.6a71.8 71.8 0 0 0-11.3 4.2c3 .8 10.1 3.3 16 4.9Z"/><path fill="#f7a9a0" d="M531 251.4c8.5 1.8 19 4.6 28.4 1.4a5 5 0 0 0 2.6-1.9c4.2-1.3 4.8-3.7 4.8-3.7 3.6-2.4 3.9-5 3.9-5s5-1.6 4.5-4.8c-.6-3.5-7.4-.5-12.2-1.2-10.8-1.5-25.9-6.7-29-7.5Z"/><path fill="#263238" d="M550.5 242.7a71.8 71.8 0 0 0 9.6.8 71 71 0 0 0 10.5-1.3v.1a37.4 37.4 0 0 1-20.1.5c-.2 0-.2-.2 0-.1ZM548.6 249.1a52.1 52.1 0 0 0 18.2-2 33.7 33.7 0 0 1-18.2 2.1c-.2 0-.2-.1 0-.1ZM547.7 252.6a52.9 52.9 0 0 0 14.3-1.7c-6.1 2-8.6 2.1-14.3 1.9-.2 0-.2-.2 0-.2Z"/><path fill="#455a64" d="M501.3 207.3 484.7 221s-5-23.3-4.5-30.5c.6-8.2 4.6-6.1 9.8-.3s11.3 17 11.3 17Z"/><path fill="#fff" d="M485.8 200.4a5.2 5.2 0 0 0-.6-2 5.7 5.7 0 0 0-.1 2.1 5.8 5.8 0 0 0 .5 2 5.8 5.8 0 0 0 .2-2Zm1.5 14.3a5.6 5.6 0 0 0-2 .5 5.5 5.5 0 0 0 2 .2 5.3 5.3 0 0 0 2-.5 5.5 5.5 0 0 0-2-.2Zm13.1-9a6.2 6.2 0 0 0-1.2 1.1 5.8 5.8 0 0 0-1 1.8 6.1 6.1 0 0 0 1.5-1.3 6.5 6.5 0 0 0 .9-1.3Zm-16.9-20.5a4.4 4.4 0 0 0-.6 1.3 5.3 5.3 0 0 0 1.3-1.1 3 3 0 0 0-.7-.2Z"/><path fill="#263238" d="M484.6 216.2c.5-.6 5.6-5 6.7-6s5.7-4.7 7-5.5c-1 1.1-5.6 5-6.7 6a139.2 139.2 0 0 1-7 5.5Z"/><path fill="#263238" d="m500 208.3 1.2-1c-1.2-2.3-8.2-12.9-9.8-15.5l3 4.2-.2-.6-1-2v-.1a18.3 18.3 0 0 1 1.2 2l.7 1.6 1.7 2.4c1.7 2.6 3.5 5.2 5 7.8a11.9 11.9 0 0 1-1.7 1.4l-.1-.2ZM486.3 219.7l-1.5 1.5-.2.2v-.3a67 67 0 0 1-2-8.3 60.4 60.4 0 0 1-1-8.6l.8 4.2.8 4.2 1.6 8.4h-.2l1.7-1.3Z"/><path fill="#263238" d="M482.3 209.6a3.6 3.6 0 0 1-1-1.5 4 4 0 0 1-.2-.8 3 3 0 0 1 0-1 10.6 10.6 0 0 1 .7 1.6 15.7 15.7 0 0 1 .5 1.7Z"/><path fill="#455a64" d="m502.7 180.4-2.1 6.6-8.5-7.5-2.1 2.7s8.7 12.3 8.7 11.7l2.2-5.7 4 3.6-1-9.6Z"/><path fill="#263238" d="m504.8 187-.7-4.7s-.1-.1-.1 0c-.2 1.5.6 7.5.7 9a95 95 0 0 0-3.8-3.1l-2.2 5.4a271.8 271.8 0 0 0-8.8-11.4c1.2 2.1 8.7 12.2 8.8 12.2a64.4 64.4 0 0 0 2.3-6 42 42 0 0 0 4.3 3.8 50.5 50.5 0 0 0-.5-5.2Z"/><path fill="#dd6a57" d="m683.9 290.6 20.2 38c1.2 7.2 2 13.6 2.3 16.9a5.2 5.2 0 0 1-.2 2.3c-2 1.8-59.1 13-61.2 12.7s-1.5-6.4.4-8.6 21.8-16.2 21.8-16.2l-19.8-38.1Z"/><path fill="#fff" d="m700.3 321 3.8 7.7c1.2 7.1 2 13.5 2.3 16.8a9.7 9.7 0 0 1-.2 2.3c-2 1.8-59.1 13-61.2 12.7s-1.5-6.4.4-8.6 21.8-16.2 21.8-16.2l-3.9-7.7Z"/><path fill="#263238" d="M663.7 336.3c3.7-1.3 8.5-1.4 11.8 1l-.1.2a54.2 54.2 0 0 0-11.6-.7.3.3 0 0 1-.1-.5ZM661.2 338.4c3.7-1.3 8.5-1.4 11.8 1 .1 0 0 .2-.2.2a54 54 0 0 0-11.5-.7.3.3 0 0 1-.1-.5ZM658.7 340.4c3.7-1.2 8.4-1.3 11.8 1 0 0 0 .3-.2.2a54 54 0 0 0-11.6-.7.3.3 0 0 1 0-.4Z"/><path fill="#37474f" d="M645 360.5c2 .3 59.3-10.8 61.2-12.6.7-.7-.4-9.1-2.1-19.2a3 3 0 0 1 0-.4l-37 6.8v.6s-20 14-21.8 16.2-2.5 8.3-.4 8.6Z"/><path fill="#f4e3d7" d="m704 328.3.1.4a74.3 74.3 0 0 1 2 19.2c-.9.8-13.2 3.6-26.6 6.3-16 3.3-33.5 6.5-34.6 6.3-2.1-.3-1.5-6.4.4-8.6s21.9-16.2 21.9-16.2l-.2-.6 12.3-2.3Z"/><path fill="#263238" d="M645.2 358.2c9.5-2.1 48.4-9.7 58-11 .2 0 .2 0 0 0a1559.3 1559.3 0 0 1-58 11Z"/><path d="M679.4 332.8c.1 6.4.3 15.8.2 21.4-16 3.3-33.5 6.5-34.7 6.3-2-.3-1.4-6.4.4-8.6s22-16.2 22-16.2l-.2-.6Z" opacity=".1"/><path fill="#37474f" d="m698.9 315.7-42.4 4.9s-45-69.1-40.4-93c2.5-13.2 47.2-33.8 47.2-33.8l4.5-9h31.5s10.8 18.9 1.6 36.7c-6.3 12-38.7 21.3-40 25.1-1.6 5.2 38 69 38 69Z"/><path fill="#263238" d="M693.4 310.1a29.2 29.2 0 0 0-3.4.2l-3.7.2-7.2.7a432 432 0 0 0-22.5 3.2v.2l14.3-1.4 14.3-1.6 4.1-.6c1.4-.2 2.8-.3 4-.7.2 0 .2-.2 0-.2ZM660.2 309.5c-3.8-5.7-24-42.1-27-48.2-1.4-3.1-3-6.2-4.2-9.3a83.7 83.7 0 0 1-3.5-9.6c-.9-3.2-1.7-6.6-1-9.8a14 14 0 0 1 2-4.6 22.2 22.2 0 0 1 1.4-2l1.6-2c4.7-4.8 10.6-8.4 16.6-11.7a284 284 0 0 1 23-11.3l2.2-1.2a5 5 0 0 0 2-1.8 24.2 24.2 0 0 0 2.7-9.8 24.2 24.2 0 0 1-3 9.7 4.8 4.8 0 0 1-1.9 1.6l-2.2 1.2-4.7 2.1c-6.2 2.8-12.5 5.6-18.5 8.8a96.3 96.3 0 0 0-8.9 5.3 52.2 52.2 0 0 0-8 6.5l-1.7 2a21.3 21.3 0 0 0-1.5 2.1 13.9 13.9 0 0 0-2.2 10.1l.5 2.6.6 2.5a84.3 84.3 0 0 0 3.6 9.7c1.3 3.2 2.8 6.2 4.3 9.3 3 6.1 23.9 42.2 27.8 47.8Z"/><path fill="#dd6a57" d="m661.8 347-.4 38.1c0 7.3-.2 13.7-.5 17a5 5 0 0 1-.6 2.3c-2.1 1.5-60.4 3-62.4 2.4s-.4-6.5 1.8-8.4 24.2-12.4 24.2-12.4l.7-38Z"/><path fill="#fff" d="M661.5 377.3v7.8c0 7.3-.2 13.7-.6 17a9.8 9.8 0 0 1-.6 2.3c-2.1 1.5-60.4 3-62.4 2.4s-.4-6.5 1.8-8.4 24.2-12.4 24.2-12.4v-8Z"/><path fill="#263238" d="M620.3 386c3.9-.6 8.6 0 11.5 2.9.1 0 0 .2-.2.2a53.8 53.8 0 0 0-11.3-2.6.3.3 0 0 1 0-.5ZM617.5 387.6c3.9-.6 8.6 0 11.5 2.9 0 .1 0 .3-.2.2a54.1 54.1 0 0 0-11.3-2.6.3.3 0 0 1 0-.5ZM614.7 389.2c3.8-.6 8.5 0 11.4 3 .2 0 0 .2-.1.1a54.1 54.1 0 0 0-11.3-2.6.3.3 0 0 1 0-.5Z"/><path fill="#f4e3d7" d="M597.8 406.8c2 .6 60.3-1 62.5-2.4.8-.5 1-9 1.1-19.3v-.3l-37.6.5v.7s-22 10.5-24.2 12.4-3.8 7.8-1.8 8.4Z"/><path fill="#263238" d="M598.4 404.5a1560 1560 0 0 1 59.2-1.3 1551 1551 0 0 1-59.2 1.3Z"/><path fill="#37474f" d="M681 225.1s-17.3 54.5-17.6 64.5c-.3 8.5.8 83.9.8 83.9l-43.7.2s3.7-77 4.3-86c1.3-16.6 15.9-62.3 26.3-103h47.2s-.4 21.3-10.1 36.7c0 0-4.4 2.1-7.2 3.7Z"/><path fill="#263238" d="M661.9 365.4c-5-.1-10.3-.3-15.3-.2s-10 .2-15 .5l-8.6.6v.1c5 .3 10.2.3 15.2.2s10 0 15-.3l8.6-.5c.2 0 .4-.4.1-.4ZM652.3 210.4c-1.5 5.2-2.8 10.5-4.2 15.8l-4.2 15.9a484 484 0 0 0-7.4 30.9 186.6 186.6 0 0 0-3.5 31.7c-.3 10.8 0 21.7 0 32.5s.2 9.6.4 20.5l.1 4c0 .2.2.2.2 0 .3-10.8.1-9.4.1-20.2s-.2-21.7 0-32.6a194.7 194.7 0 0 1 2.7-32.1c1.8-10.5 4.4-20.8 7-31l4.6-17.6c1.6-5.9 3.2-11.8 4.6-17.7a.2.2 0 0 0-.4 0ZM670.2 226.2a39.2 39.2 0 0 0 6.5-.6 60 60 0 0 0 6.3-1.8 51.2 51.2 0 0 1 6.1-1 21.6 21.6 0 0 0 6-1.8c.2 0 .3 0 .2.1a37.2 37.2 0 0 1-5.8 2.5c-2.1.7-4.3.8-6.4 1.3a51.1 51.1 0 0 1-6.5 1.5 23.1 23.1 0 0 1-6.5-.1v-.2Z"/><path fill="#263238" d="M663.3 329.8v-13.4c0-4.5 0-9 .2-13.4s0-9 .4-13.4a39.5 39.5 0 0 1 1-6.5l1.7-6.5c2.2-8.7 4.7-17.3 7.1-25.9L681 225l-4.1 12.8-4 12.8q-4 12.9-7.4 25.8L664 283a40.5 40.5 0 0 0-1 6.7c-.3 4.5-.3 9-.3 13.4q.1 13.4.6 26.8ZM628.4 269l4.6-17 4.6-17 4.4-17.1 2.3-8.5c.8-2.9 1.5-5.7 2.5-8.5a151.4 151.4 0 0 0-5.6 16.8l-4.7 17c-1.6 5.7-2.9 11.4-4.3 17s-2.6 11.5-3.9 17.3Z"/><path fill="#dd6a57" d="M656.7 132.4c-5.2 13.8-24.2 35.2-30.8 37.7-8.1 3-28.5-8.7-36.7-16.1-3.4-3 7.2-19.5 12.6-19.5 3 0 20 13.3 22.3 12 5.7-3.2 13.5-9.4 24.5-17.8 6-4.6 11.3-4.9 8.1 3.7Z"/><path fill="#dd6a57" d="M608.9 138.7s-4.2-5.6-6.5-7.7-14-6.5-15.1-4c-1.4 3.1 4.8 7 8 8.5 0 0-3.3 7.4.6 11.1s13-7.9 13-7.9Z"/><path fill="#dd6a57" d="M591.7 156c-2.4-1-13.3-6.8-16-9s-9.9-9.4-8.3-11.6 3.8-.4 3.8-.4-2.6-3.4-.9-5.5 5.2 1 5.2 1-2.3-3.8-.5-5.8 4.9 1.8 4.9 1.8-2.3-3.4-.1-4.4c2.7-1.1 6.3 5.5 9.4 7.8l15.2 9.5Z"/><path fill="#263238" d="M579.6 126.1c2.7 4.9 4.7 6.5 9.5 9.2v.2c-5-2.2-7.8-4-9.7-9.3-.1-.2 0-.3.2-.1ZM575.3 130c3.2 4.8 5.4 6.7 10.2 9.8v.1c-5-2.7-7.8-4.5-10.4-9.7-.1-.2 0-.4.2-.2ZM571.4 135.2a26 26 0 0 0 10.8 9 .1.1 0 0 1 0 .2 18.7 18.7 0 0 1-11-9.1c0-.3 0-.4.2-.1ZM587.2 128c.7 3.8 5.2 5.5 8.3 7.3a.3.3 0 0 1 0 .5c-1.1 3.1-1.9 8 .1 10.9-2.7-2.8-2.3-7.6-.8-11-3.2-1.6-7.6-3.5-7.7-7.7Z"/><path fill="#f4e3d7" d="m633.7 138.3 10.9 18.5s12.5-20 14.5-27c2.2-7.8-2.2-7.3-9-3.6s-16.4 12-16.4 12Z"/><path fill="#263238" d="M637.4 137c1.7 2.2 6 9.4 6.6 10.6l2.1 3.8c.1 0 0 .1 0 0l-2.4-3.4c-.8-1.2-5.2-8.4-6.4-11 0 0 0-.1.1 0Z"/><path d="M659 129.8c-2 7-14.4 27-14.4 27l-5.6-9.6 17.9-23.6c2.5-.1 3.5 1.5 2.2 6.2Z" opacity=".1"/><path fill="#f4e3d7" d="m702.7 190.3-57 11c.3 1.2-5.4-45.1 4.2-74.9.6-2 9.2-5.7 13.8-2.8 20.4 12.6 39.1 67.5 39 66.8Z"/><path fill="#dd6a57" d="M653.2 133.8c2.9 0 7.9-4.2 9-8.5.1-.2-1-2.9-2-6.1a74 74 0 0 1-1.8-6.3c-.1-.4-12.2 6.2-12.2 6.2a33.6 33.6 0 0 1 3 7.7 4.5 4.5 0 0 1 .2.8s0 .1 0 .2c.1 1.6.8 5.9 3.8 6Z"/><path fill="#263238" d="M649.4 127.6v.2a9 9 0 0 0 1.3-.3c7.6-2 7.4-12 7.2-14.5-2.2.9-11.8 6.1-11.8 6.1a34.2 34.2 0 0 1 3.2 7.7 4.5 4.5 0 0 1 0 .8Z"/><path fill="#dd6a57" d="M657 96.3c2.3 4.3 2.6 18.2-.1 21.8-4 5.3-11.7 7.3-16.5 2.3s-4.6-23-1.5-26.4c4.6-5 14.7-4.2 18.1 2.3Z"/><path fill="#263238" d="M645.6 106.9c0 1 .2 2 1 2.3v.1c-1-.1-1.2-1.5-1-2.4Z"/><path fill="#263238" d="M646.4 105.9c1.5-.2 1.7 2.8.3 3s-1.6-2.9-.3-3ZM640.2 107.3v.1c0 1 0 2-.9 2.4 1-.1 1.1-1.6.9-2.5Z"/><path fill="#263238" d="M639.3 106.4c-1.5 0-1.4 3 0 3s1.3-3 0-3ZM647.5 104.4l-1.2-.3a2 2 0 0 1-1.1-.6.6.6 0 0 1 0-.8 1.6 1.6 0 0 1 1.6-.2 2.3 2.3 0 0 1 1.4.9.7.7 0 0 1-.7 1ZM638 105l1.2-.4a2 2 0 0 0 1.1-.6.6.6 0 0 0 0-.8 1.6 1.6 0 0 0-1.6-.2 2.3 2.3 0 0 0-1.4 1 .7.7 0 0 0 .8 1ZM647 115.5c-.2.2-.4.5-.8.6a2.4 2.4 0 0 1-1-.2 1.3 1.3 0 0 0 1.3.4 1 1 0 0 0 .7-.8h-.2Z"/><path fill="#263238" d="M645.8 112.7a3.1 3.1 0 0 1-2 1.6 4.4 4.4 0 0 1-1.1.1h-.4a.2.2 0 0 1-.2-.2v-.2l-.1-1.8c-.3.1-1.6.8-1.6.4a47.8 47.8 0 0 1 .7-9.6c0-.1.2-.1.2 0 0 3-.3 6-.2 9a5.8 5.8 0 0 1 1.4-.6v2.4a4.4 4.4 0 0 0 3.2-1.2c.1 0 .2 0 .1.1Z"/><path fill="#263238" d="M643 114a3.8 3.8 0 0 0 1.6 1 1.7 1.7 0 0 0 1 0c.8-.2.7-.9.6-1.4a4 4 0 0 0-.4-.9 5 5 0 0 1-2.7 1.3Z"/><path fill="#ff99ba" d="M644.6 115.1a1.7 1.7 0 0 0 1 0c.8-.2.7-1 .6-1.5a1.8 1.8 0 0 0-1.6 1.5Z"/><path fill="#263238" d="M637.2 98.7c.4-1.2 1-2.5 1.7-2.7s1.2 1.4 2.9 1.4c2.2 0 3-2 6.1-2.5 4.4-.6 6.6 3 7 9.2.5 5.6 3.9 5.9 3.9 5.9s1.3-12.4-2.5-16.3-11.7-5.1-16.8-.9c-1.9 1.5-2.3 5.9-2.3 5.9Z"/><path fill="#dd6a57" d="M655.9 108s2.2-4.9 4.4-4.2 1 7.5-1.2 8.8a2.4 2.4 0 0 1-3.3-.7Z"/><path fill="#263238" d="M660 105.7v.1a6 6 0 0 0-2.5 4.3 1.3 1.3 0 0 1 1.9-.7 1.5 1.5 0 0 0-1.5.8 7.2 7.2 0 0 0-.5 1.5h-.3c-.5-2.2.6-5.4 2.8-6Z"/><path fill="#f4e3d7" d="M643 90.5a19.6 19.6 0 0 1 5.3-2.3c2-.5 8.8-.8 10.6.4s2.9 7.4 3 8.3.4 6.5-1.4 8-3.2-7.8-6.7-10.5-10.8-3.9-10.8-3.9Z"/><path d="M643 90.5s7.2 1.1 10.8 3.9 4.8 12.2 6.7 10.6a4.5 4.5 0 0 0 1.3-3.2c-.7-2.7-2.4-6.8-5-9.5-2.5-2.5-6.3-3.5-10.4-3.5a22 22 0 0 0-3.4 1.7Z" opacity=".1"/><path fill="#f4e3d7" d="M660.6 110.7c-.5-2.5-3.8-9-7-12.5s-11.3-4.9-12.4-4.7c-2.7.5-3 1.8-3.5 1.7s1.8-3.6 2.5-4.1a8.7 8.7 0 0 1 3.6-1.4c1.2-.1 8.5-.3 11.4 2.5s7.7 10.9 7.3 13.2c-.1.5-.8 1-.9 1.7-.2 1-.2 2.2-.5 2.9s-.5.9-.5.7Z"/><path fill="#263238" d="M652.8 96.5a13.1 13.1 0 0 0 1.6-1.5 9.4 9.4 0 0 0 1.3-1.8 7.3 7.3 0 0 1-1 2 6.2 6.2 0 0 1-1.8 1.4h-.1ZM660.3 108.1c0-.2.2-.3.3-.5a3.6 3.6 0 0 0 .1-.7 5.3 5.3 0 0 1 .1-1.2 4 4 0 0 1 .5-1 1.7 1.7 0 0 0 .4-1 4.2 4.2 0 0 1-.5 2 8.8 8.8 0 0 0-.2 1.3 2 2 0 0 1-.5 1.2s-.2 0-.2 0ZM659.1 105.5c.2-.3.5-.6.6-1a8 8 0 0 0 .5-1l.3-1 .4-1.1h.1l-.3 1.3a8.7 8.7 0 0 1-.3 1 5.8 5.8 0 0 1-.5 1 2.9 2.9 0 0 1-.7.9ZM658 103.2a7.3 7.3 0 0 0 1.1-1.8l.8-1.8h.1a8.3 8.3 0 0 1-.6 2 4.3 4.3 0 0 1-.6.9 5.4 5.4 0 0 1-.8.7ZM656.6 101a2.4 2.4 0 0 0 .6-.8l.6-1 .5-.9a2.4 2.4 0 0 0 .3-1 2.5 2.5 0 0 1 0 1 6.6 6.6 0 0 1-.5 1 9.6 9.6 0 0 1-.6 1 1.8 1.8 0 0 1-.8.7ZM655.6 98l.6-.8.5-.8.5-1s.1 0 0 0a8 8 0 0 1-.3 1 7.9 7.9 0 0 1-.5 1 8 8 0 0 1-.6.8 2.4 2.4 0 0 1-.7.6s-.1 0-.1 0a4 4 0 0 1 .6-.8ZM650.7 95.3l.7-1a11.7 11.7 0 0 1 .8-.9 11 11 0 0 1 1.7-1.6s.1 0 .1.1l-3.2 3.5h-.1ZM649 93.3a4.8 4.8 0 0 1 .7-.9 11 11 0 0 1 2-1.4l-1.8 1.6a10.8 10.8 0 0 0-.8.9l-.6 1s-.1 0 0 0a2.9 2.9 0 0 1 .4-1.2ZM646.7 92.6a5.5 5.5 0 0 1 .7-.9 6.6 6.6 0 0 1 1.7-1.3 12.8 12.8 0 0 0-1.6 1.5l-.7.9-.7.8a6.3 6.3 0 0 1 .6-1ZM645 91.5l.7-.7a3.4 3.4 0 0 1 .8-.6v.1l-1.3 1.4a9.7 9.7 0 0 0-1 1.6 3.1 3.1 0 0 1 .8-1.8ZM643.1 91.4a5.2 5.2 0 0 1 1.6-1.3 6.3 6.3 0 0 0-1.4 1.4 8.2 8.2 0 0 0-1 1.6 4.4 4.4 0 0 1 .8-1.7ZM640.8 92.8a3 3 0 0 1 .1-.4 4.2 4.2 0 0 1 .5-.8 9.1 9.1 0 0 1 1.3-1.2s.1 0 0 0a7.3 7.3 0 0 0-1.1 1.3 4.8 4.8 0 0 0-.5.7l-.2.4a2.5 2.5 0 0 1-.2.4 1.1 1.1 0 0 1 0-.4ZM639.3 93a8 8 0 0 1 .8-1l.5-.6c.1-.1.1 0 0 0a3.8 3.8 0 0 0-.4.6l-.4.6-.4.6-.4.6a3.4 3.4 0 0 1 .3-.7Z"/><path fill="#dd6a57" d="M672 134c6.3 12.3 20.3 37.7 17.6 47.7-3.6 13-25.1 28.4-30.7 32.7-2.4 1.9-15.7-13.5-15.2-16.7s22-21.8 23.2-24-3.9-24.3-5.4-36c-2-14.8 5-14.3 10.4-3.8Z"/><path fill="#dd6a57" d="M638.4 206.6c.6-1.4-.1-1.7-2.5-.4s-11 8.7-13.2 5.5 9.7-13.4 14-15.3a74.5 74.5 0 0 1 11.7-3.6c-2 2.5-6.2 9-10 13.8Z"/><path fill="#dd6a57" d="M664.8 209.1c-5.8 6.8-12.5 15.5-22 18.7a5 5 0 0 1-3.2.1c-4.2 1.6-6.2 0-6.2 0-4.4.3-6.2-1.6-6.2-1.6s-5 1.8-6.5-1c-1.8-3.2 5.5-5 9-8.5 7.7-8 16.6-21.5 18.6-24Z"/><path fill="#263238" d="M643.7 214.2a71 71 0 0 1-7.2 6.6 72.3 72.3 0 0 1-9.3 5.4l.1.2a37.8 37.8 0 0 0 16.5-12.1c0-.1 0-.2-.1-.1ZM649.1 218.2a52.6 52.6 0 0 1-15.8 9.6s0 .1 0 0a34 34 0 0 0 16-9.5c0-.1 0-.2-.1-.1ZM652 220.4c-4.2 3.4-7.3 5-12.4 7.5 6.1-2.1 8.1-3.6 12.6-7.4.1 0 0-.2-.1 0Z"/><path fill="#f4e3d7" d="m663 154 21.3-.2s-11-20.7-16-25.9c-5.5-5.8-7.2-1.7-7.5 6s2.2 20 2.2 20Z"/><path fill="#263238" d="M663.7 150c2.7-.3 11-.3 12.4-.3h4.3c.1 0 .1.2 0 .2l-4.1.2c-1.4 0-9.8.4-12.6 0ZM673.8 135.6s0-.1.1 0l3.3 5a18.2 18.2 0 0 0-1.3-2.9 14 14 0 0 1 1.5 3.3 188 188 0 0 1 7.5 12.8.3.3 0 0 1-.2.3l-2.2-.1a37.8 37.8 0 0 1 1.8-.3l-5.3-8.8a181 181 0 0 1-5.2-9.3ZM661.2 145l-.8-3.3.7 2.4-.5-5 1.3 7.5 1.1 7.2 1.5.2v.2l-1.6.1a.3.3 0 0 1-.3-.2l-1.4-9.1Z"/><path fill="#ad6359" d="M245.2 452.6c2.1.7 62.2.9 64.5-.6a82 82 0 0 0 1.8-19.8l.1-7 5-32-40.2-.3-3.8 32 .1 7s-23 10.3-25.4 12.1-4.2 7.8-2 8.6Z"/><path fill="#fff" d="M245.2 452.6c2.1.7 62.2.9 64.5-.6 1-.6 1.6-13.4 2-26.9l-39-.2v7s-23 10.2-25.3 12-4.3 8-2.2 8.7Z"/><path fill="#f4e3d7" d="M245.2 452.6c2.1.7 62.2.9 64.5-.6a82 82 0 0 0 1.8-19.8l-38.8-.3s-23 10.2-25.4 12-4.2 8-2 8.7Z"/><path fill="#263238" d="M246 450.1a1571.8 1571.8 0 0 1 60.8.5 1594.4 1594.4 0 0 1-60.7-.5ZM268.8 432.9c4 0 8.7 1.4 11.2 4.7.1.1 0 .3-.2.2a54.7 54.7 0 0 0-11-4.4.3.3 0 0 1 0-.5ZM265.7 434c4 0 8.7 1.5 11.2 4.8 0 .1-.1.3-.2.2a56.2 56.2 0 0 0-11-4.4.3.3 0 0 1 0-.5ZM262.6 435.3c4 0 8.7 1.4 11.2 4.7 0 .1-.1.3-.2.2a55.9 55.9 0 0 0-11-4.4.3.3 0 0 1 0-.5Z"/><path fill="#455a64" d="M380 251.7s-52.7 79.3-54 84.9C324.2 345.2 314 431 314 431l-44-.9s10-75.8 17.9-100.4c5.7-17.6 46.8-76.3 46.8-76.3Z"/><path fill="#263238" d="M271.3 422.6c7 0 31.6-.3 40.9.5v.2c-3.2.4-34-.3-41-.5a.1.1 0 1 1 0-.2Z"/><path fill="#ad6359" d="M338.8 466c2.2 0 61.8-15.6 63.6-17.6a.9.9 0 0 0 .2-.4c.2-2-2.8-9.3-5-18.7a3463.2 3463.2 0 0 0-14.8-36l-39 10.1 14.4 28.8 2 6.8s-19.7 15.7-21.5 18.1-2.1 8.7 0 8.8Z"/><path fill="#fff" d="M338.8 466c2.2 0 61.8-15.6 63.6-17.6a.9.9 0 0 0 .2-.4c.2-2-2.8-9.3-5-18.7-.1-.5-1.2-3.4-2.8-7.2l-36.6 10.1 2 6.8s-19.8 15.7-21.6 18-2 8.8.2 9Z"/><path fill="#f4e3d7" d="M338.8 466c2.2 0 61.8-15.6 63.6-17.6.7-.8-.8-8.8-4.8-19l-37.5 9.6s-19.7 15.7-21.5 18.1-2 8.7.2 8.8Z"/><path fill="#263238" d="M339 463.4c9.7-2.8 49-13 58.8-15a1599.8 1599.8 0 0 1-58.8 15ZM356.6 441c3.9-1.1 8.8-1 12 1.6.1.1 0 .3-.2.3a55.9 55.9 0 0 0-11.8-1.5.3.3 0 0 1 0-.5ZM353.9 442.9c3.9-1 8.8-.9 12 1.7.1 0 0 .3-.2.2a55.2 55.2 0 0 0-11.8-1.4.3.3 0 0 1 0-.5ZM351.2 444.8c3.9-1 8.7-.8 12 1.7.1.1 0 .3-.2.3a56 56 0 0 0-11.8-1.5.3.3 0 0 1 0-.5Z"/><path fill="#455a64" d="m357.4 439 43.6-11.4s-43.7-90.8-43.3-96.5c.3-5 30.6-49.1 32.2-57.4 2.8-13.5-3.8-25.5-10.2-33l-45 12.7s3.5 7.8 10.1 12.7c0 0-28.3 47.3-29 63s41.6 110 41.6 110Z"/><path fill="#263238" d="M356.7 431.2c6.4-1.8 4.5-1.4 10.9-3.1 3-.9 23.5-6.4 26.5-6.7v.1a471 471 0 0 1-26.4 7.3l-11 2.6v-.2ZM338 264.3a80 80 0 0 1 12.4 5.9.1.1 0 1 1-.1.2c-4.2-1.8-8.5-3.5-12.6-5.6a.3.3 0 1 1 .2-.5Z"/><path fill="#263238" d="M343.2 263.2a18.7 18.7 0 0 1 .8 2.4 5.3 5.3 0 0 1 .3 2c0 .2-.2.2-.2 0a6.8 6.8 0 0 1-.9-1.9l-.8-2.2c-.2-.5.6-.8.8-.3Z"/><path fill="#263238" d="m343.2 259.1-.5-2-.6-2.2c0-.1-.2 0-.2 0l.4 2.1.4 2.1c.2 1.4.6 2.7 1 4a4.8 4.8 0 0 1-2-.7 3.7 3.7 0 0 1-1.3-1.9l-.8-2.4a15.3 15.3 0 0 1-.9-2.6c0-.1-.2 0-.1 0a29.5 29.5 0 0 0 1.6 5.6c.3.7.5 1.5 1.2 1.8a6.1 6.1 0 0 0 2.4.5c.1 0 .3 0 .2-.2a53 53 0 0 0-.8-4ZM344 267.7c-1.7 3-3.7 6-5.5 9l-5.2 9q-5 9.3-9.3 18.8-2.2 4.8-4 9.6a72 72 0 0 0-3.3 9.9 27.2 27.2 0 0 0-.4 10.3 70 70 0 0 0 2.6 10.2 183.8 183.8 0 0 0 8.5 22.6c.2.3.6.1.5-.2-2.4-6.7-4.9-13.4-7-20.2-2.1-6.6-4.6-13.4-3.4-20.4a53 53 0 0 1 2.8-9.8l4-9.7c2.7-6.3 5.8-12.5 8.9-18.6l5.4-10.2c1.8-3.4 3.5-7 5.5-10.2l-.1-.1ZM376.8 261c-.8 0-2 .2-5.5 0a19 19 0 0 1-3-.5 6.3 6.3 0 0 1-2.6-1.1 14.2 14.2 0 0 1-3.1-4.2 22 22 0 0 1-2.2-5.3h-.1l.5 3.1a17.9 17.9 0 0 0 1 2.8 11.4 11.4 0 0 0 3.2 4.7c1.6 1.2 3.8 1.4 5.7 1.6 1.2 0 5.5 0 6.1-.7.2 0 .2-.3 0-.3Z"/><path fill="#263238" d="M392.2 420.2c-4.8-12.4-30.3-67.2-35.4-78.6a44.3 44.3 0 0 1-3.2-8.5c-.7-3.2.3-6 1.6-9a154.3 154.3 0 0 1 8.5-15.3c3-5 6.3-9.8 9.5-14.6a153.8 153.8 0 0 0 9-14.9c2.5-5 4-10.2 3.2-15.8s-3-10.6-5.6-15.5l-2-3.8c0-.1-.3 0-.2 0 2.8 5.1 5.6 10.5 6.9 16.2a26.2 26.2 0 0 1 .6 8.7 27.5 27.5 0 0 1-2.4 8.4c-2.4 5.2-5.7 10-8.8 14.8l-9.6 14.7a167.3 167.3 0 0 0-8.7 15.3c-1.1 2.3-2.4 4.8-2.6 7.4-.4 2.9.7 5.7 1.8 8.3 4.9 11.3 36.4 80.9 37.1 82.3.1.2.3 0 .3-.1Z"/><path fill="#ad6359" d="M333 196.7c2.3-.8 5.6-7 6.2-11.3 0-.3-1.4-2.8-3-5.9-.9-1.9-1.9-4-2.6-6l-11.4 8a34 34 0 0 1 4.2 7 5 5 0 0 1 .3 1c.4 1.8 2.5 8.3 6.2 7.2Z"/><path fill="#263238" d="M328 189.2a9 9 0 0 1-1.3.4v-.1a4.3 4.3 0 0 0-.2-.9 34.3 34.3 0 0 0-4.2-7.2l10.5-7.3c.7 3.4 1.9 12.3-4.8 15Z"/><path fill="#ad6359" d="M330.3 156.7c2.8 4.1 4.6 18 2.3 22-3.4 5.6-10.9 8.5-16.3 4-5.2-4.4-7.2-22.4-4.4-26.2 4.1-5.6 14.2-5.8 18.4.2Z"/><path fill="#263238" d="M319.2 168.6c.1 1 .3 2 1.2 2.3-1 0-1.3-1.4-1.2-2.3Z"/><path fill="#263238" d="M320 167.5c1.4-.2 1.8 2.8.4 3s-1.7-2.8-.5-3ZM314.2 169v.1c0 1 0 2-.7 2.4 1-.2 1-1.6.7-2.5Z"/><path fill="#263238" d="M313.2 168.2c-1.5 0-1.2 3 .2 3s1-3-.2-3ZM321 166a10.2 10.2 0 0 1-1.3-.3 2 2 0 0 1-1.2-.5.6.6 0 0 1 0-.7 1.6 1.6 0 0 1 1.6-.4 2.4 2.4 0 0 1 1.5.8.7.7 0 0 1-.7 1.1ZM312 167.1c.4 0 .8-.3 1.2-.4a2 2 0 0 0 1-.7.7.7 0 0 0 0-.8 1.6 1.6 0 0 0-1.7 0 2.3 2.3 0 0 0-1.3 1 .7.7 0 0 0 .8 1ZM321.7 177c-.2.3-.4.7-.7.7a2.4 2.4 0 0 1-1 0 1.3 1.3 0 0 0 1.2.3 1 1 0 0 0 .7-.9h-.2Z"/><path fill="#263238" d="M320.4 174.4a3.2 3.2 0 0 1-2 1.7 4.3 4.3 0 0 1-1.1.2h-.5a.2.2 0 0 1-.2-.2v-.2l-.1-1.8c-.3.2-1.5 1-1.6.6a48.3 48.3 0 0 1 0-9.8h.2c.3 3 .1 6 .4 9a5.8 5.8 0 0 1 1.4-.6l.2 2.5a4.4 4.4 0 0 0 3.2-1.5s.1 0 0 .1Z"/><path fill="#263238" d="M317.6 175.9a3.8 3.8 0 0 0 1.7 1 1.8 1.8 0 0 0 1 0c.7-.4.7-1 .4-1.6a4.7 4.7 0 0 0-.4-.9 5 5 0 0 1-2.7 1.5Z"/><path fill="#ff99ba" d="M319.3 176.9a1.8 1.8 0 0 0 1-.1c.7-.3.7-1 .4-1.6a1.8 1.8 0 0 0-1.4 1.7Z"/><path fill="#263238" d="M333.2 167.5c.1-1.2 1.1-15 .6-16.3s-2-.5-2-.6-.2-1.2-1-1.5a2 2 0 0 0-1.6.2s-.4-1.2-1.3-1.4a1.6 1.6 0 0 0-1.5.6 2.1 2.1 0 0 0-1.5-1.3 1.4 1.4 0 0 0-1.4.8s-.5-1.1-1.4-1.2-1.4 1-1.4 1a1.8 1.8 0 0 0-1.7-1 1.6 1.6 0 0 0-1.2 1.3 2.2 2.2 0 0 0-1.7-.8c-1 .1-1 1.4-1 1.4s-.6-1-1.5-.8-.9 1.5-.9 1.5-.7-1-1.6-.6c-1.6.8-.5 8.5-.3 11.8 0 0 .2-1.6.8-1.8s1.4.8 2.7 1c1.9 0 4.5-2.6 7-2.5s4.8 2.4 6.3 6c1.6 4.1 5.3 7.3 5.6 4.2Z"/><path fill="#f4e3d7" d="M321.4 173.4a4.4 4.4 0 0 1-4.5-4.3 4.4 4.4 0 1 1 5.6 4.2 4.3 4.3 0 0 1-1.1.1Zm-4-4.3a3.8 3.8 0 1 0 3.8-4 3.3 3.3 0 0 0-1 .2 3.8 3.8 0 0 0-2.8 3.8ZM312.1 174.8c-1.7.3-3.5-1.4-3.9-3.8a5.2 5.2 0 0 1 .5-3.2 2.8 2.8 0 0 1 4.6-.7 5.3 5.3 0 0 1 1.4 2.9c.4 2.2-.6 4.3-2.3 4.8a1.3 1.3 0 0 1-.3 0Zm-3-6.7a4.7 4.7 0 0 0-.3 2.8c.3 2 1.7 3.6 3.2 3.4s2.4-2.1 2.1-4.2a4.7 4.7 0 0 0-1.2-2.6 2.4 2.4 0 0 0-2-.8h-.3a2.4 2.4 0 0 0-1.4 1.4Z"/><path fill="#f4e3d7" d="m317 169.6.4-.5c-.8-.5-2.4-1-3.3.3l.5.4c.8-1.2 2.4-.3 2.5-.2ZM336.7 167.7l.5-.4c-.2-.2-1.6-2.1-3-2.1s-9 1.9-9.3 2l.2.5c2.2-.5 8.1-2 9-2s2.2 1.5 2.6 2Z"/><path fill="#ad6359" d="M330.9 168.3s1.7-5.2 4-4.7 1.8 7.4-.2 8.9a2.4 2.4 0 0 1-3.5-.3Z"/><path fill="#263238" d="M334.7 165.6a6 6 0 0 0-2 4.6 1.3 1.3 0 0 1 1.8-1v.2a1.5 1.5 0 0 0-1.4 1 6.8 6.8 0 0 0-.4 1.5h-.3c-.6-2.2.2-5.5 2.3-6.3Z"/><path fill="#c7c7c7" d="M385.4 247.5c0 .2-58 20-58.7 19.5-1-.5-8.2-60.8-3.1-76 1.2-3.8 8.6-8.5 13-6.4 12.5 6 17 13 21.5 18.4 3.4 4 8.2 11.2 12.8 18.7a210.3 210.3 0 0 1 14.5 25.8Z"/><path fill="#ad6359" d="M332.8 195.4c2 8.2 5.8 41-2.2 48.7-9.7 9.4-25.8 16.7-31.7 20.4-1.5.9-11.8-22.6-8-24.4 6-2.8 19.5-9.2 20.5-10.1 1.8-1.7 6.8-22.7 9.9-34 2.8-10.3 10.4-5.4 11.5-.6Z"/><path fill="#ad6359" d="M280.2 250.6c1-1.2.4-1.7-2.4-1.2s-13 5.2-14.3 1.5 13.3-10 18-10.6 12.2 0 12.2 0c-2.6 1.8-8.5 6.7-13.5 10.3Z"/><path fill="#ad6359" d="M304.7 260.7c-7.4 4.8-16.5 11.2-26.5 11.6a5 5 0 0 1-3.1-.9c-4.5.3-6-1.8-6-1.8-4.3-1-5.5-3.4-5.5-3.4s-5.3.3-6-2.9c-.7-3.5 6.8-3.2 11.1-5.5 9.8-5.4 22.3-15.7 25-17.5Z"/><path fill="#263238" d="M283 259.4a71 71 0 0 1-8.9 4.2 71.8 71.8 0 0 1-10.4 2.5v.2a38 38 0 0 0 19.3-6.8c.2 0 .1-.2 0 0ZM287 264.9a53 53 0 0 1-18 4.6 34.1 34.1 0 0 0 18.1-4.5c.2-.1.2-.2 0-.1ZM289.2 267.8c-5 2-8.5 2.7-14.1 3.6a32 32 0 0 0 14.2-3.4c.2 0 .1-.3 0-.2Z"/><path fill="#c7c7c7" d="m297 237.1 8.3 25.6s21.9-10.8 27.2-19.5 3.7-31.3 1.6-43.6-10.2-17.7-14.8 1.4-7.5 27.4-8.2 28.2-14.2 8-14.2 8Z"/><path fill="#263238" d="M324.4 251.2c.3-.7 6.3-4.1 9.3-11 1.3-3 2.3-12 2.3-17.7 0-2.2-.2-4.4-.3-6.5-.3-4.4-.7-8.8-.7-13.2.6 2.7 1 5.6 1.2 8.4v-.5c.3-1.3.6-2.6.7-4h.2l-.4 4-.2 2-.2.7.2 2.6.1 6.6c.2 6.2-.5 14.2-2.3 18.4-3 7-9.6 10-9.8 10.2 0 .1-.2.1-.1 0ZM309.6 259.3c-.9-1.8-1.5-3.9-2.1-5.8l-2-5.8c-1.3-3.8-2.7-7.7-3.7-11.7h.2c1.6 3.8 3 7.7 4.2 11.6l2 6a52.7 52.7 0 0 1 1.6 5.7s-.2.1-.2 0Z"/><path fill="#c7c7c7" d="M325.4 188.3c3.7-3.9 15.7-8.9 21.7-7.1 7.6 2.2 21.2 24.7 19 27-3.7 4-24-5.1-29.3-9.8l-11.4-10.2Z"/><path fill="#263238" d="m330.9 194.5 3.2 1.8-4.8-4.1.1-.1a66.4 66.4 0 0 1 5.7 4.2c1.9 1.5 3.8 3 5.8 4.3a47.8 47.8 0 0 0 6 3.7 52.3 52.3 0 0 0 7 2.8l4.2 1.2a31.2 31.2 0 0 0 4.4.8c.3 0 .2.2 0 .2a20.9 20.9 0 0 1-3.7-.5l-3.9-.9a45.5 45.5 0 0 1-7.2-2.2 45.7 45.7 0 0 1-12.1-8.1l-.2-.2-2-1.1a42 42 0 0 0-2.5-1.8Z"/><path fill="#f4e3d7" d="M211.5 284a54.4 54.4 0 0 1-23.5-4.9 58 58 0 0 1-18-13 58.8 58.8 0 0 1-11.6-18.4 57 57 0 0 1-4.1-21.3 55.5 55.5 0 0 1 4.3-21.5 57.2 57.2 0 0 1 12-18.3 58.6 58.6 0 0 1 18.3-12.6 56.5 56.5 0 0 1 23.2-4.7 54.5 54.5 0 0 1 23.4 5 57.5 57.5 0 0 1 18 13 58.5 58.5 0 0 1 11.5 18.5 57.5 57.5 0 0 1 4.1 21.2 55 55 0 0 1-4.3 21.4 58 58 0 0 1-12 18.2 59 59 0 0 1-18.2 12.7 55.8 55.8 0 0 1-23.1 4.8Zm-25.7-57.3a38.6 38.6 0 0 0 1.6 11 29 29 0 0 0 4.8 9.6 23.8 23.8 0 0 0 8 6.6 27.2 27.2 0 0 0 23.2 0 23.6 23.6 0 0 0 8-6.9 29.4 29.4 0 0 0 4.7-9.6 40.6 40.6 0 0 0 1.5-11 38.2 38.2 0 0 0-1.6-11 27.4 27.4 0 0 0-4.9-9.5 26.2 26.2 0 0 0-31-6.4 23.7 23.7 0 0 0-8 6.7 28.8 28.8 0 0 0-4.8 9.6 39.8 39.8 0 0 0-1.5 10.9Z"/><path fill="#f4e3d7" d="M202.5 284a54.4 54.4 0 0 1-23.5-4.9 58 58 0 0 1-18-13 58.8 58.8 0 0 1-11.6-18.4 57 57 0 0 1-4.1-21.3 55.5 55.5 0 0 1 4.3-21.5 57.2 57.2 0 0 1 12-18.3 58.6 58.6 0 0 1 18.3-12.6 56.5 56.5 0 0 1 23.2-4.7 54.5 54.5 0 0 1 23.4 5 57.5 57.5 0 0 1 18 13 58.5 58.5 0 0 1 11.5 18.5 57.5 57.5 0 0 1 4.1 21.2 55 55 0 0 1-4.3 21.4 58 58 0 0 1-12 18.2 59 59 0 0 1-18.2 12.7 55.8 55.8 0 0 1-23.1 4.8Zm-25.7-57.3a38.6 38.6 0 0 0 1.6 11 29 29 0 0 0 4.8 9.6 23.8 23.8 0 0 0 8 6.6 27.2 27.2 0 0 0 23.2 0 23.6 23.6 0 0 0 8-6.9 29.4 29.4 0 0 0 4.7-9.6 40.6 40.6 0 0 0 1.5-11 38.2 38.2 0 0 0-1.6-11 27.4 27.4 0 0 0-4.9-9.5 26.2 26.2 0 0 0-31-6.4 23.7 23.7 0 0 0-8 6.7 28.8 28.8 0 0 0-4.8 9.6 39.8 39.8 0 0 0-1.5 10.9Z"/><path fill="#fff" d="M202.5 284a54.4 54.4 0 0 1-23.5-4.9 58 58 0 0 1-18-13 58.8 58.8 0 0 1-11.6-18.4 57 57 0 0 1-4.1-21.3 55.5 55.5 0 0 1 4.3-21.5 57.2 57.2 0 0 1 12-18.3 58.6 58.6 0 0 1 18.3-12.6 56.5 56.5 0 0 1 23.2-4.7 54.5 54.5 0 0 1 23.4 5 57.5 57.5 0 0 1 18 13 58.5 58.5 0 0 1 11.5 18.5 57.5 57.5 0 0 1 4.1 21.2 55 55 0 0 1-4.3 21.4 58 58 0 0 1-12 18.2 59 59 0 0 1-18.2 12.7 55.8 55.8 0 0 1-23.1 4.8Zm-25.7-57.3a38.6 38.6 0 0 0 1.6 11 29 29 0 0 0 4.8 9.6 23.8 23.8 0 0 0 8 6.6 27.2 27.2 0 0 0 23.2 0 23.6 23.6 0 0 0 8-6.9 29.4 29.4 0 0 0 4.7-9.6 40.6 40.6 0 0 0 1.5-11 38.2 38.2 0 0 0-1.6-11 27.4 27.4 0 0 0-4.9-9.5 26.2 26.2 0 0 0-31-6.4 23.7 23.7 0 0 0-8 6.7 28.8 28.8 0 0 0-4.8 9.6 39.8 39.8 0 0 0-1.5 10.9Z" opacity=".3"/><circle cx="201.1" cy="178.7" r="3.8" fill="#a6a6a6"/><path fill="#d3766a" d="M49.6 453.6c.3-2.1 24.8-55 27-56.4.9-.5 8.8 2.6 18.2 6.6l.3.2c2 .8 38 10.5 38 10.5L117 449l-37.4-10.9-.6-.2s-18.5 16-21 17.3-8.7.5-8.5-1.7Z"/><path fill="#ebebeb" d="m102 406-16.5 34-5.8-1.7-.6-.3s-18.5 16-21 17.4-8.7.4-8.4-1.7 24.7-55 27-56.4c.8-.6 8.7 2.5 18.2 6.6l.3.1c.4.2 3 1 6.7 2Z"/><path fill="#c7c7c7" d="M49.4 453.9c.3-2.1 24.9-55.6 27-57 .9-.6 8.9 2.5 18.4 6.6L79.1 438S60.5 454.3 58 455.6s-8.7.5-8.5-1.7Z"/><path fill="#263238" d="M52 454.1c4.3-8.8 21-45 24.6-54 0-.2 0-.2 0 0a1581.4 1581.4 0 0 0-24.7 54ZM61.4 453a8 8 0 0 0 .3-6.4 7.6 7.6 0 0 0-3.9-4.2v.1a9.2 9.2 0 0 1 3.5 10.5h.1ZM76.6 441c1.7-3.6 2.4-8.3.5-11.9-.1-.1-.3 0-.3.1a54 54 0 0 1-.7 11.7.3.3 0 0 0 .5.1ZM74.3 443.3c1.7-3.6 2.3-8.3.4-11.9l-.3.1a54.7 54.7 0 0 1-.6 11.7.3.3 0 0 0 .5.1ZM72 445.6c1.6-3.6 2.3-8.3.4-11.9-.1-.1-.3 0-.3.1a54.8 54.8 0 0 1-.6 11.7.3.3 0 0 0 .4 0ZM69.6 447.9c1.7-3.6 2.3-8.3.4-12 0 0-.3 0-.3.2a54 54 0 0 1-.6 11.6.3.3 0 0 0 .5.2ZM84 406.2c1.8-4-4.4-6.9-6.3-2.9s4.5 7 6.3 3Z"/><path fill="#263238" d="M84.4 449.3c2.3-1.1 2-4 .9-5.9a20.7 20.7 0 0 0-7.7-7.5.1.1 0 0 0-.1 0c-.3 0-.7.2-.6.6.6 3.4.8 7 2.4 10.1 1 1.8 2.9 3.8 5.1 2.7Zm-5.6-7.9-1-5 4.4 4.5a22.4 22.4 0 0 1 1.8 2.5c.8 1.3 2.2 6.2-1.9 4.8-2.2-.8-2.9-4.8-3.3-6.8Z"/><path fill="#263238" d="M80.4 426.4c-2 2.9-2.5 6.5-3.5 9.8 0 .4.3.6.6.6 0 0 0 .1.1 0a20.7 20.7 0 0 0 8.4-6.6c1.2-1.7 2-4.6-.3-6s-4.2.5-5.3 2.2Zm3-1.2c4.2-1 2.3 3.7 1.3 5a22.8 22.8 0 0 1-2 2.1 61 61 0 0 1-4.8 4l1.4-4.8c.7-1.9 1.8-5.8 4.1-6.3Z"/><path fill="#37474f" d="M171.2 301.6s-.6 20.7-3.8 31c0 0-3.4 1.7-4.4 2.4 0 0 29.8 61.6 28.3 85.3-.5 7.8-8.7 17.6-17.6 23.2-15.8 9.8-88.1 4.1-88.1 4.1l11.1-46.2s43.6 2.7 44.8 0c1.6-3.2-8.1-29.2-15.8-50.2-.8-2.2-8.6-10-7.7-24.2a73.5 73.5 0 0 1 6.7-25.4Z"/><path fill="#263238" d="M105.6 406.5c10.6-.1 19.2.8 29.8.8h7a11.7 11.7 0 0 0 2.8-.3 3.5 3.5 0 0 0 2.1-1.3c.7-1 .3-2.3 0-3.5q-.7-3.7-1.7-7.4c-2.7-10-6.1-19.8-9.4-29.6L131 350l-1.3-3.6a32 32 0 0 0-1.7-3.2 29.8 29.8 0 0 1-2.9-6.3c-2.8-9.4-.1-19.1 3.3-28a119.3 119.3 0 0 1 1.5-3.6c-3 9.4-6.7 19.1-4.6 29.2a24 24 0 0 0 2.4 6.7l1.8 3.2a26.5 26.5 0 0 1 1.5 3.4c1.8 5 3.4 10 5 15 3.4 10 7 20 9.7 30l2 7.7c.3 1.9 1.3 4.5-.4 6-1.2 1.2-3 1.3-4.6 1.3h-8c-10.7 0-27.9-1-29.2-1-.3.1-.3-.3 0-.3ZM93.7 445.4c1-5.3 2-10.8 3.2-16.1s2.5-10.8 4-16.1l1.1-4.5.6-2.1a18 18 0 0 1 .7-2.2h.1a31 31 0 0 1-.7 4.2l-.8 3.9a491.5 491.5 0 0 1-5.6 24l-2.3 9a.1.1 0 0 1-.3 0Z"/><path fill="#263238" d="M180.7 376.5 128 357.4l-2.3-6.2c-.8-2-8.5-10-7.6-24.2a73.6 73.6 0 0 1 6.6-25.4h46.5s-.6 20.7-3.7 31l-4.4 2.3c-.1.1 9.9 21.1 17.6 41.6Z"/><path fill="#d3766a" d="M265.4 456.1a624 624 0 0 1-62.5-2.8c-.8-.5-1-9-1-19.3v-.3l1-37.7 40.7 1.3-4 37.2v.6s22 10.7 24.1 12.6 3.8 7.8 1.7 8.4Z"/><path fill="#ebebeb" d="M265.4 456.1a627 627 0 0 1-62.5-2.8c-.8-.5-1-9-1-19.3v-.3l.2-7.9 38.2 1.5-.8 7.2v.6s22 10.8 24.2 12.6 3.8 7.8 1.7 8.4Z"/><path fill="#c7c7c7" d="M265.9 456.4a633 633 0 0 1-63.1-2.9c-.9-.5-1.1-9.1-1-19.5l37.9 1.2s22.2 10.8 24.4 12.7 3.8 7.9 1.8 8.5Z"/><path fill="#263238" d="M265 454a1555 1555 0 0 0-59.3-1.7A1563.8 1563.8 0 0 0 265 454ZM260.4 445.6a8 8 0 0 0-6 2.3 7.7 7.7 0 0 0-2.4 5.1c0 .1.1.1.1 0a9.2 9.2 0 0 1 8.3-7.2v-.2ZM243.5 436.3c-4-.2-8.6 1-11.2 4.2l.2.2a54.4 54.4 0 0 1 11-4 .3.3 0 0 0 0-.4ZM246.5 437.6c-4-.2-8.6 1-11.2 4.2l.2.2a54.7 54.7 0 0 1 11-4 .3.3 0 0 0 0-.4ZM249.5 438.9c-4-.2-8.6 1-11.2 4.2l.2.2a54.8 54.8 0 0 1 11-4 .3.3 0 0 0 0-.4ZM252.5 440.1c-4-.1-8.6 1.1-11.2 4.2 0 .2.1.3.2.2a54.6 54.6 0 0 1 11-3.9.3.3 0 0 0 0-.5ZM208.5 443c-4.5-.1-4.7 6.7-.2 6.9s4.6-6.8.2-6.9Z"/><path fill="#263238" d="M248 425.9c-1.9-1.7-4.4-.2-5.7 1.5a20.7 20.7 0 0 0-4 10h.2a.5.5 0 0 0 .7.4c2.8-1.8 6.1-3.4 8.4-6.1 1.3-1.6 2.3-4.2.5-5.8Zm-5 8.2-4.2 2.8c.8-2 1.5-3.9 2.4-5.7a22.1 22.1 0 0 1 1.6-2.7c.9-1.2 4.9-4.4 5.1-.1.1 2.4-3.3 4.6-4.9 5.7Z"/><path fill="#263238" d="M228.5 438.5c3.4.6 7-.2 10.4-.6a.5.5 0 0 0 .3-.7v-.2a20.7 20.7 0 0 0-9.4-5.2c-2-.5-5 0-5.4 2.6s2.1 3.7 4.1 4Zm-2.3-2.3c-2.6-3.5 2.5-3.6 4-3.2a21.9 21.9 0 0 1 2.8 1 62.1 62.1 0 0 1 5.6 2.9l-5 .5c-2 .2-6 .7-7.4-1.2Z"/><path fill="#37474f" d="M242.8 431.6h-45.6s8.2-62 5.4-66.1c-1.1-1.8-60.4 4.2-77.7-14.6-15.8-17.2.3-49.3.3-49.3h44.6s1 13.8 3.6 19.3c1.1 2.3 59.4-1 68 14.5 11.3 20.7 1.4 96.3 1.4 96.3Z"/><path fill="#263238" d="M202 423c5.2-.1 10.3-.3 15.5-.3a379.6 379.6 0 0 1 22 .6 16.5 16.5 0 0 1 2 .2v.1a370.9 370.9 0 0 1-30.7 0l-8.8-.3v-.3ZM164.8 318.8l-.5-4.4a113 113 0 0 1-.9-10c0-.2.4-.2.4 0l.9 7.8c.3 2.6.5 5.2 1 7.7.1.8.4 2 1.4 2.1 1.3 0 1.6-1.7 1.7-2.7a41.8 41.8 0 0 0 .1-7.3c-.1-2.7-.5-5.5-.8-8.2a43.5 43.5 0 0 1 1.4 16.4 3 3 0 0 1-1.7 2.5.2.2 0 0 1 0 .1v.5a2.5 2.5 0 0 1 0 .4v.8a.2.2 0 0 1-.4 0 .2.2 0 0 1-.1-.2 4.4 4.4 0 0 1 0-1.5 2 2 0 0 1-1.6-.9 6.8 6.8 0 0 1-.8-3Z"/><path fill="#263238" d="M172.8 320.2a79 79 0 0 0-10.5 8.6c-.1.2 0 .4.2.3 3.6-2.8 7.2-5.5 10.6-8.4a.3.3 0 0 0-.3-.5ZM132.7 323a20.6 20.6 0 0 0 3.1-.2 26 26 0 0 0 2.8-.7c1.6-.5 3.7-1 5-2.4a17.9 17.9 0 0 0 2.8-4.8 19.6 19.6 0 0 0 1.6-5.8c0-.1.2-.1.2 0a28.9 28.9 0 0 1-1 6.1 18.6 18.6 0 0 1-1.2 2.9 10.4 10.4 0 0 1-1.6 2.6 10.3 10.3 0 0 1-5.5 2.6 16.9 16.9 0 0 1-6.2 0c-.2 0-.1-.2 0-.2Z"/><path fill="#263238" d="M207.6 362.6a2.7 2.7 0 0 0-2.3-2.2 21.7 21.7 0 0 0-4 0h-9c-12 0-24-.3-35.9-2.6a83 83 0 0 1-16.7-5c-4.6-2-9.2-4.8-12-9-3.3-4.8-3.6-11.1-3.5-16.8a64.4 64.4 0 0 1 3-18 61.7 61.7 0 0 1 1.4-4.4 62 62 0 0 0-4.7 17.3 61.3 61.3 0 0 0-.4 8.9 34.3 34.3 0 0 0 1 8.6c3.2 10.6 15 15 24.6 17.7a139 139 0 0 0 35.6 4.3h18c1.1 0 3-.4 3.7.8a6.8 6.8 0 0 1 .5 2.2c.2.8.3 1.7.3 2.5a71.2 71.2 0 0 1-.1 9.6l-1.3 19.4-1.8 19.5c0 1.6-.2 3.2-.4 4.8 0 .2.3.2.3 0 1.7-12.9 2.9-25.8 3.7-38.7l.6-9.6a34.7 34.7 0 0 0-.6-9.3Z"/><path fill="#263238" d="M178.3 365a100.3 100.3 0 0 1-12-.9l-11.4-1.6a94.3 94.3 0 0 1-19.4-4.8 34 34 0 0 1-9.3-5.5 38 38 0 0 0 16.7 9 137.3 137.3 0 0 0 21.8 3.8 118 118 0 0 0 13.7.4.2.2 0 0 0 0-.4ZM162 221.3c1.3 1 9.3-1.6 10.3-8.3s-6.3-11-11-5.1c-3 3.7-1.8 11.1.8 13.4Z"/><path fill="#263238" d="M169.2 206a9.4 9.4 0 0 0-6.2-.4 5.7 5.7 0 0 0-4 4 11.5 11.5 0 0 0 .2 6 17.2 17.2 0 0 0 1 3 8.7 8.7 0 0 0 1.9 2.7 7.7 7.7 0 0 1-2.3-2.4 14.1 14.1 0 0 1-1.5-3 11 11 0 0 1-.5-6.7 6.3 6.3 0 0 1 5-4.5 8.3 8.3 0 0 1 6.4 1.2Z"/><path fill="#d3766a" d="M154.3 254.8c.1 1 4.2 7.4 8.6 7.5 1.4 0 1.8-7.7 1.8-7.7l.2-.6 2.3-7.8-9-6.6-1.2-.9-1.1 5v.3l-.2.5-.2 1.2-.2 1-.2 1a53.3 53.3 0 0 0-.8 7.1Z"/><path fill="#263238" d="M155.9 243.6a16.4 16.4 0 0 0 9 10.4l2.3-7.8-9-6.6-1.2-.9-1.1 5Z"/><path fill="#d3766a" d="M177.4 230.8c4.8 13.5-2.7 18-5.6 19-2.7.7-11.8 3.7-18-9.2s-1.4-19.4 4.5-21.9 14.3-1.4 19 12.1Z"/><path fill="#263238" d="M175.3 228a8.3 8.3 0 0 1-1 .1 1.6 1.6 0 0 1-1 0 .5.5 0 0 1-.2-.6 1.3 1.3 0 0 1 1.1-.7 1.9 1.9 0 0 1 1.3.2.6.6 0 0 1-.2 1ZM166.7 231.4a8 8 0 0 0 .9-.5 1.5 1.5 0 0 0 .8-.7.5.5 0 0 0-.2-.6 1.2 1.2 0 0 0-1.3.2 1.8 1.8 0 0 0-.9 1 .5.5 0 0 0 .7.6ZM169.9 234v.2c.3.9.6 2-.1 2.6 1-.5.6-2 0-2.7Z"/><path fill="#263238" d="M168.7 233.4c-1.5.4-.6 3.4.8 3s.5-3.4-.8-3Z"/><path fill="#263238" d="M168.2 233.8c-.2.2-.4.6-.7.7s-.7 0-1-.3c0 0-.1 0 0 0 .1.7.5 1.2 1.2 1s.8-.7.7-1.3l-.2-.2ZM174.7 232c.4 1 .8 2 1.8 2-1.1.3-1.7-1.1-1.8-2Z"/><path fill="#263238" d="M175.2 230.7c1.5-.6 2.5 2.4 1.2 3s-2.4-2.5-1.2-3Z"/><path fill="#263238" d="M176 230.7c.2 0 .5.3.8.2s.5-.5.6-.9c.3.6.3 1.2-.2 1.5s-1 0-1.4-.6c0 0 0-.3.1-.2ZM172.2 241.2a1.4 1.4 0 0 0 .9.4 2.5 2.5 0 0 0 1-.5 1.3 1.3 0 0 1-1 .8 1 1 0 0 1-1-.6s0-.1 0 0ZM174.9 236.6a20.7 20.7 0 0 1 .9 2l-.4.2a3.2 3.2 0 0 1-3.4-.1l.1-.2a5 5 0 0 0 3.1 0c0-.3-1.2-2.3-1-2.4a6 6 0 0 1 1.5-.1c-1.3-2.8-3-5.3-4.2-8.1a.1.1 0 0 1 .1-.1 50.3 50.3 0 0 1 5 8.5c.1.4-1.4.3-1.7.3Z"/><path fill="#263238" d="M175.2 238.3a4 4 0 0 1-1 1.8 1.8 1.8 0 0 1-1 .5c-.7.2-1-.5-1.2-1a4.6 4.6 0 0 1 0-1 5.2 5.2 0 0 0 3.2-.3Z"/><path fill="#ff99ba" d="M174.3 240.1a1.8 1.8 0 0 1-1 .5c-.8.2-1.1-.5-1.3-1a1.8 1.8 0 0 1 2.3.5Z"/><path fill="#263238" d="M154.3 240.6c1.4-.5 4-5.8 2-13.1 0 0 1.4 6.7 1.2 7.8s1.5-3 0-9a24.7 24.7 0 0 0 6.8 1.4c3 0 4.7-.6 4.9-.9s-4.3-.3-5.8-1.2c0 0 8.3 1.2 11.8.4.4 0-1.6-8.3-7.8-10.1s-13.4 4.4-15 7.2c0 0-2.5 1.1-4.2 5.9s4.5 12.2 6 11.6Z"/><path fill="#d3766a" d="M156.6 240s-4.6-3-6-1.1 3.2 6.8 5.8 6.8a2.4 2.4 0 0 0 2.5-2.5Z"/><path fill="#263238" d="M152 240.3a6.2 6.2 0 0 1 4.4 2.4 1.3 1.3 0 0 0-2 .4 1.5 1.5 0 0 1 1.8 0 6.9 6.9 0 0 1 1.2.8c.1.2.3 0 .2-.2-.8-2-3.4-4.1-5.6-3.4Z"/><path fill="#f4e3d7" d="m173.2 296.7-1.8 13.9H121s11.3-41.6 26-53.8c7.3-6 14.7-4.5 18.8 1 1 1.4 12.1 19.2 12.6 26.7.5 6.6-5.2 12.2-5.2 12.2Z"/><path d="M162.3 254.6h-12l1-.5h10.2a6.6 6.6 0 0 1 .8.5Zm2.8 2.4h-18.3l-.5.4h19.2Zm2 2.8H144l-.4.5h24Zm1.8 2.9h-27.3l-.3.4H169l-.3-.4Zm1.6 2.8h-30.9c0 .2-.2.3-.3.5h31.4Zm1.6 2.9h-34.3l-.2.4h34.7Zm1.5 2.8h-37.4l-.2.5h37.8l-.2-.5Zm1.4 2.9h-40.2l-.3.4h40.7Zm1.2 2.8h-42.8l-.3.5h43.3Zm1.2 2.9H132l-.2.4h45.6Zm.8 2.8h-47.4l-.2.4h47.7l-.1-.4Zm-48.6 2.8-.2.5h49a3.5 3.5 0 0 0 0-.5Zm-1.1 2.9-.2.4H178a3.6 3.6 0 0 0 .1-.4Zm-1 2.8-.3.5h49.6l.3-.5Zm-1.2 2.9-.1.5H175l.3-.5Zm-1 2.9-.1.4h48v-.4Zm-1 2.8-.1.5h48.5l.1-.5Zm-.9 2.9-.1.4h49.1v-.5Zm-.9 2.8-.1.4H172v-.4Zm-.8 2.8-.2.5h50.1v-.5Z" opacity=".1"/><path fill="#d3766a" d="M157.7 266.3c5.6 7.5 29.4 31 38.3 29.8 13.8-1.9 28.1-9.5 36-13.5 2.6-1.2-10.3-25.3-14.9-22.3a106 106 0 0 1-21.8 10.3c-2.4.5-19.4-8-31.2-14-9.9-4.9-13.6.3-6.4 9.7Z"/><path fill="#d3766a" d="m213.1 263.2 4-3a16.3 16.3 0 0 0 3.4-3.4c3.9-4.8 16.5-14 33.1-8.7 6.4 2 7.8 7.4.8 6.4-5-.6-8.3-1.5-10-1.3 0 0 5.3 5.5 4.5 9.9a80.6 80.6 0 0 1-3 11.1 17.7 17.7 0 0 1-2.2-.3 9.3 9.3 0 0 1-7.3 6.6l-6.4 3.2Z"/><path fill="#d3766a" d="M225 252.8c3.2-.5 10-1.6 16-.5 6.4 1.2 18.7 5.2 17.8 10-.7 3.6-5.5 2.4-5.5 2.4s4.7 2.8 3.4 5.8c-1.2 2.8-4.9 1.7-4.9 1.7s2.6 2.2 1 4.6c-2 3-7.2-2-11.8-.8-1 .3-16-23.2-16-23.2Z"/><path fill="#263238" d="M238.5 259a26.4 26.4 0 0 1 14.7 5.6c.1.1 0 .2 0 .2a65.3 65.3 0 0 0-14.8-5.8ZM237.4 265.6a29.7 29.7 0 0 1 14.4 6.7 69.7 69.7 0 0 0-14.3-6.6s0-.1 0 0Z"/><path fill="#f4e3d7" d="m188.5 268-8.1 23.3s-15.6-14.4-23.5-24.5-4-15.3 7.3-11.2 24.3 12.4 24.3 12.4Z"/><path d="m188.5 268-8.1 23.3s-15.6-14.4-23.5-24.5-4-15.3 7.3-11.2 24.3 12.4 24.3 12.4Z" opacity=".1"/><path fill="#263238" d="m183.4 267-1 2.3-1 2.4-1.7 4.6c-1.2 3-2.4 6-3.4 9.2 0 0 0 .1 0 0a80.6 80.6 0 0 0 4-9 185.5 185.5 0 0 0 2.5-7l.7-2.4-.1-.1ZM151.7 227.3c0 1.6-7.3 6-13 2.3s-4-12 3.4-11.7c4.7.2 9.5 6 9.6 9.4Z"/><path fill="#263238" d="M135.4 222.6a9.4 9.4 0 0 1 3.8-5 5.7 5.7 0 0 1 5.6-.3 11.4 11.4 0 0 1 4.5 4.1 17 17 0 0 1 1.5 2.8 8.7 8.7 0 0 1 .8 3 7.8 7.8 0 0 0-.2-3.2 14.3 14.3 0 0 0-1.3-3 11 11 0 0 0-4.8-4.8 6.6 6.6 0 0 0-3.4-.6 6.7 6.7 0 0 0-3.3 1.3 8.3 8.3 0 0 0-3.2 5.7Z"/></svg>