<svg xmlns="http://www.w3.org/2000/svg" width="1024" height="1024" viewBox="0 0 1024 1024"><circle cx="512" cy="512" r="512" fill="#282525"/><path fill="#f4e3d7" d="M610.48 129.29c-.67 0-1.23.1-1.54.29-1.17.72-.92 1.4 1.01 2.27 3.1 1.41 7.26.74 6.13-1.08-.5-.81-3.57-1.5-5.6-1.48zm-14.34-1.06c-1.44-.1-2.98.06-3.77.54-.96.6-.45 1.79.94 2.32 1.14.4 6.4-1.18 6-1.82-.38-.57-1.73-.94-3.17-1.04zm5.52 3.91c-.46.05-.89.65-1.37 1.81-.77 1.82-.9 1.96-2.22 2a8.87 8.87 0 0 1-3.28-.81c-1.58-.75-1.96-.74-2.97.16-.9.78-1.38.91-2.18.52l-1.75-.09c-2.6.16-.57.58-3.17.35-.57-.38-5.4-1.89-6.16-1.41-.32.2-.55.73-.47 1.13-.45 2.46-5.73.64-7.63.47-3.21 0-5.97 1.17-7.07.34a7.62 7.62 0 0 0-4.05-1.38c-1.28 0-2.94-.36-3.67-.91-1.1-.74-1.1-.92.27-1.48 1.93-.73 14.25-1.62 20.86-.24 5.43 1 14.96 1.03 14.13-.35-.37-.46-2-1.49-3.92-1.49-1.94 0-5.06-.64-6.8-1.38-2.12-.83-6.35-1.38-11.22-1.38-4.6 0-8.73 1.26-9.93.62-1.56-.92-9.66.79-31.9.97-25.28.19-20.77 2.61-23.07 1.42-1.56-.78-8.33-.01-10.25-.1-1.92-.1-3.5.18-3.73.87-.19.55-4.05 1.19-8.55 1.47-4.6.27-8.64.82-9.2 1.38-.45.45-4.13.82-8.26.82-4.88 0-8.1.46-9.2 1.29-1.74 1.29-10.83 4.16-10.83 2.7 0-1.39-9.1 1.07-11.68 2.54a13.19 13.19 0 0 1-5.51 1.38c-1.75 0-4.23.65-5.52 1.38-1.29.74-3.4 1.29-4.69 1.38-1.38 0-2.94.64-3.58 1.38-.65.73-2.48 1.38-4.23 1.38-1.65 0-3.3.36-3.58.92-.28.46-1.66.92-3.04.92-1.38 0-3.67.64-5.14 1.37-1.38.74-3.4 1.38-4.32 1.38-.92 0-1.93.37-2.2.92-.28.46-2.22 1.29-4.15 1.84-2.02.55-3.67 1.38-3.67 1.84 0 .55-.83.92-1.84.92a9.27 9.27 0 0 0-3.5.83c-3.94 2.2-7.99 3.76-9.37 3.76a4.2 4.2 0 0 0-2.75 1.38 4.2 4.2 0 0 1-2.76 1.38 4.2 4.2 0 0 0-2.76 1.38c-.64.73-1.75 1.38-2.48 1.38s-1.93.64-2.66 1.38c-.74.73-1.94 1.1-2.58.82-.73-.27-1.56-.09-1.84.46-.36.46-2.75 1.93-5.42 3.31l-6.16 3.13a19.3 19.3 0 0 1-2.75 1.38c-.74.27-2.03.91-2.76 1.37-.74.46-2.85 1.57-4.6 2.3a61.93 61.93 0 0 0-4.6 2.4c-5.97 3.67-14.05 8.26-15.62 8.72-1 .28-1.83 1.01-1.83 1.47 0 .46-1.02.83-2.3.83-1.29 0-2.58.64-2.85 1.38-.28.73-1.29 1.56-2.12 1.84-.91.27-2.39 1.2-3.4 2.11-3.12 2.76-9.46 7.54-9.92 7.54-.83 0-9 5.88-11.95 8.54a52.74 52.74 0 0 1-6.53 4.97 70.4 70.4 0 0 0-8 6.34c-2.38 2.2-4.68 4.04-5.14 4.04-.37 0-6.06 5.15-12.5 11.5-6.52 6.33-12.13 11.48-12.59 11.48-.92 0-17.37 18.93-17.37 20.04 0 .45-.64 1.37-1.38 2.02a4.2 4.2 0 0 0-1.38 2.75c0 2.3-2.39 6.71-5.05 9.2-1.29 1.19-2.3 2.57-2.3 3.12 0 .55-1.74 3.12-3.95 5.6-5.88 6.8-19.02 25.28-19.02 26.75 0 .73-.37 1.29-.83 1.29-.46 0-1.2.91-1.56 2.1-.37 1.11-1.57 3.32-2.76 4.88-1.2 1.56-2.2 3.3-2.2 3.95 0 .55-.65 1.29-1.39 1.56-.73.37-1.37 1.47-1.37 2.58 0 1-.65 2.75-1.38 3.67a7.87 7.87 0 0 0-1.38 3.86c0 1.1-.65 2.49-1.38 3.13a4.42 4.42 0 0 0-1.38 2.85c0 1.74-.18 2.39-3.03 8-.83 1.74-1.57 4.04-1.57 5.23 0 1.1-.64 2.58-1.37 3.22-.74.64-1.38 2.48-1.38 4.13 0 1.66-.65 3.5-1.38 4.14a4.97 4.97 0 0 0-1.38 3.3c0 1.11-.37 2.4-.92 2.67-.46.28-.92 1.66-.92 2.94 0 1.2-.55 3.4-1.29 4.7a23.13 23.13 0 0 0-1.92 6.8c-.28 2.38-.92 4.59-1.48 4.86-.45.37-.82 2.58-.82 4.97 0 2.85-.46 4.87-1.38 5.6-.74.65-1.38 2.48-1.38 4.14 0 1.65-.64 4.23-1.38 5.6-.73 1.47-1.38 3.59-1.38 4.69 0 1.1-.46 2.3-.92 2.57-.55.28-.92 2.12-.92 3.96 0 1.83-.64 4.59-1.37 6.06a15.42 15.42 0 0 0-1.38 5.98c-.1 1.83-.65 4.31-1.38 5.6-.74 1.29-1.29 4.5-1.38 7.17 0 2.67-.46 5.79-1.1 6.9-1.66 3.12-2.76 20.49-3.22 49.16-.18 17.37 0 25.92.64 25.92.56 0 .92-2.4.92-5.8 0-3.48.55-6.51 1.29-7.62.74-1 1.47-3.49 1.65-5.51.37-3.59.37-3.59 1.38-1.1.74 1.56 1.1 9.55 1.2 22.79 0 14.42.36 20.95 1.2 22.33.54 1.1 1.37 6.34 1.74 11.67.92 14.06 2.2 24.27 3.4 26.47.55 1.01 1 3.5 1 5.42 0 1.93.65 4.7 1.39 6.16a13.02 13.02 0 0 1 1.38 5.05c0 1.3.64 3.22 1.38 4.14.73 1.01 1.37 3.58 1.37 5.7 0 2.57.46 4.04 1.38 4.41.74.27 1.38 1.56 1.38 2.85s.46 2.3.92 2.3c1.47 0 1.1-4.78-.55-6.53a3.56 3.56 0 0 1-.83-3.49c.83-2.85 2.3-2.39 2.3.74 0 1.47.64 3.12 1.38 3.76 1.56 1.29 1.84 6.9.46 7.82-.46.27-.92 1.56-.92 2.84 0 1.57.55 2.2 1.75 2.2 1.28 0 1.93.84 2.38 3.04 1.3 6.25 5.34 17 6.8 18.1.83.65 6.07 9.3 6.8 11.31.28.83 1.48 1.56 2.49 1.56 1.2 0 1.84.65 1.84 1.75a5.6 5.6 0 0 0 1.38 3.22c.73.73 1.38 2.2 1.38 3.22 0 .91 1.46 3.58 3.21 5.78s3.68 5.06 4.23 6.53c.55 1.38 1.38 2.48 1.84 2.48.46 0 .82.74.82 1.75 0 .92.65 2.2 1.38 2.85.74.64 1.38 1.47 1.38 1.83 0 .65 10.48 16.36 17.1 25.74 3.67 5.14 11.2 13.6 20.58 22.97l11.12 11.5c1.3 1.55 7.45 7.53 13.7 13.32l15.9 14.98c2.57 2.4 5.05 4.32 5.7 4.32.55 0 2.94 1.75 5.14 3.95 2.2 2.12 5.15 4.5 6.62 5.15 1.38.73 3.58 2.48 5.05 3.86 1.38 1.47 3.13 2.66 3.96 2.66.82 0 2.02.56 2.57 1.3a15.8 15.8 0 0 0 4.23 2.84c1.74.83 3.21 1.75 3.21 2.11 0 .37 1.57 1.47 3.5 2.48a36.6 36.6 0 0 1 3.85 2.3c1.57 1.66 9.47 6.43 10.57 6.43.65 0 1.57.46 1.84 1.02.37.46 1.57 1.28 2.58 1.83 1.1.47 2.66 1.2 3.4 1.66 2.84 1.75 17.09 8.36 18.1 8.36.55 0 1.47.65 2.11 1.38a4.69 4.69 0 0 0 3.13 1.38c1.01 0 2.76.64 3.68 1.38a8.58 8.58 0 0 0 4.31 1.38c1.38 0 2.85.46 3.13.92.27.55 1.65.92 2.94.92 1.2 0 3.4.55 4.69 1.28 5.42 2.76 9.56 4.23 12.04 4.23 1.47 0 3.86.64 5.24 1.38a17.5 17.5 0 0 0 6.52 1.38c2.12 0 4.05.36 4.32.82.37.46 2.67 1.1 5.15 1.47 2.48.37 4.78 1.01 5.14 1.47.28.47 2.03.83 3.87.83 1.83 0 4.59.65 6.06 1.38 3.31 1.75 7.35 1.75 8.82 0 1.47-1.84 10.66-1.84 13.79 0 1.29.74 4.6 1.38 7.35 1.38 2.76 0 7.35.64 10.11 1.38 2.76.73 7.17 1.38 9.74 1.38 2.48 0 5.06.46 5.6 1 .84.83 1.85.84 3.69.1 1.37-.55 12.22-1.2 24.17-1.38 12.31-.27 22.7-.92 24.17-1.47 1.47-.55 8.18-1.01 15.07-1.01 11.3 0 12.4-.18 12.87-1.65.36-1.57 1.2-1.66 7.26-1.29 5.88.37 6.8.18 6.8-1.1 0-1.1.83-1.47 3.13-1.47 1.65 0 4.96-1.02 7.35-2.3 2.39-1.29 5.7-2.3 7.35-2.3 1.74 0 3.58-.64 4.23-1.38.64-.74 2.48-1.38 4.13-1.38 1.66 0 3.5-.64 4.14-1.38.64-.82 2.66-1.38 4.96-1.38 4.5 0 9.56-2.2 15.63-6.89 2.3-1.74 4.87-3.22 5.51-3.22.74 0 1.65-.36 1.93-.91.27-.46 1.2-.92 2.02-.92.74 0 2.85-.65 4.69-1.47l6.43-2.76a15.36 15.36 0 0 1 4.87-1.29c1.01 0 2.02-.64 2.3-1.38.37-.73 1.47-1.38 2.67-1.38 1.1 0 2.57-.64 3.21-1.37.65-.74 1.75-1.38 2.48-1.38.65 0 1.47-.65 1.75-1.38.37-.92 1.84-1.38 4.13-1.38 1.93 0 3.59-.37 3.59-.92 0-.46-.64-.92-1.38-.92-.74 0-1.38-.37-1.38-.92 0-.46.64-.92 1.38-.92.74 0 1.38.46 1.38.92 0 1.47 3.67 1.1 4.23-.46.36-.73 1.1-1.38 1.74-1.38 1.84 0 2.76-1.93 1.29-2.85-.64-.36-.92-1-.55-1.37.37-.37 1.2-.19 1.74.36.65.65 2.02 1.1 3.22 1.1 1.2 0 2.11.28 2.11.56 0 1.2-4.68 4.96-6.06 4.96-.83 0-2.02.64-2.76 1.38a5.6 5.6 0 0 1-3.12 1.38 2.64 2.64 0 0 0-2.21 1.38c-.27.73-1.38 1.37-2.39 1.37-1.01 0-1.84.37-1.84.83 0 .46-.92 1.01-2.02 1.2-2.66.36-3.13 2.2-.64 2.85 2.48.64 1.47 2.48-1.38 2.48-1.2 0-2.67.64-3.31 1.38a4.43 4.43 0 0 1-2.94 1.37 5.1 5.1 0 0 0-3.13 1.38 5.59 5.59 0 0 1-3.21 1.38c-.92 0-1.75.37-1.75.83 0 .37-1.84 1-4.04 1.2-2.4.27-4.96 1.28-6.16 2.48-1.2 1.1-3.22 2.2-4.5 2.48-1.3.27-3.5 1.1-5.06 1.74-4.23 1.93-15.53 5.98-16.63 5.98-.65 0-1.57.64-2.2 1.38-.65.73-2.3 1.37-3.69 1.37-1.37 0-3.03.65-3.67 1.38-.74.83-2.67 1.38-5.06 1.38-2.2 0-5.14.64-6.52 1.38a17.5 17.5 0 0 1-6.53 1.38c-2.1 0-4.13.46-4.4.92-.28.55-2.49.92-4.88.92-2.39 0-5.51.64-6.98 1.38-1.38.73-4.97 1.38-7.82 1.38-3.03.09-5.88.64-6.89 1.37a7.87 7.87 0 0 1-3.86 1.38c-1.1 0-2.48.55-3.03 1.29-1.38 1.65-4.69 2.3-17.1 3.49-12.86 1.1-14.24 1.38-14.24 2.94 0 2.02-2.2 2.4-16.08 2.4-7.26 0-13.42.36-13.7.82-.55.83 8.83 1.93 16.64 1.93 2.57 0 5.05.46 5.33.92.73 1.2 18.2 1.2 19.4.09.45-.55 7.53-1.2 15.8-1.56 8.18-.37 15.16-1.01 15.44-1.38.27-.46 3.58-.83 7.35-.83 4.05 0 8.18-.55 10.2-1.38a24 24 0 0 1 7.63-1.38c2.39 0 6.16-.64 8.27-1.37a26.24 26.24 0 0 1 6.8-1.38c1.66 0 3.77-.65 4.78-1.38.92-.74 3.31-1.38 5.15-1.38 1.84 0 3.68-.37 3.95-.92.28-.46 1.66-.92 3.04-.92 1.37 0 3.67-.64 5.14-1.38a13.95 13.95 0 0 1 5.52-1.38c1.56 0 3.67-.64 4.6-1.38a8.58 8.58 0 0 1 4.31-1.37c1.29 0 2.94-.65 3.59-1.38a4.96 4.96 0 0 1 3.3-1.38c1.2 0 2.2-.37 2.2-.92 0-.46 1.48-1.1 3.23-1.47 1.74-.28 3.49-.92 3.76-1.38.28-.46 1.38-.83 2.49-.83 1.1 0 3.21-.64 4.68-1.38 1.38-.73 3.13-1.37 3.77-1.37.64 0 1.66-.65 2.3-1.38a4.2 4.2 0 0 1 2.76-1.38 4.2 4.2 0 0 0 2.75-1.38c.65-.74 1.75-1.38 2.48-1.38 1.47 0 12.32-5.06 19.21-9 2.58-1.48 5.61-3.04 6.9-3.4 1.2-.37 4.23-2.21 6.8-4.05 4.69-3.4 6.34-4.5 11.12-6.99a24.99 24.99 0 0 0 5.42-4.13c1.47-1.56 3.04-2.76 3.59-2.76 1.28 0 7.9-6.62 7.9-7.9 0-.65 1.93-2.4 4.41-3.96 5.7-3.76 11.5-8.36 17.46-13.96 2.67-2.48 5.24-4.5 5.8-4.5 1.28 0 16.63-15.17 22.88-22.52 2.76-3.31 9.19-10.3 14.34-15.54 6.25-6.43 9.46-10.57 9.83-12.4.37-1.57 2.02-4.32 3.68-6.25 4.6-5.06 8.45-11.58 7.16-12.04-1.1-.37-1.37-2.94-.27-2.94.37 0 1.2.45 1.84 1.1 1.65 1.65 2.48.09 1.1-2.4-1-2.01-.92-2.57 1.29-5.14 1.28-1.56 2.39-3.3 2.39-3.77 0-.46 1.83-3.76 4.13-7.44a92.69 92.69 0 0 0 6.62-13.14 88.96 88.96 0 0 1 3.5-8.28c.63-1 1.65-3.67 2.29-5.97.73-2.3 1.84-4.78 2.48-5.6.64-.74 1.2-2.2 1.2-3.22 0-1.01.64-2.67 1.37-3.68a7.26 7.26 0 0 0 1.38-3.77c0-1.1.37-2.2.83-2.48.46-.27 1.1-2.02 1.38-3.77.37-1.74 1-3.21 1.47-3.21.37 0 1.01-1.2 1.38-2.76.37-1.47 1-2.94 1.47-3.22.46-.37.83-1.47.83-2.66 0-1.1.64-2.85 1.38-3.86.73-.92 1.37-3.04 1.37-4.6 0-1.56.65-3.4 1.38-4.04.92-.74 1.38-2.76 1.38-5.6 0-2.49.37-4.51.92-4.51.46 0 1.2-1.66 1.47-3.68.37-2.02 1.01-3.95 1.38-4.23.46-.27.83-1.84.83-3.49 0-1.65.64-3.77 1.37-4.78.74-.92 1.38-3.22 1.38-4.96 0-1.75.65-4.23 1.38-5.52.74-1.28 1.3-4.78 1.38-8.08 0-3.22.46-6.71 1.01-7.82 1.01-1.83 1.56-6.24 3.59-28.67.55-5.51 1.28-11.3 1.83-12.78 1.2-3.4 1.2-24.44 0-24.44-1.74 0-3.67 9.56-3.67 18.38 0 6.16-.37 9.37-1.38 10.66-.74 1.1-1.38 4.6-1.56 8.09-.19 3.3-.65 6.06-1.2 6.06-1.1 0-.92-19.3.18-36.3.46-6.06.46-14.15 0-17.92a773.64 773.64 0 0 1-1.47-20.68c-.64-12.4-1.47-16.9-3.86-21.78a9.79 9.79 0 0 1-.82-3.68c0-1.19-.65-3.3-1.38-4.77a14.88 14.88 0 0 1-1.38-5.8c0-1.74-.55-4.5-1.29-6.06a28.73 28.73 0 0 1-1.74-5.7c-.46-3.22-2.2-8.18-3.95-11.67a12.53 12.53 0 0 1-1.3-5.15c0-1.56-.36-3.12-.91-3.4-.46-.27-.92-1.65-.92-2.94s-.55-3.58-1.29-5.15a31.54 31.54 0 0 1-1.84-5.42c-.45-1.84-1.19-2.57-2.48-2.57-1.47 0-1.74.37-1.28 1.56.37.92.92 3.77 1.38 6.43.46 2.67 1.28 5.61 1.74 6.62.55 1.01 1.01 2.94 1.01 4.41.1 1.38.65 3.59 1.38 4.87.74 1.29 1.38 4.14 1.38 6.44 0 2.3.64 4.96 1.38 5.88.83 1.1 1.38 3.86 1.38 7.08 0 2.94.37 5.5.83 5.79.45.36 1.19 5.14 1.47 10.66.36 5.6 1.1 10.38 1.46 10.66 1.1.64 1.1 74.17 0 75.36-.55.46-1.1 5.6-1.46 11.4-.28 5.79-.92 10.93-1.38 11.4-.55.54-.92 3.3-.92 6.15 0 3.5-.46 5.6-1.38 6.34-.83.74-1.38 2.76-1.38 5.42 0 2.4-.46 4.78-1 5.33-.56.56-1.11 3.68-1.39 6.9-.18 3.3-1 7.17-1.74 8.64-.74 1.47-1.38 3.4-1.38 4.22 0 .83-.37 1.84-.92 2.12-1.47.92-1.01 5.24.73 6.52 1.38 1.01 1.66.74 2.57-3.58 1.1-4.96 2.76-10.02 4.14-12.78.46-.91.83-2.75.83-4.13.09-1.47.64-3.59 1.38-4.87a14.3 14.3 0 0 0 1.38-5.98c0-2.02.64-4.5 1.38-5.42.91-1.2 1.37-3.95 1.37-7.53 0-3.13.65-7.17 1.38-8.92.83-2.11 1.38-6.25 1.38-11.12 0-4.32.37-8 .83-8.27 2.48-1.56 2.94 23.07.55 26.74-.74 1.1-1.38 3.86-1.38 5.98-.09 2.2-.64 4.96-1.38 6.25-1.74 3.03-1.74 8.73 0 11.4 1.38 2.1 1.01 5.14-.55 5.14-.46 0-.83-.83-.83-1.84 0-1.01-.36-1.84-.92-1.84-1.19 0-1.2 2.4.1 4.78 1.37 2.48.36 5.88-1.93 6.53-1.2.27-1.84 1.2-1.84 2.66a8.2 8.2 0 0 1-1.38 4.05 7.93 7.93 0 0 0-1.38 4.13c0 1.38-.64 2.67-1.38 3.04-.82.27-1.38 1.65-1.38 3.67 0 1.75-.36 3.4-.82 3.77-.55.28-1.2 2.39-1.57 4.6-.27 2.3-.91 4.4-1.37 4.68-.46.28-.83 1.29-.83 2.2 0 .93-.65 2.4-1.47 3.13-.92 1.01-1.29 2.3-.83 4.05.46 2.39-.18 5.05-2.2 8.45a72.15 72.15 0 0 0-4.14 9.2 52.4 52.4 0 0 1-3.3 5.97 96.88 96.88 0 0 0-3.6 6.61 8.84 8.84 0 0 1-1.83 2.58c-.55.27-1.01 1.38-1.01 2.39 0 .92-.37 1.74-.92 1.74-.46 0-1.1 1.01-1.47 2.2-.28 1.2-1.56 3.13-2.76 4.33-1.2 1.1-2.2 2.57-2.2 3.21 0 1.29-6.8 11.58-8.74 13.24-.73.64-1.38 1.56-1.38 2.02 0 .46-3.03 4.78-6.61 9.56l-9.29 12.13c-1.47 1.84-4.78 5.7-7.44 8.45a351.4 351.4 0 0 0-10.48 12.13c-5.79 7.17-18.2 19.12-19.85 19.12-.46 0-.18-.73.65-1.65.92-.92 1.56-2.02 1.56-2.4 0-.36 1.1-2.1 2.39-3.85 4.96-6.43 1.2-3.86-8.55 5.79-5.42 5.51-10.94 10.66-12.22 11.49a99.33 99.33 0 0 0-8.18 6.61c-3.31 2.85-6.25 5.15-6.62 5.15-.37 0-2.11 1.29-3.77 2.85a34.82 34.82 0 0 1-5.7 4.23 29.78 29.78 0 0 0-5.51 4.13 53.9 53.9 0 0 1-6.52 5.15 69.4 69.4 0 0 0-4.14 2.94 28.1 28.1 0 0 1-3.86 2.2c-1.93 1.02-3.5 2.3-3.5 3.04 0 .64-.82 1.2-1.92 1.2-2.2 0-1.93 2.1.37 2.57.92.18 1.56-.28 1.56-1.1 0-.93.82-1.48 2.3-1.48 1.47 0 2.3-.55 2.3-1.38 0-.73.54-1.37 1.28-1.37.73 0 1.47-.65 1.84-1.38.55-1.57 3.86-1.84 4.69-.46.27.55-.37 1.38-1.57 1.84-3.12 1.37-5.7 3.03-6.52 4.4a3 3 0 0 1-2.12 1.1c-.73 0-2.11.47-3.12 1.11-1.38.92-2.2.83-4.05-.18-1.28-.64-2.38-1.56-2.38-2.02 0-1.2 3.03-4.41 4.22-4.41.65 0 2.94-1.75 5.15-3.96 2.11-2.2 7.72-6.43 12.22-9.46 4.6-2.94 8.83-5.98 9.56-6.62.74-.74 2.76-2.2 4.6-3.4a81.9 81.9 0 0 0 7.44-5.88c2.3-2.02 4.6-3.77 5.06-3.77.55 0 5.14-4.14 10.29-9.2 5.15-5.05 9.65-9.18 9.93-9.18 2.02 0 33.17-35.66 37.4-42.83 1.01-1.74 2.12-3.12 2.48-3.12.37 0 1.38-1.38 2.3-2.94a86.63 86.63 0 0 1 4.97-7.08 50.07 50.07 0 0 0 4.77-6.9c5.33-9.74 7.81-14.06 8.73-15.25.65-.74 2.95-4.69 5.06-8.73 2.11-4.04 4.87-8.46 6.16-9.74 1.37-1.47 1.84-2.58 1.2-2.85-.74-.18-.56-1.29.45-3.77 1.56-3.77 3.22-4.5 3.22-1.38 0 1.56.28 1.75 1.1.92.92-.92.92-1.56 0-2.94-1.38-2.2-1.47-5.52-.18-5.52.55 0 .92-.82.92-1.74 0-1.01.46-2.11 1-2.48.56-.28.74-1.47.47-2.67-.83-3.21.46-3.49 3.3-.73l2.58 2.48v-3.31c0-1.84.55-3.77 1.29-4.32a8.03 8.03 0 0 0 1.93-3.86c.36-1.47 1-2.85 1.47-3.12 1.2-.83 1-5.06-.19-5.06-.55 0-1.19.83-1.47 1.84-.55 2.2-1.93 2.39-2.75.37-.37-.92.09-2.02 1.1-2.76 1.47-1.1 1.56-1.66.64-3.59-1.47-3.12-1.38-4.13.28-4.13.73 0 1.38.55 1.38 1.29 0 .73.64 1.47 1.37 1.84.74.27 1.38 1.37 1.38 2.39 0 1 .46 1.83.92 1.83 2.12 0 .83-5.6-1.84-8.45-3.03-3.22-3.49-6.25-1.37-10.3.73-1.37 1.37-3.3 1.37-4.22 0-.92.65-2.3 1.38-3.13.83-.83 1.38-3.03 1.38-5.88 0-2.94.46-4.96 1.38-5.7 1.01-.83 1.38-3.12 1.38-8.64 0-4.14.46-8 1.01-8.54.55-.56 1.2-4.14 1.47-8 .28-3.86.92-7.26 1.29-7.54.46-.27.82-2.94.82-5.88 0-3.77.46-5.88 1.48-6.9 1.37-1.28 1.56-5.41 1.47-37.67 0-31.99-.19-36.4-1.56-38.42-1.1-1.66-1.39-3.95-1.2-7.9.18-3.5-.19-5.98-.92-6.71-.55-.55-1.1-2.4-1.1-3.86 0-1.57-.65-4.05-1.38-5.52a15.95 15.95 0 0 1-1.38-6.16c0-2.02-.64-5.14-1.38-6.98a19.7 19.7 0 0 1-1.38-6.16c0-1.56-.64-3.67-1.38-4.6a8.22 8.22 0 0 1-1.38-4.13c0-2.4-2.75-10.48-3.95-11.67-.36-.37-.64-1.84-.64-3.22 0-1.38-.55-3.67-1.29-5.14-1.28-2.58-2.66-5.61-5.79-12.87-.92-2.11-1.93-3.95-2.3-3.95-1.37 0-.73 3.76.65 4.22.73.37 1.38 1.66 1.38 3.13 0 1.38.64 3.77 1.37 5.14.74 1.47 1.38 3.59 1.38 4.7 0 1.1.46 2.3.92 2.57.55.27.92 1.93.92 3.58 0 1.65.65 3.77 1.38 4.78.74.92 1.38 3.03 1.38 4.6 0 1.56.64 3.4 1.38 4.04.92.73 1.38 2.76 1.38 5.6 0 2.49.36 4.5.92 4.5.45 0 .92 2.58.82 5.8 0 3.12.46 10.3 1.01 15.8 1.29 12.14 1.47 85.75.28 99.72-.46 5.33-1.29 10.57-1.93 11.67-.64 1.1-1.1 3.96-1.1 6.44-.1 2.39-.65 5.42-1.38 6.7-.74 1.3-1.29 4.42-1.38 7 0 3.03-.46 5.14-1.38 5.87-.92.74-1.38 2.85-1.38 6.53 0 3.03-.37 5.42-.92 5.42-.46 0-.92-1.01-.92-2.2 0-1.2-.27-2.85-.55-3.68-1-2.67-2.2-1.56-2.2 2.12 0 2.02-.56 4.04-1.38 4.68-.74.65-1.38 2.48-1.38 4.05 0 1.56-.64 3.67-1.38 4.6a8.22 8.22 0 0 0-1.38 4.13c-.09 2.2-2.57 10.38-3.86 12.5-.27.55-.83 2.3-1.2 3.95-.27 1.56-1 2.94-1.47 2.94-.46 0-.82.92-.82 2.11 0 1.1-.65 2.85-1.38 3.77a7.87 7.87 0 0 0-1.38 3.86c0 1.1-.64 2.48-1.38 3.12a4.69 4.69 0 0 0-1.38 3.13c0 1.2-1 3.03-2.3 4.23-1.28 1.19-2.3 2.66-2.3 3.4 0 1-3.12 7.72-6.52 14.06-.46.73-1.65 3.12-2.75 5.24-1.2 2.2-3.4 5.42-5.15 7.26-1.66 1.84-3.04 3.67-3.04 4.04 0 .37-.82 1.38-1.83 2.3-1.02.92-1.84 2.02-1.84 2.48 0 .46-1.01 2.2-2.3 3.86-1.29 1.66-2.3 3.31-2.3 3.68 0 .37-1.65 2.66-3.67 5.05-2.03 2.4-3.68 4.78-3.68 5.33 0 .55-.64 1.56-1.47 2.2-.83.74-3.68 4.14-6.34 7.73-2.67 3.5-6.07 7.72-7.45 9.19a79.24 79.24 0 0 0-5.33 6.43c-3.77 5.15-10.3 11.3-14.34 13.33a21.58 21.58 0 0 0-5.42 4.14 28.21 28.21 0 0 1-5.33 4.96c-1.93 1.38-6.43 5.33-10.11 8.73-3.68 3.4-8.36 7.44-10.57 8.91-2.2 1.48-5.79 4.14-8.09 5.89-5.7 4.5-5.33 4.23-11.67 8.55-3.21 2.1-5.97 3.85-6.25 3.85-.27 0-3.12 1.84-6.52 4.14-3.31 2.3-6.62 4.14-7.35 4.14-.74 0-1.3.36-1.3.82 0 .46-1.1 1.2-2.47 1.75-1.47.46-4.78 2.39-7.54 4.23-2.66 1.83-5.33 3.3-5.97 3.3-.56 0-1.84.65-2.76 1.38a7.87 7.87 0 0 1-3.86 1.38c-1.2 0-2.39.46-2.67.92-.27.55-1.56.92-2.75.92-1.1 0-2.3.64-2.67 1.38-.27.73-1.29 1.38-2.2 1.38-1.02 0-2.3.64-2.94 1.38-.74.82-1.93 1.2-3.31.82-1.66-.46-2.2-.18-2.2 1.01 0 1.2-.56 1.47-1.94 1.1-1.1-.27-3.58.28-5.51 1.3-1.93.91-4.14 1.74-4.78 1.74-.74 0-1.84.64-2.48 1.38-.65.73-2.3 1.38-3.68 1.38-1.38 0-3.03.55-3.59 1.28-.64.83-3.03 1.29-6.89 1.29-3.12 0-6.8.46-8 1.2-1.19.64-4.04 1.46-6.34 1.92-2.3.37-7.26 1.29-11.03 2.12l-11.85 2.39c-2.67.46-5.7 1.28-6.62 1.74-2.2 1.2-13.7 1.2-13.7 0 0-.46-1.19-.92-2.75-.92-3.31 0-3.58 1.1-.64 2.67 1.74.92 1.47.92-1.66.46-2.02-.37-16.45-.92-32.16-1.29-19.67-.46-31.16-1.2-37.23-2.2-4.78-.92-11.4-1.93-14.7-2.3-3.31-.37-6.9-1.2-8-1.75-1.1-.64-3.77-1.1-5.97-1.1-2.2 0-5.15-.64-6.62-1.38a14.9 14.9 0 0 0-5.79-1.38c-1.75 0-3.77-.64-4.5-1.38a6.2 6.2 0 0 0-3.68-1.37c-2.2 0-2.76-.19-8.46-3.04-1.74-.83-3.76-1.56-4.68-1.56-.83 0-2.4-.64-3.4-1.38a6.74 6.74 0 0 0-3.31-1.38c-.83 0-2.85-.73-4.6-1.56-4.96-2.48-5.7-2.76-8.82-3.4-1.56-.37-3.12-1.1-3.4-1.56a2.68 2.68 0 0 0-1.93-.83c-2.02 0-20.22-9-21.5-10.57a4.43 4.43 0 0 0-2.95-1.38c-.92 0-1.93-.64-2.2-1.37-.37-.92-1.2-1.2-2.3-.92-1.01.36-2.39 0-3.3-.92-2.3-2.4-8.37-5.98-9.93-5.98-.83 0-1.84-1.1-2.4-2.39-.82-2.39-.91-2.39-2.75-.73-1.75 1.56-1.84 1.56-2.4-.37-.27-1.1-.82-2.02-1.28-2.02-.46 0-.82-.46-.82-1.1 0-1.38-3.68-5.33-4.97-5.33-.55 0-2.2-1.1-3.68-2.49a98.24 98.24 0 0 0-6.61-5.23c-11.4-8.18-39.15-33.83-44.2-41.09a106.67 106.67 0 0 0-6.35-7.8c-3.68-3.96-21.5-27.58-21.5-28.4 0-.56-.93-1.94-5.34-8.46-1.1-1.66-2.02-3.4-2.02-3.96 0-.55-1.01-2.39-2.2-3.95a91.47 91.47 0 0 1-5.52-9.37l-4.14-7.81c-.46-.74-1.1-2.03-1.38-2.76-.27-.74-.92-2.02-1.38-2.76-.45-.73-2.75-5.51-5.14-10.57-2.3-5.05-4.6-9.92-5.15-10.75a9.95 9.95 0 0 1-.82-3.86c0-1.2-.65-2.67-1.38-3.3a4.92 4.92 0 0 1-1.38-3.23c0-1.1-.64-2.57-1.38-3.21a4.42 4.42 0 0 1-1.38-2.85c0-1.01-.37-2.48-.83-3.4-1.37-2.58-3.77-10.94-3.77-13.24a7.9 7.9 0 0 0-1.37-4.04c-.74-.92-1.38-3.22-1.38-5.05 0-1.84-.65-3.87-1.38-4.5-.83-.74-1.38-2.67-1.38-5.06 0-2.2-.64-5.15-1.38-6.53-.82-1.65-1.38-5.24-1.38-9.37 0-3.68-.46-7.54-1-8.55-1.39-2.57-1.3-70.58 0-71.87.54-.55 1-3.58 1-6.8 0-3.12.55-7.35 1.29-9.19a47.67 47.67 0 0 0 1.84-6.07c.37-1.38 1-2.3 1.47-2.02 1.29.83 1.2 23.07-.1 25.46-.64 1.2-1.19 9.83-1.46 22.7-.19 11.3-.74 21.14-1.1 21.6-1.2 1.56-.1 10.66 1.28 10.66 1.56 0 2.3 2.11 2.3 6.43 0 1.93.36 3.86.92 4.14 1.65 1.01 2.1-4.41 1.56-19.21-.83-23.44 1.56-69.3 3.77-71.5.64-.64 1.1-3.22 1.1-5.8 0-2.75.55-5.42 1.38-6.52.73-.92 1.38-3.21 1.38-5.05 0-1.84.64-4.87 1.38-6.62a20.74 20.74 0 0 0 1.37-6.43c0-1.66.46-3.5 1.02-4.05a5.69 5.69 0 0 0 1.28-3.21c.46-3.68 3.5-12.41 6.53-18.48.73-1.47 1.28-3.21 1.28-4.04 0-2.48 11.68-25.46 15.26-30.15 3.68-4.68 8.36-11.2 10.02-14.06 6.9-11.4 14.06-21.5 26.2-36.76 5.32-6.7 9.83-12.96 10.1-13.88.64-2.39 10.84-13.32 12.87-13.88.92-.27 7.8-6.43 15.35-13.78 7.44-7.35 15.07-14.25 16.81-15.35 1.75-1.1 4.7-3.49 6.35-5.24 1.74-1.83 3.58-3.3 4.04-3.3.46 0 2.39-1.3 4.32-2.76 1.93-1.56 3.95-2.76 4.5-2.76.65 0 2.03-.92 3.13-2.02a22.7 22.7 0 0 1 7.53-5.24c1.02-.46 3.4-1.93 5.34-3.22 1.93-1.28 3.85-2.39 4.31-2.39 1.1 0 6.8-3.12 7.17-3.85.56-1.1 4.78-.83 4.78.27 0 .55-.82 1.2-1.84 1.47-1 .28-1.83.83-1.83 1.1 0 .83-7.54 4.69-9.1 4.69-.56 0-1.01.46-1.01.92 0 .55-.46.92-1.01.92s-2.58 1.2-4.5 2.76c-1.94 1.56-3.96 2.75-4.51 2.75-.55 0-1.01.46-1.01.92 0 1.66 3.21 1.01 5.51-1.2 1.29-1.1 5.52-3.48 9.38-5.14 3.95-1.65 7.62-3.67 8.18-4.32a3.91 3.91 0 0 1 2.75-1.28c1.01 0 1.75-.37 1.75-.92 0-.46.74-.92 1.65-.92.83 0 2.76-.65 4.23-1.38 1.38-.74 3.5-1.38 4.69-1.38 1.1 0 2.57-.64 3.21-1.38.65-.73 2.3-1.38 3.68-1.38 1.38 0 3.03-.55 3.59-1.28.55-.74 2.39-1.47 4.04-1.75 4.05-.64 10.84-2.57 12.77-3.5.92-.45 2.76-.82 4.14-.82 1.47 0 3.77-.64 5.24-1.38a13.02 13.02 0 0 1 5.05-1.38 13 13 0 0 0 4.7-1.38 13.8 13.8 0 0 1 5.14-1.37c1.56 0 4.41-.65 6.16-1.38a25.9 25.9 0 0 1 8-1.38c2.57 0 5.32-.37 6.24-.92.83-.46 3.95-1.1 6.8-1.38 2.94-.37 5.52-1.01 5.8-1.47.36-.46 2.66-.83 5.14-.83 2.48 0 6.06-.64 7.9-1.38 1.75-.73 5.61-1.37 8.37-1.37 2.85 0 6.98-.65 9.1-1.48 3.67-1.47 4.22-1.47 7.9 0 2.85 1.1 8.74-.33 17.29-.33 6.43 0 9.18-.87 9.46-.41.27.46 7.7.07 9.08.34 1.47.37 4.5.21 6.1.36 2.6.26 4.85.73 7.97.73 1.57 0 6.77.7 8.6 1.44 1.85.83 5.03 1.45 8.8 1.45l8.15 1.46c0-.46 1.2-.92 2.67-.92 1.56 0 3.03.46 3.3.92.28.56 2.58.92 4.97.92 2.85 0 4.87.46 5.6 1.38.65.74 3.5.3 4.87.29 3.32-.01 5.57 1.59 10.75 1.52a7.99 7.99 0 0 0 4.22 1.43c1.47 0 4.1.6 4.29 1.15.18.55 4.79 1.46 6.16 2l7.46 1.16c1.67.7 7.9 2.46 9.51 2.84 1.87.4 8.19 2.83 9.68 3.35 1.5.52 6.47 3.9 9.56 4.67 3.09.76 6.62 4.56 8.26 5.22 3.25 2.43 7.22 3.25 10.1 6.24.1.16 2.18 1 4.6 1.84 2.97 1.1 7.01 3.22 12.42 6.56 8.89 5.52 11.25 7.18 13.16 9.28 1.55 1.77 2.25 2 4.95 1.78 1.86-.15 2.82-.58 7.03-3.3 3.16-2.01 5-3 5.16-2.75.57.93-6.5 6.42-8.34 6.5-1.88.11-3.02.98-3.08 2.41-.1 1.8.32 2.31 3.01 3.87 2.97 1.73 4.36 3.16 8.17 8.32 1.65 2.31 4.11 5.47 5.37 6.97l4.68 5.74c3 3.76 5.46 6.47 7.18 7.9.95.82 1.37 1.5 1.53 2.47.13.75.99 2.5 1.93 3.92 1.73 2.71 2.95 6.92 3.52 12.7.12 1.53.5 2.97.8 3.17 1.03.76 1 4.95 0 6.64-.56.9-1.1 3.18-1.24 5.1-.15 1.93-.4 3.6-.6 3.72-.16.1 0 .72.38 1.33.82 1.32.59 2.47-1.08 5.18a8.55 8.55 0 0 0-1.19 2.57c.01.38-.48 2.2-1.04 3.99-.75 2.3-.93 3.98-.6 5.95l1.3 8.1c.43 2.96 1.25 6.36 1.76 7.54 2.76 5.98 3.23 6.64 5.41 8.18 3.76 2.57 4.04 2.74 6.14 3.44 1.56.54 2.43.5 4.07-.18 2.9-1.25 3.11-2.88.98-7.13a18.76 18.76 0 0 1-1.9-6.84 57.81 57.81 0 0 0-1.33-7.81c-.94-3.77-.94-4.49.11-8.99.63-2.67 1.42-6.61 1.78-8.73.33-2.15.84-4.03 1.12-4.2.77-.48 2.52-3.4 2.3-3.77-.13-.2.24-1.04.78-1.88.54-.83.91-1.67.84-1.8-.23-.36 1.74-3.03 3.76-5.06a14.88 14.88 0 0 0 2.63-3.86c1.14-2.65 2.18-3.85 2.89-3.51.31.14 1.34-.27 2.33-1l1.82-1.3 1.49 1.87c.83.98 2.27 2.49 3.25 3.27 4.12 3.4 9.75 13.12 10.77 18.62a22.5 22.5 0 0 0 1.86 5.25c.82 1.5 2.18 4.33 3.04 6.25 2 4.5 3.31 6.25 4.38 5.81 1.2-.47 1.88-3.61 1.52-7.24-.26-2.84-.23-2.98.37-1.56.84 1.98 1.8 2.73 2.73 2.15 1.17-.72.12-7.99-2.57-17.63-3.1-11-4.7-14.14-10.68-20.46-4.85-5.13-4.63-4.87-4.07-5.22 1.25-.77 6.33 2.66 9.02 6.11 1.04 1.3 2.64 3 3.5 3.68.88.68 2.4 2.14 3.3 3.25a259.8 259.8 0 0 0 6.9 7.15l5.8 5.87c.9 1 2.7 2.28 12.31 8.8 6.24 4.32 20.63 13.07 23.56 14.37 1.6.68 4.26 1.93 5.93 2.73 9.02 4.32 15.08 6.36 18.95 6.41 3.88.05 4.84-.38 6.32-2.85 1.27-2.07 1.6-4.68 1.38-10.6-.34-8.38-.98-12.2-2.48-14.62-.75-1.21-1.57-2.1-1.78-1.97-.24.15-.87-.51-1.45-1.44-1.12-1.8-2.42-3.01-6-5.64-2.85-2.08-7.07-7.54-14.61-19.07-3.14-4.8-6.46-9.54-7.34-10.5-.9-1-4.82-6.7-8.7-12.7-6.6-10.18-9.23-13.9-15.3-21.44a300.7 300.7 0 0 1-5.84-7.8 95.38 95.38 0 0 0-6.12-7.63 54.8 54.8 0 0 1-3.71-4.56c-.58-.92-1.76-2.2-2.64-2.82-.87-.58-3.72-3.38-6.31-6.22-6.3-6.74-10.33-10.82-11.63-11.74-1.27-.89-4.84-4.13-15.26-13.66a42.23 42.23 0 0 0-3.76-3.19c-.49-.25-2.82-2.31-5.22-4.56-3.86-3.62-5.47-4.96-8.53-7.02a29.8 29.8 0 0 1-1.85-1.64c-.55-.61-1.76-1.59-2.72-2.22-1.63-1.1-2.9-1.99-8.24-5.92-4.55-3.3-20.66-13.66-22.2-14.26-.35-.12-1.76-.86-3.15-1.67a96.2 96.2 0 0 0-5.01-2.69 70.9 70.9 0 0 1-5.37-3.08 64.18 64.18 0 0 0-5.4-3.06c-2.7-1.5-5.27-.8-7.92-.96-.47-1.7-2.16-4.67-3.69-3.73-.92.57-5.11-2.71-5.84-1.64-.54.83-2.92-1.1-5.92-1.09-3.86.23-7.24-1.55-10.53-3.32l2.45.44a18 18 0 0 1 2.73.64c.2.15.89-.1 1.53-.5 2.38-1.47.63-3.57-3.9-4.66-2.75-.69-2.96-.84-2.27-1.44 1.34-1.16.02-2.4-3.22-2.95-3.83-.7-4.46-.36-2.94 1.65l1.12 1.53c-.04.03-1.51-.28-3.38-.69-3.4-.73-6.89-.68-9.22.14-.94.37-1.54.3-2.05-.34-.64-.77-.59-.86.73-1.34.87-.32 1.5-.82 1.69-1.33 4.76-.46 2.1-2.2-.2-2.21-3.52-.88-7.21-.89-10.8-1.16-.9-.07-.93-1.21-2.95-1.69-1.45-.27-2.75-.74-2.9-.99-.94-1.53-5.66.12-5.95 2.08-.11.62.01.83.33.63.25-.15.67.08.94.53.83 1.33-.39 1.52-3.92.59a75 75 0 0 0-6.2-1.28c-1.52-.22-2.94-.63-3.12-.9-.62-1.01.52-1.5 3.16-1.3 3.79.27 5.43.7 4.08-1.48-.52-.85-5.4-1.89-6.32-1.32-.2.13-.72.11-1.05-.07-1.2-.6-5.36-1.24-7.14-.52-1.58.59-4.89.07-5.84-.29-.94-.36-6.15-.13-7.83.4-3.14.95-4.27.75-5.39-1.06-.64-1.03-1.14-1.52-1.6-1.47zm1.65 9.27c.19.03.37.1.55.19.56.27 2.4.52 4.06.6 1.96.12 3.32.51 3.9 1.1 1.63 1.72 2.16 1.78 4.22.5 1.65-1.02 2.55-1.19 5.51-1.07 4.66.23 11.86 1.34 24.51 3.86 6.65 1.28 7.85 1.6 19.3 4.7 6.86 1.81 8 2.22 16.54 6.01l7.4 3.22 4.77 2.05c2.64 1.2 10.1 6.05 10 6.5-.02.24-.4.25-.8.06-1.77-.86 1 2.44 3.14 3.73 1.26.78 2.29 1.53 2.22 1.69-.25 1.21-3.38.3-8.09-2.35-.8-.5-3.05-1.33-4.91-1.9-3.37-1.04-9.82-4.17-10.37-5.06-.43-.68-3.55-1.14-4.36-.64-.44.27-.91.23-1.08-.05-.2-.32-.92-.66-1.6-.79-.7-.12-2.65-1.03-4.36-1.98-3.72-2.15-7.93-3.27-10.12-2.76-1.82.47-2.31.05-1.33-1.06.44-.55 1.13-.7 2.02-.53 1.77.35 5.54.13 5.63-.26.05-.2-.6-.8-1.44-1.33-1.83-1.16-6.12-1.78-6.76-.94-.25.32-.58.42-.73.17-.13-.2-.97-.57-1.88-.78l-1.63-.38-.64 1.84-.62 1.89-.87-.69c-1.07-.84-21.82-5.64-24.52-5.69-1.1.02-5.42-.65-9.62-1.5-4.18-.8-7.8-1.35-8.09-1.17-.52.32-8.19-.55-11.15-1.28-2.11-.53-2.44-.88-1.35-1.56.64-.4.64-.67-.23-1.53-.92-1.04-.95-1.08.7-2.1.9-.57 1.52-.79 2.08-.7zm35.32 6.66c-1.62.17-1.82.3-1.85.98a2.5 2.5 0 0 0 .17 1.18c.25.4 4.05 1.22 4.45.97.12-.08 1.13.3 2.25.84 1.13.57 2.79 1 3.79.99.93-.02 2.37.31 3.11.8 1.4.8 3.07.72 3.56-.2.14-.28.09-.64-.1-1-.54-1.11-2.22-2.3-3.07-1.77-.8.5-9.56-1.6-10.06-2.4-.2-.32-1.22-.52-2.25-.39zm-9.09 6.73c.17.03.4.14.65.34.4.31.7.62.88.9.3.45.26.84-.14 1.1-.4.24-.85-.03-1.35-.84-.6-.97-.55-1.58-.04-1.5zm45.3 1.04a1.22 1.22 0 0 0-.76.18c-.52.32-1.06.99-1.18 1.5-.31 1.48.44 2.24 2.85 2.8 1.63.39 2.58.3 3.5-.27.67-.41.98-.73.93-.98-.01-.08-.07-.15-.16-.22-2.84-2.08-4.26-2.95-5.17-3.02zm24.46 3.58c.44-.28 3.54.86 3.9 1.36.56.89-1.14 1.21-2.33.45-1.18-.72-1.94-1.59-1.57-1.81zm-9.22 3.13c-.35 0-.66.14-1.03.45-.71.56-.9 1.17-.62 2.06.54 1.67 2.95 2.24 4.21.95.52-.51.69-.96.48-1.43-.2-.46-.78-.94-1.75-1.51-.54-.34-.94-.5-1.29-.52zm-14.86 17.05c1.14 1.94-.38 4.97-.64 6.08-.73 2.95-2.47 8.32-2.83 8.55-.16.1-.34-.18-.44-.62-.1-.44-.26-.95-.38-1.16-.1-.16.09-.39.44-.44 1.09-.23 1.03-1.75-.12-2.99-.75-.76-1.19-.93-1.48-.59-.68.87-.84.08-.27-1.06.27-.55.35-2.05.22-3.25-.36-2.28-.14-3.37.91-5.08.41-.7.35-1.33-.3-2.48-.47-.83-.81-1.84-.75-2.27.03-.4-.19-1.39-.5-2.08l-.63-1.28 1.83.98c2.2 1.14 2.55 1.6 1.74 2.1-.72.44.5 1.02 1.08 2zm30.13 8.08c.27 0 .65.25.98.77.25.4.2.94-.13 1.14-.64.4-.99.11-1.21-1.15-.09-.5.08-.76.36-.76zm-39.61 11.05c.14.03.25.13.33.28.31.56.3 1.8-.12 2.66-.47.96-.66 1.02-1.54.67-.75-.31-1.02-.2-1.16.39-.1.45-.42.93-.7 1.1-.85.53-1.23-.63-.77-2.31.32-1.2.7-1.66 2.03-2.2a5.57 5.57 0 0 1 1.93-.59zm25.96.55c.23-.03.45.08.57.3.09.15.13.35.1.59-.05.47-.26.93-.46 1.06-.48.3-1.12-.81-.83-1.43.15-.33.39-.5.62-.52zm-129.32 2.9c2.08 0 4.24.28 4.56.83.92 1.38-4.78 2.39-7.44 1.29-.65-.19-1.2-.83-1.2-1.29 0-.55 2-.83 4.08-.83zm136.04 3.7c.47.1.74.18.85.36.14.25.02.67-.27 1.57-.28.9-.88 2.27-1.32 3-.73 1.34-.88 1.37-2.09.95-2-.71-1.82-2.94.42-5 .96-.87 1.56-1.07 2.4-.87zm-41.15 6.8c.22.01.38.07.47.2.2.3.06.97-.41 2.49a9.41 9.41 0 0 0-.32 1.48c-.42-1.1-1.05-2.27-1.64-3.43.7-.42 1.5-.79 1.9-.75zm.06 5.38c.77.22 1.76 1.84 1.23 2.17-.07.04-.47.03-.65.05-.15-.72-.33-1.46-.58-2.22zm-272.27 9.86c1.29 0 2.3.46 2.3.92 0 .55-1.01.91-2.3.91-1.29 0-2.3-.36-2.3-.91 0-.46 1.01-.92 2.3-.92zm401.25 1.4c.14-.13.32-.11.56.01a1.11 1.11 0 0 1 .41.41c.38.63.36 1.68-.13 2.38-.64.84-1.5-.63-1.18-2 .1-.42.2-.69.34-.8zm-406.77 1.35c.74 0 1.38.46 1.38.92 0 .55-.64.92-1.38.92-.73 0-1.37-.37-1.37-.92 0-.46.64-.92 1.37-.92zM777.4 235c.24-.04.58.06 1.08.28a4.38 4.38 0 0 1 1.82 1.6c.73 1.17.6 2.46-.7 2.72-1.01.18-3.04-2.91-2.66-4.1.1-.3.23-.47.46-.5zm-46.23 2.87c.07 0 .12.03.16.1.15.27.04 1.08-.37 2.36-.95 3.04-2.05 4.23-3.38 3.7a3.9 3.9 0 0 1-1.44-1.16c-.38-.6-.13-.92 1.32-1.82 1-.62 2.17-1.62 2.65-2.2.49-.66.84-.97 1.06-.98zm-415.49 7.52c.46 0 .92.64.92 1.38 0 .73-.37 1.37-.74 1.37-.46 0-3.3 2.49-6.34 5.52-5.6 5.6-6.98 6.34-8.18 4.41-.82-1.38 8.27-9.93 10.66-9.93.92 0 1.84-.64 2.21-1.37.28-.74.92-1.38 1.47-1.38zm427.5.07c.05.02.1.05.12.1.26.43-.27 2-.88 2.37-.24.15-.29-.37-.1-1.16.22-.8.6-1.37.85-1.3zm-453.05 22.9c1.29 0 .74 2.12-.83 3.31-1.65 1.29-3.03 1.66-3.03.83 0-.74 3.12-4.14 3.86-4.14zm-20.46 20.48c.53-.03.98.3.98 1.03 0 .83-.65 1.47-1.47 1.47-.83 0-1.3-.46-1.1-1.1.28-.88 1-1.37 1.6-1.4zM751.2 299.3c.2-.13.63.35 1.04 1.02.46.76.9 1.77 1 2.45.14.86.04.87-.6-.17a4.85 4.85 0 0 0-1.57-1.54c-.68-.37-.6-1.24.13-1.76zm85.7 3.54 1.65.32c.88.17 2.88.78 4.37 1.3 1.96.7 3.28 1.64 4.07 2.98.47.8.76 1.75.89 2.86.12.92.82 2.77 1.6 4.13l1.38 2.49-2.72-1.43c-1.5-.8-3.43-1.67-4.24-1.9l-3.73-1.07c-1.21-.42-2.29-.82-2.34-.9-.07-.12-.1-1.5-.09-3.11.04-1.64-.16-3.58-.4-4.33zm-579.94 1.49c.78 0 1.07.9.18 1.8-.65.64-1.2.64-1.57.09-.27-.55-.09-1.29.46-1.56.35-.23.66-.33.93-.33zm510.63 3.94c.13.03.25.12.34.28.21.34.3.95.1 1.55-.29.79-.35.77-.76-.15-.28-.55-.26-1.23-.1-1.5.15-.15.29-.2.42-.18zm28.39 6.29a.7.7 0 0 1 .4.3c.34.5.15 1.47-.54 1.9-.44.28-.9.28-.99-.06-.15-.79.6-2.27 1.13-2.14zm-33.79 6.2c.11.06.25.17.44.31.1.1.21.25.3.4.3.5.54 1.22.62 1.88.06.91.3 1.93.55 2.33 1.2 1.93 1.51 4.69.83 7.28-.36 1.57-.98 3-1.3 3.2-.76.48-.75.59-1.04-3.02-.16-1.7-.56-3.61-.94-4.22-.4-.64-.51-1.9-.25-3.18.24-1.15.42-2.83.43-3.72.02-1.1.04-1.42.36-1.25zm11.09.47c.11 0 .21.06.32.18.14.14.26.3.35.43.08.14.12.25.1.3l-1.25 3.83c-.64 2.02-1.45 3.69-1.79 3.67-.32.03-.57-.2-.58-.47.03-.24-.35-.4-.75-.32-.62.17-.8-.05-.85-.92-.03-.59.15-1.2.43-1.38.28-.17 1.22-1.53 2.15-3 1.04-1.7 1.52-2.31 1.87-2.32zm27.75 2.87c.24.06.47.18.64.36.13.14.22.25.27.34.16.27-.05.33-.78.36-1.33.1-1.96-.63-.86-1.02a1.28 1.28 0 0 1 .73-.04zm-42.87 7.77c.18-.02.36.08.52.35.37.6-.42 3.37-1.1 3.8-.24.15-.41-.58-.44-1.51-.05-1.44.48-2.6 1.02-2.64zm-.15 10.3c.85.06 1.79.92 2.78 2.54l.13.2c.61 1.08.88 1.7.54 1.4-.3-.3-1.03-.47-1.5-.34-.48.12-1.2-.05-1.5-.36-1.6-1.5-2.08-2.72-1.28-3.22.27-.16.54-.23.82-.22zm-4.17 7.58c.21.08.48.26.8.57.22.23.4.45.53.68.41.67.41 1.3-.07 1.6-.2.12-.76-.42-1.24-1.19-.75-1.2-.65-1.9-.02-1.66zm127.11.16c.52.12.94.46 1.19.87.28.45.33.99.04 1.38-.26.38-1.14.76-1.96.88-.86.14-1.66.02-1.8-.22-.8-1.29.97-3.28 2.53-2.91zm-121.5 2c.97.01 1.64.37 2.14 1.18.87 1.4.45 1.72-1.64 1.4-2.72-.43-3.16-2.66-.5-2.59zm-546.36 6.46c.34-.02.62.2.66.7 0 .36-.46.82-1 1.1-.65.18-1.02-.18-.74-.74.2-.65.68-1.03 1.08-1.06zm651.95 5.41c-1.62-.27-7.1 1.23-8.5 2.38-.5.36-3.74 1.42-7.24 2.25-3.47.87-6.64 1.78-7.08 2.05-.4.25-2.2.59-3.93.77-1.73.18-3.73.64-4.4 1-2.06 1.16-3.34 1.35-4.51.62-.63-.39-2.37-.59-4.02-.46l-4.3-.27c-.5-.06-1.08 0-1.5-.1-1.6-.33-3.69-.55-4.63-.46-.91.06-1.62.27-1.48.41.57.82 3.57 2.08 6.77 2.83 1.93.41 4.27 1.14 5.22 1.5.97.4 2.32.5 2.98.32 1.76-.59 3.73-.47 4.12.18.2.32.78.52 1.21.42a7.51 7.51 0 0 1 1.88.06c2.04.4 4.87.66 5.19.46.2-.12 1.35.11 2.64.48 1.25.4 2.97.67 3.78.61 1.58-.14 5.28-2.16 4.93-2.72-.2-.33.94-2.36 1.42-2.66.44-.28 1.23 1.63 1.2 2.93-.07 1.32.05 1.42 1.14 1.74.87.24 1.75.04 2.95-.71 1.21-.75 2.23-1 3.46-.8 1.1.14 3.5-.29 6.52-1.27 5.35-1.7 12.3-5.05 11.6-5.63-.4-.3-2.01-.92-6.51-2.42-.99-.34-3.09-1.2-4.64-1.92a21.18 21.18 0 0 0-4.27-1.58zm-94.79 3.43c-.84-.02-1.53.31-1.75.98-.2.5-.06 1.7.24 2.64 1.1 3.5 1.59 4.36 2.83 5.1 1.45.82 4.3.28 5.7-1.04.57-.52 2.22-1.37 3.7-1.84 2.98-.96 5.47-2.33 5.2-2.78-.43-.68-5.83-1.4-8.74-1.15-2.53.23-3.42.05-4.48-.85a4.5 4.5 0 0 0-2.7-1.06zm-564.9 4.1c.43-.01.94.46 1.33 1.45.83 2.02.73 2.2-.83 2.2-.73 0-1.38-.82-1.38-1.83 0-1.18.4-1.8.88-1.82zm633.33 1.59c.22-.01.46.02.75.07.4.1.65.27.85.6.15.27.27.63.39 1.14.34 1.63-.05 2.26-1 1.52-.37-.23-.87-.3-1.1-.16-.29.18-.82.23-1.27.12-1.11-.26-1.18-.55-.38-1.78.72-1.07 1.12-1.47 1.76-1.51zm20.27 113.43c.06 0 .11 0 .17.02.64.28 1.2 2.58 1.38 6.07.27 5.52-.65 9.2-1.93 7.9-.37-.36-.65-3.76-.65-7.44 0-4.74.25-6.57 1.03-6.55zm-727.59 16.01c.17-.01.36.28.6.83 1.01 2.58 1.01 8.55 0 9.2-.46.27-1.1-.37-1.47-1.39-.37-1.1-.28-3.67.1-5.79.28-1.95.5-2.83.77-2.85zm717.6 11.86c.94.06 1.27 3.85 1.52 15.26.18 10.75-.55 16.45-2.02 14.98-.92-1.01-.83-29.6.18-30.15.12-.07.22-.1.32-.1zm10.1 3.25c.42 0 .88.68 1.25 2.18.74 2.94.19 5.33-1.2 5.88-.82.18-1.19-.92-1.19-3.86 0-2.68.52-4.19 1.14-4.2zm-673.89 28.46c-.46 0-.92.64-.92 1.38 0 .73.46 1.38.92 1.38.55 0 .92-.65.92-1.38 0-.74-.37-1.38-.92-1.38zm679.19 16.54c.55 0 .92 2.85.92 6.44 0 7.26-1.38 8.63-2.4 2.3-.64-4.51.1-8.74 1.48-8.74zm-669.08 13.79c-.46 0-.92 1.47-.92 3.22 0 1.74.46 3.21.92 3.21.55 0 .92-1.47.92-3.21 0-1.75-.37-3.22-.92-3.22zm666.23 5.51c1.1 0 1.74 2.67 1.2 4.88-.65 2.75-2.03 1.65-2.03-1.66 0-1.74.37-3.22.83-3.22zm-663.47 5.98c-.55-.37-.92.46-.92 1.84 0 1.37.37 2.2.92 1.83.55-.27.92-1.1.92-1.83 0-.74-.37-1.57-.92-1.84zm661.35 2.3c1.1 0 1.3.82 1.1 3.85-.36 5.43-2.57 5.8-2.57.37 0-3.21.37-4.23 1.48-4.23zm-25.36 45.03c1.2 0 1.2 4.32 0 5.05-.55.28-1.2-.09-1.47-.82-.65-1.84.18-4.23 1.47-4.23zm-2.93 16.83c-.27-.08-.56.08-.93.45-.55.55-.74 1.65-.37 2.57.46 1.2.92 1.29 1.65.55.55-.55.74-1.65.37-2.57-.23-.6-.46-.92-.72-1zm-2.38 4.39c-.44-.22-1.03.2-1.5 1.39-.91 2.39-.64 4.23.65 3.86.55-.28 1.2-1.56 1.38-2.85.18-1.33-.1-2.18-.53-2.4zm-613.32 33.15a.97.97 0 0 1 .28.04c1.66.55 1.94 2.57.37 2.57-.82 0-1.47-.64-1.47-1.47 0-.7.33-1.14.82-1.14zm572.17 69.61h.05c.45 0 1 .37 1.19.92.18.55-.37 1.01-1.2 1.01-.82 0-1.38-.46-1.2-1.01.19-.54.71-.9 1.16-.92zm-34.77 27.99c.03 0 .06.02.07.04 1.01 1.01-1.74 5.06-5.14 7.63a125.3 125.3 0 0 0-7.9 6.8c-5.15 4.78-16.73 13.7-17.84 13.7-.36 0-1.83 1-3.21 2.3-1.38 1.28-2.76 2.3-3.04 2.3-.27 0-2.02 1.28-3.95 2.75-1.93 1.56-3.95 2.76-4.5 2.76-.55 0-2.67 1-4.69 2.3-3.5 2.2-8.27 3.12-8.27 1.56 0-1.1 3.68-4.32 7.26-6.25 1.66-1.01 3.77-2.12 4.6-2.67.82-.46 3.76-2.2 6.61-3.86 2.76-1.65 5.89-3.86 6.8-4.87.92-1.01 1.93-1.84 2.4-1.84.91 0 10.1-6.15 12.77-8.73a33 33 0 0 1 5.33-3.86 57.6 57.6 0 0 0 7.63-6.25c2.33-2.24 4.57-3.91 5.07-3.81zm-13.25 20.53-1.1 2.21c-1.38 2.39-4.6 5.33-5.98 5.42-.55 0-2.66 1.66-4.6 3.68-1.92 2.02-3.94 3.68-4.31 3.68-.46 0-3.96 2.2-7.9 4.87l-8.46 5.51a59.9 59.9 0 0 0-4.14 2.48 24.16 24.16 0 0 1-4.32 2.4c-.92.36-1.65.91-1.65 1.28 0 .46-.83 1.1-1.84 1.38-1.38.46-1.75 1.1-1.29 2.85.46 1.93.28 2.2-1.74 2.2-1.29 0-2.57.37-2.94.83-.65 1.1-11.4 6.53-12.87 6.53-.64 0-1.65.64-2.3 1.38a4.2 4.2 0 0 1-2.75 1.37c-.83 0-3.87 1.29-6.72 2.76-2.84 1.56-5.97 2.76-6.98 2.76-1.01 0-2.11.46-2.39.92-.27.55-1.29.92-2.11.92-.83 0-2.76.64-4.23 1.37a13.45 13.45 0 0 1-5.15 1.38c-1.37 0-3.03.65-3.67 1.38-.65.74-2.3 1.38-3.68 1.38-1.38 0-3.03.64-3.68 1.38-.64.74-2.3 1.38-3.67 1.38-1.38 0-3.03.64-3.68 1.38a4.96 4.96 0 0 1-3.3 1.38c-1.3 0-2.95.36-3.87.82-2.3 1.2-14.88 3.77-18.28 3.77-1.57 0-3.13-.37-3.5-.82-.92-1.57 3.03-2.95 6.53-2.3 3.12.55 3.21.55 2.57-1.84-.46-1.84-.18-2.4.83-2.4.82 0 1.74.47 2.02.93.73 1.2 5.97 1.2 5.97 0 0-.46-.73-1.29-1.56-1.84-1.29-.74-.64-.92 2.94-.74 3.86.28 4.6 0 4.5-1.28-.09-1.29.56-1.66 2.85-1.66 1.75 0 3.59-.73 4.6-1.83.92-1.02 2.39-1.84 3.22-1.84a4.2 4.2 0 0 0 2.75-1.38c.74-.92 2.85-1.38 6.07-1.38 3.86 0 5.88-.55 9.56-2.85 2.48-1.56 4.6-3.21 4.6-3.68 0-.46 1.92-.82 4.22-.82s5.33-.56 6.62-1.3c4.5-2.29 9.37-4.22 10.75-4.22.74 0 1.38-.37 1.38-.92 0-.46.73-.92 1.75-.92.91 0 2.2-.64 2.84-1.37.65-.74 1.75-1.38 2.48-1.38.74 0 2.67-1.01 4.32-2.3 1.66-1.29 3.31-2.3 3.68-2.3.28 0 3.77-2.2 7.81-4.96a133.1 133.1 0 0 1 10.76-6.8 24.27 24.27 0 0 0 5.42-3.86 14.24 14.24 0 0 1 3.67-2.85c1.02-.46 3.31-1.75 5.06-2.76 1.75-1.1 4.5-2.67 5.97-3.5a74.63 74.63 0 0 0 5.89-3.67zm-33.73 4.88c.73 0 1.38.46 1.38.92 0 .55-.65.92-1.38.92-.74 0-1.38-.37-1.38-.92 0-.46.64-.92 1.38-.92zm-16.36 18.38c2.02 0 2.3.18 1.2.92-1.75 1.1-2.49 1.1-3.22 0-.37-.55.55-.92 2.02-.92zM666.29 840c1.47 0 2.3.55 2.3 1.38 0 .82-.83 1.38-2.3 1.38-1.47 0-2.3-.55-2.3-1.38 0-.83.83-1.38 2.3-1.38zm-29.02.31c1.26-.02 2.78.83 2.27 1.62-.64 1.1-4.04 1.1-4.04 0 0-.55.37-1.1.83-1.38.26-.16.59-.23.94-.24zm-5.36 2.67a1.63 1.63 0 0 1 .83.24c1.01.64.37 2.3-.92 2.3-.46 0-1-.37-1.38-.83-.5-.86.46-1.73 1.47-1.71zm-41.88 35.62c2.73-.02 5.08.37 4.85 1.2-.28.64-2.48 1.19-5.52 1.37-3.12.19-5.6.83-6.25 1.56-1.29 1.57-12.4 1.93-13.32.56-.83-1.47 1.28-2.12 6.25-2.12 2.66 0 5.7-.55 6.8-1.28 1.33-.83 4.45-1.27 7.19-1.29zm-26.52 4.75a7.51 7.51 0 0 1 1.77.21c3.68.92 2.48 2.4-1.93 2.4-2.3 0-4.13-.38-4.13-.84 0-1 2.13-1.78 4.29-1.77z"/><path fill="#f4e3d7" d="M509.31 278.91c-6.29.44-12.15 3.13-17.69 5.98-9.08 4.86-17.5 10.82-26.47 15.88-9.18 5.39-18.48 10.6-27.32 16.53-1.62 2.44.7 5.45-.44 8.05-3.8 2.34-8.45 2.28-12.5 3.96-8.35 2.29-17.01 3.4-25.25 6.12-9.47 4.2-17.75 10.57-27.08 15.04-20.25 11.11-30.25 14.12-50.48 25.27-5.53 3.22-11.05 6.85-15 11.97-3.1 5.88 6.17 6.58 2.68 24.51-.81 4.2 14.37 2.2 17.68.05l147.49-73.71c4.86-3.05 7.3-2.43 11.12-6.65 2.02 35.75 2.42 60.07-.47 95.75-1.41 18.88.29 37.33-1.05 56.21-.64 5.64-.28 13.86-2.31 19.14-1.01.7-1.46-1-2.26-1.32-9.4-8.39-26.3-14.76-37.76-19.45-18.45-7.3-36.59-23.2-54.8-31.07-13.1-4.92-27.73-6-41.27-2.28-3.11.74-6.18 9.49-9.24 10.42-3.83 5.72-3.67 12.89-3.92 19.49.13 18 2.8 35.87 3.33 53.86 2.84 46.65 6.52 93.44 3.6 140.19-.96 19.88-2.8 39.82-1.3 59.72.33 3.45.61 7.05 2.05 10.22 2.52 2.62 7.48 1.91 9.19-1.3 2.1-1.75 5.33-1.59 7.53-.08 2.11.07 4.57-.71 6.36.8.3 1.52 1.44 2.83 3.46 2.77 11.71-.39 26.02-7.5 26.92-13.14 1.56-8.48-1.38-16.65-1.93-25.35-.64-3.63-9.91-8.24-11.53-11.37-.77-3.75 2.87-6.64 2.58-10.38.05-1.65-.72-3.16-1.17-4.67.01-1.67 1.92-2.5 3.34-2.03 2.4.12 4.54-1.28 5.95-3.12 1.14-1.23 1.9-3.65.23-4.77-1.8-.94-3.68.45-4.94 1.64-1.59.8-3.7-1.1-2.63-2.71.87-2.6 3.89-3.04 6.13-3.83 1.58-.72 3.56-2.12 3.28-4.07-1.13-2.46-4.51-3.51-4.61-6.5-.57-2.29-3.35-3.82-2.78-6.41.99-1.99 4.07-2.76 3.84-5.34.1-3.27-2.83-5.4-5.26-7.03-2.24-1.8-4.79-4.35-4.2-7.5a6.37 6.37 0 0 1 6.76-4.24c1.67-.77.91-3.68-.88-3.68-2.81-2.23-1.5-7 1.54-8.36 2.68-2.17 5.62-5.19 5.03-8.95-.52-4.98-1.85-9.96-1.18-15a34.72 34.72 0 0 0-2.49-12.23c-2.6-2.07-6.23 1.16-8.72-1.17-2.5-2.53 2.66-6.5 5.13-8.62 4.21-6.13 4.79-14.33 2.05-21.17.12-9.4-1.13-17.94.32-27.23 1.05-7.38-.73-9.73 1.15-16.93 7.6 4.28 16.73 7.58 28.96 16.27 18.42 11.74 39.24 18.85 58.6 28.81 5.34 3.61 7.74 10.37 7.38 16.63.37 11.64-.95 23.24-1.66 34.84-.91 12.37-1.94 24.92.1 37.23 1.38 5.06 6.43 9.34 11.85 8.5 5.25-.45 9.01-4.91 14.1-5.8 4.65-.62 9.06 1.8 12.39 4.84 1.08.68 2.13 1.76 3.27 2.16 1.4-.6.14-3.16-1.2-2.37-2.04.06-1.46-3.82.5-3.1 3.96.27 5.75 4.57 9.21 5.89 2.64.51 4.44-1.96 6.64-2.83 1.68-.19 3.89.75 5.07-.93 1.13-2.43-2.06-4.2-1.59-6.57.85-1.94 3.86-1.11 4.51-3.25.94-2.73-.42-5.54-.74-8.27-.78-3.73-.93-7.76.82-11.25 1.27-3.7.43-8.08-2.36-10.88-1.43-1.81-2.31-4.02-3.53-5.92-2.16-1.36-5.4.13-7.07-2.2-3.16-3.54-.82-9.94 3.77-10.86 2.91-1.1 3.08-5.25 1.09-7.3-1.73-2.38-3.69-4.6-5.3-7.07 1.08-1.47 2.96-.21 4.4-.22 2.92.53 5.75 1.57 8.73 1.7a2.96 2.96 0 0 0 1.1-4c1.21-2.18 4.08-2.8 5.12-5.11-1.01-3.52-6.56-4-8.36-.9-1.85 1.43-3.77 2.87-6.02 3.58-2.17-1.77-.8-5.7 1.85-6.14 32.56-22.52 67.48-41.73 104.36-56.18.66-1.03 2.4.21 1.76 1.2 2.44 29.13.78 58.4 2.32 87.57.98 27.4 4 54.67 5.72 82.02.4 12.58-1.2 25.1-3.08 37.5-.87 9.48-.47 19.59 4.31 28.06 2.89 4.92 8.9 8.4 14.66 6.93 5.25-.9 10.6-3.4 15.96-1.75 2.98.82 6.04 3.07 9.22 1.73 2.17-1.11 4.6-3.26 7.16-2.07a4.06 4.06 0 0 1 .84 5.57c-.02 2.56 3.72 3.54 5.3 1.74 3.96-1.96 8.17-3.44 11.92-5.8 1.3-1.99-.46-4.1-.84-6.06.25-3.2 3.92-5.33 3.18-8.74-.2-5.63-3.08-10.8-3.1-16.46-.38-4.5-1-9.59-4.7-12.66-3.06-2.76-6.4-5.35-10.22-6.95-1.64-.63-4.2-.83-4.46-3-.33-1.65.73-3.08 1.78-4.2 1.63-2.81-.03-6.67-2.98-7.8-1.06-.87-.02-2.58 1.26-2.27 1.73.18 3.33 1.04 5.1.97 1.33.06 2.84.3 4.05-.08 1.48-1.97 3.25-3.75 4.34-5.98-.87-2.61-4.68-2.7-6.27-.75-2.31 1.15-4.97 2.37-7.6 1.56-2.03-2 0-6.1 2.82-5.69 2.78-.81 5.26-3.51 8.35-2.52 1.42.7 4.1.32 4.05-1.64-.58-2.18-3.18-2.68-5.1-2.48-2.5-.69-4.03-3.58-3.4-6.05-.65-2.02-3.13-2.16-4.9-2.04-2.34-.84-1.22-5.07 1.27-4.46 1.55.12 3.9.83 4.63-1.12 1.02-2.32-.95-4.55-2.78-5.74-4.08-3.75-9.42-6.14-12.64-10.79-.57-2.89 1.7-5.43 4.07-6.7 2.8-3.04.2-7.9 3.03-10.91 2.88-3.07 8.05-3.39 9.95-7.47 1.53-2.62.83-6.76-2.29-7.85-1.25-.7-1.55-2.62-.28-3.47.93-1.23.58-3.5-1.2-3.64-1.2-.3-3.17-.88-2.7-2.5.62-1.76 2.83-1.32 4.24-1.13 1.93-.36 2.14-2.94 1.1-4.28-2.31-5.86-8.27-9.72-14.42-10.37a2.72 2.72 0 0 1-2.3-3.37 3.35 3.35 0 0 1 3.3-2.69c1.61-.58 2.26-2.79 1.14-4.1-.68-2.04 1.13-4.12 3.16-4.23 2.31-.6 4.42-2.5 4.44-5.03.53-4.13-1.23-8.07-1.92-12.07-1.27-4.62-4.06-8.59-6.6-12.56-1.56-3.53.3-7.26 1.59-10.54 1.64-5.29.45-10.86.14-16.25-.52-5.52.12-11.15-1.3-16.57-1.3-5.96-4.3-11.63-8.96-15.64-7.44-7.05-17-11.62-26.91-13.97-7.31-1.18-14.6 1.3-21.02 4.64-15.21 6.79-30.28 14.2-43.86 23.92-2.43 1.97-3.6 4.95-4.46 7.85-.98 2.77-2.83 5.69-5.96 6.18-3.65 1.02-8.07 1.54-10.28 5.03-1.15 1.83-1.88 4.31-4.15 5.06-1.79-.17-2.9-2.46-1.98-3.99-.3-1.82-3.21-1.74-3.77-.13-2.43 1.88-5.9 2.01-7.97 4.4-.42 2.1 2.29 3.65 4.03 2.68 2.36-.15 2.54 4.13.18 4.16-4.1.95-8.08-2.66-12.1-.82-1.59.75-1.78 3.43-3.86 3.33-3.6-1.74-6.65-4.38-10-6.53-2.38-1.72-5-3.3-6.8-5.64-1.37-2.8.76-6.12 3.53-6.99 3.05-1.52 4.94-5.2 3.87-8.53-.74-2.2-1.02-4.9.65-6.78 2.16-2.2 5.51-2.46 7.88-4.39 2.44-1.83 3.63-4.93 4.03-7.86.4-2.89-.27-5.76-.62-8.6.09-4.88 1.56-10.16-.97-14.7a15.1 15.1 0 0 1 .75-13.87c.25-2.03-2.9-2.44-3.72-.82-3.16 2.53-7.82 3.08-11.36 1-1.8-.93-3.76-2.71-3.46-4.9.7-2.47 3.57-3.35 5.85-3.19 1.83-.78 1.5-3.35.35-4.56-.75-2.79 2.05-5.25 4.67-5.31 3.63-1.62 4.71-6.3 3.6-9.84-.91-5.9-.7-12.46-4.53-17.43a8.54 8.54 0 0 1-.93-9.82c1.44-2.54 3.23-5.05 3.37-8.09.61-5.06-.19-10.16.2-15.23.24-9.1 1.07-11.14-1.7-19.9-.25-1.25 1.1-2.97 2.35-1.92 2.7 1.53 4.34 4.44 7.21 5.72 14.6 9.68 26.95 16.22 41.33 26.25 19.67 12.72 41 20.79 62.13 31.06 11.05 5 22.86 8.87 35.03 9.48 3.81-.73 5.7-4.49 8.29-6.94 4.94-2.84 10.79-1.22 16.16-1.76 2.7-.21 6.01-1.2 6.94-4.03a4.63 4.63 0 0 0-1.52-4.23c.08-3.27-2.97-5.6-5.9-6.23l-7.88-3.6c-1.51-4.87-6.43-7.56-11.07-8.76-17.55-7.52-34.38-17.12-53.07-21.68-5.3-.73-11.25-.83-15.48-4.58a30.45 30.45 0 0 0-17.84-8.58c-1 .08-2.08-1.28-.87-1.86 1.14-.42 2.79.3 3.42-1.12 1.13-1.72.2-4.28-1.75-4.9a11.71 11.71 0 0 0-5.18-2.5c-1.43 1.63-2.54 3.55-4.13 5.04a6.3 6.3 0 0 1-3.87-7.65c-.88-3.36-4.96-5.14-8.13-4-5.32-.38-10.01-4.44-15.5-3.3-1.47.48-3.62 1.14-4.66-.44-.36-2.04.8-4.62-1.06-6.17-5.17-2.56-11.43-2.34-16.19-5.85-6.52-3.5-12.6-7.78-18.51-12.21-1.12-1.63 1.66-3.34 2.88-2.03 1.29-.55.05-2.47-1.07-2.17-7.19-2.8-14.73-5.19-22.54-5zm13.75 8.06c.3 1.08-1.42-.33 0 0zm17.1 12.13c-.02.22-.34-.42 0 0zm-80.88 7.54c1.93.46.34 3.97-1.26 2.72-.81-.94-.17-3.02 1.26-2.72zm-31.9 11.75c-1.72.93-.13 4.24 1.65 3.16.97-1.15.04-3.6-1.65-3.16zm143.13 1.53c2.23.42 1.43 4.35-.76 4.06-1.51-.87-1.38-4.24.76-4.06zm-151.96 4.7c-1.8.9-.23 4.26 1.6 3.26 1.05-1.15.12-3.66-1.6-3.26zm198.3 6.96a2.79 2.79 0 0 0 3.66.88l-3.7-1.04zm12.79 3.86c-2.27.73-1.37 4.92 1.03 4.54 2-.9 1.48-5.04-1.03-4.54zm7.08 4.38c-1.09.63-.07 2.6 1.08 2.1.07-.78.08-2.24-1.08-2.1zm37.84 30.81c4.46 1.05 8.98 2.07 13.16 4a20.79 20.79 0 0 1-13.32-4.04l.16.04zm33.73 18.06c2.1.58 4.06 1.5 6.02 2.42a5.39 5.39 0 0 1-7.93-1.59c.43-.6 1.19-.9 1.91-.83zm30.45 7.07c-3.04.45-3.09 5.62-.05 6.12 2.96.64 4.98-3.86 2.54-5.65-.72-.5-1.65-.53-2.5-.47zm-209.19 1.43c1.03.55-.46 2.22-1.14 1.26.18-.52.41-1.4 1.14-1.26zm221.77 2.9c-2.6.71-5.3 1.68-7.23 3.65 2.44 3.38 8.8 1.21 8.65-2.96-.19-.58-.88-.76-1.42-.7zm-30.66 2.7c-1.45 1.09.78 3.63 2.03 2.27.29-1.17-.82-2.46-2.03-2.28zm-177.6 16.76c-1 .77.35 2.57 1.37 1.83-.04-.77-.38-1.94-1.36-1.83zm-.7 30c3.26.79 2.46 6.48-.83 6.5-2.82.21-4.14-4.16-1.74-5.62.69-.61 1.64-.96 2.57-.87zm-.55 11.05c1.44.78-.3 3.31-1.52 2.2-.27-.95.33-2.45 1.52-2.2zm92.83 5.24c2.84.3 2.5 5.37-.34 5.32-3.05 0-2.62-5.67.34-5.32zm-56.72 24.47c-1.7.23-2.98 1.53-3.93 2.86a3.8 3.8 0 0 0 4.9-2.86zm-35.73 2.23c-2.24.43-1.32 4.43.87 3.96 1.67-.82 1.2-4.18-.87-3.96zm-24.73 2.67c1.64.85-.05 3.8-1.61 2.76-.58-1.11.2-2.93 1.6-2.76zm4.1 11.55c2.74.65 2.03 5.55-.78 5.38-2.63-.7-2.02-5.59.79-5.38zm34.38 16.78c1.54.9-.28 3.61-1.69 2.5-.46-1.09.37-2.77 1.7-2.5zM690.6 539.4c1.12.7-.17 2.7-1.27 1.98-.07-.8.14-2.24 1.27-1.98zm14.47 20.88c-1.05.6.97 2.01 1.13.77-.19-.43-.61-.87-1.13-.77zm-313.9 5.57c-1.12.68 1.24 1.93.98.65-.2-.35-.53-.75-.98-.65zm316.94.29c-1.43.88.22 3.43 1.6 2.49.45-1.06-.32-2.67-1.6-2.5zm-159.05 6.15c-1.14.66.34 2.63 1.3 1.72-.05-.72-.36-1.85-1.3-1.72zm3.23 5.82c-2.66 2.15-4.5 5.12-5.9 8.2 4.28 1.16 8.56-4.29 6.23-8.13-.1-.06-.22-.11-.33-.07zm-.37 10.3c-1.9.37-3.83.77-5.58 1.63 2.01.84 4.58.18 5.85-1.62l-.13-.03zm154.55 31c-2.75.38-2.28 5.4.54 5.13 2.73-.32 2.34-5.58-.54-5.13zm-183 1.9c2.75 1.3 5.64 2.53 7.78 4.75a7.7 7.7 0 0 1-8.7-4.17.8.8 0 0 1 .93-.58zm157.86.41c1.1.66-.06 2.64-1.17 2-.1-.78.1-2.15 1.17-2zm4.17 9.81c1.93.72.81 4.35-1.21 3.62-1.35-1.01-.69-3.87 1.2-3.62zm25.95 1.48c-1.3.58.02 2.84 1.16 2 .21-.79-.07-2.17-1.16-2zm-344.2.7c1.42.82-.23 3.3-1.53 2.32-.37-1 .35-2.47 1.54-2.32zm25.57 1.25c-.93.74 1.13 1.96 1.25.73-.19-.48-.72-.87-1.25-.73zm126.85 16.83c.2 0 .05-.39 0 0zm165.5 1.62c2.75.5 2.16 5.43-.63 5.25-2.48-.63-2.07-5.39.64-5.25zm-319.39 2.28c2.2.62 1.14 4.54-1.05 4.09-1.61-.96-1.08-4.31 1.05-4.09zm172.3 1.35c-2.15-.1-2.63 2.89-1.49 4.27 1.3 2 4.33 1.22 5.77-.21.84-.7 1.54-2.1.37-2.84-1.25-1.13-3.05-1.28-4.65-1.22zm-1.78 6.18c-2.83.7-1.86 5.78 1.02 5.43 2.41.25 4.42-3.38 2.34-4.97-1.03-.53-2.23-.46-3.36-.46zm175.92 15.85 2.2 8.53c3.63-.3 4.11-6.49.56-7.34l-2.9-1.3.14.1zm-322.7 8.15c-1.45.94.24 3.57 1.7 2.6.51-1.1-.3-2.93-1.7-2.6zm321.9 3.1 9.26.69-9.84-.88zm-10.08 28.41 10.22 6.87c-4.5.66-9.28-2.06-10.95-6.32.03-.33.38-.72.73-.55zm-336.45 6.74c2.12.44 1.29 4.2-.8 3.83-1.5-.8-1.22-4.03.8-3.83zm312.45 19.37c-.97.99 1.7.68.33.03a.57.57 0 0 0-.33-.03zm19.3 9.46c-2.84 1.04-5.7 2.05-8.47 3.25 3.42.35 6.7-.96 9.8-2.27.22-.74-.77-1.08-1.33-.98zm-326 1.26c-2.22.63-1.33 4.57.92 4.26 1.8-.9 1.25-4.38-.93-4.26zm-.86 5.59c-2.5.42-1.69 4.92.79 4.54 1.84-.86 1.56-4.7-.79-4.54z"/></svg>