<svg xmlns="http://www.w3.org/2000/svg" width="1024" height="1024" viewBox="0 0 1024 1024"><g fill="var(--main,#282525)"><path d="M643.25 1.7a4.4 4.4 0 0 0-2.07.4c-1.55.96-1.21 1.87 1.36 3.02 4.14 1.9 9.67.99 8.17-1.43-.67-1.08-4.76-2.02-7.46-1.98zM624.13.3c-1.93-.14-3.98.08-5.03.73-1.29.8-.6 2.38 1.25 3.09 1.52.54 8.53-1.58 8-2.44-.51-.76-2.3-1.25-4.22-1.38zm7.35 5.22c-.62.07-1.18.86-1.82 2.4-1.03 2.43-1.2 2.62-2.96 2.66a11.8 11.8 0 0 1-4.38-1.07c-2.1-1-2.61-.98-3.95.22-1.2 1.04-1.84 1.21-2.91.69l-2.34-.12c-3.47.21-.75.77-4.22.46-.76-.5-7.2-2.5-8.21-1.88a1.6 1.6 0 0 0-.63 1.5c-.6 3.29-7.64.87-10.17.65-4.29 0-7.96 1.55-9.43.45a10.16 10.16 0 0 0-5.4-1.84c-1.7 0-3.91-.49-4.9-1.22-1.46-.98-1.46-1.23.37-1.96 2.58-.98 19-2.17 27.82-.33 7.23 1.34 19.93 1.37 18.83-.47-.49-.61-2.66-1.98-5.23-1.98-2.57 0-6.74-.86-9.07-1.84C600.06.74 594.43 0 587.93 0c-6.12 0-11.64 1.68-13.23.82-2.08-1.23-12.88 1.06-42.54 1.3-33.7.25-27.69 3.48-30.75 1.89-2.08-1.05-11.11-.02-13.67-.14-2.56-.12-4.67.24-4.98 1.16-.24.74-5.39 1.6-11.4 1.96-6.12.37-11.51 1.1-12.25 1.84-.6.61-5.51 1.1-11.02 1.1-6.5 0-10.78.62-12.26 1.72-2.32 1.71-14.44 5.55-14.44 3.59 0-1.84-12.15 1.44-15.58 3.4a17.59 17.59 0 0 1-7.35 1.84c-2.32 0-5.63.86-7.35 1.84a17.33 17.33 0 0 1-6.25 1.83c-1.84 0-3.92.86-4.78 1.84-.86.98-3.3 1.84-5.63 1.84-2.2 0-4.41.49-4.78 1.22-.37.62-2.21 1.23-4.05 1.23-1.83 0-4.9.86-6.86 1.84-1.84.98-4.53 1.84-5.76 1.84-1.22 0-2.57.49-2.94 1.22-.36.61-2.94 1.72-5.51 2.45-2.7.74-4.9 1.84-4.9 2.45 0 .74-1.1 1.23-2.45 1.23s-3.43.49-4.66 1.1c-5.27 2.94-10.66 5.02-12.5 5.02a5.6 5.6 0 0 0-3.67 1.84 5.6 5.6 0 0 1-3.68 1.84 5.6 5.6 0 0 0-3.67 1.84c-.86.98-2.33 1.84-3.31 1.84s-2.57.85-3.56 1.83c-.98.98-2.57 1.47-3.43 1.1-.98-.36-2.08-.12-2.45.62-.49.61-3.67 2.57-7.23 4.4l-8.2 4.18a25.73 25.73 0 0 1-3.68 1.83c-.98.37-2.7 1.23-3.68 1.84-.98.62-3.8 2.09-6.12 3.07a83.22 83.22 0 0 0-6.13 3.18c-7.96 4.9-18.75 11.03-20.83 11.64-1.35.37-2.45 1.35-2.45 1.96 0 .61-1.35 1.1-3.06 1.1-1.72 0-3.44.86-3.8 1.84-.37.98-1.72 2.08-2.82 2.45-1.23.37-3.19 1.6-4.54 2.82-4.16 3.68-12.62 10.05-13.23 10.05-1.1 0-12 7.84-15.93 11.4-2.08 1.95-6 4.9-8.7 6.6a93.71 93.71 0 0 0-10.66 8.46c-3.18 2.95-6.25 5.4-6.86 5.4-.5 0-8.1 6.86-16.67 15.31-8.7 8.46-16.17 15.32-16.78 15.32-1.23 0-23.16 25.24-23.16 26.71 0 .62-.86 1.84-1.84 2.7a5.6 5.6 0 0 0-1.84 3.67c0 3.07-3.18 8.95-6.73 12.25-1.72 1.6-3.07 3.44-3.07 4.17 0 .74-2.33 4.17-5.27 7.48-7.84 9.06-25.36 33.7-25.36 35.65 0 .98-.5 1.72-1.1 1.72-.62 0-1.6 1.22-2.08 2.82a28.03 28.03 0 0 1-3.68 6.5c-1.6 2.08-2.94 4.4-2.94 5.26 0 .74-.86 1.72-1.84 2.08-.98.5-1.84 1.96-1.84 3.44 0 1.34-.86 3.67-1.84 4.9a10.5 10.5 0 0 0-1.83 5.14c0 1.47-.86 3.31-1.84 4.17a5.9 5.9 0 0 0-1.84 3.8c0 2.33-.25 3.18-4.04 10.66-1.1 2.33-2.09 5.39-2.09 6.98 0 1.47-.85 3.43-1.83 4.3-.98.85-1.84 3.3-1.84 5.5s-.86 4.66-1.84 5.52a6.61 6.61 0 0 0-1.84 4.41c0 1.47-.49 3.19-1.22 3.55-.62.37-1.23 2.2-1.23 3.92 0 1.6-.73 4.54-1.71 6.25-.98 1.84-2.2 5.88-2.58 9.07-.36 3.18-1.22 6.13-1.96 6.5-.61.49-1.1 3.43-1.1 6.61 0 3.8-.61 6.5-1.84 7.48-.98.85-1.84 3.3-1.84 5.5 0 2.21-.85 5.65-1.83 7.48-.98 1.96-1.84 4.78-1.84 6.25 0 1.47-.62 3.07-1.23 3.43-.73.37-1.22 2.82-1.22 5.27 0 2.45-.86 6.13-1.84 8.09a20.57 20.57 0 0 0-1.84 7.97c-.12 2.45-.86 5.75-1.84 7.47-.98 1.72-1.71 6-1.83 9.56 0 3.55-.61 7.72-1.47 9.19-2.2 4.16-3.68 27.32-4.29 65.55-.25 23.16 0 34.55.86 34.55.73 0 1.22-3.18 1.22-7.72 0-4.65.74-8.7 1.72-10.16.98-1.35 1.96-4.66 2.2-7.36.5-4.78.5-4.78 1.84-1.47.98 2.08 1.47 12.74 1.6 30.39 0 19.24.49 27.94 1.59 29.77.73 1.47 1.83 8.46 2.32 15.57 1.23 18.74 2.95 32.34 4.54 35.29.73 1.34 1.35 4.65 1.35 7.22 0 2.57.86 6.25 1.84 8.21.98 1.84 1.83 4.9 1.83 6.74 0 1.72.86 4.3 1.84 5.52.98 1.35 1.84 4.77 1.84 7.6 0 3.42.61 5.38 1.84 5.87.98.37 1.83 2.09 1.83 3.8 0 1.72.62 3.07 1.23 3.07 1.96 0 1.47-6.37-.74-8.7a4.75 4.75 0 0 1-1.1-4.66c1.1-3.8 3.06-3.18 3.06.98 0 1.96.86 4.17 1.84 5.02 2.09 1.72 2.45 9.2.62 10.42-.62.37-1.23 2.08-1.23 3.8 0 2.08.74 2.94 2.33 2.94 1.72 0 2.57 1.1 3.18 4.05 1.72 8.33 7.11 22.66 9.07 24.13 1.1.86 8.09 12.38 9.07 15.07.37 1.1 1.96 2.08 3.3 2.08 1.6 0 2.46.86 2.46 2.33 0 1.35.85 3.19 1.83 4.3a7.14 7.14 0 0 1 1.84 4.28c0 1.23 1.96 4.78 4.3 7.72 2.32 2.94 4.9 6.74 5.63 8.7.73 1.84 1.84 3.3 2.45 3.3.61 0 1.1.99 1.1 2.34 0 1.22.86 2.94 1.84 3.8.98.85 1.84 1.96 1.84 2.45 0 .85 13.97 21.8 22.79 34.3 4.9 6.86 14.95 18.14 27.45 30.64l14.82 15.31c1.72 2.09 9.93 10.05 18.26 17.77l21.2 19.97c3.43 3.19 6.74 5.76 7.6 5.76.73 0 3.91 2.33 6.85 5.27 2.94 2.82 6.87 6 8.83 6.86 1.83.98 4.77 3.31 6.74 5.15 1.83 1.96 4.16 3.55 5.27 3.55 1.1 0 2.7.74 3.43 1.72.85.98 3.3 2.7 5.63 3.8 2.33 1.1 4.3 2.33 4.3 2.82 0 .48 2.07 1.95 4.65 3.3 2.45 1.35 4.78 2.7 5.14 3.06 2.09 2.21 12.62 8.58 14.1 8.58.85 0 2.08.61 2.44 1.35.5.61 2.09 1.72 3.44 2.45 1.47.61 3.55 1.6 4.53 2.2 3.8 2.33 22.79 11.16 24.14 11.16.73 0 1.96.85 2.82 1.84.85.98 2.7 1.83 4.16 1.83 1.35 0 3.68.86 4.9 1.84 1.35.98 3.92 1.84 5.76 1.84 1.84 0 3.8.61 4.17 1.22.37.74 2.2 1.23 3.92 1.23 1.6 0 4.54.74 6.25 1.72 7.23 3.67 12.74 5.63 16.05 5.63 1.96 0 5.14.86 6.98 1.84 1.96.98 5.89 1.84 8.7 1.84 2.82 0 5.4.49 5.76 1.1.5.61 3.56 1.47 6.86 1.96 3.31.5 6.38 1.35 6.87 1.96.36.61 2.7 1.1 5.14 1.1 2.45 0 6.13.86 8.09 1.84 4.41 2.33 9.8 2.33 11.76 0 1.96-2.45 14.22-2.45 18.38 0 1.72.98 6.13 1.84 9.8 1.84 3.68 0 9.8.86 13.48 1.84 3.68.98 9.56 1.84 12.99 1.84 3.3 0 6.74.6 7.47 1.35 1.1 1.1 2.45 1.1 4.9.12 1.84-.74 16.3-1.6 32.23-1.84 16.42-.37 30.27-1.23 32.23-1.96 1.96-.74 10.9-1.35 20.09-1.35 15.07 0 16.54-.24 17.15-2.2.5-2.09 1.6-2.2 9.69-1.72 7.84.5 9.06.25 9.06-1.47 0-1.47 1.1-1.96 4.17-1.96 2.2 0 6.61-1.35 9.8-3.06 3.19-1.72 7.6-3.07 9.8-3.07 2.33 0 4.78-.85 5.64-1.83.86-.98 3.3-1.84 5.52-1.84 2.2 0 4.65-.86 5.5-1.84.87-1.1 3.56-1.84 6.63-1.84 6 0 12.74-2.94 20.83-9.19 3.06-2.32 6.5-4.29 7.35-4.29.98 0 2.2-.49 2.57-1.22.37-.61 1.6-1.23 2.7-1.23.98 0 3.8-.85 6.25-1.96l8.57-3.67c2.2-.98 5.15-1.72 6.5-1.72 1.35 0 2.7-.85 3.06-1.84.5-.98 1.96-1.83 3.55-1.83 1.48 0 3.43-.86 4.3-1.84.85-.98 2.32-1.84 3.3-1.84.86 0 1.96-.86 2.33-1.84.49-1.22 2.45-1.84 5.51-1.84 2.58 0 4.78-.49 4.78-1.22 0-.61-.86-1.22-1.84-1.22-.98 0-1.83-.5-1.83-1.23 0-.61.85-1.22 1.83-1.22.98 0 1.84.6 1.84 1.22 0 1.96 4.9 1.47 5.64-.61.49-.98 1.47-1.84 2.33-1.84 2.45 0 3.67-2.57 1.71-3.8-.86-.49-1.22-1.35-.73-1.84s1.59-.24 2.32.5c.86.85 2.7 1.46 4.3 1.46 1.59 0 2.81.37 2.81.74 0 1.6-6.25 6.62-8.08 6.62-1.1 0-2.7.85-3.68 1.83-1.1.98-2.94 1.84-4.17 1.84-1.22 0-2.45.86-2.94 1.84-.37.98-1.83 1.84-3.18 1.84s-2.45.49-2.45 1.1c0 .61-1.23 1.35-2.7 1.6-3.55.48-4.17 2.94-.86 3.8 3.31.85 1.96 3.3-1.84 3.3-1.59 0-3.55.86-4.4 1.84a5.9 5.9 0 0 1-3.93 1.84c-1.34 0-3.18.85-4.16 1.83-1.1.98-2.94 1.84-4.29 1.84-1.23 0-2.33.5-2.33 1.1 0 .5-2.45 1.35-5.4 1.6-3.18.36-6.6 1.72-8.2 3.3a15.45 15.45 0 0 1-6 3.31 49.22 49.22 0 0 0-6.74 2.33c-5.64 2.58-20.7 7.97-22.18 7.97-.86 0-2.08.85-2.94 1.84-.86.98-3.07 1.84-4.9 1.84-1.84 0-4.05.85-4.9 1.83-.98 1.1-3.56 1.84-6.74 1.84-2.94 0-6.86.86-8.7 1.84-1.96.98-5.88 1.84-8.7 1.84-2.82 0-5.52.6-5.88 1.22-.37.74-3.31 1.23-6.5 1.23s-7.35.86-9.31 1.84c-1.84.98-6.62 1.84-10.42 1.84-4.04.12-7.84.85-9.19 1.83a10.48 10.48 0 0 1-5.14 1.84c-1.47 0-3.31.74-4.05 1.72-1.83 2.2-6.25 3.06-22.79 4.65-17.15 1.47-18.99 1.84-18.99 3.92 0 2.7-2.94 3.19-21.44 3.19-9.68 0-17.9.49-18.26 1.1-.74 1.1 11.76 2.57 22.18 2.57 3.43 0 6.74.62 7.1 1.23.99 1.6 24.27 1.6 25.86.12.61-.73 10.05-1.6 21.07-2.08 10.91-.5 20.22-1.35 20.59-1.84.37-.61 4.78-1.1 9.8-1.1 5.4 0 10.9-.74 13.6-1.84 2.33-.98 6.99-1.84 10.17-1.84 3.19 0 8.21-.86 11.03-1.84 2.82-.98 6.99-1.83 9.07-1.83 2.2 0 5.02-.86 6.37-1.84 1.22-.98 4.4-1.84 6.86-1.84 2.45 0 4.9-.49 5.27-1.22.37-.62 2.2-1.23 4.04-1.23 1.84 0 4.9-.86 6.87-1.84a18.6 18.6 0 0 1 7.35-1.83c2.08 0 4.9-.86 6.12-1.84a11.44 11.44 0 0 1 5.76-1.84c1.72 0 3.92-.86 4.78-1.84a6.62 6.62 0 0 1 4.41-1.84c1.6 0 2.94-.49 2.94-1.22 0-.62 1.96-1.47 4.29-1.96 2.33-.37 4.65-1.23 5.02-1.84.37-.61 1.84-1.1 3.31-1.1s4.29-.86 6.25-1.84c1.84-.98 4.17-1.84 5.02-1.84.86 0 2.21-.86 3.07-1.84a5.6 5.6 0 0 1 3.67-1.84 5.6 5.6 0 0 0 3.68-1.84c.86-.98 2.33-1.83 3.3-1.83 1.97 0 16.43-6.74 25.62-12.01 3.43-1.96 7.47-4.04 9.19-4.53 1.59-.5 5.63-2.95 9.06-5.4 6.25-4.53 8.46-6 14.83-9.3a33.3 33.3 0 0 0 7.23-5.52c1.96-2.08 4.04-3.68 4.78-3.68 1.71 0 10.53-8.82 10.53-10.53 0-.86 2.58-3.2 5.89-5.28a175.9 175.9 0 0 0 23.28-18.62c3.55-3.3 6.98-6 7.72-6 1.71 0 22.17-20.22 30.5-30.02a439.12 439.12 0 0 1 19.12-20.7c8.33-8.59 12.63-14.1 13.12-16.55.49-2.08 2.69-5.76 4.9-8.33 6.12-6.74 11.27-15.44 9.55-16.05-1.47-.5-1.84-3.92-.36-3.92.49 0 1.59.6 2.45 1.47 2.2 2.2 3.3.12 1.47-3.19-1.35-2.7-1.23-3.43 1.71-6.86 1.72-2.08 3.19-4.41 3.19-5.03 0-.6 2.45-5.02 5.51-9.92a123.4 123.4 0 0 0 8.82-17.52c1.72-4.66 3.92-9.68 4.66-11.03.86-1.35 2.2-4.9 3.06-7.96.98-3.07 2.45-6.38 3.31-7.48a7.66 7.66 0 0 0 1.6-4.29c0-1.35.85-3.55 1.83-4.9a9.69 9.69 0 0 0 1.84-5.02c0-1.47.5-2.95 1.1-3.31.62-.37 1.47-2.7 1.84-5.03.5-2.33 1.35-4.29 1.96-4.29.5 0 1.35-1.59 1.84-3.67.49-1.96 1.35-3.92 1.96-4.29.61-.49 1.1-1.96 1.1-3.55 0-1.47.86-3.8 1.84-5.15.98-1.22 1.84-4.04 1.84-6.13 0-2.08.85-4.53 1.83-5.39 1.23-.98 1.84-3.67 1.84-7.47 0-3.3.5-6 1.23-6 .61 0 1.6-2.2 1.96-4.9.49-2.7 1.35-5.27 1.84-5.64.6-.37 1.1-2.45 1.1-4.66 0-2.2.86-5.02 1.84-6.37.98-1.22 1.84-4.29 1.84-6.62 0-2.32.85-5.63 1.83-7.35.98-1.71 1.72-6.37 1.84-10.78 0-4.3.61-8.95 1.35-10.42 1.35-2.45 2.08-8.33 4.78-38.22.73-7.36 1.71-15.08 2.45-17.04 1.6-4.53 1.6-32.59 0-32.59-2.33 0-4.9 12.74-4.9 24.5 0 8.22-.5 12.5-1.84 14.22-.98 1.47-1.84 6.13-2.08 10.78-.25 4.41-.86 8.09-1.6 8.09-1.47 0-1.22-25.73.25-48.4.6-8.09.6-18.87 0-23.9-.5-5.02-1.35-17.4-1.96-27.56-.86-16.54-1.96-22.55-5.15-29.04a13.02 13.02 0 0 1-1.1-4.9c0-1.6-.86-4.42-1.84-6.38a19.86 19.86 0 0 1-1.84-7.71c0-2.33-.73-6.01-1.71-8.1a38.3 38.3 0 0 1-2.33-7.59c-.61-4.29-2.94-10.9-5.27-15.56a16.71 16.71 0 0 1-1.71-6.86c0-2.08-.5-4.17-1.23-4.54-.61-.36-1.23-2.2-1.23-3.92 0-1.71-.73-4.78-1.71-6.86a42.03 42.03 0 0 1-2.45-7.23c-.61-2.45-1.6-3.43-3.3-3.43-1.97 0-2.34.5-1.72 2.09.49 1.22 1.22 5.02 1.83 8.57.62 3.56 1.72 7.48 2.33 8.82a14.34 14.34 0 0 1 1.35 5.88c.12 1.84.86 4.79 1.84 6.5.98 1.72 1.83 5.52 1.83 8.58 0 3.06.86 6.61 1.84 7.84 1.1 1.47 1.84 5.14 1.84 9.43 0 3.92.5 7.36 1.1 7.72.62.5 1.6 6.86 1.96 14.22.5 7.47 1.47 13.84 1.96 14.2 1.47.87 1.47 98.9 0 100.48-.73.61-1.47 7.48-1.96 15.2-.36 7.72-1.22 14.58-1.83 15.2-.74.73-1.23 4.4-1.23 8.2 0 4.66-.61 7.48-1.84 8.46-1.1.98-1.84 3.67-1.84 7.23 0 3.18-.6 6.37-1.34 7.1-.74.74-1.47 4.9-1.84 9.19-.25 4.41-1.35 9.56-2.33 11.52-.98 1.96-1.84 4.53-1.84 5.63 0 1.1-.49 2.45-1.22 2.82-1.96 1.23-1.35 6.99.98 8.7 1.84 1.35 2.2.98 3.43-4.78 1.47-6.61 3.68-13.35 5.51-17.02.62-1.23 1.1-3.68 1.1-5.52a17.2 17.2 0 0 1 1.84-6.5c.98-1.7 1.84-5.26 1.84-7.96s.86-6 1.84-7.23c1.23-1.6 1.84-5.26 1.84-10.04 0-4.17.85-9.56 1.83-11.9 1.1-2.81 1.84-8.32 1.84-14.82 0-5.75.5-10.66 1.1-11.02 3.31-2.09 3.93 30.75.74 35.65-.98 1.47-1.84 5.15-1.84 7.97-.12 2.94-.86 6.62-1.84 8.33-2.32 4.04-2.32 11.64 0 15.2 1.84 2.81 1.35 6.86-.73 6.86-.61 0-1.1-1.1-1.1-2.46 0-1.34-.5-2.45-1.23-2.45-1.6 0-1.6 3.19.12 6.37 1.84 3.31.5 7.85-2.57 8.7-1.6.37-2.45 1.6-2.45 3.56 0 1.6-.86 4.04-1.84 5.4a10.58 10.58 0 0 0-1.84 5.5c0 1.84-.85 3.56-1.83 4.05-1.1.37-1.84 2.2-1.84 4.9 0 2.33-.49 4.53-1.1 5.02-.74.37-1.6 3.19-2.09 6.13-.37 3.06-1.22 5.88-1.83 6.25-.62.37-1.1 1.71-1.1 2.94a6.6 6.6 0 0 1-1.97 4.17c-1.22 1.34-1.71 3.06-1.1 5.39.61 3.18-.25 6.74-2.94 11.27-1.23 1.96-4.54 9.31-5.52 12.25a70 70 0 0 1-4.4 7.97c-1.97 3.43-4.17 7.35-4.78 8.82a11.81 11.81 0 0 1-2.46 3.43c-.73.37-1.34 1.84-1.34 3.18 0 1.23-.5 2.33-1.23 2.33-.61 0-1.47 1.35-1.96 2.94-.37 1.6-2.08 4.17-3.67 5.76-1.6 1.47-2.94 3.43-2.94 4.3 0 1.7-9.07 15.43-11.65 17.64-.98.85-1.83 2.08-1.83 2.7 0 .6-4.05 6.36-8.83 12.73l-12.37 16.18a193.14 193.14 0 0 1-9.93 11.27 468.7 468.7 0 0 0-13.97 16.17c-7.72 9.56-24.26 25.5-26.46 25.5-.62 0-.25-.99.86-2.21 1.22-1.23 2.08-2.7 2.08-3.19 0-.49 1.47-2.82 3.18-5.14 6.62-8.58 1.6-5.15-11.4 7.71-7.22 7.36-14.57 14.22-16.29 15.32-1.72 1.1-6.62 5.02-10.9 8.82-4.42 3.8-8.34 6.86-8.83 6.86-.49 0-2.81 1.72-5.02 3.8a46.49 46.49 0 0 1-7.6 5.64c-1.96.98-5.27 3.55-7.35 5.51s-6 5.15-8.7 6.87a91.13 91.13 0 0 0-5.51 3.92c-.37.36-2.7 1.71-5.15 2.94-2.57 1.34-4.65 3.06-4.65 4.04 0 .86-1.1 1.6-2.58 1.6-2.94 0-2.57 2.81.5 3.42 1.22.25 2.08-.36 2.08-1.47 0-1.22 1.1-1.96 3.06-1.96s3.06-.73 3.06-1.84c0-.98.74-1.83 1.72-1.83s1.96-.86 2.45-1.84c.73-2.09 5.14-2.45 6.25-.62.37.74-.5 1.84-2.09 2.46-4.16 1.83-7.6 4.04-8.7 5.88a4 4 0 0 1-2.81 1.47 9.5 9.5 0 0 0-4.17 1.47c-1.84 1.22-2.94 1.1-5.4-.25-1.7-.85-3.18-2.08-3.18-2.7 0-1.59 4.05-5.87 5.64-5.87.85 0 3.92-2.34 6.86-5.28 2.82-2.94 10.3-8.57 16.3-12.61 6.12-3.92 11.76-7.97 12.74-8.83.98-.98 3.68-2.94 6.13-4.53 2.45-1.6 6.86-5.15 9.92-7.84 3.07-2.7 6.13-5.03 6.74-5.03.74 0 6.86-5.5 13.72-12.25 6.87-6.74 12.87-12.25 13.24-12.25 2.7 0 44.23-47.54 49.87-57.1 1.34-2.33 2.82-4.17 3.3-4.17.5 0 1.84-1.83 3.07-3.92 1.35-2.2 4.29-6.5 6.62-9.43a66.84 66.84 0 0 0 6.37-9.2c7.1-12.98 10.41-18.74 11.64-20.33.85-.98 3.92-6.25 6.74-11.64 2.82-5.4 6.49-11.28 8.2-13 1.84-1.95 2.46-3.42 1.6-3.79-.98-.24-.74-1.72.61-5.03 2.08-5.02 4.3-6 4.3-1.83 0 2.08.36 2.33 1.46 1.22 1.23-1.22 1.23-2.08 0-3.92-1.84-2.94-1.96-7.35-.24-7.35.73 0 1.22-1.1 1.22-2.33 0-1.34.61-2.82 1.35-3.3.73-.37.98-1.97.61-3.56-1.1-4.29.61-4.66 4.4-.98l3.44 3.3v-4.4c0-2.45.74-5.03 1.72-5.76.98-.86 2.2-3.19 2.57-5.15.5-1.96 1.35-3.8 1.96-4.17 1.6-1.1 1.35-6.73-.24-6.73-.74 0-1.6 1.1-1.96 2.45-.74 2.94-2.58 3.18-3.68.49-.49-1.23.12-2.7 1.47-3.68 1.96-1.47 2.08-2.2.86-4.78-1.96-4.16-1.84-5.51.37-5.51.98 0 1.83.73 1.83 1.71s.86 1.96 1.84 2.46c.98.36 1.84 1.83 1.84 3.18s.61 2.45 1.22 2.45c2.82 0 1.1-7.47-2.45-11.27-4.04-4.29-4.65-8.34-1.83-13.73.98-1.83 1.83-4.4 1.83-5.63 0-1.23.86-3.07 1.84-4.17 1.1-1.1 1.84-4.04 1.84-7.84 0-3.92.61-6.62 1.84-7.6 1.35-1.1 1.84-4.16 1.84-11.51 0-5.52.6-10.66 1.34-11.4.74-.73 1.6-5.51 1.96-10.66.37-5.15 1.23-9.68 1.72-10.05.61-.36 1.1-3.92 1.1-7.84 0-5.02.61-7.84 1.96-9.19 1.84-1.71 2.08-7.23 1.96-50.23 0-42.65-.24-48.53-2.08-51.22-1.47-2.21-1.84-5.27-1.6-10.54.25-4.66-.24-7.96-1.22-8.94-.73-.74-1.47-3.2-1.47-5.15 0-2.08-.85-5.4-1.84-7.35-.98-1.84-1.83-5.64-1.83-8.21 0-2.7-.86-6.86-1.84-9.31a26.26 26.26 0 0 1-1.84-8.21c0-2.09-.86-4.9-1.84-6.13a10.97 10.97 0 0 1-1.84-5.52c0-3.18-3.67-13.96-5.27-15.55-.49-.5-.85-2.45-.85-4.3 0-1.83-.74-4.9-1.72-6.85-1.72-3.43-3.55-7.48-7.72-17.16-1.22-2.82-2.57-5.27-3.06-5.27-1.84 0-.98 5.02.86 5.64.98.49 1.84 2.2 1.84 4.16 0 1.84.85 5.03 1.83 6.86.98 1.96 1.84 4.78 1.84 6.26 0 1.47.61 3.06 1.23 3.43.73.37 1.22 2.57 1.22 4.78 0 2.2.86 5.02 1.84 6.37.98 1.22 1.84 4.04 1.84 6.12 0 2.09.86 4.54 1.84 5.4 1.22.97 1.83 3.67 1.83 7.47 0 3.3.5 6 1.23 6 .61 0 1.22 3.43 1.1 7.72 0 4.17.61 13.73 1.35 21.08 1.71 16.17 1.96 114.32.37 132.94-.61 7.11-1.72 14.1-2.58 15.56-.86 1.47-1.47 5.27-1.47 8.58-.12 3.19-.85 7.23-1.83 8.95-.99 1.71-1.72 5.88-1.84 9.3 0 4.05-.62 6.87-1.84 7.85-1.23.98-1.84 3.8-1.84 8.7 0 4.04-.49 7.23-1.22 7.23-.62 0-1.23-1.35-1.23-2.94 0-1.6-.37-3.8-.73-4.9-1.35-3.56-2.94-2.09-2.94 2.82 0 2.7-.74 5.39-1.84 6.24-.98.86-1.84 3.31-1.84 5.4 0 2.08-.86 4.9-1.84 6.12a10.96 10.96 0 0 0-1.83 5.52c-.13 2.94-3.44 13.84-5.15 16.66-.37.73-1.1 3.06-1.6 5.27-.36 2.08-1.34 3.92-1.95 3.92-.62 0-1.1 1.22-1.1 2.82 0 1.47-.87 3.8-1.85 5.02a10.5 10.5 0 0 0-1.83 5.15c0 1.47-.86 3.3-1.84 4.16a6.25 6.25 0 0 0-1.84 4.17c0 1.6-1.35 4.04-3.06 5.64-1.72 1.59-3.07 3.55-3.07 4.53 0 1.35-4.16 10.3-8.7 18.75-.6.98-2.2 4.16-3.67 6.98a53.32 53.32 0 0 1-6.86 9.68c-2.2 2.45-4.05 4.9-4.05 5.4 0 .48-1.1 1.83-2.45 3.06-1.35 1.22-2.45 2.69-2.45 3.3 0 .62-1.34 2.94-3.06 5.15-1.72 2.2-3.06 4.41-3.06 4.9 0 .5-2.2 3.56-4.9 6.74-2.7 3.19-4.9 6.37-4.9 7.1 0 .74-.86 2.09-1.97 2.95-1.1.98-4.9 5.51-8.45 10.29-3.56 4.66-8.09 10.3-9.93 12.25a105.66 105.66 0 0 0-7.1 8.58c-5.03 6.86-13.73 15.07-19.12 17.77a28.77 28.77 0 0 0-7.23 5.51c-1.35 1.84-4.53 4.78-7.1 6.62-2.58 1.84-8.58 7.1-13.48 11.64-4.9 4.53-11.15 9.92-14.1 11.88a261.97 261.97 0 0 0-10.78 7.85c-7.6 6-7.1 5.63-15.56 11.4-4.28 2.81-7.96 5.14-8.33 5.14-.37 0-4.16 2.45-8.7 5.51-4.4 3.07-8.82 5.51-9.8 5.51-.98 0-1.72.5-1.72 1.1 0 .62-1.47 1.6-3.3 2.34-1.97.6-6.38 3.18-10.05 5.63-3.56 2.45-7.11 4.41-7.97 4.41-.73 0-2.45.86-3.67 1.84a10.5 10.5 0 0 1-5.15 1.84c-1.6 0-3.18.61-3.55 1.22-.37.74-2.09 1.23-3.68 1.23-1.47 0-3.06.86-3.55 1.84-.37.98-1.72 1.84-2.94 1.84a5.9 5.9 0 0 0-3.92 1.83c-.98 1.1-2.58 1.6-4.41 1.1-2.2-.6-2.94-.24-2.94 1.35 0 1.6-.74 1.96-2.58 1.47-1.47-.36-4.78.37-7.35 1.72-2.57 1.23-5.52 2.33-6.37 2.33-.98 0-2.45.86-3.31 1.84-.86.98-3.06 1.84-4.9 1.84-1.84 0-4.04.73-4.78 1.71-.86 1.1-4.04 1.72-9.2 1.72-4.16 0-9.06.6-10.65 1.59-1.6.86-5.39 1.96-8.45 2.57-3.07.49-9.68 1.72-14.7 2.82l-15.82 3.18c-3.55.62-7.6 1.72-8.82 2.33-2.94 1.6-18.26 1.6-18.26 0 0-.6-1.59-1.22-3.67-1.22-4.41 0-4.78 1.47-.86 3.55 2.33 1.23 1.96 1.23-2.2.61-2.7-.49-21.94-1.22-42.89-1.71-26.22-.61-41.54-1.6-49.62-2.94a308.3 308.3 0 0 0-19.61-3.07c-4.41-.49-9.19-1.59-10.66-2.33-1.47-.85-5.02-1.46-7.97-1.46-2.94 0-6.86-.86-8.82-1.84a19.87 19.87 0 0 0-7.72-1.84c-2.32 0-5.02-.86-6-1.84a8.27 8.27 0 0 0-4.9-1.83c-2.94 0-3.68-.25-11.28-4.05-2.32-1.1-5.02-2.08-6.24-2.08-1.1 0-3.2-.86-4.54-1.84-1.22-.98-3.3-1.84-4.41-1.84-1.1 0-3.8-.98-6.13-2.08-6.61-3.3-7.6-3.68-11.76-4.53-2.08-.5-4.17-1.48-4.53-2.09-.5-.61-1.6-1.1-2.57-1.1-2.7 0-26.96-12-28.68-14.09a5.9 5.9 0 0 0-3.92-1.84c-1.22 0-2.57-.85-2.94-1.84-.5-1.22-1.6-1.59-3.06-1.22-1.35.49-3.19 0-4.41-1.23-3.07-3.18-11.16-7.96-13.24-7.96-1.1 0-2.45-1.47-3.18-3.19-1.1-3.18-1.23-3.18-3.68-.98-2.33 2.08-2.45 2.08-3.18-.49-.37-1.47-1.1-2.7-1.72-2.7-.61 0-1.1-.6-1.1-1.46 0-1.84-4.9-7.1-6.62-7.1-.73 0-2.94-1.48-4.9-3.32a131.4 131.4 0 0 0-8.82-6.98c-15.2-10.9-52.2-45.1-58.94-54.77-2.2-3.07-6-7.72-8.45-10.42-4.9-5.27-28.68-36.76-28.68-37.86 0-.74-1.22-2.58-7.1-11.27-1.47-2.2-2.7-4.54-2.7-5.27 0-.74-1.35-3.19-2.94-5.27-1.6-2.2-4.9-7.72-7.35-12.5L116.76 714c-.6-.98-1.46-2.7-1.83-3.67-.37-.98-1.23-2.7-1.84-3.68-.61-.98-3.68-7.35-6.86-14.09-3.07-6.74-6.13-13.23-6.86-14.33a13.24 13.24 0 0 1-1.1-5.15c0-1.6-.86-3.55-1.84-4.41a6.56 6.56 0 0 1-1.84-4.3c0-1.46-.86-3.42-1.84-4.28a5.9 5.9 0 0 1-1.84-3.8c0-1.35-.49-3.3-1.1-4.53-1.84-3.43-5.03-14.58-5.03-17.65 0-1.71-.85-4.04-1.83-5.39-.98-1.22-1.84-4.29-1.84-6.74s-.86-5.15-1.84-6c-1.1-.98-1.84-3.55-1.84-6.74 0-2.94-.86-6.86-1.84-8.7-1.1-2.2-1.83-6.99-1.83-12.5 0-4.9-.61-10.05-1.35-11.4-1.84-3.43-1.72-94.1 0-95.81.73-.74 1.35-4.78 1.35-9.07 0-4.17.73-9.8 1.71-12.25a63.57 63.57 0 0 0 2.45-8.1c.5-1.83 1.35-3.05 1.96-2.69 1.72 1.1 1.6 30.76-.12 33.94-.86 1.6-1.6 13.12-1.96 30.27-.24 15.07-.98 28.19-1.47 28.8-1.6 2.08-.12 14.2 1.72 14.2 2.08 0 3.06 2.83 3.06 8.59 0 2.57.49 5.14 1.22 5.51 2.2 1.35 2.82-5.88 2.09-25.6-1.1-31.25 2.08-92.4 5.02-95.34.86-.85 1.47-4.28 1.47-7.72 0-3.67.74-7.23 1.84-8.7.98-1.22 1.84-4.28 1.84-6.73 0-2.46.86-6.5 1.84-8.83a27.66 27.66 0 0 0 1.83-8.58c0-2.2.62-4.65 1.35-5.38.86-.86 1.6-2.7 1.72-4.3.61-4.9 4.65-16.54 8.7-24.62.98-1.96 1.71-4.29 1.71-5.4 0-3.3 15.56-33.94 20.34-40.18 4.9-6.25 11.15-14.95 13.36-18.75 9.19-15.2 18.75-28.67 34.92-49.01 7.1-8.95 13.11-17.28 13.48-18.5.86-3.2 14.46-17.77 17.15-18.5 1.23-.38 10.42-8.58 20.47-18.39 9.92-9.8 20.1-18.99 22.42-20.46a54.34 54.34 0 0 0 8.45-6.99c2.33-2.45 4.78-4.4 5.4-4.4.6 0 3.18-1.72 5.75-3.68 2.58-2.09 5.27-3.68 6-3.68.86 0 2.7-1.22 4.17-2.7a30.28 30.28 0 0 1 10.05-6.98 72.36 72.36 0 0 0 7.1-4.29c2.58-1.71 5.15-3.18 5.77-3.18 1.47 0 9.06-4.17 9.55-5.15.74-1.47 6.37-1.1 6.37.37 0 .73-1.1 1.6-2.45 1.96-1.34.37-2.45 1.1-2.45 1.47 0 1.1-10.05 6.25-12.13 6.25-.73 0-1.35.61-1.35 1.22 0 .74-.6 1.23-1.34 1.23-.74 0-3.44 1.6-6 3.68-2.58 2.08-5.28 3.67-6.01 3.67-.74 0-1.35.61-1.35 1.23 0 2.2 4.29 1.34 7.35-1.6 1.72-1.47 7.35-4.65 12.5-6.86 5.27-2.2 10.17-4.9 10.9-5.76a5.21 5.21 0 0 1 3.68-1.71c1.35 0 2.33-.5 2.33-1.23 0-.61.98-1.22 2.2-1.22 1.1 0 3.68-.86 5.64-1.84 1.84-.98 4.66-1.84 6.25-1.84 1.47 0 3.43-.86 4.29-1.84.86-.98 3.06-1.84 4.9-1.84 1.84 0 4.04-.73 4.78-1.71.73-.98 3.19-1.96 5.39-2.33 5.4-.86 14.46-3.43 17.03-4.65 1.22-.62 3.67-1.1 5.51-1.1 1.96 0 5.03-.87 6.99-1.85 1.84-.98 4.9-1.83 6.74-1.83 1.71-.13 4.53-.86 6.25-1.84 1.71-.98 4.77-1.72 6.86-1.84 2.08 0 5.88-.86 8.21-1.84 2.45-.98 7.23-1.84 10.66-1.84 3.43 0 7.1-.49 8.33-1.22 1.1-.61 5.27-1.47 9.07-1.84 3.92-.49 7.35-1.35 7.72-1.96.49-.61 3.55-1.1 6.86-1.1 3.3 0 8.08-.86 10.53-1.84 2.33-.98 7.48-1.84 11.16-1.84 3.8 0 9.3-.86 12.13-1.96 4.9-1.96 5.64-1.96 10.54 0 3.8 1.47 11.65-.45 23.04-.45 8.58 0 12.25-1.16 12.62-.54.36.61 10.27.09 12.1.46 1.97.49 6 .27 8.13.48 3.48.33 6.47.96 10.64.96 2.08 0 9.02.95 11.47 1.93 2.45 1.1 6.7 1.92 11.72 1.92l10.86 1.96c0-.61 1.6-1.22 3.56-1.22 2.08 0 4.04.6 4.41 1.22.37.74 3.43 1.23 6.62 1.23 3.8 0 6.49.6 7.47 1.83.86.98 4.65.4 6.5.38 4.41 0 7.42 2.13 14.32 2.04 1.47.98 3.54 1.9 5.63 1.9 1.96 0 5.47.8 5.72 1.54.24.73 6.38 1.94 8.2 2.65l9.96 1.56c2.22.92 10.54 3.28 12.68 3.78 2.49.54 10.91 3.77 12.9 4.47 2 .7 8.62 5.21 12.74 6.22 4.12 1.01 8.84 6.1 11.02 6.97 4.34 3.24 9.63 4.34 13.48 8.32.13.21 2.9 1.32 6.12 2.44 3.96 1.48 9.35 4.31 16.56 8.75 11.84 7.37 15 9.58 17.55 12.38 2.06 2.36 3 2.67 6.6 2.37 2.47-.2 3.75-.77 9.37-4.4 4.2-2.68 6.67-3.99 6.87-3.67.76 1.24-8.66 8.56-11.12 8.68-2.5.14-4.02 1.3-4.1 3.2-.15 2.4.43 3.09 4.02 5.17 3.95 2.3 5.8 4.2 10.88 11.08a184.9 184.9 0 0 0 7.17 9.3l6.23 7.64c4 5.02 7.28 8.64 9.58 10.55 1.26 1.08 1.83 2 2.03 3.28.18 1 1.32 3.33 2.58 5.23 2.31 3.62 3.93 9.23 4.7 16.92.15 2.06.67 3.97 1.06 4.24 1.37 1.01 1.34 6.6-.01 8.85-.74 1.2-1.46 4.24-1.65 6.81-.19 2.57-.52 4.79-.8 4.95-.2.14 0 .97.5 1.77 1.1 1.77.8 3.3-1.43 6.9-.87 1.36-1.57 2.99-1.58 3.44.02.51-.65 2.92-1.39 5.32-1 3.07-1.24 5.3-.8 7.92l1.72 10.82c.59 3.94 1.68 8.46 2.37 10.04 3.67 7.97 4.3 8.85 7.2 10.91 5.02 3.43 5.38 3.65 8.19 4.58 2.08.72 3.24.67 5.42-.24 3.88-1.66 4.16-3.84 1.32-9.5a25 25 0 0 1-2.54-9.12 77.26 77.26 0 0 0-1.77-10.42c-1.26-5.01-1.26-5.98.15-11.97a231.73 231.73 0 0 0 2.36-11.65c.45-2.87 1.13-5.37 1.5-5.6 1.02-.64 3.36-4.54 3.06-5.02-.17-.27.33-1.4 1.05-2.5.72-1.12 1.21-2.24 1.11-2.4-.3-.49 2.32-4.05 5.02-6.76 1.2-1.19 2.8-3.51 3.5-5.14 1.52-3.54 2.9-5.14 3.86-4.69.41.2 1.78-.36 3.1-1.33l2.43-1.72 1.98 2.48a37.6 37.6 0 0 0 4.34 4.36c5.5 4.55 13 17.5 14.35 24.83.3 1.82 1.45 4.97 2.48 7 1.1 2 2.91 5.78 4.06 8.34 2.67 5.99 4.41 8.33 5.84 7.74 1.61-.63 2.5-4.82 2.03-9.65-.35-3.8-.3-3.97.5-2.09 1.11 2.65 2.4 3.64 3.63 2.87 1.55-.96.16-10.64-3.43-23.5-4.12-14.67-6.26-18.85-14.23-27.27-6.47-6.84-6.18-6.5-5.43-6.96 1.67-1.03 8.43 3.53 12.03 8.14a36.7 36.7 0 0 0 4.67 4.9c1.16.92 3.18 2.86 4.4 4.33 1.26 1.45 5.4 5.72 9.18 9.54l7.74 7.82c1.2 1.34 3.6 3.05 16.41 11.74 8.33 5.76 27.51 17.42 31.41 19.16 2.12.91 5.68 2.57 7.9 3.64 12.04 5.76 20.11 8.48 25.28 8.55 5.16.06 6.45-.5 8.41-3.8 1.7-2.77 2.15-6.24 1.86-14.15-.46-11.16-1.32-16.27-3.32-19.49-1-1.6-2.1-2.78-2.36-2.62-.33.2-1.17-.68-1.94-1.92-1.5-2.41-3.23-4.01-8-7.52-3.8-2.77-9.43-10.05-19.48-25.43-4.19-6.4-8.62-12.7-9.79-13.99-1.2-1.34-6.42-8.94-11.6-16.94-8.79-13.57-12.3-18.52-20.4-28.58-1.73-2.2-5.22-6.87-7.78-10.4-2.56-3.54-6.21-8.11-8.16-10.17-1.9-2.1-4.1-4.82-4.95-6.07a15.3 15.3 0 0 0-3.52-3.76c-1.15-.78-4.95-4.51-8.41-8.3-8.4-8.99-13.77-14.42-15.5-15.65-1.7-1.18-6.45-5.5-20.35-18.21a56.79 56.79 0 0 0-5-4.25c-.66-.34-3.78-3.09-6.97-6.09-5.15-4.83-7.3-6.61-11.37-9.36a39.94 39.94 0 0 1-2.47-2.18 23 23 0 0 0-3.62-2.96 299.01 299.01 0 0 1-10.99-7.9c-6.07-4.4-27.54-18.2-29.6-19a42.62 42.62 0 0 1-4.2-2.23c-1.86-1.08-4.87-2.7-6.68-3.59a94.52 94.52 0 0 1-7.15-4.1 85.46 85.46 0 0 0-7.2-4.08c-3.61-2.01-7.04-1.08-10.57-1.29-.62-2.25-2.88-6.23-4.92-4.96-1.23.76-6.82-3.63-7.79-2.2-.72 1.12-3.89-1.47-7.88-1.44-5.16.3-9.66-2.07-14.04-4.43l3.25.58c1.76.32 3.41.7 3.65.85.28.2 1.18-.13 2.04-.66 3.16-1.97.84-4.76-5.19-6.22-3.68-.9-3.96-1.11-3.04-1.9 1.79-1.56.02-3.21-4.3-3.95-5.1-.92-5.94-.48-3.9 2.2l1.48 2.05c-.05.03-2.02-.38-4.5-.92-4.54-.98-9.19-.92-12.3.19-1.25.48-2.05.38-2.73-.46-.86-1.03-.78-1.15.97-1.8 1.16-.41 2-1.08 2.25-1.76 6.35-.61 2.8-2.94-.27-2.95-4.68-1.17-9.6-1.18-14.4-1.55-1.18-.09-1.23-1.61-3.92-2.24-1.93-.37-3.66-1-3.86-1.32-1.27-2.04-7.56.15-7.94 2.76-.15.84.01 1.1.44.84.32-.2.9.12 1.26.71 1.1 1.77-.52 2.03-5.23.79-2.47-.63-6.23-1.42-8.27-1.71-2.04-.3-3.93-.83-4.16-1.2-.83-1.35.7-2 4.2-1.73 5.06.36 7.25.92 5.46-1.98-.7-1.12-7.2-2.51-8.44-1.75-.27.17-.95.15-1.4-.1-1.6-.79-7.14-1.65-9.52-.7-2.1.8-6.51.1-7.77-.37-1.27-.48-8.21-.19-10.44.53-4.2 1.26-5.7 1-7.2-1.42-.84-1.36-1.51-2.03-2.13-1.96zm2.2 12.36a2.35 2.35 0 0 1 .74.25c.74.36 3.18.7 5.4.8 2.63.16 4.43.68 5.21 1.46 2.17 2.3 2.88 2.37 5.62.67 2.2-1.36 3.4-1.58 7.35-1.43 6.21.3 15.82 1.78 32.68 5.15 8.86 1.7 10.46 2.13 25.72 6.26 9.15 2.42 10.67 2.97 22.05 8.02l9.86 4.29 6.38 2.73c3.52 1.6 13.47 8.07 13.32 8.68-.02.31-.53.33-1.07.07-2.34-1.15 1.35 3.25 4.2 4.97 1.68 1.04 3.05 2.05 2.96 2.25-.34 1.62-4.5.42-10.78-3.12-1.08-.67-4.08-1.79-6.56-2.55-4.49-1.38-13.1-5.55-13.82-6.73-.57-.91-4.73-1.52-5.8-.86-.6.37-1.23.31-1.46-.06-.27-.43-1.21-.89-2.14-1.06-.92-.17-3.53-1.38-5.8-2.64-4.96-2.86-10.57-4.37-13.49-3.67-2.43.62-3.08.05-1.77-1.43.58-.73 1.5-.93 2.69-.7 2.36.47 7.38.18 7.5-.34.07-.27-.8-1.06-1.91-1.78-2.44-1.54-8.16-2.38-9.02-1.25-.33.43-.77.55-.97.23-.17-.27-1.29-.76-2.5-1.04l-2.18-.52-.85 2.46-.82 2.52-1.16-.92c-1.43-1.11-29.1-7.51-32.7-7.58-1.47.02-7.23-.87-12.83-2-5.57-1.08-10.4-1.8-10.77-1.57-.7.43-10.93-.73-14.87-1.7-2.82-.7-3.26-1.18-1.8-2.08.85-.53.85-.9-.3-2.04-1.24-1.39-1.27-1.44.93-2.8 1.2-.75 2.02-1.05 2.77-.94zm47.1 8.88c-2.17.22-2.44.39-2.47 1.3-.06.63.1 1.35.23 1.57.33.53 5.39 1.63 5.93 1.3.16-.1 1.5.4 2.99 1.11 1.52.77 3.72 1.33 5.05 1.33a8.7 8.7 0 0 1 4.16 1.06c1.85 1.08 4.08.96 4.73-.26.2-.38.12-.86-.12-1.35-.72-1.47-2.97-3.05-4.1-2.35-1.07.67-12.75-2.12-13.41-3.2-.27-.42-1.63-.7-3-.51zm-12.12 8.97c.22.04.51.18.87.45.53.41.93.82 1.16 1.19.4.61.35 1.13-.18 1.47-.54.33-1.14-.04-1.8-1.12-.8-1.28-.73-2.1-.05-2zm60.4 1.38a1.63 1.63 0 0 0-1.03.24c-.7.43-1.4 1.32-1.57 2.01-.41 1.97.59 2.98 3.8 3.74 2.18.5 3.44.39 4.68-.37.88-.55 1.3-.98 1.23-1.3-.02-.11-.09-.21-.22-.3-3.78-2.78-5.68-3.93-6.89-4.02zm32.6 4.77c.59-.36 4.72 1.16 5.2 1.82.74 1.18-1.52 1.62-3.11.6-1.56-.96-2.58-2.12-2.1-2.42zm-12.3 4.18c-.46-.01-.88.19-1.36.6-.96.74-1.2 1.56-.83 2.74.71 2.23 3.93 2.99 5.62 1.27.68-.68.9-1.28.63-1.9-.27-.62-1.04-1.26-2.33-2.02a3.7 3.7 0 0 0-1.72-.69zM729.56 68.8c1.52 2.58-.5 6.62-.85 8.1-.97 3.95-3.3 11.1-3.77 11.4-.22.14-.45-.24-.59-.82a6.87 6.87 0 0 0-.5-1.54c-.14-.22.11-.53.59-.6 1.44-.3 1.37-2.33-.17-3.98-1-1.01-1.59-1.24-1.97-.78-.91 1.16-1.12.1-.36-1.42.36-.74.46-2.73.29-4.33-.48-3.05-.19-4.5 1.22-6.77.54-.93.46-1.78-.42-3.31-.6-1.11-1.07-2.46-.98-3.03a7.55 7.55 0 0 0-.68-2.77l-.84-1.71 2.45 1.3c2.94 1.52 3.4 2.13 2.32 2.8-.96.6.67 1.36 1.44 2.67zm40.17 10.77c.37-.01.88.33 1.31 1.03.33.53.26 1.25-.17 1.52-.86.53-1.32.15-1.62-1.53-.11-.67.11-1.02.48-1.02zm-52.8 14.74c.18.03.33.16.44.37.41.74.39 2.39-.17 3.55-.62 1.27-.87 1.35-2.05.89-1-.42-1.35-.27-1.54.51-.14.6-.56 1.24-.94 1.48-1.13.7-1.64-.85-1.02-3.09.42-1.6.93-2.2 2.7-2.94 1.18-.5 2.37-.86 2.58-.77zm34.6.72a.76.76 0 0 1 .77.4c.11.2.17.47.12.8-.05.62-.33 1.24-.6 1.4-.65.4-1.5-1.08-1.11-1.9.2-.44.52-.66.82-.7zm-172.4 3.88c2.77 0 5.65.36 6.08 1.1 1.22 1.84-6.38 3.19-9.93 1.72-.86-.25-1.6-1.1-1.6-1.72 0-.74 2.67-1.1 5.44-1.1zm181.36 4.94c.63.12 1 .22 1.14.47.18.32.02.9-.36 2.1a21.5 21.5 0 0 1-1.77 3.98c-.97 1.8-1.16 1.84-2.77 1.28-2.67-.95-2.43-3.92.55-6.66 1.28-1.17 2.08-1.44 3.21-1.17zm-54.85 9.04c.3.03.5.1.62.28.26.39.08 1.29-.55 3.31-.25.84-.34 1.42-.42 1.98-.56-1.48-1.4-3.03-2.19-4.57.93-.57 2-1.05 2.54-1zm.07 7.18c1.03.3 2.35 2.46 1.64 2.9-.1.06-.62.03-.87.07-.2-.97-.44-1.95-.77-2.97zm-363 13.14c1.72 0 3.07.62 3.07 1.23 0 .73-1.35 1.22-3.06 1.22-1.72 0-3.07-.49-3.07-1.22 0-.61 1.35-1.23 3.07-1.23zm534.97 1.86c.18-.16.42-.14.74.03a1.48 1.48 0 0 1 .55.55c.5.84.47 2.24-.18 3.16-.86 1.13-2-.84-1.57-2.66.13-.57.27-.91.45-1.07zm-542.32 1.82c.98 0 1.84.61 1.84 1.23 0 .73-.86 1.22-1.84 1.22-.98 0-1.83-.49-1.83-1.22 0-.62.85-1.23 1.83-1.23zm530.42 5.75c.32-.05.77.08 1.43.38 1.1.52 1.92 1.3 2.44 2.12.97 1.57.79 3.3-.95 3.64-1.34.23-4.04-3.89-3.53-5.46.12-.41.3-.63.61-.68zm-61.64 3.83c.1 0 .17.04.22.13.2.36.05 1.44-.5 3.15-1.26 4.05-2.73 5.64-4.5 4.95a5.22 5.22 0 0 1-1.93-1.56c-.5-.8-.17-1.23 1.77-2.43 1.34-.83 2.89-2.16 3.53-2.93.65-.88 1.13-1.3 1.4-1.3zM250.2 156.48c.6 0 1.22.86 1.22 1.84 0 .98-.49 1.84-.98 1.84-.61 0-4.41 3.3-8.45 7.35-7.48 7.48-9.32 8.46-10.91 5.88-1.1-1.83 11.03-13.23 14.21-13.23 1.23 0 2.45-.86 2.94-1.84.37-.98 1.23-1.84 1.96-1.84zm569.94.1c.07.02.13.07.17.14.35.56-.36 2.65-1.18 3.16-.32.2-.38-.5-.14-1.55.3-1.07.8-1.83 1.14-1.75zm-604.01 30.54c1.72 0 .98 2.81-1.1 4.4-2.2 1.72-4.05 2.21-4.05 1.1 0-.97 4.17-5.5 5.15-5.5zm-27.27 27.29c.7-.04 1.3.4 1.3 1.38a1.93 1.93 0 0 1-1.96 1.96c-1.1 0-1.72-.61-1.48-1.47.4-1.17 1.34-1.83 2.14-1.87zm641.98 13.97c.28-.17.84.46 1.38 1.35.62 1.01 1.21 2.37 1.34 3.27.2 1.15.05 1.16-.81-.23-.62-.88-1.5-1.82-2.1-2.05-.89-.49-.8-1.66.2-2.34zm114.26 4.71 2.2.43c1.18.23 3.83 1.03 5.82 1.73 2.62.93 4.37 2.2 5.43 3.98a9.44 9.44 0 0 1 1.18 3.8c.17 1.24 1.1 3.7 2.15 5.51l1.83 3.32-3.63-1.9c-2-1.07-4.57-2.23-5.64-2.53l-4.99-1.44a25.34 25.34 0 0 1-3.1-1.19c-.1-.16-.13-2-.13-4.15.05-2.2-.21-4.78-.53-5.77zm-773.2 1.99c1.05.01 1.44 1.2.24 2.4-.85.85-1.6.85-2.08.12-.37-.74-.12-1.72.61-2.08.46-.31.88-.44 1.23-.44zm680.8 5.25c.17.04.32.17.45.37.28.46.39 1.28.13 2.07-.39 1.05-.47 1.03-1.01-.2-.38-.72-.35-1.64-.13-2 .19-.2.38-.27.55-.24zm37.84 8.38c.23.07.41.21.54.4.45.68.2 1.97-.73 2.54-.59.37-1.18.37-1.31-.08-.21-1.05.8-3.02 1.5-2.86zM845.5 257c.14.07.33.22.58.41.14.14.28.32.41.54.39.66.7 1.61.8 2.5.1 1.2.41 2.57.75 3.1 1.6 2.58 2.01 6.26 1.11 9.71-.49 2.09-1.3 4-1.73 4.27-1.02.63-1.01.77-1.4-4.04-.2-2.25-.75-4.8-1.24-5.61-.54-.86-.7-2.55-.34-4.25.32-1.53.57-3.77.57-4.96.04-1.47.06-1.89.49-1.67zm14.77.62c.16 0 .3.08.43.24a3.19 3.19 0 0 1 .46.57c.12.18.17.34.14.4-.02.08-.8 2.42-1.66 5.1-.86 2.7-1.93 4.92-2.39 4.9-.42.04-.76-.26-.77-.63.03-.32-.47-.53-1-.42-.83.21-1.08-.07-1.13-1.23-.04-.79.2-1.6.57-1.84.37-.23 1.62-2.05 2.86-4 1.4-2.26 2.03-3.09 2.5-3.1zm37 3.83c.33.07.63.24.85.47a3.12 3.12 0 0 1 .37.46c.21.36-.07.44-1.05.48-1.77.14-2.6-.83-1.15-1.37.3-.1.66-.12.98-.04zm-57.16 10.35c.24-.02.48.12.7.47.5.8-.55 4.5-1.46 5.07-.33.2-.56-.77-.59-2.02-.06-1.9.63-3.45 1.35-3.52zm-.2 13.74c1.14.07 2.39 1.22 3.72 3.38l.17.28c.81 1.43 1.17 2.25.71 1.87-.4-.42-1.36-.64-2-.47-.63.17-1.59-.05-2-.47-2.14-2.02-2.77-3.63-1.7-4.3.36-.22.72-.31 1.1-.29zm-5.55 10.1a4.85 4.85 0 0 1 1.77 1.67c.55.9.55 1.73-.1 2.13-.26.17-1.01-.56-1.64-1.58-1-1.6-.87-2.54-.03-2.22zm169.47.22a2.57 2.57 0 0 1 1.58 1.15c.37.61.44 1.33.05 1.84-.35.52-1.52 1.02-2.61 1.18-1.15.19-2.21.03-2.41-.3-1.06-1.7 1.3-4.36 3.39-3.87zm-161.98 2.65c1.28.03 2.17.51 2.84 1.59 1.16 1.87.6 2.3-2.18 1.87-3.63-.58-4.22-3.56-.66-3.46zm-728.43 8.63c.45-.03.83.26.89.92 0 .5-.62 1.1-1.35 1.48-.86.24-1.35-.25-.98-.99.27-.87.9-1.37 1.44-1.41zm869.2 7.22c-2.17-.37-9.47 1.63-11.34 3.16-.67.48-5 1.9-9.65 3-4.63 1.17-8.86 2.37-9.45 2.74-.53.33-2.93.78-5.23 1.02-2.3.24-4.97.85-5.86 1.33-2.75 1.55-4.46 1.8-6.02.83-.85-.52-3.17-.79-5.36-.61l-5.72-.36c-.7-.09-1.45-.01-2.01-.13a26.5 26.5 0 0 0-6.18-.62c-1.21.08-2.15.36-1.96.55.75 1.09 4.76 2.76 9.02 3.76 2.57.56 5.7 1.52 6.96 2 1.3.54 3.1.68 3.98.43 2.33-.78 4.96-.62 5.49.24.26.43 1.03.7 1.6.56a9.95 9.95 0 0 1 2.51.08c2.71.55 6.49.89 6.92.62.26-.17 1.8.15 3.51.64 1.67.53 3.97.88 5.04.81 2.11-.19 7.05-2.88 6.58-3.63-.26-.43 1.25-3.15 1.89-3.55.6-.36 1.65 2.18 1.6 3.91-.09 1.77.07 1.9 1.52 2.33 1.17.32 2.33.04 3.94-.96 1.6-1 2.97-1.32 4.6-1.07 1.47.2 4.68-.37 8.7-1.67 7.14-2.27 16.4-6.75 15.47-7.51-.54-.4-2.69-1.23-8.68-3.23a85.8 85.8 0 0 1-6.2-2.56c-2.1-1-4.62-1.95-5.68-2.11zm-126.38 4.56c-1.12-.02-2.04.42-2.34 1.31-.25.68-.08 2.28.32 3.52 1.47 4.65 2.12 5.81 3.77 6.8 1.94 1.1 5.73.38 7.6-1.38.77-.7 2.96-1.83 4.95-2.46 3.96-1.28 7.28-3.1 6.92-3.7-.57-.91-7.77-1.87-11.66-1.54-3.37.3-4.55.07-5.97-1.13a6.01 6.01 0 0 0-3.59-1.42zm-753.14 5.47c.58-.01 1.26.61 1.77 1.93 1.1 2.7.98 2.94-1.1 2.94-.98 0-1.84-1.1-1.84-2.45 0-1.56.52-2.4 1.17-2.42zm844.37 2.12c.29-.02.61.02 1 .1.53.12.87.35 1.13.8.2.35.36.83.52 1.51.45 2.17-.06 3.01-1.35 2.02-.48-.3-1.14-.4-1.46-.2-.38.23-1.08.3-1.69.15-1.48-.34-1.57-.74-.5-2.36.95-1.43 1.5-1.97 2.35-2.02zm27.03 151.22a.81.81 0 0 1 .22.04c.85.37 1.59 3.43 1.83 8.09.37 7.35-.86 12.25-2.57 10.53-.5-.49-.86-5.02-.86-9.92 0-6.32.33-8.76 1.38-8.74zM4.46 499.07c.22-.01.47.38.8 1.11 1.34 3.43 1.34 11.4 0 12.26-.62.36-1.48-.5-1.97-1.84-.49-1.47-.36-4.9.13-7.72.38-2.6.67-3.78 1.04-3.8zm956.7 15.81c1.27.08 1.7 5.13 2.04 20.35.25 14.33-.74 21.93-2.7 19.97-1.22-1.35-1.1-39.46.25-40.2.15-.08.29-.13.42-.12zm13.47 4.34c.56-.02 1.18.9 1.68 2.9.98 3.92.24 7.1-1.6 7.84-1.1.24-1.59-1.23-1.59-5.15 0-3.57.7-5.57 1.51-5.6zM76.2 557.16c-.61 0-1.22.86-1.22 1.84 0 .98.6 1.83 1.22 1.83.74 0 1.23-.85 1.23-1.83 0-.98-.5-1.84-1.23-1.84zm905.5 22.06c.74 0 1.23 3.8 1.23 8.57 0 9.68-1.84 11.52-3.19 3.06-.85-6 .13-11.63 1.96-11.63zM89.68 597.59c-.61 0-1.23 1.96-1.23 4.3 0 2.32.62 4.28 1.23 4.28.73 0 1.22-1.96 1.22-4.29s-.49-4.29-1.22-4.29zm888.22 7.36c1.47 0 2.33 3.55 1.6 6.5-.86 3.67-2.7 2.2-2.7-2.22 0-2.32.5-4.28 1.1-4.28zM93.36 612.9c-.74-.49-1.23.61-1.23 2.45 0 1.84.5 2.94 1.23 2.45.73-.37 1.22-1.47 1.22-2.45 0-.98-.49-2.08-1.22-2.45zm881.73 3.06c1.47 0 1.71 1.1 1.47 5.15-.5 7.23-3.43 7.72-3.43.49 0-4.29.49-5.64 1.96-5.64zm-33.82 60.04c1.59 0 1.59 5.76 0 6.74-.74.37-1.6-.12-1.96-1.1-.86-2.45.24-5.64 1.96-5.64zm-3.9 22.44c-.36-.1-.76.11-1.25.6-.73.73-.98 2.2-.49 3.43.61 1.6 1.23 1.71 2.2.73.74-.73.99-2.2.5-3.43-.31-.8-.61-1.22-.97-1.33zm-3.18 5.85c-.58-.29-1.38.26-1.99 1.86-1.22 3.18-.86 5.63.86 5.14.73-.36 1.6-2.08 1.84-3.8.24-1.77-.13-2.9-.71-3.2zm-817.7 44.2c.13 0 .26.01.4.05 2.2.73 2.57 3.43.48 3.43a1.93 1.93 0 0 1-1.96-1.96c0-.93.44-1.51 1.09-1.52zm762.84 92.8h.06c.61 0 1.35.5 1.6 1.23.24.74-.5 1.35-1.6 1.35s-1.84-.61-1.6-1.35c.24-.71.94-1.2 1.54-1.22zm-46.36 37.32c.04 0 .08.03.1.06 1.35 1.35-2.32 6.74-6.86 10.17a167.2 167.2 0 0 0-10.53 9.07c-6.87 6.37-22.3 18.25-23.78 18.25-.49 0-2.45 1.35-4.29 3.07-1.83 1.71-3.67 3.06-4.04 3.06-.37 0-2.7 1.72-5.27 3.68-2.57 2.08-5.27 3.67-6 3.67-.74 0-3.56 1.35-6.25 3.07-4.66 2.94-11.03 4.16-11.03 2.08 0-1.47 4.9-5.76 9.68-8.33 2.2-1.35 5.02-2.82 6.13-3.56 1.1-.6 5.02-2.94 8.82-5.14 3.67-2.2 7.84-5.15 9.07-6.5 1.22-1.34 2.57-2.45 3.18-2.45 1.23 0 13.48-8.2 17.03-11.64 1.72-1.59 4.9-3.92 7.11-5.14 2.2-1.35 6.74-5.03 10.17-8.34 3.1-2.98 6.1-5.22 6.76-5.08zM815.3 906l-1.46 2.94c-1.84 3.19-6.13 7.11-7.97 7.23-.73 0-3.55 2.21-6.13 4.9-2.57 2.7-5.26 4.9-5.75 4.9-.61 0-5.27 2.95-10.54 6.5l-11.27 7.35a80.2 80.2 0 0 0-5.52 3.31 31.99 31.99 0 0 1-5.76 3.18c-1.22.5-2.2 1.23-2.2 1.72 0 .61-1.1 1.47-2.45 1.84-1.84.61-2.33 1.47-1.72 3.8.61 2.57.37 2.94-2.33 2.94-1.71 0-3.43.49-3.92 1.1-.86 1.47-15.2 8.7-17.15 8.7-.86 0-2.2.86-3.06 1.84a5.6 5.6 0 0 1-3.68 1.84c-1.1 0-5.15 1.71-8.95 3.67-3.8 2.09-7.96 3.68-9.3 3.68-1.36 0-2.83.61-3.2 1.22-.36.74-1.7 1.23-2.81 1.23-1.1 0-3.68.86-5.64 1.84a17.93 17.93 0 0 1-6.86 1.84c-1.84 0-4.04.85-4.9 1.83-.86.98-3.07 1.84-4.9 1.84-1.84 0-4.05.86-4.9 1.84-.86.98-3.06 1.84-4.9 1.84-1.84 0-4.05.86-4.9 1.84a6.61 6.61 0 0 1-4.41 1.84c-1.72 0-3.93.48-5.15 1.1-3.07 1.6-19.85 5.02-24.38 5.02-2.09 0-4.17-.49-4.66-1.1-1.23-2.08 4.04-3.92 8.7-3.06 4.16.73 4.29.73 3.43-2.45-.61-2.45-.25-3.19 1.1-3.19 1.1 0 2.33.61 2.7 1.23.98 1.59 7.96 1.59 7.96 0 0-.62-.98-1.72-2.08-2.45-1.72-.98-.86-1.23 3.92-.99 5.15.37 6.13 0 6-1.7-.12-1.73.74-2.22 3.8-2.22 2.33 0 4.78-.98 6.13-2.45 1.22-1.34 3.18-2.45 4.29-2.45a5.6 5.6 0 0 0 3.67-1.84c.98-1.22 3.8-1.83 8.09-1.83 5.14 0 7.84-.74 12.74-3.8 3.31-2.08 6.13-4.29 6.13-4.9 0-.61 2.57-1.1 5.63-1.1 3.07 0 7.11-.74 8.83-1.72 6-3.06 12.5-5.64 14.33-5.64.98 0 1.84-.49 1.84-1.22 0-.61.98-1.23 2.33-1.23 1.22 0 2.94-.86 3.8-1.84.85-.98 2.32-1.84 3.3-1.84.99 0 3.56-1.34 5.77-3.06 2.2-1.71 4.4-3.06 4.9-3.06.36 0 5.02-2.94 10.41-6.62a177.4 177.4 0 0 1 14.34-9.07c2.57-1.34 5.88-3.67 7.23-5.14a18.94 18.94 0 0 1 4.9-3.8c1.35-.61 4.41-2.33 6.74-3.67 2.33-1.48 6-3.56 7.96-4.66 2.09-1.1 5.52-3.31 7.85-4.9zm-44.96 6.5c.98 0 1.83.61 1.83 1.22 0 .74-.85 1.23-1.83 1.23-.98 0-1.84-.5-1.84-1.23 0-.61.85-1.22 1.84-1.22zM748.53 937c2.7 0 3.06.25 1.59 1.23-2.33 1.47-3.3 1.47-4.29 0-.49-.73.74-1.23 2.7-1.23zm-30.88 12.26c1.96 0 3.06.73 3.06 1.83s-1.1 1.84-3.06 1.84-3.06-.73-3.06-1.84c0-1.1 1.1-1.83 3.06-1.83zm-38.69.41c1.68-.02 3.7 1.1 3.03 2.16-.86 1.47-5.39 1.47-5.39 0 0-.74.5-1.47 1.1-1.84.35-.22.8-.31 1.26-.32zm-7.15 3.56c.38 0 .76.1 1.11.32 1.35.85.5 3.06-1.22 3.06-.61 0-1.35-.49-1.84-1.1-.67-1.15.6-2.3 1.95-2.28zm-55.83 47.5c3.64-.04 6.77.48 6.46 1.59-.37.85-3.3 1.59-7.35 1.83-4.17.25-7.48 1.1-8.33 2.08-1.72 2.09-16.54 2.58-17.77.74-1.1-1.96 1.72-2.82 8.33-2.82 3.56 0 7.6-.73 9.07-1.71 1.78-1.1 5.94-1.69 9.59-1.72zm-35.36 6.33c.81 0 1.62.1 2.37.28 4.9 1.23 3.3 3.18-2.58 3.18-3.06 0-5.51-.49-5.51-1.1 0-1.34 2.84-2.38 5.72-2.36z"/><path d="M508.36 201.19c-8.38.6-16.2 4.18-23.58 7.97-12.1 6.48-23.34 14.43-35.3 21.17-12.23 7.19-24.63 14.13-36.41 22.04-2.17 3.25.93 7.27-.6 10.73-5.05 3.12-11.25 3.04-16.65 5.28-11.14 3.05-22.68 4.55-33.67 8.16-12.63 5.6-23.67 14.1-36.1 20.06-27 14.81-40.34 18.82-67.3 33.68-7.38 4.3-14.74 9.14-20 15.96-4.13 7.85 8.22 8.77 3.57 32.69-1.09 5.6 19.16 2.92 23.58.06l196.62-98.28c6.48-4.07 9.74-3.23 14.84-8.87 2.7 47.68 3.22 80.1-.63 127.67-1.89 25.17.38 49.76-1.41 74.94-.85 7.51-.36 18.47-3.08 25.52-1.34.91-1.94-1.33-3-1.77-12.53-11.18-35.07-19.67-50.35-25.92-24.6-9.75-48.78-30.94-73.07-41.43-17.45-6.56-36.96-8-55.01-3.05-4.15 1-8.24 12.66-12.32 13.9-5.1 7.63-4.9 17.18-5.22 25.98.17 24 3.72 47.83 4.43 71.8 3.79 62.2 8.7 124.6 4.8 186.92-1.28 26.5-3.72 53.09-1.74 79.62.45 4.6.83 9.4 2.74 13.63 3.37 3.48 9.98 2.54 12.25-1.73 2.81-2.34 7.11-2.13 10.04-.12 2.82.1 6.1-.95 8.49 1.07.4 2.02 1.91 3.78 4.6 3.69 15.62-.52 34.7-9.98 35.9-17.52 2.07-11.3-1.84-22.2-2.57-33.8-.85-4.83-13.21-10.98-15.37-15.15-1.03-5 3.82-8.86 3.44-13.84.07-2.2-.97-4.2-1.56-6.23.01-2.22 2.55-3.34 4.45-2.7 3.2.16 6.05-1.7 7.94-4.15 1.51-1.65 2.54-4.88.3-6.36-2.4-1.26-4.9.59-6.59 2.17-2.11 1.06-4.92-1.45-3.5-3.6 1.16-3.47 5.18-4.06 8.17-5.1 2.1-.97 4.75-2.83 4.37-5.44-1.5-3.28-6.02-4.68-6.15-8.66-.76-3.05-4.46-5.1-3.7-8.55 1.32-2.65 5.43-3.68 5.12-7.12.14-4.36-3.77-7.2-7-9.37-3-2.4-6.4-5.8-5.61-10 1.12-3.72 5.2-6.15 9.01-5.66 2.23-1.02 1.22-4.9-1.17-4.9-3.75-2.98-2.01-9.34 2.05-11.15 3.58-2.89 7.5-6.91 6.7-11.92-.68-6.65-2.46-13.3-1.57-20.01-.2-5.56-1.14-11.16-3.31-16.3-3.46-2.77-8.31 1.55-11.64-1.56-3.34-3.37 3.55-8.67 6.85-11.5 5.61-8.16 6.38-19.1 2.74-28.22.15-12.53-1.52-23.92.41-36.3 1.4-9.85-.96-12.98 1.54-22.57 10.13 5.7 22.3 10.1 38.6 21.69 24.57 15.66 52.33 25.13 78.13 38.41 7.13 4.82 10.33 13.82 9.85 22.18.5 15.52-1.27 30.98-2.21 46.45-1.22 16.49-2.6 33.22.12 49.63 1.84 6.74 8.58 12.46 15.8 11.33 7-.6 12.02-6.54 18.8-7.74 6.2-.81 12.09 2.4 16.52 6.46 1.45.91 2.85 2.36 4.36 2.88 1.86-.8.2-4.22-1.6-3.16-2.72.08-1.94-5.09.66-4.13 5.3.36 7.68 6.09 12.3 7.85 3.5.69 5.9-2.61 8.84-3.77 2.25-.25 5.18 1 6.76-1.24 1.5-3.23-2.75-5.6-2.11-8.76 1.12-2.58 5.14-1.48 6-4.33 1.25-3.64-.55-7.39-.99-11.02-1.03-4.97-1.23-10.36 1.1-15 1.7-4.95.57-10.77-3.14-14.51-1.91-2.41-3.09-5.37-4.71-7.9-2.88-1.81-7.2.18-9.43-2.92-4.2-4.73-1.09-13.25 5.03-14.49 3.88-1.45 4.1-7 1.45-9.72-2.3-3.19-4.91-6.14-7.07-9.43 1.44-1.97 3.96-.29 5.88-.3 3.88.7 7.66 2.1 11.64 2.26a3.95 3.95 0 0 0 1.46-5.32c1.61-2.91 5.44-3.73 6.83-6.82-1.36-4.69-8.75-5.33-11.15-1.19-2.46 1.9-5.02 3.82-8.03 4.77-2.89-2.37-1.06-7.61 2.47-8.2 43.4-30 89.97-55.62 139.14-74.89.87-1.38 3.2.29 2.35 1.6 3.25 38.84 1.04 77.86 3.08 116.75 1.31 36.53 5.33 72.89 7.63 109.35.53 16.77-1.61 33.47-4.1 50.01-1.16 12.62-.64 26.1 5.74 37.4 3.85 6.56 11.87 11.2 19.55 9.24 6.99-1.2 14.12-4.54 21.27-2.34 3.98 1.09 8.05 4.1 12.29 2.3 2.9-1.47 6.13-4.34 9.55-2.75a5.41 5.41 0 0 1 1.11 7.43c-.02 3.41 4.97 4.71 7.07 2.31 5.28-2.6 10.89-4.58 15.9-7.73 1.72-2.65-.62-5.47-1.12-8.08.32-4.27 5.22-7.1 4.24-11.65-.27-7.5-4.12-14.4-4.15-21.95-.5-5.99-1.32-12.78-6.26-16.87-4.07-3.68-8.53-7.14-13.62-9.27-2.18-.84-5.6-1.11-5.95-3.99-.44-2.2.97-4.12 2.37-5.62 2.18-3.74-.03-8.88-3.96-10.39-1.43-1.16-.04-3.44 1.67-3.02 2.3.23 4.44 1.38 6.8 1.28 1.77.08 3.79.41 5.4-.1 1.98-2.62 4.33-5 5.8-7.97-1.17-3.48-6.26-3.6-8.37-1-3.09 1.54-6.63 3.17-10.13 2.08-2.7-2.67-.01-8.13 3.76-7.58 3.7-1.08 7-4.7 11.13-3.37 1.9.94 5.45.43 5.4-2.18-.77-2.9-4.25-3.57-6.81-3.31-3.33-.92-5.37-4.77-4.53-8.07-.87-2.68-4.18-2.87-6.54-2.71-3.1-1.12-1.62-6.76 1.7-5.96 2.08.18 5.21 1.11 6.18-1.48 1.36-3.1-1.27-6.08-3.71-7.65-5.44-5-12.56-8.19-16.86-14.4-.75-3.84 2.26-7.23 5.44-8.93 3.72-4.05.25-10.53 4.04-14.54 3.84-4.09 10.73-4.52 13.26-9.96 2.04-3.5 1.1-9.01-3.05-10.47-1.67-.94-2.07-3.5-.38-4.62 1.25-1.64.78-4.66-1.6-4.86-1.6-.39-4.22-1.16-3.6-3.33.83-2.34 3.78-1.76 5.66-1.5 2.58-.48 2.86-3.92 1.47-5.7-3.09-7.83-11.03-12.97-19.23-13.84a3.62 3.62 0 0 1-3.08-4.49 4.47 4.47 0 0 1 4.42-3.58c2.14-.78 3-3.72 1.52-5.48-.91-2.71 1.5-5.48 4.2-5.63 3.1-.8 5.9-3.34 5.93-6.7.7-5.51-1.65-10.76-2.57-16.1-1.68-6.16-5.41-11.44-8.8-16.74-2.08-4.7.4-9.68 2.12-14.06 2.18-7.04.6-14.47.2-21.66-.7-7.36.15-14.86-1.74-22.1-1.74-7.94-5.72-15.5-11.95-20.85-9.92-9.39-22.66-15.49-35.88-18.62-9.74-1.58-19.47 1.75-28.01 6.19-20.29 9.05-40.38 18.92-58.49 31.9-3.23 2.62-4.8 6.59-5.94 10.46-1.3 3.68-3.77 7.58-7.95 8.24-4.86 1.36-10.75 2.04-13.7 6.7-1.53 2.44-2.51 5.75-5.53 6.75-2.39-.23-3.87-3.28-2.65-5.32-.4-2.43-4.28-2.33-5.03-.18-3.23 2.5-7.85 2.68-10.62 5.87-.55 2.79 3.05 4.87 5.38 3.57 3.14-.2 3.39 5.5.23 5.55-5.45 1.27-10.76-3.55-16.11-1.1-2.13 1-2.4 4.57-5.16 4.44-4.8-2.31-8.87-5.84-13.33-8.7-3.18-2.29-6.67-4.4-9.06-7.52-1.84-3.73 1.01-8.16 4.7-9.32 4.06-2.03 6.58-6.93 5.15-11.37-.97-2.94-1.35-6.55.87-9.04 2.88-2.93 7.35-3.29 10.5-5.86 3.26-2.44 4.84-6.56 5.38-10.48.54-3.85-.36-7.67-.82-11.45.12-6.52 2.08-13.56-1.3-19.6a20.14 20.14 0 0 1 1-18.5c.33-2.71-3.86-3.25-4.95-1.1-4.22 3.38-10.43 4.1-15.15 1.35-2.39-1.25-5.01-3.62-4.61-6.55.94-3.29 4.75-4.46 7.8-4.25 2.43-1.04 1.99-4.47.46-6.08-1-3.71 2.73-7 6.22-7.08 4.85-2.15 6.3-8.4 4.8-13.12-1.2-7.87-.92-16.61-6.03-23.23-3.06-3.59-3.74-9.02-1.25-13.1 1.93-3.39 4.32-6.73 4.5-10.78.82-6.74-.25-13.54.26-20.3.33-12.15 1.44-14.86-2.26-26.54-.34-1.67 1.46-3.95 3.13-2.56 3.6 2.04 5.79 5.92 9.62 7.63 19.48 12.9 35.93 21.63 55.1 35 26.22 16.95 54.67 27.71 82.84 41.4 14.72 6.68 30.47 11.84 46.7 12.65 5.08-.98 7.6-6 11.05-9.25 6.59-3.8 14.39-1.63 21.55-2.35 3.59-.28 8-1.6 9.24-5.38a6.17 6.17 0 0 0-2.02-5.64c.1-4.35-3.96-7.45-7.87-8.3l-10.5-4.81c-2.02-6.48-8.58-10.07-14.76-11.67-23.4-10.03-45.84-22.83-70.75-28.9-7.07-.98-15-1.11-20.64-6.12a40.6 40.6 0 0 0-23.78-11.43c-1.33.1-2.78-1.7-1.16-2.48 1.5-.56 3.71.41 4.55-1.5 1.5-2.28.26-5.7-2.34-6.51a15.6 15.6 0 0 0-6.9-3.35c-1.9 2.18-3.38 4.73-5.5 6.73a8.4 8.4 0 0 1-5.16-10.2c-1.18-4.49-6.62-6.85-10.84-5.34-7.09-.5-13.35-5.91-20.66-4.4-1.97.64-4.83 1.53-6.22-.59-.47-2.7 1.08-6.16-1.4-8.22-6.9-3.41-15.25-3.12-21.6-7.8-8.7-4.67-16.79-10.36-24.68-16.28-1.5-2.17 2.21-4.44 3.85-2.7 1.7-.74.05-3.3-1.43-2.9-9.59-3.72-19.65-6.9-30.05-6.66zm18.33 10.74c.4 1.45-1.9-.44 0 0zm22.8 16.18c-.02.29-.46-.56 0 0zm-107.83 10.04c2.57.62.45 5.3-1.68 3.63-1.09-1.25-.23-4.02 1.68-3.63zm-42.53 15.68c-2.3 1.23-.17 5.65 2.2 4.21 1.29-1.53.04-4.81-2.2-4.21zm190.82 2.03c2.98.56 1.9 5.8-1 5.41-2.03-1.15-1.85-5.65 1-5.41zm-202.6 6.27c-2.39 1.19-.3 5.67 2.14 4.34 1.4-1.53.16-4.87-2.13-4.34zm264.38 9.28c.99 1.58 3.29 2.13 4.89 1.17l-4.95-1.39zm17.05 5.14c-3.02.98-1.82 6.56 1.38 6.05 2.66-1.2 1.97-6.71-1.38-6.05zm9.45 5.84c-1.45.85-.1 3.48 1.43 2.8.1-1.03.12-2.98-1.43-2.8zm50.45 41.08c5.94 1.4 11.96 2.75 17.53 5.34a27.72 27.72 0 0 1-17.75-5.4l.22.06zm44.97 24.07c2.78.78 5.41 2.01 8.02 3.24-3.18 2.68-8.67 1.58-10.58-2.12a2.9 2.9 0 0 1 2.56-1.12zm40.59 9.43c-4.05.6-4.12 7.5-.06 8.16 3.94.86 6.64-5.14 3.39-7.53-.97-.66-2.2-.7-3.33-.63zm-278.89 1.9c1.37.75-.61 2.98-1.52 1.7.24-.7.55-1.87 1.52-1.7zm295.67 3.87c-3.48.96-7.06 2.24-9.65 4.87 3.25 4.5 11.73 1.62 11.53-3.95-.24-.77-1.16-1.01-1.88-.92zm-40.88 3.6c-1.93 1.46 1.03 4.85 2.7 3.03.39-1.56-1.09-3.28-2.7-3.04zm-236.77 22.35c-1.34 1.02.46 3.43 1.81 2.44-.06-1.02-.5-2.6-1.81-2.44zm-.95 40c4.35 1.05 3.29 8.63-1.1 8.65-3.77.3-5.52-5.54-2.33-7.48a4.6 4.6 0 0 1 3.43-1.17zm-.72 14.73c1.91 1.04-.4 4.42-2.04 2.93-.36-1.26.45-3.27 2.04-2.93zm123.76 6.98c3.79.4 3.33 7.16-.46 7.1-4.06 0-3.49-7.57.46-7.1zm-75.62 32.63c-2.26.3-3.98 2.04-5.25 3.82a5.06 5.06 0 0 0 6.54-3.82zM552.19 486c-2.98.58-1.74 5.9 1.18 5.28 2.21-1.1 1.6-5.58-1.18-5.28zm-32.97 3.56c2.2 1.14-.06 5.06-2.14 3.68-.77-1.49.28-3.9 2.14-3.68zm5.48 15.4c3.65.87 2.7 7.4-1.05 7.17-3.5-.92-2.69-7.45 1.05-7.17zm45.84 22.37c2.05 1.2-.39 4.81-2.26 3.32-.61-1.44.5-3.68 2.26-3.32zm179.52 21.14c1.5.94-.22 3.6-1.7 2.64-.08-1.06.2-2.98 1.7-2.64zm19.3 27.84c-1.4.81 1.28 2.68 1.5 1.03-.25-.58-.82-1.16-1.5-1.03zm-418.5 7.43c-1.49.9 1.66 2.57 1.3.86-.26-.46-.7-1-1.3-.86zm422.54.38c-1.9 1.18.3 4.58 2.15 3.32.6-1.41-.44-3.55-2.15-3.32zm-212.04 8.2c-1.52.9.45 3.5 1.72 2.3-.06-.97-.47-2.46-1.72-2.3zm4.31 7.76c-3.54 2.87-6 6.83-7.87 10.93 5.71 1.56 11.42-5.71 8.3-10.84-.12-.08-.28-.14-.43-.09zm-.5 13.73c-2.53.5-5.1 1.03-7.44 2.17a6.64 6.64 0 0 0 7.8-2.15l-.17-.04zm206.05 41.34c-3.66.5-3.03 7.2.72 6.83 3.64-.43 3.12-7.43-.72-6.83zm-243.97 2.53c3.66 1.73 7.51 3.37 10.37 6.33a10.27 10.27 0 0 1-11.6-5.55c.13-.53.7-.9 1.23-.78zm210.46.55c1.46.88-.09 3.51-1.56 2.66-.13-1.03.12-2.86 1.56-2.66zm5.55 13.08c2.58.95 1.09 5.79-1.61 4.83-1.8-1.36-.91-5.17 1.61-4.83zm34.6 1.97c-1.72.77.04 3.79 1.56 2.67.27-1.06-.1-2.9-1.56-2.67zm-458.88.93c1.89 1.1-.32 4.41-2.05 3.09-.5-1.33.46-3.29 2.05-3.09zm34.08 1.67c-1.24.98 1.5 2.6 1.67.97-.26-.64-.97-1.16-1.67-.97zm169.11 22.44c.29-.01.08-.52 0 0zm220.66 2.16c3.66.66 2.88 7.23-.84 6.99-3.3-.84-2.76-7.18.84-7zm-425.82 3.04c2.93.83 1.51 6.04-1.4 5.44-2.15-1.28-1.44-5.74 1.4-5.44zm229.7 1.8c-2.85-.14-3.5 3.84-1.97 5.68 1.72 2.68 5.77 1.64 7.69-.28 1.11-.92 2.05-2.79.49-3.77-1.66-1.52-4.07-1.71-6.2-1.64zm-2.36 8.23c-3.78.95-2.49 7.7 1.36 7.25 3.2.33 5.9-4.52 3.11-6.63-1.37-.7-2.97-.62-4.47-.62zm234.53 21.13 2.93 11.37c4.85-.4 5.5-8.64.76-9.78l-3.86-1.74zm-430.22 10.87c-1.94 1.25.31 4.76 2.25 3.46.7-1.46-.4-3.9-2.25-3.46zm429.17 4.13 12.33.92-13.1-1.17zm-13.45 37.88 13.63 9.15c-6.01.88-12.38-2.74-14.6-8.42.04-.44.5-.96.97-.73zm-448.57 8.99c2.83.58 1.73 5.6-1.07 5.1-2-1.08-1.62-5.37 1.07-5.1zm416.57 25.81c-1.29 1.33 2.27.92.44.05a.77.77 0 0 0-.44-.05zm25.73 12.62c-3.78 1.4-7.59 2.73-11.29 4.33 4.56.47 8.94-1.27 13.05-3.02.3-.99-1-1.45-1.76-1.31zm-434.63 1.67c-2.95.84-1.77 6.1 1.23 5.7 2.41-1.2 1.67-5.84-1.23-5.7zm-1.14 7.46c-3.33.56-2.25 6.56 1.05 6.05 2.46-1.14 2.08-6.26-1.05-6.05z"/></g></svg>