<svg xmlns="http://www.w3.org/2000/svg" viewBox="0 0 750 500"><path fill="#dbdbdb" d="M62.6 423c24.3-.2 73.4-.3 97.8-.4l-.4.4-.1-63.1.5.5c0-.1-99 .2-97.5-.5l-.3 63.1Zm0 0-.3-63.4 98-.2h.6v.5l-.2 63.1v.4h-.3c-24.4 0-73.5-.2-97.8-.4Z"/><path fill="#dbdbdb" d="m71.8 414 79.3-.4-.5.4v-45.2l.5.5h-39.6l-39.7-.2.3-.3-.3 45.3Zm0 0-.3-45.2v-.3h.4l39.6-.1 39.6-.1h.5V414.5h-.5l-79.2-.4ZM174.6 423c24.4-.2 73.4-.3 97.8-.4l-.4.4-.1-63.1.5.5c0-.1-99 .2-97.5-.5l-.3 63.1Zm0 0-.3-63.4 98.1-.2h.5v.5l-.1 63.1v.4h-.4c-24.4 0-73.4-.2-97.8-.4Z"/><path fill="#dbdbdb" d="m183.9 414 79.2-.4-.4.4v-45.2l.4.5h-39.6L184 369l.3-.3-.3 45.3Zm0 0-.3-45.2v-.3h.3l39.6-.1 39.6-.1h.5V414.5h-.5L184 414ZM286.7 423c24.3-.2 73.4-.3 97.8-.4l-.4.4-.1-63.1.5.5c0-.1-99 .2-97.5-.5l-.3 63Zm0 0-.3-63.4 98-.2h.6v.5l-.2 63.1v.4h-.3c-24.4 0-73.5-.2-97.8-.4Z"/><path fill="#dbdbdb" d="m296 414 79.2-.4-.4.4-.1-45.2.5.5h-39.6l-39.7-.2.4-.3-.4 45.3Zm0 0-.4-45.2v-.3h.3l39.7-.1 39.6-.1h.5V414.5h-.5l-79.3-.4Z"/><path fill="#ebebeb" d="M70.4 62.5v197.7H192V62.5ZM187.6 256h-113V66.8h113Z"/><path fill="#fff" d="M74.7 66.8h113v189.1h-113z"/><path fill="#ebebeb" d="M187.6 153.5h-113v-4.3h113z"/><path fill="#dbdbdb" d="M199.7 272.3H62.5v-12.2h137.2zM74.7 66.8h113v109.4h-113Zm109 4h-105v101.5h105Z"/><path fill="#dbdbdb" d="M148.4 66.8h2.1v105.5h-2.1zM111.8 66.8h2.1v105.5h-2.1z"/><path fill="#ebebeb" d="M255.2 62.5v197.7h121.4V62.5ZM372.4 256h-113V66.8h113Z"/><path fill="#fff" d="M259.4 66.8h113v189.1h-113z"/><path fill="#ebebeb" d="M372.4 153.5h-113v-4.3h113z"/><path fill="#dbdbdb" d="M384.5 272.4H247.3v-12.2h137.2zM259.4 66.8h113v109.4h-113Zm109 4h-105v101.5h105Z"/><path fill="#dbdbdb" d="M333.1 66.8h2.1v105.5h-2.1zM296.5 66.8h2.1v105.5h-2.1z"/><path fill="#263238" d="M273.3 446.3H66.9v-47.5h206.4z"/><path d="M273.3 446.3h-26.5v-47.5h26.5z" opacity=".1"/><path fill="#f4e3d7" d="M65.3 401.1h181.5v9.5H65.3zM65.3 412.2h181.5v9.5H65.3zM65.3 423.3h181.5v9.5H65.3zM65.3 434.4h181.5v9.5H65.3z"/><g opacity=".2"><path d="M65.3 401.1h181.5v9.5H65.3zM65.3 412.2h181.5v9.5H65.3zM65.3 423.3h181.5v9.5H65.3zM65.3 434.4h181.5v9.5H65.3z"/></g><path fill="#f4e3d7" d="M275.3 410.6h-28.5V401h28.5zM275.3 421.7h-28.5v-9.5h28.5zM275.3 432.8h-28.5v-9.5h28.5zM275.3 443.9h-28.5v-9.5h28.5z"/><g opacity=".4"><path d="M275.3 410.6h-28.5V401h28.5zM275.3 421.7h-28.5v-9.5h28.5zM275.3 432.8h-28.5v-9.5h28.5zM275.3 443.9h-28.5v-9.5h28.5z"/></g><path fill="#455a64" d="M242.5 380c6 3.1 11.4 16.6 2.4 21.9a12.2 12.2 0 0 1-14.8-1.5s-4 8.1-11.6 8.9c-6.2.6-11-5.6-11-5.6a9.6 9.6 0 0 1-7 3.7c-4.6.3-7-1.2-7-1.2a5 5 0 0 1-3.7 4.1c-3.3.8-7-2-7-2s-2 4.7-6.8 5.5-8.8-3.7-8.8-3.7-9 7.7-16.4-.3-1.9-14.8-1.9-14.8-6.2-7.7-2.5-16.5 14.5-9.2 14.5-9.2 1.1-13.3 10.6-17.5c10-4.4 16.6 4.3 16.6 4.3s8.8-9.6 16.4-8 8.6 6.9 8.6 6.9 6.3-4.7 11-2.8 7.9 7.5 7.9 7.5 8.4-1 12 6a12.3 12.3 0 0 1-1.5 14.3Z"/><path fill="#455a64" d="M256.4 384.6s17 8.8 11.2 17.2-19.1 1-21.5-6.8 10.3-10.4 10.3-10.4Z"/><path fill="#455a64" d="M245.8 392.8s-10.6-16.1-1.3-20.6 17 8.5 15.4 16.5-14 4-14 4ZM154.1 389s-8.3 17.6-18 10.6-2.5-20.4 5.8-22.3 12.2 11.8 12.2 11.8Z"/><path fill="#455a64" d="M151.9 391s5.2 9.6-1.6 11.7-10.5-5.7-8.4-10.2 10-1.6 10-1.6ZM259 380s10.7-2.3 10.8 4.8-8.4 8.5-12 5.3 1.1-10 1.1-10ZM138.5 399.5s-6 9.3-12.2 4c-5.4-4.5.6-11.9 5.5-12s6.7 8 6.7 8Z"/><path fill="#455a64" d="M267 401.2s-8.8-6.8-3-12.5c5.1-5 11.9 1.7 11.4 6.6s-8.5 5.9-8.5 5.9ZM158.9 363.4c2 2.2 3.8 8.8 3.8 8.8a14.7 14.7 0 0 1-7.9-4c-2.5-2.7-3.6-6.2-4.8-9.5 0-.2 6.7 2.3 8.9 4.7ZM217.2 353.8c-1 2.1-6.1 5.5-6.1 5.5-.8-2.5-1-4.8 0-7 1.2-2.7 3.8-4.6 6.2-6.4.2-.1 1 5.7-.1 8ZM140.6 369.9c2.6-.5 5.6-2.5 8.1-2.5 1.5 0 7.6 3 7.4 3.1a9.4 9.4 0 0 1-6.8 2.6 8.7 8.7 0 0 1-3.2-1 56.7 56.7 0 0 0-5.6-2c-.3-.1-.2-.1.1-.2ZM196.1 347.5c-.7 1.6-.9 4.2-2 5.6a21 21 0 0 1-4.8 2.8 6.5 6.5 0 0 1 1.4-4.8 6.2 6.2 0 0 1 1.9-1.5 41 41 0 0 0 3.5-2.3c.2 0 .1 0 0 .2ZM182 414c-.6-2 .5-6.8.5-6.8a10.3 10.3 0 0 1 3.6 5.1c.6 2.5.2 5-.2 7.6 0 .2-3.4-3.7-4-5.9ZM244.4 369.4c1.2-1.8 5.6-4.1 5.5-4.1a10.3 10.3 0 0 1-1.5 6c-1.4 2.2-3.6 3.6-5.8 5-.1 0 .6-5 1.8-7ZM224 407.3c.2-2.1 2.8-6.3 2.8-6.3a10.4 10.4 0 0 1 1.7 6c-.2 2.6-1.5 4.9-2.7 7.1 0 .2-2-4.6-1.8-6.8Z"/><path fill="#455a64" d="M185.4 353.1c-.7-2-.2-6.8-.2-6.8a10.7 10.7 0 0 1 4 4.8c.9 2.5.7 5 .6 7.5 0 .2-3.7-3.4-4.4-5.5ZM280.6 387.5c-1.7.6-3.6 2.4-5.4 2.6a20.8 20.8 0 0 1-5.4-1.3 6.5 6.5 0 0 1 4.4-2.6 6 6 0 0 1 2.3.3 38.1 38.1 0 0 0 4.2.8c.2 0 0 .1-.1.2Z"/><path fill="#455a64" d="M269 384c.9-1.8 4.6-5 4.6-5a10.7 10.7 0 0 1-.5 6.3c-1 2.4-2.9 4.1-4.7 5.9-.2 0-.4-5 .6-7.1ZM193.4 414.2c-1.7-.5-4.3-.3-5.9-1.2a21 21 0 0 1-3.5-4.4 6.7 6.7 0 0 1 5 .6 6.4 6.4 0 0 1 1.8 1.7 38.6 38.6 0 0 0 2.8 3.2c.2.2 0 .2-.2.1ZM133.2 393.6c-1.2-1.4-3.5-2.5-4.4-4.1a20.8 20.8 0 0 1-.8-5.6 6.6 6.6 0 0 1 4 3.2 6.2 6.2 0 0 1 .6 2.3 37.3 37.3 0 0 0 .8 4.2c0 .2 0 .1-.2 0ZM237.2 406.6c-1.7-.5-4.3-.2-5.9-1.1a21 21 0 0 1-3.5-4.4 6.6 6.6 0 0 1 5 .6 6 6 0 0 1 1.7 1.7 40.8 40.8 0 0 0 2.9 3.2c.1.1 0 .1-.2 0Z"/><path fill="#37474f" d="M200.7 396c-2.1 0-6.5-2.4-6.5-2.4a10.4 10.4 0 0 1 6-2c2.6 0 5 1.2 7.3 2.2 0 .1-4.6 2.3-6.8 2.2ZM162.5 389c-1.5 1.4-6.2 3-6.2 3a10.3 10.3 0 0 1 2.7-5.8c1.8-1.8 4.2-2.7 6.6-3.6.1 0-1.5 4.8-3.1 6.4ZM206.4 383.5c-1 1.5-1.5 4-2.8 5.3a21 21 0 0 1-5.2 2.3 6.7 6.7 0 0 1 2-4.8 6.2 6.2 0 0 1 2-1.1 42.4 42.4 0 0 0 4-1.9c.1 0 0 0 0 .2ZM236.2 383.1c1.3 1.6 2.5 6.4 2.5 6.4a10.3 10.3 0 0 1-5.5-3c-1.7-2-2.5-4.4-3.2-6.8a17 17 0 0 1 6.2 3.4ZM223 387.4c1.9-.3 4-1.7 5.9-1.6a21.3 21.3 0 0 1 5.1 2.4 6.6 6.6 0 0 1-4.8 1.7 6.4 6.4 0 0 1-2.3-.8 39.8 39.8 0 0 0-4-1.6l.2-.1ZM192.8 370.6c.1 1.8 1.2 4.1 1 6a21 21 0 0 1-3 4.8 6.7 6.7 0 0 1-1.2-5 6.3 6.3 0 0 1 1-2.2 39.7 39.7 0 0 0 2-3.7c.2-.2.2-.1.2 0ZM180.3 376.8c1.3-2 2-5.1 3.8-6.7 1-.9 7-2.7 6.9-2.5a8.6 8.6 0 0 1-2.9 6 8 8 0 0 1-2.7 1.3 54.4 54.4 0 0 0-5 2.1c-.4.2-.3 0-.1-.2Z"/><path fill="#455a64" d="M181.7 409.4c-.8 1.7-1 4.3-2.2 5.7a21.4 21.4 0 0 1-4.9 2.7 6.6 6.6 0 0 1 1.5-4.9 6.2 6.2 0 0 1 2-1.4 39.7 39.7 0 0 0 3.5-2.2c.2-.2.2 0 0 .1ZM132.3 391.4c-1.6 1-3 3.1-4.8 3.7a21.4 21.4 0 0 1-5.6-.2 6.7 6.7 0 0 1 3.7-3.4 6.2 6.2 0 0 1 2.4-.2 37.9 37.9 0 0 0 4.3 0c.2 0 .1 0 0 .1ZM251.4 374.7c-1.2 1.4-2 3.9-3.5 5a21.4 21.4 0 0 1-5.5 1.3 6.7 6.7 0 0 1 2.7-4.3 6.2 6.2 0 0 1 2.3-.9 38.3 38.3 0 0 0 4-1.2c.3-.1.2 0 0 .1Z"/><path fill="#455a64" d="M178.7 380c6 3.1 11.5 16.6 2.4 21.9a12.2 12.2 0 0 1-14.8-1.5s-4 8.1-11.6 8.9c-6.2.6-11-5.6-11-5.6a9.6 9.6 0 0 1-7 3.7c-4.6.3-7-1.2-7-1.2a5 5 0 0 1-3.7 4.1c-3.3.8-7-2-7-2s-2 4.7-6.8 5.5-8.8-3.7-8.8-3.7-9 7.7-16.4-.3S85 395 85 395s-6.2-7.7-2.5-16.5 14.5-9.2 14.5-9.2 1.1-13.3 10.6-17.5c10-4.4 16.6 4.3 16.6 4.3s8.8-9.6 16.4-8 8.6 6.9 8.6 6.9 6.2-4.7 11-2.8 7.9 7.5 7.9 7.5 8.4-1 12 6a12.3 12.3 0 0 1-1.5 14.3Z"/><path fill="#455a64" d="M192.6 384.6s17 8.8 11.2 17.2-19.1 1-21.5-6.8 10.3-10.4 10.3-10.4Z"/><path fill="#455a64" d="M182 392.8s-10.7-16.1-1.4-20.6 17.1 8.5 15.4 16.5-14 4-14 4ZM90.3 389s-8.3 17.6-18 10.6-2.5-20.4 5.8-22.3S90.3 389 90.3 389Z"/><path fill="#455a64" d="M88 391s5.3 9.6-1.5 11.7-10.5-5.7-8.4-10.2 10-1.6 10-1.6ZM195.1 380s10.8-2.3 10.9 4.8-8.4 8.5-12 5.3 1.1-10 1.1-10ZM74.7 399.5s-6 9.3-12.2 4c-5.4-4.5.6-11.9 5.5-12s6.7 8 6.7 8Z"/><path fill="#455a64" d="M203.1 401.2s-8.7-6.8-2.8-12.5c5-5 11.8 1.7 11.3 6.6s-8.5 5.9-8.5 5.9ZM95 363.4c2 2.2 4 8.8 4 8.8a14.7 14.7 0 0 1-8-4c-2.5-2.7-3.6-6.2-4.8-9.5 0-.2 6.8 2.3 8.9 4.7ZM153.4 353.8c-1 2.1-6.1 5.5-6.1 5.5-.8-2.5-1-4.8 0-7 1.2-2.7 3.8-4.6 6.2-6.4.2-.1 1 5.7-.1 8ZM76.8 369.9c2.6-.5 5.6-2.5 8.1-2.5 1.5 0 7.6 3 7.4 3.1a9.4 9.4 0 0 1-6.8 2.6 8.7 8.7 0 0 1-3.2-1 56.7 56.7 0 0 0-5.6-2c-.3-.1-.2-.1.1-.2ZM132.3 347.5c-.7 1.6-.9 4.2-2 5.6a21 21 0 0 1-4.8 2.8 6.5 6.5 0 0 1 1.4-4.8 6.2 6.2 0 0 1 1.9-1.5 39.5 39.5 0 0 0 3.5-2.3c.2 0 .1 0 0 .2ZM118.1 414c-.5-2 .6-6.8.6-6.8a10.3 10.3 0 0 1 3.6 5.1c.6 2.5.2 5-.2 7.6 0 .2-3.4-3.7-4-5.9ZM180.7 369.4c1.2-1.8 5.5-4.1 5.5-4.1a10.3 10.3 0 0 1-1.6 6c-1.4 2.2-3.6 3.6-5.8 5-.1 0 .5-5 1.8-7ZM146.6 408.6c1.8-1 6.7-1.5 6.7-1.5a10.3 10.3 0 0 1-3.8 5c-2.2 1.4-4.8 1.7-7.3 2.1-.1 0 2.5-4.4 4.4-5.6Z"/><path fill="#455a64" d="M121.6 353.1c-.7-2-.2-6.8-.2-6.8a10.7 10.7 0 0 1 4 4.8c.9 2.5.7 5 .6 7.5 0 .2-3.7-3.4-4.4-5.5ZM216.8 387.5c-1.7.6-3.5 2.4-5.3 2.6a20.8 20.8 0 0 1-5.5-1.3 6.5 6.5 0 0 1 4.4-2.6 6 6 0 0 1 2.3.3 38.6 38.6 0 0 0 4.2.8c.2 0 .1.1-.1.2Z"/><path fill="#455a64" d="M205.2 384c.8-1.8 4.6-5 4.6-5a10.7 10.7 0 0 1-.5 6.3c-1 2.4-3 4.1-4.8 5.9 0 0-.3-5 .7-7.1ZM129.7 414.2c-1.8-.5-4.4-.3-6-1.2a21 21 0 0 1-3.5-4.4 6.7 6.7 0 0 1 5 .6 6.4 6.4 0 0 1 1.8 1.7 38.6 38.6 0 0 0 2.8 3.2c.2.2 0 .2-.1.1ZM69.4 393.6c-1.2-1.4-3.6-2.5-4.4-4.1a20.8 20.8 0 0 1-.8-5.6 6.6 6.6 0 0 1 4 3.2 6.2 6.2 0 0 1 .6 2.3 37.3 37.3 0 0 0 .8 4.2c0 .2 0 .1-.2 0ZM155 418.9c-.5-1.8-2.3-3.6-2.5-5.5a21.1 21.1 0 0 1 1.3-5.4 6.7 6.7 0 0 1 2.6 4.4 6.2 6.2 0 0 1-.3 2.4 39.5 39.5 0 0 0-.8 4.1c0 .3-.1.2-.2 0Z"/><path fill="#37474f" d="M136.9 396c-2.1 0-6.5-2.4-6.5-2.4a10.4 10.4 0 0 1 6-2c2.6 0 5 1.2 7.3 2.2 0 .1-4.6 2.3-6.8 2.2ZM98.7 389c-1.5 1.4-6.2 3-6.2 3a10.4 10.4 0 0 1 2.7-5.8c1.8-1.8 4.2-2.7 6.6-3.6a17 17 0 0 1-3.1 6.4ZM142.6 383.5c-1 1.5-1.5 4-2.8 5.3a21 21 0 0 1-5.2 2.3 6.7 6.7 0 0 1 2-4.8 6.2 6.2 0 0 1 2-1.1 42.4 42.4 0 0 0 4-1.9c.1 0 0 0 0 .2ZM172.4 383.1c1.3 1.6 2.5 6.4 2.5 6.4a10.3 10.3 0 0 1-5.5-3c-1.7-2-2.5-4.4-3.2-6.8a17 17 0 0 1 6.2 3.4ZM159.3 387.4c1.8-.3 4-1.7 5.8-1.6a21.3 21.3 0 0 1 5.1 2.4 6.6 6.6 0 0 1-4.8 1.7 6.4 6.4 0 0 1-2.3-.8 40.6 40.6 0 0 0-4-1.6l.2-.1ZM129 370.6c.1 1.8 1.2 4.1.9 6a21 21 0 0 1-3 4.8 6.7 6.7 0 0 1-1-5 6 6 0 0 1 1-2.2 39.7 39.7 0 0 0 2-3.7c.1-.2.1-.1.1 0ZM116.5 376.8c1.3-2 2-5.1 3.8-6.7 1-.9 7-2.7 6.9-2.5a8.6 8.6 0 0 1-2.9 6 8 8 0 0 1-2.7 1.3 49.3 49.3 0 0 0-5.1 2Z"/><path fill="#455a64" d="M117.9 409.4c-.8 1.7-1 4.3-2.2 5.7a21.4 21.4 0 0 1-4.9 2.7 6.6 6.6 0 0 1 1.5-4.9 6.2 6.2 0 0 1 2-1.4 39.7 39.7 0 0 0 3.5-2.2c.2-.2.2 0 0 .1ZM68.5 391.4c-1.6 1-3 3.1-4.8 3.7a21.4 21.4 0 0 1-5.6-.2 6.7 6.7 0 0 1 3.7-3.4 6.2 6.2 0 0 1 2.4-.2 37.8 37.8 0 0 0 4.3 0c.2 0 .1 0 0 .1ZM187.7 374.7c-1.3 1.4-2 3.9-3.6 5a21.5 21.5 0 0 1-5.5 1.3 6.6 6.6 0 0 1 2.7-4.3 6.2 6.2 0 0 1 2.3-.9 38.3 38.3 0 0 0 4-1.2c.3-.1.2 0 0 .1Z"/><path fill="#f4e3d7" d="M216 371c.8 1 .8 3.4 4.8 3.4s6.5-1.7 6.9-4.1c.2-1.7 5-1.8 3.3-9-.8-3.2-3.8-2.8-5.4-4.2-1.3-1.1-2.5-4-7.5-2-4.4 1.9-2.8 3.7-4 5.2s-2.5 2.3-2.4 5c.1 5.4 3.2 4.4 4.3 5.8Z"/><path d="M216 371c.8 1 .8 3.4 4.8 3.4s6.5-1.7 6.9-4.1c.2-1.7 5-1.8 3.3-9-.8-3.2-3.8-2.8-5.4-4.2-1.3-1.1-2.5-4-7.5-2-4.4 1.9-2.8 3.7-4 5.2s-2.5 2.3-2.4 5c.1 5.4 3.2 4.4 4.3 5.8Z" opacity=".2"/><path fill="#f4e3d7" d="M218.6 356.2c-1.3.1-3.2-1-5.3 2.4s-2 6.4 0 8c1.2 1-1.2 5.2 6 7.5 3 1 4.3-1.7 6.3-2.3 1.6-.6 4.6 0 5.5-5.5.8-4.6-1.6-4.2-2.3-6s-.6-3.3-3-4.7c-4.6-2.7-5.4.4-7.2.6Z"/><path d="M216.7 367.5s3.8 4.5 9 1.6c0 0-5.3 6-9-1.6ZM227 368.5s1.6-7.6-5.6-10.5c0 0 10.6.4 5.6 10.5Z" opacity=".2"/><path d="M225 362.9s-3.1-3.5-7.2-1c0 0 4-5 7.2 1ZM221 368.8s4.7-.6 5-5.3c-.1 0 1.8 6.1-5 5.3Z" opacity=".2"/><path d="M219.3 366.3a3.7 3.7 0 0 0 4.6-.6s-1.6 3.8-4.6.6Z" opacity=".2"/><path d="M219.5 363.3a2.8 2.8 0 0 0 2.2 2.7s-3.1.4-2.2-2.8ZM222.4 366.1a2.8 2.8 0 0 0-2.2-2.7s3-.5 2.2 2.7ZM224.4 365.7a3.7 3.7 0 0 0-3.2-3.3s4-1 3.2 3.3Z" opacity=".2"/><path d="M219.9 361.4a3.7 3.7 0 0 0-.9 4.6s-3.1-2.7.9-4.6Z" opacity=".2"/><path d="M217 362.5s-.3 4.6 4.3 5.9c0 0-6.4.5-4.3-6Z" opacity=".2"/><path d="M219.5 359s-4.5 1.5-3.8 6.2c0 0-3-5.7 3.8-6.1Z" opacity=".2"/><path fill="#f4e3d7" d="M156.2 381.5c1.2.6 2.2 2.6 5.8.8s5-4.4 4.3-6.8c-.6-1.6 3.7-3.8-1.2-9.5-2-2.5-4.6-.8-6.6-1.3-1.7-.4-4-2.4-7.6 1.7-3.1 3.6-.9 4.5-1.2 6.4s-1.2 3.1 0 5.5c2.6 4.7 5 2.5 6.5 3.2Z"/><path d="M156.2 381.5c1.2.6 2.2 2.6 5.8.8s5-4.4 4.3-6.8c-.6-1.6 3.7-3.8-1.2-9.5-2-2.5-4.6-.8-6.6-1.3-1.7-.4-4-2.4-7.6 1.7-3.1 3.6-.9 4.5-1.2 6.4s-1.2 3.1 0 5.5c2.6 4.7 5 2.5 6.5 3.2Z" opacity=".2"/><path fill="#f4e3d7" d="M151.8 367c-1 .8-3.3.5-3.6 4.6s1 6.6 3.5 7.2c1.7.3 1.4 5.1 8.8 4 3.1-.5 3-3.6 4.5-5 1.3-1.2 4.2-2.2 2.6-7.4-1.5-4.5-3.4-3-4.9-4.3s-2-2.7-4.7-2.9c-5.4-.2-4.7 3-6.2 3.9Z"/><path d="M155.3 378s5.3 2.3 8.6-2.6c0 0-1.9 7.8-8.6 2.6ZM164.9 374.3s-2-7.5-9.8-6.9c0 0 9.6-4.4 9.8 6.9Z" opacity=".2"/><path d="M160.5 370.1s-4.4-1.6-6.9 2.4c0 0 1.3-6.3 6.9-2.4ZM159.7 377.3s3.8-2.7 2-7c0 0 4.4 4.6-2 7Z" opacity=".2"/><path d="M157 375.8a3.7 3.7 0 0 0 3.9-2.6s.2 4.1-3.9 2.6Z" opacity=".2"/><path d="M155.8 373a2.8 2.8 0 0 0 3.2 1.5s-2.6 1.7-3.2-1.5ZM159.7 374.2a2.8 2.8 0 0 0-3.2-1.4s2.5-1.8 3.2 1.4ZM161.3 373a3.7 3.7 0 0 0-4.4-1.5s3.1-2.8 4.4 1.5Z" opacity=".2"/><path d="M155.3 371.2a3.7 3.7 0 0 0 1.3 4.5s-4-1-1.3-4.5Z" opacity=".2"/><path d="M153.3 373.4s1.8 4.3 6.4 3.3c0 0-5.5 3.4-6.4-3.3Z" opacity=".2"/><path d="M154 369.3s-3.4 3.3-.7 7.1c0 0-5.2-3.7.6-7.1Z" opacity=".2"/><path fill="#f4e3d7" d="M180.3 363.4c.6.9.6 2.9 4.1 2.8s5.6-1.4 5.9-3.5c.2-1.5 4.3-1.5 2.8-7.8-.6-2.7-3.2-2.4-4.6-3.5-1-1-2.1-3.5-6.5-1.7-3.7 1.5-2.3 3.1-3.4 4.4s-2.1 2-2 4.3c0 4.6 2.7 3.8 3.7 5Z"/><path d="M180.3 363.4c.6.9.6 2.9 4.1 2.8s5.6-1.4 5.9-3.5c.2-1.5 4.3-1.5 2.8-7.8-.6-2.7-3.2-2.4-4.6-3.5-1-1-2.1-3.5-6.5-1.7-3.7 1.5-2.3 3.1-3.4 4.4s-2.1 2-2 4.3c0 4.6 2.7 3.8 3.7 5Z" opacity=".2"/><path fill="#f4e3d7" d="M182.5 350.6c-1.1.1-2.7-1-4.6 2s-1.7 5.5 0 7c1 .8-1 4.4 5 6.4 2.7.9 3.8-1.5 5.6-2 1.4-.5 4 0 4.8-4.7.6-4-1.4-3.7-2-5.2s-.6-2.9-2.6-4c-4-2.4-4.7.3-6.2.5Z"/><path d="M180.9 360.3s3.2 3.9 7.6 1.4c0 0-4.5 5.2-7.6-1.4ZM189.7 361.2s1.4-6.6-4.8-9c0 0 9.1.3 4.8 9Z" opacity=".2"/><path d="M188 356.3a5 5 0 0 0-6.2-.9s3.4-4.3 6.2 1ZM184.5 361.4a5 5 0 0 0 4.3-4.5s1.6 5.3-4.3 4.6Z" opacity=".2"/><path d="M183 359.3a3.2 3.2 0 0 0 4-.5s-1.3 3.3-4 .5ZM183.3 356.6a2.4 2.4 0 0 0 1.8 2.4s-2.6.4-1.8-2.4Z" opacity=".2"/><path d="M185.8 359.1a2.4 2.4 0 0 0-2-2.3s2.7-.4 2 2.3ZM187.5 358.8a3.2 3.2 0 0 0-2.8-2.9s3.5-.8 2.8 2.9ZM183.6 355.1a3.2 3.2 0 0 0-.8 4s-2.6-2.4.8-4Z" opacity=".2"/><path d="M181.2 356a5 5 0 0 0 3.6 5s-5.5.5-3.6-5Z" opacity=".2"/><path d="M183.3 353a4.9 4.9 0 0 0-3.3 5.3s-2.6-4.8 3.3-5.2Z" opacity=".2"/><path fill="#f4e3d7" d="M189 394.4c.1 1.1-1 2.7 1.9 4.7s5.4 2 6.8.4c1-1 4.5 1.2 6.8-4.8 1-2.6-1.4-3.8-1.8-5.6-.4-1.4.2-4-4.4-5-4-.8-3.7 1.2-5.3 1.8s-3 .4-4.2 2.3c-2.5 3.9.2 4.7.3 6.2Z"/><path d="M189 394.4c.1 1.1-1 2.7 1.9 4.7s5.4 2 6.8.4c1-1 4.5 1.2 6.8-4.8 1-2.6-1.4-3.8-1.8-5.6-.4-1.4.2-4-4.4-5-4-.8-3.7 1.2-5.3 1.8s-3 .4-4.2 2.3c-2.5 3.9.2 4.7.3 6.2Z" opacity=".2"/><path fill="#f4e3d7" d="M198.2 385.1c-1-.5-1.8-2.3-5-.9s-4.5 3.6-4 5.6c.5 1.5-3.3 3.2.7 8.3 1.6 2.2 4 .9 5.6 1.4 1.4.4 3.4 2.3 6.6-1.1 2.8-3 1-3.8 1.3-5.5s1.2-2.6.2-4.7c-2-4.2-4.1-2.4-5.4-3Z"/><path d="M191.3 392.2s.5 5 5.5 5.5c0 0-6.6 1.7-5.5-5.5ZM198.1 398s4.8-4.7 1.1-10.3c0 0 7.4 5.4-1 10.2Z" opacity=".2"/><path d="M199.4 393a5 5 0 0 0-4.6-4.3s5.3-1.6 4.6 4.2ZM193.7 395.2a5 5 0 0 0 6-1.4s-1.6 5.3-6 1.4Z" opacity=".2"/><path d="M193.7 392.6a3.2 3.2 0 0 0 3.6 1.8s-3 2-3.6-1.8Z" opacity=".2"/><path d="M195.3 390.5a2.4 2.4 0 0 0 .2 3s-2.3-1.1-.2-3ZM196 394a2.4 2.4 0 0 0-.2-3s2.4 1.1.2 3ZM197.7 394.7a3.2 3.2 0 0 0-.7-4s3.3 1.3.7 4Z" opacity=".2"/><path d="M196.5 389.4a3.2 3.2 0 0 0-2.8 2.9s-1-3.5 2.8-2.9Z" opacity=".2"/><path d="M194 388.8a5 5 0 0 0 .1 6.2s-4.8-2.7-.1-6.2Z" opacity=".2"/><path d="M197.4 387.6a4.9 4.9 0 0 0-5.7 2.5s.6-5.5 5.7-2.5Z" opacity=".2"/><path fill="#f4e3d7" d="M93.6 403.5c.1 1.1-1 2.7 1.9 4.7s5.4 2 6.8.4c1-1 4.5 1.2 6.8-4.8 1-2.6-1.4-3.8-1.8-5.6-.4-1.4.2-4-4.4-5-4-.8-3.8 1.3-5.4 1.8s-2.8.4-4.1 2.3c-2.5 3.9.2 4.7.2 6.2Z"/><path d="M93.6 403.5c.1 1.1-1 2.7 1.9 4.7s5.4 2 6.8.4c1-1 4.5 1.2 6.8-4.8 1-2.6-1.4-3.8-1.8-5.6-.4-1.4.2-4-4.4-5-4-.8-3.8 1.3-5.4 1.8s-2.8.4-4.1 2.3c-2.5 3.9.2 4.7.2 6.2Z" opacity=".2"/><path fill="#f4e3d7" d="M102.8 394.2c-1-.5-1.8-2.3-5-.9s-4.6 3.6-4 5.7c.4 1.4-3.3 3.1.6 8.2 1.7 2.2 4 .9 5.7 1.4 1.4.4 3.3 2.3 6.5-1.1 2.9-3 1-3.8 1.3-5.5s1.2-2.6.2-4.7c-2-4.2-4-2.4-5.3-3Z"/><path d="M96 401.3s.4 5 5.4 5.5c0 0-6.6 1.8-5.5-5.5ZM102.7 407s4.8-4.6 1.1-10.2c0 0 7.3 5.4-1.1 10.3Z" opacity=".2"/><path d="M104 402a5 5 0 0 0-4.6-4.2s5.3-1.6 4.6 4.2ZM98.3 404.3a5 5 0 0 0 6-1.4s-1.6 5.3-6 1.4Z" opacity=".2"/><path d="M98.3 401.7a3.2 3.2 0 0 0 3.6 1.9s-3 1.9-3.6-1.9Z" opacity=".2"/><path d="M100 399.6a2.4 2.4 0 0 0 .1 3s-2.4-1.1-.2-3ZM100.6 403.1a2.4 2.4 0 0 0-.2-3s2.4 1.2.2 3ZM102.2 403.8a3.2 3.2 0 0 0-.7-4s3.4 1.3.7 4Z" opacity=".2"/><path d="M101 398.6a3.2 3.2 0 0 0-2.8 2.8s-.8-3.5 2.9-2.8Z" opacity=".2"/><path d="M98.6 397.9a5 5 0 0 0 .1 6.2s-4.8-2.7-.1-6.2Z" opacity=".2"/><path d="M102 396.7a4.9 4.9 0 0 0-5.7 2.5s.6-5.5 5.7-2.5Z" opacity=".2"/><path fill="#f4e3d7" d="M134.7 384.3c-1 .5-3 .1-3.5 3.6s.4 5.7 2.5 6.4c1.4.4.7 4.5 7.1 4.1 2.8-.1 3-2.8 4.3-3.9 1.2-1 3.8-1.5 2.8-6.1-.9-4-2.7-2.9-3.8-4.1s-1.5-2.5-3.9-2.8c-4.5-.7-4.2 2-5.5 2.8Z"/><path d="M134.7 384.3c-1 .5-3 .1-3.5 3.6s.4 5.7 2.5 6.4c1.4.4.7 4.5 7.1 4.1 2.8-.1 3-2.8 4.3-3.9 1.2-1 3.8-1.5 2.8-6.1-.9-4-2.7-2.9-3.8-4.1s-1.5-2.5-3.9-2.8c-4.5-.7-4.2 2-5.5 2.8Z" opacity=".2"/><path fill="#f4e3d7" d="M147 388.7c0-1.1 1.3-2.5-1.3-4.9s-5.1-2.6-6.8-1.2c-1 1-4.2-1.7-7.2 4-1.3 2.4.8 4 1 5.7.2 1.4-.6 4 3.8 5.5 3.8 1.3 3.8-.7 5.5-1s2.9 0 4.4-1.9c3-3.5.4-4.7.5-6.2Z"/><path d="M137.7 385.4s-4.4 2.6-2.8 7.3c0 0-4.3-5.3 2.8-7.3ZM135.2 394s6.3 2.5 9.8-3.2c0 0-2 8.9-9.8 3.2Z" opacity=".2"/><path d="M140.3 393a5 5 0 0 0 2-5.8s3.6 4.1-2 5.9ZM135.9 388.8a5 5 0 0 0 3.8 5s-5.5.7-3.8-5Z" opacity=".2"/><path d="M138.3 387.8a3.2 3.2 0 0 0-.3 4s-3-2 .3-4Z" opacity=".2"/><path d="M140.8 388.4a2.4 2.4 0 0 0-2.6 1.4s0-2.7 2.6-1.4ZM138 390.4a2.4 2.4 0 0 0 2.6-1.4s0 2.6-2.6 1.4ZM138 392.2a3.2 3.2 0 0 0 3.3-2.2s.2 3.5-3.3 2.2Z" opacity=".2"/><path d="M142.3 389a3.2 3.2 0 0 0-3.8-1.4s2.8-2.3 3.8 1.4Z" opacity=".2"/><path d="M141.9 386.4a5 5 0 0 0-5.7 2.7s.5-5.5 5.7-2.7Z" opacity=".2"/><path d="M144.4 389a5 5 0 0 0-4.7-4.2s5.3-1.6 4.7 4.2Z" opacity=".2"/><path fill="#f4e3d7" d="M242 393c1.2.6 2.2 2.6 5.8.7s5-4.3 4.2-6.7c-.5-1.6 3.7-3.8-1.1-9.6-2-2.4-4.6-.7-6.7-1.2-1.6-.5-4-2.5-7.5 1.7-3.1 3.5-.9 4.4-1.2 6.4s-1.2 3.1 0 5.5c2.6 4.7 5 2.4 6.5 3.2Z"/><path d="M242 393c1.2.6 2.2 2.6 5.8.7s5-4.3 4.2-6.7c-.5-1.6 3.7-3.8-1.1-9.6-2-2.4-4.6-.7-6.7-1.2-1.6-.5-4-2.5-7.5 1.7-3.1 3.5-.9 4.4-1.2 6.4s-1.2 3.1 0 5.5c2.6 4.7 5 2.4 6.5 3.2Z" opacity=".2"/><path fill="#f4e3d7" d="M237.6 378.5c-1 .7-3.3.5-3.6 4.6s1 6.6 3.5 7.1c1.7.4 1.3 5.2 8.7 4 3.2-.5 3.1-3.5 4.6-5 1.2-1.2 4.2-2.1 2.5-7.3-1.4-4.5-3.3-3-4.8-4.4s-2-2.7-4.7-2.8c-5.4-.3-4.7 2.9-6.2 3.8Z"/><path d="M241 389.4s5.4 2.4 8.7-2.5c0 0-2 7.8-8.7 2.5ZM250.7 385.7s-2.1-7.5-9.8-6.8c0 0 9.6-4.4 9.8 6.8Z" opacity=".2"/><path d="M246.3 381.6s-4.4-1.7-6.9 2.3c0 0 1.3-6.3 6.9-2.3ZM245.4 388.7s3.9-2.7 2-7c0 0 4.4 4.7-2 7Z" opacity=".2"/><path d="M242.8 387.3a3.7 3.7 0 0 0 3.8-2.7s.3 4.2-3.8 2.6Z" opacity=".2"/><path d="M241.6 384.4a2.8 2.8 0 0 0 3.2 1.5s-2.6 1.8-3.2-1.5ZM245.5 385.7a2.8 2.8 0 0 0-3.2-1.5s2.5-1.8 3.2 1.5ZM247 384.4a3.7 3.7 0 0 0-4.3-1.5s3.1-2.7 4.4 1.5Z" opacity=".2"/><path d="M241.1 382.6a3.7 3.7 0 0 0 1.3 4.5s-4-1-1.3-4.5Z" opacity=".2"/><path d="M239 384.8s1.8 4.4 6.4 3.4c0 0-5.4 3.4-6.4-3.4Z" opacity=".2"/><path d="M239.7 380.7s-3.3 3.3-.6 7.2c0 0-5.3-3.7.6-7.2Z" opacity=".2"/><path fill="#f4e3d7" d="M79.3 394.7c1.2.5 2.1 2.6 5.8.7s5-4.4 4.2-6.7c-.6-1.7 3.7-3.9-1.1-9.6-2.1-2.5-4.7-.8-6.7-1.3-1.7-.4-4-2.4-7.6 1.7-3 3.6-.8 4.5-1.2 6.4s-1.2 3.2.1 5.6c2.6 4.7 4.9 2.4 6.5 3.2Z"/><path d="M79.3 394.7c1.2.5 2.1 2.6 5.8.7s5-4.4 4.2-6.7c-.6-1.7 3.7-3.9-1.1-9.6-2.1-2.5-4.7-.8-6.7-1.3-1.7-.4-4-2.4-7.6 1.7-3 3.6-.8 4.5-1.2 6.4s-1.2 3.2.1 5.6c2.6 4.7 4.9 2.4 6.5 3.2Z" opacity=".2"/><path fill="#f4e3d7" d="M74.9 380.2c-1.1.7-3.4.5-3.7 4.5s1.1 6.6 3.5 7.2c1.7.4 1.4 5.2 8.8 4 3.2-.5 3-3.6 4.6-5 1.2-1.2 4.1-2.2 2.5-7.4-1.4-4.5-3.4-3-4.8-4.3s-2-2.7-4.8-2.9c-5.3-.2-4.7 3-6.1 3.9Z"/><path d="M78.3 391.1s5.4 2.3 8.7-2.6c0 0-2 7.8-8.7 2.6ZM88 387.4s-2-7.5-9.9-6.8c0 0 9.7-4.5 9.8 6.8Z" opacity=".2"/><path d="M83.5 383.3s-4.3-1.7-6.8 2.3c0 0 1.3-6.3 6.8-2.3ZM82.7 390.4s3.9-2.7 2-7c0 0 4.4 4.6-2 7Z" opacity=".2"/><path d="M80 389a3.7 3.7 0 0 0 3.9-2.7s.3 4.1-3.9 2.6Z" opacity=".2"/><path d="M78.8 386a2.8 2.8 0 0 0 3.2 1.6s-2.5 1.8-3.2-1.5ZM82.7 387.3a2.8 2.8 0 0 0-3.2-1.4s2.6-1.8 3.2 1.4ZM84.4 386a3.7 3.7 0 0 0-4.5-1.4s3.2-2.7 4.5 1.5Z" opacity=".2"/><path d="M78.4 384.3a3.7 3.7 0 0 0 1.3 4.5s-4-1-1.3-4.5Z" opacity=".2"/><path d="M76.3 386.5s1.8 4.3 6.4 3.3c0 0-5.4 3.4-6.4-3.3Z" opacity=".2"/><path d="M77 382.4s-3.3 3.3-.6 7.2c0 0-5.3-3.8.6-7.2Z" opacity=".2"/><path fill="#f4e3d7" d="M109 373c1 .6 2 2.6 5.7.7s5-4.3 4.2-6.7c-.5-1.6 3.7-3.8-1.1-9.6-2-2.4-4.6-.7-6.7-1.2-1.6-.5-4-2.5-7.6 1.7-3 3.5-.8 4.4-1.1 6.4s-1.2 3.1 0 5.5c2.6 4.7 5 2.5 6.5 3.2Z"/><path d="M109 373c1 .6 2 2.6 5.7.7s5-4.3 4.2-6.7c-.5-1.6 3.7-3.8-1.1-9.6-2-2.4-4.6-.7-6.7-1.2-1.6-.5-4-2.5-7.6 1.7-3 3.5-.8 4.4-1.1 6.4s-1.2 3.1 0 5.5c2.6 4.7 5 2.5 6.5 3.2Z" opacity=".2"/><path fill="#f4e3d7" d="M104.5 358.6c-1 .7-3.3.4-3.6 4.5s1 6.6 3.5 7.2c1.6.3 1.3 5.1 8.7 4 3.2-.5 3.1-3.6 4.6-5 1.2-1.2 4.2-2.2 2.5-7.4-1.4-4.5-3.3-3-4.8-4.4s-2-2.6-4.8-2.8c-5.3-.2-4.6 3-6 3.9Z"/><path d="M108 369.5s5.3 2.3 8.6-2.6c0 0-2 7.8-8.7 2.6ZM117.6 365.8s-2.1-7.5-9.8-6.9c0 0 9.6-4.4 9.8 6.9Z" opacity=".2"/><path d="M113.2 361.7s-4.4-1.7-6.9 2.3c0 0 1.3-6.3 6.9-2.3ZM112.3 368.8s4-2.7 2-7c0 0 4.5 4.6-2 7Z" opacity=".2"/><path d="M109.7 367.3a3.7 3.7 0 0 0 3.8-2.6s.3 4.1-3.8 2.6Z" opacity=".2"/><path d="M108.5 364.5a2.8 2.8 0 0 0 3.2 1.5s-2.6 1.7-3.2-1.5ZM112.4 365.7a2.8 2.8 0 0 0-3.2-1.4s2.5-1.8 3.2 1.4ZM114 364.4a3.7 3.7 0 0 0-4.4-1.4s3.1-2.8 4.4 1.4Z" opacity=".2"/><path d="M108 362.7a3.7 3.7 0 0 0 1.3 4.5s-4-1-1.3-4.5Z" opacity=".2"/><path d="M106 364.9s1.8 4.3 6.4 3.3c0 0-5.5 3.4-6.4-3.3Z" opacity=".2"/><path d="M106.6 360.8s-3.3 3.3-.6 7.1c0 0-5.3-3.7.6-7.1Z" opacity=".2"/><path fill="#ebebeb" d="M370.5 425.3h317.9v20.9H370.5z"/><path fill="#c7c7c7" d="M366.9 421h325v4.3h-325z"/><path fill="#ebebeb" d="M389.4 400.1h280V421h-280z"/><path fill="#c7c7c7" d="M385.8 395.8H673v4.3H385.8z"/><path fill="#ebebeb" d="M404.4 62.5h250v333.3h-250z"/><path fill="#a6a6a6" d="M529.4 70.5h117v325.3h-117z"/><path fill="#dbdbdb" d="M412.4 70.5h117v325.3h-117z"/><path fill="#ebebeb" d="M429.8 88.9H512v161.2h-82.2z"/><g fill="#fff" opacity=".6"><path d="M512 88.9v19.5L429.8 207v-46.7l59.5-71.4H512zM512 190.9v46.7l-10.5 12.6h-38.9l49.4-59.3zM512 170.4v9.8l-58.3 70h-8.2l66.5-79.8zM481 88.9l-51.2 61.4V131l35.1-42.1H481z"/></g><path fill="#ebebeb" d="M498.8 285.7c-18.3.1-43.7.5-61.7.4h-.4V268H468l30.8.3h.2v.2l-.2 17.3Zm0 0-.3-17.3.3.2-30.9.2h-30.8l.5-.4v17.3l-.4-.5c17.7 0 43.6.3 61.6.5Z"/><path fill="#f4e3d7" d="M514.3 257.9h7.2v27.8h-7.2z"/><path fill="#ebebeb" d="m510.2 369.3-78.6.3h-.4v-.3l-.1-58.5v-.5h.5l79 .2c0 17.1-.3 41.5-.4 58.8Zm0 0c-.2-17.2-.2-41.5-.3-58.5l.3.3-78.6.2.5-.5-.1 58.5-.4-.4 78.7.4Z"/><path fill="#ebebeb" d="m439.5 319.1 62.8-.4h.4v42.8h-.4c-15.7 0-47.2 0-62.8-.2h-.3v-.3l.3-42Zm0 0 .3 42-.3-.4 31.4-.1h31.4l-.5.4v-41.9l.5.4-62.8-.4Z"/><path fill="#dbdbdb" d="m550.9 383.2 95.5 12.6V70.5L550.9 87v296.2z"/><path fill="#ebebeb" d="M565.1 250.5v-149l67.1-10.4v159.1l-67.1.3z"/><g fill="#fff" opacity=".6"><path d="M565.1 250.5v-18l67.1-98.8v46.1l-48.5 70.6-18.6.1zM565.1 156.3v-43.1l8.6-13 31.8-4.9-40.4 61zM565.1 175.2v-9.1l47.6-71.9 6.7-1.1-54.3 82.1zM590.5 250.4l41.7-60.8v19.1l-28.6 41.6-13.1.1z"/></g><path fill="#ebebeb" d="M576 283.6c14.8.3 35.7.6 50.3 1l-.5.5v-17l.5.4-25.1-.3-25.2-.5.3-.2-.3 16.1Zm0 0-.3-16.1v-.3l25.4.2 25.2.2h.5v17.9h-.5c-14.6-.4-35.4-1.3-50.2-1.9Z"/><path fill="#f4e3d7" d="m557.4 283.1 5.8.2v-25.7h-5.8v25.5z"/><path fill="#ebebeb" d="M630.8 367.6a17435 17435 0 0 1-64.6-6.5c-.3-.4 0-54-.1-54.5v-.4h.5l64.2 3.5h.3v.3l-.3 57.6Zm0 0-.4-57.6.4.3-64.2-3.2.5-.4-.1 54-.4-.4 64.2 7.3Z"/><path fill="#ebebeb" d="m573 314.7 51.3 2.6h.4v42h-.4l-25.6-2.6-26-2.8c0-.4.4-38.8.3-39.2Zm0 0 .4 39-.3-.3 25.6 2.4 25.6 2.5-.5.5v-41l.5.4-51.2-3.5Z"/><path fill="#f7a9a0" d="M485.8 399.4c1.7 0 46.2-16 47.5-17.7a64 64 0 0 0-4-15.2L517.9 338 488 348.6l12.5 28.1s-14.3 13.7-15.6 15.7-1 7 .8 7Z"/><path fill="#ebebeb" d="m527 361 2.3 5.5c2.6 8 4.5 14.5 4 15.2-1.4 1.6-45.8 17.6-47.6 17.7s-2-5-.7-7 15.5-15.7 15.5-15.7l-2.5-5.6Z"/><path fill="#f4e3d7" d="M485.8 399.5a507 507 0 0 0 48.4-18 44 44 0 0 0-4.7-15.3l-29.2 10.5s-14 13.7-15.3 15.8-1 7 .8 7Z"/><path fill="#263238" d="M485.8 397.4a1287 1287 0 0 1 45.8-16.1c.1 0 .1 0 0 0a1372.3 1372.3 0 0 1-45.8 16.1ZM487.4 389.8a6.5 6.5 0 0 1 5.2.2 6.2 6.2 0 0 1 3.1 3.5 7.5 7.5 0 0 0-8.3-3.7ZM498.2 378.3c3-1.2 7-1.4 9.7.5.1 0 0 .2 0 .2a44.8 44.8 0 0 0-9.6-.4.2.2 0 0 1 0-.3ZM496.2 380c3-1.1 7-1.3 9.7.5.1 0 0 .2 0 .2a44.1 44.1 0 0 0-9.6-.3.2.2 0 0 1-.1-.4Z"/><path fill="#263238" d="M494.2 381.8c3-1.2 7-1.4 9.7.5l-.1.2a45.4 45.4 0 0 0-9.5-.3.2.2 0 0 1-.1-.4Z"/><path fill="#263238" d="M492.1 383.5c3-1.1 7-1.3 9.8.5l-.1.2a44 44 0 0 0-9.6-.3.2.2 0 0 1 0-.4ZM527.1 374.7c3.4-1.2 5.3 4.1 1.9 5.4s-5.3-4.1-1.9-5.4ZM493.9 375.7c2.4 1.5 5.3 2 8 2.7.3 0 .5-.2.5-.5a17 17 0 0 0-5.5-6.9c-1.4-1-3.8-1.5-4.9.3s.5 3.5 1.9 4.4Zm-1-2.5c-1-3.4 3-2 4-1.2a17 17 0 0 1 1.8 1.7 49.2 49.2 0 0 1 3.3 3.9l-4-1.2c-1.5-.4-4.7-1.3-5.2-3.2Z"/><path fill="#263238" d="M512.6 372c-1-2-3.4-1.5-4.9-.7a17 17 0 0 0-6 6.4v.2c0 .2.2.5.5.4 2.7-.5 5.7-.7 8.2-2 1.5-.8 3-2.5 2.2-4.3Zm-6.4 4.7-4 .8c1.2-1.2 2.3-2.5 3.6-3.6a18 18 0 0 1 2-1.5c1-.7 5-2 4 1.4-.8 2-4 2.6-5.6 2.9Z"/><path fill="#f7a9a0" d="M431.5 397.7c1.7.5 49-.3 50.7-1.5.7-.4 1-7.3 1-15.6l-1.6-30.7-31.6.5 2.8 30.6s-18 8.4-19.8 10-3.1 6.2-1.5 6.7Z"/><path fill="#ebebeb" d="m483 374.6.3 6c-.1 8.3-.4 15.2-1 15.7-1.9 1.1-49 2-50.8 1.4s-.3-5.3 1.5-6.7 19.8-10 19.8-10l-.6-6Z"/><path fill="#f4e3d7" d="M431.5 397.8c1.7.6 49.8-.2 51.6-1.4.7-.4 1.3-7.9.5-16l-31 .5s-17.7 8.5-19.5 10-3.3 6.4-1.6 7Z"/><path fill="#263238" d="M432.1 395.9a1294.4 1294.4 0 0 1 48.7-.5 1290.2 1290.2 0 0 1-48.7.5ZM436.1 389.1a6.5 6.5 0 0 1 4.9 1.9 6.3 6.3 0 0 1 1.9 4.3h-.1a7.5 7.5 0 0 0-6.7-6v-.2ZM450.1 381.7c3.2 0 7 1 9 3.6 0 .1 0 .2-.2.2a44.2 44.2 0 0 0-8.9-3.4.2.2 0 0 1 .1-.4ZM447.6 382.7c3.2 0 7 1 9 3.6.1.1 0 .3-.2.2a44.2 44.2 0 0 0-8.9-3.4.2.2 0 0 1 .1-.4ZM445.1 383.8c3.3-.1 7 1 9 3.5.1.2 0 .3-.1.2a44.5 44.5 0 0 0-9-3.3.2.2 0 0 1 .1-.4ZM442.7 384.8c3.2-.1 7 1 9 3.6 0 0-.1.2-.2.1a44.3 44.3 0 0 0-9-3.3.2.2 0 0 1 .2-.4ZM478.6 387.7c3.6 0 3.7 5.6 0 5.6s-3.6-5.6 0-5.6Z"/><path fill="#263238" d="M446.8 377.9c1.8 2.2 4.5 3.6 6.8 5.2a.4.4 0 0 0 .6-.3v-.1a17 17 0 0 0-3-8.2c-1-1.4-3.1-2.7-4.7-1.3s-.7 3.4.3 4.7Zm-.2-2.7c.3-3.5 3.5-.9 4.2.2a18.3 18.3 0 0 1 1.2 2.2c.8 1.5 1.3 3.1 2 4.7l-3.5-2.3c-1.3-1-4-2.8-3.9-4.8Z"/><path fill="#263238" d="M465.7 380.4c-.3-2-2.7-2.5-4.4-2.1a17 17 0 0 0-7.8 4v.2a.4.4 0 0 0 .3.6c2.8.4 5.7 1.1 8.5.6 1.6-.2 3.7-1.3 3.4-3.3Zm-7.6 2.4-4-.5 4.5-2.3a18 18 0 0 1 2.4-.8c1.2-.3 5.4-.1 3.2 2.7-1.2 1.5-4.4 1.1-6 1Z"/><path fill="#455a64" d="m483.6 372.5-32.7.4s-4.7-49-4.4-51c2.5-16.5 13-67.3 13-67.3l34.9-.3s-15.4 54.5-15.4 65c-.1 8.7 4.6 53.2 4.6 53.2Z"/><path fill="#263238" d="M482.2 365.9c-4.8-.3-9.7-.2-14.5-.1s-9.7.1-14.6.4v.3h14.6c4.9 0 9.7 0 14.5-.4.2 0 .2-.2 0-.2ZM488.2 257.7c-1.9 6.8-3.4 13.7-5.2 20.5s-7.7 33.4-8.4 39.5a405.7 405.7 0 0 0 4.9 45.2c-.4-4.7-4.8-39.8-4.3-44.3.7-6.9 6.3-31 7.9-37.8l2.6-11.5c1-3.8 1.9-7.7 2.7-11.6h-.2Z"/><path d="M494.4 254.2c-.5 1.6-13.8 49.1-15.3 63l-16.7-62.6Z" opacity=".1"/><path fill="#455a64" d="m527.2 358.5-31.8 11.7s-10.5-28-13-40.7c-3-14.2-8-52.5-8-52.5l-6.3-1.1a90.7 90.7 0 0 1-5.9-21.3l40.5-.4s7.1 13.6 4 27.7l8 40.8c1.3 6.3 12.5 35.8 12.5 35.8Z"/><path fill="#263238" d="M521.6 352.1c-4.6 1.5-9.2 3.3-13.7 5a265.6 265.6 0 0 0-13.4 5.8l13.6-5c4.5-1.7 9.1-3.4 13.6-5.4a.1.1 0 0 0-.1-.4ZM513.1 332.8c-1.7-6.1-3.2-12.3-4.5-18.4l-3.7-18.4-1.7-9.3a26.7 26.7 0 0 1-.7-5.1 43 43 0 0 1 .7-4.7c.9-7-1.2-13.9-3.3-20.4a.1.1 0 0 0-.2 0c1.8 6.2 3.6 12.6 3.1 19 0 1.7-.5 3.2-.7 4.8a13 13 0 0 0 .2 4.1l1.7 9.4c2.2 12.4 4.7 24.7 7.9 37a153.7 153.7 0 0 0 6.6 20.1.1.1 0 0 0 .2 0c-2-6-3.9-12-5.6-18.1ZM483.5 279.6a47.5 47.5 0 0 0-8-2.6 91.6 91.6 0 0 0-8.6-1.1c2.7.5 5.5 1.3 8.2 2a137.9 137.9 0 0 0 8.4 1.7ZM476.6 264.6a169 169 0 0 0-.8-8.7.1.1 0 1 0-.2 0v7.8l.1 3.9c0 .9.4 3.4-1 3.4s-1.5-1.7-1.7-2.7a50 50 0 0 1-.6-4l-.6-8c0-.2-.2-.2-.2 0a37.4 37.4 0 0 0-.1 7.3c0 1.3.2 2.6.4 3.8a10.2 10.2 0 0 0 .7 3 2.9 2.9 0 0 0 2 1.5V275.4a5.8 5.8 0 0 0 .3 1.3.1.1 0 0 0 .2 0 5.4 5.4 0 0 0 .1-1.2V272a.3.3 0 0 1 0-.1 1.6 1.6 0 0 0 1.1-.8 5.6 5.6 0 0 0 .5-2.9l-.3-3.6ZM500 268.1c-.7.1-1.5.3-2.3.3a12.4 12.4 0 0 1-2.5-.1 11.4 11.4 0 0 1-4.5-1.7 9.7 9.7 0 0 1-3-3.2 14.3 14.3 0 0 1-1-1.7l-.8-2c0-.1-.2-.1-.2 0l.1 1.2a9.2 9.2 0 0 0 .3 1 9.6 9.6 0 0 0 4 5.5 11.5 11.5 0 0 0 5 1.6c1.6.2 3.8 0 5-.8ZM458.3 267.8a11 11 0 0 0 1.4.2 4.5 4.5 0 0 0 1.5-.2 5.8 5.8 0 0 0 2.7-1.8 9.7 9.7 0 0 0 1.8-3.2l.5-1.7c0-.6.3-1.4.5-2h.1v1.2l-.1 1a14.8 14.8 0 0 1-.5 2 9.8 9.8 0 0 1-2 3.5 5.5 5.5 0 0 1-3 1.8 3.3 3.3 0 0 1-3-.7s0-.1.1-.1Z"/><path fill="#f7a9a0" d="M463 214.5c-7.5-.9-32.4-5.9-35.9-12.6a98.2 98.2 0 0 1-4.3-31.7c.8-2.4 20.6-3.4 20.7-.7s-.1 22 1 23.7 20.8 11.4 26.2 15.5c9.3 7.2-3.7 6.3-7.7 5.8Z"/><path fill="#f4e3d7" d="m452 196.4-1 2.3L445 213a165.7 165.7 0 0 0 21 3.4c7.3.6 11-1.4 9-4.7-.8-1.3-2.5-2.8-5.2-4.5Z"/><path fill="#263238" d="M448.4 212.8a315.4 315.4 0 0 0 6-14.4 138.6 138.6 0 0 0-6.1 14.4Z"/><path d="M465.9 216.4c-1.5 0-3-.2-4.5-.4l9-8.3a14.3 14.3 0 0 1 4.5 4c2 3.4-1.7 5.3-9 4.7Z" opacity=".1"/><path fill="#f7a9a0" d="M423.1 174.8c-1-2.2-4.8-12.7-5.2-15.8s-.8-12.1 1.6-12.7 2.7 2.1 2.7 2.1.4-3.8 2.8-4.1 2.8 3.7 2.8 3.7.7-3.9 3.2-4 2.1 4 2.1 4 .5-3.6 2.6-2.9c2.4 1 .8 7.5 1.5 10.9.1.8 4.2 15.5 4.2 15.5Z"/><path fill="#263238" d="M433.1 147.7c-1.2 4.8-.9 7.1.7 11.8 0 0-.1.1-.2 0-1.9-4.4-2.7-7.2-.7-11.9.1-.2.3-.2.2 0ZM428 147.7c-.9 5-.6 7.6.7 12.6h-.1c-1.7-4.8-2.4-7.7-1-12.7.1-.2.4-.2.3 0ZM422.2 148.7c-.4 5-.2 7.8 1.7 12.5h-.2a16.7 16.7 0 0 1-1.6-12.5c0-.3.2-.3.1 0Z"/><path fill="#f7a9a0" d="M442.5 174.4a62 62 0 0 0 3.2-8.4c.6-2.8-1-13.8-3.4-13.6-3.1.3-3.5 6.8-3.2 10 0 0-7.2.6-8.5 5.2s11.9 6.8 11.9 6.8Z"/><path fill="#263238" d="M441.4 152.8c-2.6 2.2-2 6.4-2 9.6a.3.3 0 0 1-.4.3c-3 .4-7 2-8.5 4.8h-.1c1-3.3 5-5 8.3-5.4 0-3.2-.5-7.5 2.7-9.3Z"/><path fill="#f4e3d7" d="m456.4 258.9 50.1-1.3c.6-.9-10.5-40.3-25.3-50.7-5.2-3.7-9.8-.9-12.4 3.8-4 6.8-13 47.5-12.4 48.2Z"/><path d="m506 255-49.3 1.3v-.5l49.2-1.3.2.6Zm-1.3-4.7-47 1.2-.2.5 47.4-1.2-.2-.5Zm-1.3-4.3-44.9 1.1v.6l45-1.1-.1-.6Zm-1.5-4.2-42.4 1-.1.6 42.7-1-.2-.6Zm-1.6-4.3-39.8 1-.1.6 40.1-1Zm-1.7-4.2-37 1-.2.5 37.4-1-.2-.5Zm-1.9-4.3-34 1-.2.5 34.5-.9Zm-2-4.2-31 .8v.6l31.2-.8Zm-2.3-4.2-27.4.7-.2.6 28-.7-.4-.6Zm-2.6-4.2-23.5.6-.2.6 24-.6-.3-.6Zm-3-4.2-19 .5-.2.6 19.6-.5Zm-4-4.2-12.4.3-.4.6 13.4-.3-.7-.6Z" opacity=".1"/><path fill="#f7a9a0" d="M480.8 215.8c4 10 15.8 32.5 21.8 32.3 6.6-.2 20.2-14.8 22.7-18.8 1.8-2.9-17.5-11.7-18.8-10.2-1 1.2-2.9 5.9-3.6 6.7-.4.6-9.4-10.9-17.2-16-7.5-5-7 1-5 6Z"/><path fill="#f7a9a0" d="M524.9 230.1c1.6-1.6 9.5-10.5 11-13s5-10.6 3-12-3 1-3 1 1-3.6-1.1-4.7-3.9 2.4-3.9 2.4.8-3.8-1.4-4.8-3.3 3-3.3 3 .8-3.5-1.3-3.6c-2.5 0-3.3 6.4-5.1 9.2l-9.2 12.2Z"/><path fill="#263238" d="M526.3 201.6c-.6 4.7-1.7 6.7-4.7 10.3 0 0 0 .1.1 0 3.3-3.2 5-5.4 4.8-10.3 0-.2-.1-.2-.2 0ZM531 203.4a25.1 25.1 0 0 1-5 11c3.1-3.6 4.8-6 5.2-11 0-.1-.2-.2-.2 0ZM535.7 206.3c-1.4 4.6-2.6 7-5.9 10.5l.1.2a16 16 0 0 0 6-10.6c0-.3-.1-.4-.2-.1Z"/><path fill="#f7a9a0" d="M506.3 220.2s1.2-6.3 2.4-8.7 9-9.7 10.7-8c2.1 2-1.5 7-3.7 9.3 0 0 5 4.8 3.2 9s-12.6-1.6-12.6-1.6Z"/><path fill="#263238" d="M519.8 204.2c.6 3.3-2.4 6-4.3 8.4a.3.3 0 0 0 .1.4c2 2.2 4.1 5.7 3.4 8.7h.2c1.1-3-.7-6.8-3-9 2-2.3 4.8-5.3 3.6-8.6ZM503.2 225.4a69 69 0 0 1-4 6.7 19.4 19.4 0 0 1 4-6.7Z"/><path fill="#f4e3d7" d="m487.3 234.5 2.2-1.3 13.4-7.8a165.3 165.3 0 0 0-14.8-15.2c-5.6-4.8-9.7-5.5-10-1.5-.2 1.5.3 3.7 1.5 6.7Z"/><path fill="#263238" d="M500 223.5a324 324 0 0 0-13.3 8 139.7 139.7 0 0 0 13.4-8h-.1Z"/><path fill="#263238" d="M481 219.4a441 441 0 0 1 6.3 15s1.6-1 2-1.1h.2a17 17 0 0 1-2.5 1.6c-1-1.9-3.3-7.8-4-9.8h-.1a27.7 27.7 0 0 1-2-3.2s0-.1 0 0a22.7 22.7 0 0 1 1.8 2.7l-1.9-5.1.2-.1Z"/><path fill="#f7a9a0" d="M478.9 206.2c-.1.8-3.2 6.2-6.8 6.4-1.2.1-1.8-6.2-1.8-6.2l-.2-.5-2.1-6.3 8.2-6.5s2.7 12.8 2.7 13Z"/><path fill="#263238" d="m468 199.6 2.2 6.3.1.5.4 2.5a10.2 10.2 0 0 0 7.2-7.8l-1.7-8Z"/><path fill="#f7a9a0" d="M455 186.3c-3.1 15.2 5.6 18.8 8.9 19.4 3 .6 13.1 2.3 17.8-12.4s-1.4-21-8.1-22.8-15.5.7-18.6 15.8Z"/><path fill="#fff" d="M460.8 197.2a4 4 0 0 0 1.5 1.4 1.8 1.8 0 0 0 1 .2c.9-.2 1-.9.9-1.5a4.1 4.1 0 0 0-.3-1 5.2 5.2 0 0 1-3 .9Z"/><path fill="#dbdbdb" d="m461.5 198 .1.1a3.4 3.4 0 0 0 .8-.1ZM463.2 197.8a3 3 0 0 0 .6-.2 2.3 2.3 0 0 0 .4-.2.2.2 0 0 0 0-.1.3.3 0 0 0 0-.1l-1 .6Z"/><path fill="#263238" d="M458.2 188.6c-1.7-.3-2 3.1-.5 3.4s2-3.2.5-3.4ZM466 189.9c1.7.2 1.2 3.6-.4 3.4s-1-3.6.4-3.4ZM457.4 186.3a9.4 9.4 0 0 0 1 0 1.8 1.8 0 0 0 1.1-.4.6.6 0 0 0 .1-.6 1.4 1.4 0 0 0-1.3-.5 2 2 0 0 0-1.3.5.6.6 0 0 0 .4 1ZM467.7 188.2a9.2 9.2 0 0 1-1-.4 1.7 1.7 0 0 1-1-.5.5.5 0 0 1 .1-.7 1.4 1.4 0 0 1 1.4-.1 2 2 0 0 1 1.2.8.6.6 0 0 1-.7.9ZM464.5 199.2c-.2.2-.5.5-.9.6a3 3 0 0 1-1.1-.4 1.4 1.4 0 0 0 1.2.7 1.1 1.1 0 0 0 1-.9h-.2ZM460.5 194.8l-.5 2.2.4.2a3.5 3.5 0 0 0 3.6-.9s0-.1-.1 0a5.3 5.3 0 0 1-3.3.4l.7-2.6-1.8.1 1.6-5.6c0-.1-.2-.2-.2 0a51.4 51.4 0 0 0-2.2 6.2c0 .2 1.5 0 1.8 0Z"/><g opacity=".2"><path d="M471.5 194.4a.3.3 0 0 0 .3.2.3.3 0 0 0 .2-.3.3.3 0 0 0-.3-.2.3.3 0 0 0-.2.3ZM466.3 194.9a.3.3 0 0 0 .3.2.3.3 0 0 0 .2-.3.3.3 0 0 0-.5 0ZM468.4 196.4a.3.3 0 0 0 .3.3.3.3 0 0 0 .2-.3.3.3 0 0 0-.3-.2.3.3 0 0 0-.2.2ZM471 192.4a.3.3 0 0 0 .4.2.3.3 0 0 0 .2-.3.3.3 0 1 0-.5 0ZM468.8 194.1a.3.3 0 1 0 .5 0 .3.3 0 0 0-.3-.3.3.3 0 0 0-.2.3ZM455.6 192.3a.3.3 0 0 0 .5 0 .3.3 0 0 0-.3-.3.3.3 0 0 0-.2.3ZM457.7 193.4a.3.3 0 0 0 .5 0 .3.3 0 0 0-.5 0ZM457.5 195.1a.3.3 0 0 0 .3.3.3.3 0 0 0 .2-.3.3.3 0 0 0-.5 0ZM455.6 194.3a.2.2 0 0 0 .3.2.3.3 0 0 0 0-.5.3.3 0 0 0-.3.3Z"/></g><path fill="#263238" d="M483.5 178.7s3.4 4.2 3.1 6.6-5 11.4-7 11.1-1.5-7.7-1.5-7.7-4.1-2.3-7.4-3.7a15 15 0 0 1 .2-5.4 11.2 11.2 0 0 0-2 4.7 19 19 0 0 0-3.6-1 29 29 0 0 0-1.7-.2 30.1 30.1 0 0 1 .4-4.1 16.2 16.2 0 0 0-1.3 4h-1a46.8 46.8 0 0 1 1.3-6.7 13.8 13.8 0 0 0-4.3 6.7c-2 0-3.5.2-3.5.2.8-7.2 5.3-13.6 12.7-14.3 8.3-.8 14.7 8 14.7 8s.7-2 1.3-1.8-.3 2.5-.3 2.5 2 .4 2 1c0 .8-2 .1-2 .1Z"/><path fill="#455a64" d="M462.7 190.7a5 5 0 0 1 9.2-1.3 5 5 0 0 1-5.6 7.4 5 5 0 0 1-3.6-6.1Zm6-2.8a4.2 4.2 0 0 0-5.2 3l-.4-.1h.4a4.2 4.2 0 0 0 3 5.2 4.2 4.2 0 0 0 5.1-3 4.2 4.2 0 0 0-3-5.1ZM453 189.6a5.5 5.5 0 0 1 1.8-3 3.4 3.4 0 0 1 2.9-1c2 .4 3.3 2.9 2.8 5.5a5.5 5.5 0 0 1-1.7 3 3.4 3.4 0 0 1-3 1c-2-.5-3.3-2.9-2.8-5.5Zm4.6-3.2a2.7 2.7 0 0 0-2.3.7 4.7 4.7 0 0 0-1.5 2.7l-.4-.1h.4c-.4 2.2.6 4.2 2.2 4.6a2.7 2.7 0 0 0 2.2-.8 4.7 4.7 0 0 0 1.5-2.6c.4-2.1-.5-4.2-2.2-4.5Z"/><path fill="#455a64" d="M460.6 190.6c.9-.7 2.1.5 2.1.5l.6-.6s-1.8-1.6-3.2-.5ZM472.2 191.8a79.5 79.5 0 0 1 9.5 1 5 5 0 0 1 2.4 2.5l.8-.2a5.8 5.8 0 0 0-3-3c-1.6-.5-9.3-1.1-9.6-1.1Z"/><path fill="#f7a9a0" d="M478.2 193.2s3.9-4.4 6-3-1.4 8.2-4 8.8a2.6 2.6 0 0 1-3.4-1.8Z"/><path fill="#263238" d="M483.1 192.1v.1c-1.9.5-3 2-3.9 3.7a1.4 1.4 0 0 1 2.2-.1 1.6 1.6 0 0 0-1.8.4 8.2 8.2 0 0 0-1 1.3c-.2.2-.4 0-.4-.1.3-2.3 2.4-5.3 5-5.3Z"/><path fill="#d3766a" d="M556.4 137.1c-9.5 9.2-38.9 51.8-41.2 54.7-3 3.8 18.4 14.6 20.2 11.8 1.1-1.9 26-50 28.1-62 2-10.7-3.5-8-7.1-4.5Z"/><path fill="#d3766a" d="M525.6 210.3c1.2-.8 1.6-.1.9 2.3s-6 11.2-2.7 12.7 10.3-11 11.3-15.1a66.3 66.3 0 0 0 1.1-11.1c-1.8 2.2-6.9 7-10.6 11.2Z"/><path fill="#d3766a" d="M519.1 187c-5.3 6.4-12 14.1-13.2 23.1a4.5 4.5 0 0 0 .5 3c-.6 4 1 5.5 1 5.5.6 4 2.6 5.2 2.6 5.2s-.7 4.8 2.1 5.7c3.1 1 3.5-5.9 6-9.5 5.7-8.4 16.2-18.7 18.1-20.9Z"/><path fill="#263238" d="M518 207a64.5 64.5 0 0 0-4.6 7.6 65.5 65.5 0 0 0-3.3 9.2h-.1a34.5 34.5 0 0 1 7.9-16.8c0-.2.1-.1.1 0ZM513.4 202.8a48 48 0 0 0-5.8 15.8 30.9 30.9 0 0 1 5.7-15.9c.1-.1.2 0 .1.1ZM511 200.6a48.4 48.4 0 0 0-4.6 12.4 29 29 0 0 1 4.4-12.5c0-.2.2 0 .1 0Z"/><path fill="#455a64" d="m516.4 185.6 22.3 16.6s19-40 24.6-57.4c4.3-13-2.7-14-9-6.6-8.6 10.2-38 47.4-38 47.4Z"/><path fill="#263238" d="M540 194.8a425.2 425.2 0 0 1-17.7-13 198.5 198.5 0 0 1 17.7 12.9c.1 0 0 .2 0 .1Z"/><path d="M563.3 144.8c-5.6 17.4-24.6 57.4-24.6 57.4L519.5 188l42.2-54.3c2.8 0 4.1 3.6 1.6 11.2Z" opacity=".1"/><path fill="#d3766a" d="M494.4 397.9c2 .6 59.6 0 61.7-1.4.8-.5-3.6-55.1-3.6-55.1l-36.5.3 3.8 36.5s-21.3 9.9-23.5 11.6-3.8 7.5-1.9 8Z"/><path fill="#263238" d="M494.4 397.9c2 .6 59.6 0 61.7-1.4.3-.2.4-5.7-.5-13-10.4 1.7-47.7 7-50.6 5.3-2-1.2-.2-3 1.4-4.3a103.3 103.3 0 0 0-10.1 5.3c-2.2 1.8-3.8 7.5-1.9 8ZM518.9 369.5l35.8-.2s-3.8-74.3-3.5-76c.4-2 29.7-104.1 29.7-104.1l-39.5-.4s-28.8 91.9-30 100.8c-1.6 14.5 7.5 79.9 7.5 79.9Z"/><path fill="#37474f" d="M551.6 361.2c-2.1-.2-4.3-.2-6.4-.2H526l-3.5.1-3.8.3v.1l3.2.2 3.2.1h6.4l12.8-.1 7.2-.3a.1.1 0 0 0 0-.2ZM568 197.1c-3.2 10.8-6 21.8-9 32.6s-5.6 21.9-8.5 32.8q-2 8.2-4.2 16.3c-1.4 5.4-3 10.7-3.4 16.2a1094.2 1094.2 0 0 0 5.4 62.4c-.7-11.2-4.3-52.6-4.4-58.2a59.7 59.7 0 0 1 2.4-16.5l4.2-16 8.5-32.8c3.1-12.2 6.3-24.4 9.1-36.7h-.1Z"/><path fill="#37474f" d="M580.9 189.2 560.1 262l-17.6-73.1Z"/><path fill="#d3766a" d="M540.1 398.5c2 .6 59.6 0 61.7-1.5.8-.5-1.6-55-1.6-55l-36 .3 1.3 36.5s-21.3 9.8-23.5 11.6-3.8 7.4-1.9 8Z"/><path fill="#263238" d="M540.1 398.5c2 .6 59.6 0 61.7-1.5.3-.1.3-5.5.1-12.9-10.4 1.7-48.3 7-51.2 5.3-2-1.2-.2-3 1.4-4.3a101 101 0 0 0-10.1 5.3c-2.2 1.8-3.8 7.4-1.9 8ZM541.4 188.8a220.4 220.4 0 0 0 5.8 28l1.1 3.7s2.7.6 8.7 4.3c0 0 2.6 64.4 2.5 68.3a1395 1395 0 0 0 5.6 76.1h36.2s-3-71.1-3-76.4c0-5.2-2-37.7-4-65.9 0 0 3.4-9 3-13.5a105 105 0 0 0-5.5-24.1Z"/><path fill="#37474f" d="m552.9 210.9-.4-2.8-.8-5a241.5 241.5 0 0 0-2.3-11.2l.5 4.5.6 4.5c.3 3 .7 6 1.2 8.9.2 1.1.9 3.2-.8 3.5-1.3.3-2.2-1-2.6-2.1a25.7 25.7 0 0 1-.8-4.1l-.7-4.5a464 464 0 0 0-1.5-9.8 100.3 100.3 0 0 0 1.3 14.8 16.5 16.5 0 0 0 1 4.4 3.6 3.6 0 0 0 2.6 2.2h.1a.1.1 0 0 0 0 .1v1.6c0 .6.2 1 .3 1.6a9.4 9.4 0 0 0 .4 1.5 5.7 5.7 0 0 0 .2.7 5.7 5.7 0 0 0 .5.7c0 .1.1 0 .1 0a2.2 2.2 0 0 1 0-.3 3.7 3.7 0 0 0 0-.5l-.1-.7-.4-1.5c-.2-.5-.2-1-.3-1.6l-.4-1.5a2.4 2.4 0 0 0 2.3-1.4 4 4 0 0 0 0-2ZM563.6 227.6a28.6 28.6 0 0 0-3.4-2.3 33 33 0 0 0-3.8-2c-2.6-1.2-5.3-2-8-2.9-.1 0-.2.1 0 .2 2.6 1 5 2.4 7.6 3.7l3.7 1.8 3.8 1.7a.1.1 0 0 0 .1-.2ZM584.2 205a22.2 22.2 0 0 1-5.4-.8l-2.4-.7a6.4 6.4 0 0 1-2.2-1.2 9.7 9.7 0 0 1-2.3-4.2 41.9 41.9 0 0 1-1.4-5.2c0-.1-.1 0-.1 0a20 20 0 0 0 .6 5.8 7.2 7.2 0 0 0 7.3 6.5 22.6 22.6 0 0 0 6 0 .1.1 0 0 0 0-.2ZM599.8 362.2c-2.2-.2-4.3-.2-6.4-.2l-6.4-.1-12.8.1h-3.4c-1.1 0-2.5.3-3.8.4v.1l3.2.2 3.2.1h6.4l12.8-.1 7.2-.3a.1.1 0 0 0 0-.2ZM595.4 357.4a.4.4 0 0 0 .4-.4l-6.7-131.2c0-.6 2.5-8.4 2.7-12.4.3-4.3-4-20.8-4.1-21.5a.5.5 0 0 0-.6-.3.4.4 0 0 0-.3.5c0 .2 4.4 17.1 4.1 21.2s-2.7 12.3-2.7 12.4L595 357a.5.5 0 0 0 .4.4Z"/><path fill="#455a64" d="M539.4 195.3a18.8 18.8 0 0 1-.2-6.3c1.1-5 4.7-15 4.7-15s-4.8-6-1.5-12.7c1.7-3.5 12.2-22.1 18.3-26.3 5.6-3.9 12.4.1 15 3.7 6.6 9.4 15.7 21.5 19.2 49a41.2 41.2 0 0 1-.5 7.6Z"/><path fill="#263238" d="M552.5 171.6a52 52 0 0 1 7.5 1.5 58.6 58.6 0 0 1 5.4 1.8 8.1 8.1 0 0 0 2 .4 14.6 14.6 0 0 1-2 0 13.8 13.8 0 0 1-1.7-.4l-3.7-1.1a122.7 122.7 0 0 0-7.5-2.2ZM546.1 173.7a55.5 55.5 0 0 1 6.4-.1l3.1.2 1.5.3 1.6.3c.1 0 0 0 0 0h-3.1l-3.2-.3-6.3-.3v-.1Z"/><path fill="#d3766a" d="M568.8 143.6c.3 10.2 6.6 40 9.4 44.2 4.2 6.2 20.4 22 24.7 24 3.7 1.6 16.6-18.7 14.8-20-4.8-3.7-20.5-16.2-22.8-19.2-1.1-1.6-10-18.8-16.3-29.8-5.2-9.2-10-5.5-9.8.8Z"/><path fill="#d3766a" d="M613 214.4c-1.5-.4-1.7.3-.2 2.6s9.6 9.8 6.7 12.4-14-8.3-16.3-12.2a72.8 72.8 0 0 1-4.6-11.1c2.6 1.6 9.3 5.1 14.4 8.3Z"/><path fill="#d3766a" d="M613 188.4a46.4 46.4 0 0 1 20.4 19.7 4.9 4.9 0 0 1 .4 3.2c1.9 4 .6 6 .6 6 .6 4.3-1 6.3-1 6.3s1.1 3.3-1.2 4.3-6-3.8-9.6-6.8c-8.6-6.9-21.4-13.3-24-15Z"/><path fill="#263238" d="M620 208.6a70.2 70.2 0 0 1 7 6.4 69.9 69.9 0 0 1 6.3 8.5h.1a37.3 37.3 0 0 0-13.4-15c-.1-.1-.2 0 0 0ZM623.3 202.8c2.3 2.2 6.3 6 11 14.6a33.5 33.5 0 0 0-10.9-14.7c-.1-.1-.2 0 0 .1ZM625.2 199.8c3.8 3.8 5.7 6.6 8.5 11.5h.1a31.3 31.3 0 0 0-8.5-11.7c-.1-.1-.2 0 0 .2Z"/><path fill="#455a64" d="m614.6 187.4-13.2 25s-17.7-14-23.9-23.6c-3-4.6-9.8-31.8-9.8-44.4.1-14 6.7-8.9 11.8-.9s15.7 27.8 16.6 28.7c.5.6 18.5 15.2 18.5 15.2Z"/><path fill="#263238" d="m602.8 195.5 2.9-5.4c1-1.8 1.9-3.6 3-5.3h.1c-.7 1.9-1.7 3.6-2.6 5.4l-2.8 5.5a254.8 254.8 0 0 1-6 10.7c1.7-3.7 3.5-7.3 5.4-11ZM582.7 195.3a49.5 49.5 0 0 1-5.5-6.5c-2.5-4.1-3.3-9-4.7-13.4-1.8-7.4-3.7-14.7-4.3-22.3l1.1 5.6c1.3 5.5 2.7 11 4.2 16.4 1 3.6 1.9 7.3 3.1 10.8s4 6.4 6 9.4Z"/><path fill="#263238" d="M567.8 155.8a36.4 36.4 0 0 1 1.7 5 8.4 8.4 0 0 1-1.7-5ZM560.6 130c-4.3 6.4-14.4 7.1-20.6 3.5a33.8 33.8 0 0 0 5-10c1-3.4.8-7 1-10.6l.3-4.7a15.7 15.7 0 0 1 .7-4.6c1.6-4.1 8-3.8 8.8-2.9 5.5 6.5 9.6 22.1 4.8 29.4Z"/><path fill="#263238" d="M559.1 125.5a13.2 13.2 0 0 1-6.5 8.8 14.7 14.7 0 0 1-11.9.7 14 14 0 0 0 12-.1 12.6 12.6 0 0 0 6.8-9.3.1.1 0 0 0-.4 0Z"/><path fill="#263238" d="M561.7 124.2a14.7 14.7 0 0 1-5.8 9c-3 2.3-7.8 4.3-11.6 3.6v.2c4 .8 8.9-1 12.1-3.5 3-2.1 5.4-5.5 5.6-9.3h-.3ZM547 106.9a57 57 0 0 1-1.9 13.1 45.3 45.3 0 0 1-5.7 12.3s0 .2.1.1a40.3 40.3 0 0 0 6-12 34.8 34.8 0 0 0 1.8-13.5.1.1 0 0 0-.3 0Z"/><path fill="#d3766a" d="M570 135.8c0 1.2-6.4 8.8-11.4 7.7-1.9-.4-.6-5.6-.6-5.6l-3.8-9.5 11.1-9.9s4.7 16.9 4.7 17.3Z"/><path fill="#263238" d="M567 124.8a19.5 19.5 0 0 1-9.2 12.5l-3.6-9 11-9.8 1.8 6.3Z"/><path fill="#d3766a" d="M543.1 117.3c.4 14.4 9 15.8 12.2 15.7 2.8-.1 12.4-.8 13.5-15.1S563 99.2 556.5 99s-13.8 4-13.4 18.3Z"/><path fill="#263238" d="m545.1 114.5.9-.5a1.6 1.6 0 0 1 1-.4.5.5 0 0 1 .4.4 1.3 1.3 0 0 1-.7 1.1 2 2 0 0 1-1.3.4.6.6 0 0 1-.3-1ZM556 114.3l-.8-.5a1.6 1.6 0 0 0-1-.3.5.5 0 0 0-.4.4 1.2 1.2 0 0 0 .7 1.1 1.8 1.8 0 0 0 1.3.3.5.5 0 0 0 .3-1ZM553.6 117.3c0 1 .1 2.2 1 2.5-1-.1-1.2-1.6-1-2.5Z"/><path fill="#263238" d="M554.5 116.2c1.5 0 1.6 3.1.2 3.2s-1.6-3-.2-3.2Z"/><path fill="#263238" d="M555 116.4c.4.2.7.5 1 .5s.7-.3.9-.7c0 .6-.1 1.3-.8 1.4s-1-.4-1.2-1c0-.1.1-.3.2-.2ZM547.8 117.2h-.1c0 1 0 2.2-.9 2.5 1-.1 1.2-1.6 1-2.5Z"/><path fill="#263238" d="M546.9 116.2c-1.6 0-1.6 3-.2 3.1s1.5-3 .2-3.1Z"/><path fill="#263238" d="m546.2 116.4-.8.5c-.3 0-.6-.4-.8-.7 0 .6.1 1.2.7 1.4s1-.4 1-1c0-.1 0-.3-.1-.2ZM554 125.2c-.1.3-.3.6-.7.7a2.6 2.6 0 0 1-1 0s-.1 0 0 0a1.3 1.3 0 0 0 1.3.3 1 1 0 0 0 .6-1h-.2ZM549.5 122v2.2h.5a3.3 3.3 0 0 0 3-1.6s0-.1-.1 0a5 5 0 0 1-2.9 1.2v-2.6a5.7 5.7 0 0 0-1.5.6c0-3 .4-6.2.3-9.2 0-.1-.2-.1-.2 0a50.1 50.1 0 0 0-.7 9.9c0 .4 1.3-.3 1.6-.5Z"/><path fill="#263238" d="M550.1 123.9a3.8 3.8 0 0 0 1.6 1.1 1.7 1.7 0 0 0 1 0c.8-.2.8-1 .6-1.5a4 4 0 0 0-.3-1 5 5 0 0 1-2.9 1.4Z"/><path fill="#ff9cbd" d="M551.7 125a1.7 1.7 0 0 0 1 0c.8-.2.8-1 .6-1.5a1.8 1.8 0 0 0-1.6 1.5Z"/><path d="M556.8 128a2.6 2.6 0 0 1-3.8 1 4.8 4.8 0 0 0 3.8-1Z" opacity=".1"/><path fill="#263238" d="M575.3 109.7a19.2 19.2 0 0 0 2.6 7.2c1.1 1.8 2.5 3.6 2.8 5.8.7 3.9-2.6 7-5.7 9.3-2.1 1.4-7 2.5-11 1.8-.2 0 7.7-20-10.9-34.3 0 0 8.8-3.7 15.4-.3 4.3 2.2 6 6.1 6.8 10.5Z"/><path fill="#263238" d="M575.2 107.7a14.7 14.7 0 0 0-5-7.4 16 16 0 0 1 4.9 7.8c.7 2.6 1.2 5.3 2.8 7.5a14.8 14.8 0 0 1 2.4 3.8 9 9 0 0 1 .2 4.4c-.5 3.2-2.6 5.5-5.2 7.3l.1.2c4.8-2.8 7.3-9.3 4-14.1a19.5 19.5 0 0 1-2.7-4.7c-.7-1.5-1-3.2-1.5-4.8Z"/><path fill="#263238" d="M570.6 101.1a14.8 14.8 0 0 1 4.7 8.9 28.2 28.2 0 0 0 1 4.8 14.6 14.6 0 0 0 2 3.9c2 2.7 4.5 6 2 9.2-2.3 2.9-6 4.6-9.4 5.5-.1 0 0 .1 0 .1a17 17 0 0 0 9.2-5.2c2-2.2 1.7-4.8.2-7.2-1-1.7-2.5-3.1-3.3-5a20 20 0 0 1-1.5-6 14.4 14.4 0 0 0-5-9Z"/><path fill="#263238" d="M575.5 108.9c-.8-3.1-2.1-6.3-5-8 0 0-.1 0 0 0 3.4 2.2 4.4 6.4 5.3 10.2a21.3 21.3 0 0 0 2 5.3c1 1.7 2.5 3 3.2 4.8 1.5 3.8-.6 7.8-3.7 9.9-3.3 2.3-7.2 2.6-11 3.3-.2 0-.2.2 0 .2 5.5-.4 12.7-2.1 15-8a7.7 7.7 0 0 0-1-7.2 22.4 22.4 0 0 1-3.1-5 52 52 0 0 1-1.7-5.5Z"/><path fill="#263238" d="M566.8 119.9c-2.5.3-3-7.6-3-7.6s-9 1-12.2-7.6c0 0-3.9 5.8-7.5 5.9-1.3 0 0-9.7 7.3-10.8 0 0 8.2-4 14.5 2.3s4.3 17.3.9 17.8Z"/><path fill="#263238" d="M564.6 112c-2.7.7-5.6 1.1-8.2-.3-3-1.7-4.1-5-5.2-8h-.1c.8 3.2 2.3 6.7 5.4 8.3a9.6 9.6 0 0 0 8.2 0s0-.1 0 0Z"/><path fill="#263238" d="M551.4 103a11.5 11.5 0 0 1-2 4.9 11 11 0 0 1-4.2 3.2c3.3-1 6.3-4.5 6.3-8a.1.1 0 0 0-.1-.1Z"/><path fill="#d3766a" d="M564.9 119s2.9-4.8 5-3.8.2 7.6-2.2 8.7a2.4 2.4 0 0 1-3.3-1.1Z"/><path fill="#263238" d="M569.3 117.1a6.2 6.2 0 0 0-3 4 1.3 1.3 0 0 1 2-.4 1.5 1.5 0 0 0-1.6.7 7.5 7.5 0 0 0-.7 1.4l-.3-.1c-.2-2.1 1.3-5.2 3.5-5.6Z"/><path fill="#ffc4c0" d="M590 391.6c1.7-.2 41.1-19.4 42.2-21 .4-.7-2-6.6-5.2-13.6-.7-1.6-13.1-25.5-13.1-25.5l-25.6 12.3 13.2 25.4s-11.9 14.1-12.8 16-.3 6.6 1.4 6.4Z"/><path fill="#f4e3d7" d="M590 391.6c1.7-.2 41.1-19.4 42.2-21 .3-.6-1.5-5.3-4.1-11.2-1.7 2.1-25.1 19.3-32.5 20.5-3 .5 2.1-6.2 2.4-6.5-3.6 4.4-8.7 10.6-9.3 11.9-1 2-.3 6.5 1.4 6.3Z"/><path d="M590 391.6c1.7-.2 41.1-19.4 42.2-21 .3-.6-1.5-5.3-4.1-11.2-1.7 2.1-25.1 19.3-32.5 20.5-3 .5 2.1-6.2 2.4-6.5-3.6 4.4-8.7 10.6-9.3 11.9-1 2-.3 6.5 1.4 6.3Z" opacity=".1"/><path fill="#f4e3d7" d="M597.5 374s3.5-2.6 9.6.4"/><path d="M597.5 374s3.5-2.6 9.6.4" opacity=".1"/><path fill="#37474f" d="m618.1 338.4-27.8 12.2s-11.8-21.6-10.2-35.7c1.7-15.7 15.7-61.7 15.7-61.7h31.4s-16 45.7-17 61.9c-.4 6.3 8 23.3 8 23.3Z"/><path fill="#263238" d="M614.1 334.5c-4.2 1.5-8.5 3.2-12.6 5l-6.2 2.6-6.3 3v.1c2.2-.8 4.4-1.5 6.5-2.4l6.3-2.6a210 210 0 0 0 12.4-5.5.1.1 0 0 0 0-.2ZM605.8 315.3c-.2-1.8 1.4-8.2 1.8-9.7l2.5-9.3q2.7-9.4 5.6-18.7 3.3-10.5 7-20.9c0-.2-.3-.3-.4 0q-6.7 18.5-12 37.4l-2.7 9.5c-.4 1.6-2.3 9.5-2.3 11a82.1 82.1 0 0 0 5.6 18.4c-2-5.9-5-16.1-5.1-17.7Z"/><path fill="#263238" d="m598.7 253.2 13.7 49.3c4.6-20 14.8-49.3 14.8-49.3Z"/><path fill="#ffc4c0" d="M596.1 398.5c1.6.5 45.4 0 47.1-1.1.6-.4 1-6.8 1-14.6l-1-28.6-28.3.3 1.1 28.6s-16.7 7.7-18.4 9.1-3 5.8-1.5 6.3Z"/><path fill="#f4e3d7" d="M596.1 398.5c1.6.5 45.4 0 47.1-1.1.6-.4.9-5.4 1-11.9-2.4 1.2-30.9 6.8-38 4.8-3-.8 4.5-4.7 4.8-4.9-5 2.4-12.3 6-13.4 6.8-1.7 1.4-3 5.8-1.5 6.3Z"/><path d="M596.1 398.5c1.6.5 45.4 0 47.1-1.1.6-.4.9-5.4 1-11.9-2.4 1.2-30.9 6.8-38 4.8-3-.8 4.5-4.7 4.8-4.9-5 2.4-12.3 6-13.4 6.8-1.7 1.4-3 5.8-1.5 6.3Z" opacity=".1"/><path fill="#f4e3d7" d="M610.3 385.8s4.4-1 8.6 4.4"/><path d="M610.3 385.8s4.4-1 8.6 4.4" opacity=".1"/><path fill="#37474f" d="M644.4 361.8h-29.6S613.1 340 612 328c-1.3-12.7-3.2-52.5-3.2-52.5l-4.2-1.4c-4.5-2.8-8.4-17-8.9-20.9h41.5s6 17.2 2.8 28c0 0 .5 37.3 1.1 44 1.3 12.7 3.2 36.6 3.2 36.6Z"/><path fill="#263238" d="M604.4 273.8a69.8 69.8 0 0 1 9.6 3.4c.1 0 0 .2 0 .2-3.3-1-6.7-2.1-9.8-3.3-.3-.1-.1-.4.2-.3ZM603.3 256.6s.2-.1.2 0a64.7 64.7 0 0 0 .6 8.4c.1 1.3 1.5 8.4 4.4 7.9.5-.1.7-.5.8-1a7 7 0 0 0-.4-2.2c-.3-1.5-.6-3-.7-4.5a31.7 31.7 0 0 1 0-8.4h.3a59.7 59.7 0 0 0 .8 11.6c.4 1.8 1.6 4.6-.9 5s-4.2-4.5-4.5-5.7a33 33 0 0 1-.6-11.1Z"/><path fill="#263238" d="M608.4 273a10.7 10.7 0 0 1 .7 1.5 2.6 2.6 0 0 1 .2 1.2h-.2a3.8 3.8 0 0 1-.7-1.2l-.6-1.4c-.1-.2.4-.4.6-.1ZM633.7 268c-2.9-.4-6-.8-8-3.2a10.8 10.8 0 0 1-1.9-3.8l-1-4.7h-.2a15.6 15.6 0 0 0 .6 5.2 10.3 10.3 0 0 0 2 3.9c2.2 2.4 5.4 2.8 8.4 2.7.1 0 .2-.1 0-.1ZM642.5 356.2c-4.5-.2-9-.2-13.6-.1l-6.8.1-6.8.4c-.1 0-.1.1 0 .1l6.8.2h6.8c4.5 0 9-.1 13.6-.5a.1.1 0 0 0 0-.2ZM614.8 361.8c-1.6-14-3-29.1-4-43-.9-13.8-1.5-29.6-2-43.3 1 14 1.8 29.2 2.7 43.2s2.3 29.1 3.2 43.1ZM634.3 254.7a45 45 0 0 1 2.1 25l.6 18.3.5 18.4c.5 12.1 1.9 24.8 2.6 36.8-1-8.8-1.9-18.6-2.7-27.5-.7-6.1-.9-21.3-1.1-27.7l-.4-18.5c2.4-8 .6-16.8-1.6-24.8ZM625.9 216.8a2.1 2.1 0 0 1-1.1 2 15.8 15.8 0 0 1-2 1 61.4 61.4 0 0 0-.2-6.6 80 80 0 0 0-.9-7.6l.4 7.7c.1 2.2 0 4.5.2 6.8l-2 .7v-2.3c0-2.4-.3-4.7-.4-7v9.5l-1.5.4-1 .3-.2-4.7-.5-7.3h-.1l.1 7.3v4.8a39.5 39.5 0 0 1-12.8.6 58.8 58.8 0 0 1-7.5-1.3c-.6 0-2-.5-3.5-1l-.1-2.2-.1-4.9-.4 5v2l-1.5-.5c.2-3 0-6.2 0-9.3h-.1c-.2 3-.5 6-.4 9.1a6.3 6.3 0 0 1-1-.3c-.8-.6-.3-12.8-.2-15.7 0-5.3-.1-10.8 1.5-16a15.8 15.8 0 0 1 9.3-10.2c2.2-.9 4.7-.8 7-.7a16.7 16.7 0 0 1 12 6.4 27.4 27.4 0 0 1 3 6.5 54.3 54.3 0 0 1 2 7.5c.9 5.2 1.3 10.4 1.7 15.7 0 1.5.3 3 .3 4.3Z"/><path fill="#f4e3d7" d="m639.1 259.7-47.2-.2s4.4-25 13.8-43.3a8.7 8.7 0 0 1 15-1 150.3 150.3 0 0 1 18.4 44.5Z"/><path fill="#fff" d="M610 230.1c.7-.8 1.4.9 1.6 1.8 0-1 .4-2.5 1.1-2 .4.2.3 1 .2 1.4a8.7 8.7 0 0 1-1.2 2.3 7.2 7.2 0 0 1-1.5-1.9c-.2-.3-.5-1.2-.2-1.6Zm14.8 1.6a7.2 7.2 0 0 0 1.6 2 8.4 8.4 0 0 0 1.2-2.3c.1-.4.2-1.2-.2-1.5-.8-.5-1 1-1.1 2-.3-.9-1-2.6-1.6-1.8-.4.4 0 1.3.1 1.6Zm-19.4-13.1c-.7-.5-1 1.1-1 2a7.2 7.2 0 0 0-.4-1l-.7 1.6a5.7 5.7 0 0 0 1.1 1.2 8.8 8.8 0 0 0 1.2-2.3c.1-.4.2-1.2-.2-1.5Zm12.1 1.8a7 7 0 0 0 1.6 2 8.4 8.4 0 0 0 1.2-2.3c.1-.4.2-1.2-.2-1.5-.8-.5-1 1.1-1.1 2-.3-.9-1-2.6-1.7-1.8-.3.4 0 1.3.2 1.6Zm-22 34.3a7.2 7.2 0 0 0 1.6 2 8.7 8.7 0 0 0 1.2-2.4c.1-.4.2-1.2-.2-1.4-.8-.5-1 1-1.1 2-.3-1-1-2.6-1.7-1.8-.3.4 0 1.3.2 1.6Zm14.7 0a7.2 7.2 0 0 0 1.5 2 8.7 8.7 0 0 0 1.2-2.4c.1-.4.2-1.2-.2-1.4-.7-.5-1 1-1 2-.3-1-1-2.6-1.7-1.8-.3.4 0 1.3.2 1.6Zm14.6 0a7.2 7.2 0 0 0 1.6 2 8.4 8.4 0 0 0 1.2-2.4c.1-.4.2-1.2-.2-1.4-.8-.5-1 1-1.1 2-.3-1-1-2.6-1.7-1.8-.3.4 0 1.3.2 1.6Zm-22-11.3a7 7 0 0 0 1.6 2 8.7 8.7 0 0 0 1.2-2.4c.1-.3.2-1.2-.2-1.4-.8-.5-1 1-1.1 2-.3-1-1-2.6-1.7-1.8-.2.4 0 1.3.3 1.6Zm14.7 0a7 7 0 0 0 1.5 2 8.4 8.4 0 0 0 1.3-2.4c.1-.4.2-1.2-.2-1.5-.8-.5-1 1.1-1.1 2-.3-.9-1-2.5-1.7-1.7-.3.4 0 1.3.2 1.6Zm16.3-1.3a6.2 6.2 0 0 0-.2 1.5c-.3-1-1-2.6-1.7-1.8-.3.4 0 1.3.2 1.6a6.8 6.8 0 0 0 1.6 2 6.4 6.4 0 0 0 .8-1.5Z"/><path fill="#ffc4c0" d="M622.3 224.7c-.6 17.1-6.7 37.5-12.4 39-6.4 1.7-5.8-21.6-5-22.3.6-.4 5-8.7 10.2-19.7s7.4-1.2 7.2 3Z"/><path fill="#f4e3d7" d="M604.8 241.4c.9-1.5 7.8-15.9 11-22s6.7-3.9 6.9 5-2.2 24.3-7.6 34c-5.2 9.2-9.3 6.3-10.6-2-1.1-6.7.3-15 .3-15Z"/><path fill="#fff" d="M617.3 172.9c.8-.8 1.4.8 1.7 1.7 0-.8.3-2.4 1-2 .5.3.4 1.1.3 1.5a8.4 8.4 0 0 1-1.2 2.3 7 7 0 0 1-1.6-2c-.2-.2-.5-1.1-.2-1.5Zm-4.5 57c-.8-.5-1 1-1.1 2-.3-.7-.7-1.8-1.2-2l-.6 1.2a2.5 2.5 0 0 0 .3.6 7.2 7.2 0 0 0 1.5 2 8.8 8.8 0 0 0 1.3-2.4c0-.3.2-1.1-.3-1.4Zm4.7-9.5a7 7 0 0 0 1.6 2 8.4 8.4 0 0 0 1.2-2.4c.1-.3.2-1.1-.2-1.4-.8-.5-1 1-1.1 2-.3-.9-1-2.6-1.7-1.8-.3.4 0 1.3.2 1.6Zm-7.3 34.3a7.2 7.2 0 0 0 1.5 2 8.7 8.7 0 0 0 1.3-2.4c0-.4.2-1.2-.3-1.5-.7-.5-1 1.1-1 2-.3-.8-1-2.5-1.7-1.7-.3.4 0 1.3.2 1.6Zm-4.8-13.1c-.3-.2-.5-.1-.7.2l-.4 3.5h.1a8.8 8.8 0 0 0 1.2-2.3c.1-.3.2-1.2-.2-1.4Zm12.1 1.8a7 7 0 0 0 1.6 2 8.4 8.4 0 0 0 1.2-2.4c.1-.4.2-1.2-.2-1.5-.8-.5-1 1.1-1.1 2-.3-.9-1-2.5-1.7-1.7-.3.4 0 1.3.2 1.6Z"/><path fill="#263238" d="M601.1 249.7c1.6-3 9.3-19 9.3-19l2.2-4.6 2.1-4.7-2.3 4.6-2.4 4.6-8.9 19Z"/><path fill="#263238" d="M612 226.6a14.2 14.2 0 0 0 .7-2l.2-1 .1-1a9.1 9.1 0 0 0-.6 2 12 12 0 0 0-.3 2Z"/><path fill="#ffc4c0" d="M609.9 263.7c-4.8 1-12.4-3-28.6-13.7-2.3-1.4 5.6-20.8 8-19.4 3.2 1.9 15 9.6 15.7 10.3 6.7 5.6 8.1 22.2 4.9 22.8Z"/><path fill="#ffc4c0" d="M594.1 235.7s-4-6.4-6.8-10.5c-1.6-2.3-4.6-6-6.5-7-2.9-1.8-16-7-17.3-4-1.3 2.9 10.6 6 10.6 6s-11.7-4.2-12.5-.5 13 5.5 13 5.5-12-4-12.4-.1c-.2 3 12.3 5.3 12.3 5.3s-10.5-3.5-10.8-.4c-.4 3.4 11 6.2 11 6.2.4 8 3.8 11.6 6.6 13.9.7.5 12.8-14.4 12.8-14.4Z"/><path fill="#263238" d="M578.2 221.4 574 220c-1.4-.5-2.8-.8-4.3-1a24.6 24.6 0 0 0-5.6-.7 53.7 53.7 0 0 1 9.8 2l4.2 1.3ZM576.7 226.5l-5.2-1.9-5.3-1.3c-.2 0-.1 0 0 .1l5.2 1.6a258 258 0 0 1 5.3 1.5ZM576.3 231a41.2 41.2 0 0 0-8.3-2.1c-.1 0 0 0 0 0l8.2 2.3s.1-.1 0-.1Z"/><path fill="#f4e3d7" d="m591.5 231.5-1 25s14.7 8.8 19.5 7.4c3.2-.9 2.2-17.8-5.6-23.6Z"/><path fill="#fff" d="M595.4 253c.7-.7 1.3 1 1.6 1.8 0-.8.3-2.4 1.1-2 .4.3.3 1.1.2 1.5a8.7 8.7 0 0 1-1.2 2.3 7.2 7.2 0 0 1-1.6-2c-.2-.2-.5-1.1-.1-1.5Zm16 1c-.3-.8-.8-1.5-1.3-1-.4.5 0 1.4.1 1.7a7.2 7.2 0 0 0 1.5 1.8l-.4-2.5Zm-8.5-10.6a7 7 0 0 0 1.6 2 8.7 8.7 0 0 0 1.2-2.4c0-.3.2-1.2-.2-1.4-.8-.5-1.1 1-1.2 2-.2-1-.9-2.6-1.6-1.8-.3.4 0 1.3.2 1.6Z"/><path fill="#263238" d="M610.5 250.4a16.6 16.6 0 0 0-6.1-10.1 27.2 27.2 0 0 1 6.1 10.1ZM596 257.4c.3-2.7.4-5.5.5-8.2l.2-8.3v-4.7a151.3 151.3 0 0 0-.8 16.5v4.7h.1Z"/><path fill="#263238" d="M591.7 231.3a24 24 0 0 1 2.7 1.7l2.6 1.8a64.5 64.5 0 0 1 8.4 6.3s-.3 0-.3 0c-1.3-1.3-12.6-8.7-13.4-9.4a2.2 2.2 0 0 1-.1.3h-.1a3.8 3.8 0 0 1 0-.5.1.1 0 0 1 .2-.2ZM623.5 228c-1.4 10-3.3 20-7.4 29.3-1.5 2.8-3.2 6.2-6.5 7a14 14 0 0 1-5.6-1.1 90.3 90.3 0 0 1-13.6-6.6l6.8 3.2a50 50 0 0 0 10.6 3.8 3.9 3.9 0 0 0 3.3-.7c7-5.7 10.5-25.8 12.4-35Z"/><path fill="#263238" d="M623.9 229.4a4.5 4.5 0 0 1-1.2 3.2 7.9 7.9 0 0 1 1.2-3.2Z"/><path fill="#ffc4c0" d="M615.4 212.6c0 .9-2.7 6.8-6.3 7.4-1.2.2-2.6-6.2-2.6-6.2l-.2-.5-3-6.3 7.8-7.6s4.3 12.9 4.3 13.2Z"/><path fill="#263238" d="m603.4 207 2.9 6.3.2.5.6 2.5a10.6 10.6 0 0 0 6.6-8.8l-2.7-8.1Z"/><path fill="#ffc4c0" d="M587.9 196.8c-.7 16 8.8 18.2 12.2 18.4 3.2.1 13.9.2 16.2-15.7s-4.8-21.2-12-22-15.7 3.2-16.4 19.3Z"/><path fill="#263238" d="m590.3 196.3 1.1-.2a1.8 1.8 0 0 0 1-.5.6.6 0 0 0 0-.7 1.4 1.4 0 0 0-1.3-.3 2 2 0 0 0-1.3.8.6.6 0 0 0 .5 1ZM601.2 196.6a10 10 0 0 1-1-.2 1.7 1.7 0 0 1-1.1-.4.6.6 0 0 1 0-.7 1.4 1.4 0 0 1 1.4-.4 2.1 2.1 0 0 1 1.3.7.6.6 0 0 1-.6 1ZM599.8 198.7c1.8-.2 1.9 3.3.3 3.5s-1.8-3.4-.3-3.5Z"/><path fill="#263238" d="M600.5 198.8c.3.2.6.5 1 .6s.7-.4 1-.8c0 .7-.1 1.4-.9 1.6s-1.1-.5-1.3-1.2c0 0 0-.3.2-.2ZM592 198.6c-1.9 0-1.8 3.5-.2 3.5s1.6-3.5.1-3.5Z"/><path fill="#263238" d="M591.2 198.8c-.3.2-.6.6-1 .6s-.6-.3-.8-.7c0 .7.1 1.4.8 1.5s1-.5 1.2-1.2l-.2-.2ZM599.6 208.3c-.2.3-.5.7-.9.7a3 3 0 0 1-1.2-.1 1.5 1.5 0 0 0 1.5.5 1.2 1.2 0 0 0 .7-1c0-.1 0-.1-.1 0ZM595 204.5l-.2 2.4.4.1a3.7 3.7 0 0 0 3.5-1.5s0-.1 0 0a5.5 5.5 0 0 1-3.4 1l.3-2.8c-.5 0-1.4.4-1.8.4l.7-6s-.2-.1-.2 0a52 52 0 0 0-1.2 6.7c0 .2 1.5-.2 1.8-.3Z"/><path fill="#263238" d="M595.3 206.4a4.5 4.5 0 0 0 1.6 1.6 2 2 0 0 0 1.2.1c1-.1 1-1 1-1.6a4.7 4.7 0 0 0-.4-1.1 5.8 5.8 0 0 1-3.4 1Z"/><path fill="#ff9cbd" d="M597 208a2 2 0 0 0 1.1.2c1-.2 1-1 1-1.7a2 2 0 0 0-2.2 1.5Z"/><path fill="#263238" d="M616 201.6a6.7 6.7 0 0 1-4-5.1 16.9 16.9 0 0 1-7.5-5.1l1.6 3.8a17.5 17.5 0 0 1-13.9-8.6 18.3 18.3 0 0 0-3.8 7s-.6-6.3 2.2-10.9a10 10 0 0 1 8.8-5 13.8 13.8 0 0 1 14.2 3c7 6.7 2.4 21 2.4 21Z"/><path fill="#263238" d="M598.4 194.2a18.3 18.3 0 0 0 5.3 1.5 15.4 15.4 0 0 1-7.8-3.9 15.8 15.8 0 0 1-2.4-3 10.7 10.7 0 0 1-1.6-3.7h-.2a12.9 12.9 0 0 0 1.1 4 11.6 11.6 0 0 0 2.6 3.2 12.7 12.7 0 0 0 3 2Z"/><path fill="#f4e3d7" d="M611.4 195s-4.4-1.7-3.7-.2a3.2 3.2 0 0 0 1.7 1.7s.5 1.8 1.1 1.8 1.7-2.1 1.5-2.5a5.4 5.4 0 0 0-.6-.8Z"/><path fill="#050400" d="M611.4 195a6 6 0 0 1 .6.8 2.2 2.2 0 0 1-.4 1.3 5.9 5.9 0 0 1-1-.8 2.7 2.7 0 0 1-.3-1.7 8 8 0 0 1 1 .4Z" opacity=".1"/><path fill="#f4e3d7" d="M612 194.5s.1-5.5 1.6-4.6a2.6 2.6 0 0 1 1.3 2.3s2 .8 1.6 1.6-3.5 1.9-3.8 1.6a3.6 3.6 0 0 1-.7-.9Z"/><path fill="#050400" d="M613.4 194.3a2.2 2.2 0 0 1 .4 1c-.6.1-1 .2-1.1 0a3.6 3.6 0 0 1-.7-.8s0-.3 0-.9a2.5 2.5 0 0 1 1.4.7Z" opacity=".1"/><path fill="#f4e3d7" d="M613 194.5a1.3 1.3 0 1 1-1.8-.2 1.3 1.3 0 0 1 1.8.2Z"/><path fill="#ffc4c0" d="M613.8 200.6s3.2-5.1 5.6-4 0 8.5-2.7 9.7a2.7 2.7 0 0 1-3.7-1.3Z"/><path fill="#263238" d="M618.6 198.7v.1c-1.8.8-2.7 2.6-3.3 4.4a1.5 1.5 0 0 1 2.2-.5v.1a1.7 1.7 0 0 0-1.8.7 8.3 8.3 0 0 0-.8 1.5c-.1.2-.4.1-.4 0-.1-2.5 1.6-6 4.1-6.3Z"/><path fill="#c95f50" d="M145.2 186.7c-13.6 20.4-35 67.8-38.7 74.5-2.6 4.6 19.9 17.4 21.2 14 1.6-4.3 23.6-58.6 26.3-83.7 1.3-11.7-4.5-11.3-8.8-4.8Z"/><path fill="#c95f50" d="M129.4 269.3c.1-3.1-17.8-12.3-20.4-10.5a42.3 42.3 0 0 1-16.4 5.7c-5.2.5-13.2.5-13 3.4.2 4.2 10.2 5.3 16 5.6a17.7 17.7 0 0 0-3 6.8c-.6 5.6 24 11.3 28 7.2 4-4 8.7-15 8.8-18.2Z"/><path fill="#f4e3d7" d="m62.8 339.6 7.3-46.2 76.2 12.2-7.4 46z"/><path d="m62.8 339.6 7.3-46.2 76.2 12.2-7.4 46z" opacity=".3"/><path d="m67.6 315.6 3.5-21.8 76.4 12.4-3.6 21.7z" opacity=".1"/><path fill="#f4e3d7" d="M145.8 320.6 66 307.9l3.4-21.6 79.8 12.8z"/><path d="M145.8 320.6 66 307.9l3.4-21.6 79.8 12.8z" opacity=".3"/><path fill="#263238" d="m94.5 277.8-2 12.2 5.8 1 1.1-7 22 3.5-1.1 7 5.8.9 2-12.3-33.6-5.3zM134 324l-5.3-.8 1.7-10.3 5.2.8zM81.3 315.6l-5.2-.8 1.6-10.3 5.3.9z"/><path fill="#c95f50" d="M95.1 271.8c2.9-.7 2.1 3 2.1 3s2.4-5.1 5.6-4.7 2 4.8 2 5.2c0-.3 2.4-5 5.6-4.3s1.5 5.1 1.3 5.4c.2-.2 3-3 5.3-2 4 2-2.9 9.4-2.5 12.9l6.2.2s-6.3 7.2-11.1 7.3a3 3 0 0 1-3.1-2.2s-1.8 2.5-4.3 2c-1.3-.2-2-2.5-2-2.5a3.8 3.8 0 0 1-3.8 1.4c-1.8-.5-2.2-2.7-2.2-2.7s-2.4 1.2-4 .2c-3.4-2.1-1.1-17.6 5-19.2Z"/><path fill="#263238" d="M94 290.5a27.2 27.2 0 0 1 3.2-15.9c0-.1.4 0 .3.1a55.6 55.6 0 0 0-3.5 15.8ZM100 292.2a25.5 25.5 0 0 1 4.6-17c.2-.3.5-.3.3 0a46 46 0 0 0-4.8 17ZM112.1 276.2a35 35 0 0 0-5.8 16.2 23 23 0 0 1 1.4-9.5 15.8 15.8 0 0 1 4.3-6.8c0-.1.2 0 .1 0Z"/><path fill="#263238" d="M97.2 274.8c0-.2.2.1.3 0 .5-.8 3.8-5 5.6-4.4 1.4.5 1.7 2.8 1.4 3.8l-.6 2.3 1.4-2a9.8 9.8 0 0 1 2.2-2.3 3.5 3.5 0 0 1 2.7-.9 2 2 0 0 1 1.8 2 6 6 0 0 1-.7 3l-1.2 2.5 2-2a9.3 9.3 0 0 1 1.9-1.5 3.8 3.8 0 0 1 2-.6 1.8 1.8 0 0 1 1.6 1 4 4 0 0 1 0 2.3 31.9 31.9 0 0 1-1.7 4.6 59 59 0 0 0-1 2.3 6 6 0 0 0-.4 2.5 6.3 6.3 0 0 1 .7-2.4l1.1-2.2a28 28 0 0 0 2-4.7 4.7 4.7 0 0 0 .1-2.7 2.6 2.6 0 0 0-2.3-1.6 4.7 4.7 0 0 0-2.6.7 10.7 10.7 0 0 0-2 1.6l.7.6a7 7 0 0 0 .8-3.5 3 3 0 0 0-.8-1.8 3.3 3.3 0 0 0-1.7-1 4.4 4.4 0 0 0-3.5 1 10.6 10.6 0 0 0-2.4 2.7l.8.3c.3-1.2.2-3.8-1.9-4.9-3-1-5.9 4.3-6.3 5.3Z"/><path fill="#263238" d="M97.2 274.8a5.8 5.8 0 0 0-.3-1.7 1.4 1.4 0 0 0-1-1 2.7 2.7 0 0 0-1.5.3 17.1 17.1 0 0 0-1.6.9 4.7 4.7 0 0 1 1.3-1.4 2.8 2.8 0 0 1 2-.6 2 2 0 0 1 1 .6 2 2 0 0 1 .4 1 3 3 0 0 1-.3 2Z"/><path fill="#f4e3d7" d="m106.7 256.5 26.1 14.9s18-56.3 21-75.8-4.9-15.5-10.7-6.6c-7.9 12.2-36.4 67.5-36.4 67.5Z"/><path fill="#263238" d="M133.2 263.2a491.2 491.2 0 0 1-20.8-11.6 215.2 215.2 0 0 1 20.8 11.5v.1Z"/><path d="m154 194.5-.2 1.1c-3 19.4-20.7 74.9-21 75.8l-21.3-12.1c6.4-13.9 24-52.2 34-73.5 5.2-6.2 10.6-7.2 8.4 8.7Z" opacity=".1"/><path fill="#c95f50" d="m158.8 411.8 2.8 39.4c0 7.7 0 14.5-.4 18a5.5 5.5 0 0 1-.5 2.5c-2.4 1.6-64 3.7-66 3s-.6-6.9 1.7-8.9 25.6-13.3 25.6-13.3l-2.5-39.3Z"/><path fill="#fff" d="M161.7 443v8.3c0 7.7-.1 14.4-.5 18a10.2 10.2 0 0 1-.5 2.4c-2.4 1.6-64 3.7-66 3s-.6-6.8 1.7-8.8 25.6-13.4 25.6-13.4l-.1-8.4Z"/><path fill="#f4e3d7" d="M94.6 474.7c2.1.6 63.7-1.5 66-3 .9-.6 1-9.6 1-20.5v-.3l-39.7 1v.6s-23.2 11.3-25.6 13.3-4 8.3-1.7 8.9Z"/><path fill="#263238" d="M95.2 472.3a1659.6 1659.6 0 0 1 62.5-1.9 1567.1 1567.1 0 0 1-62.5 1.9ZM118.6 452.7c4-.9 9-.4 12.3 2.4.1 0 0 .2-.2.2a57.6 57.6 0 0 0-12-2 .3.3 0 0 1 0-.6Z"/><path fill="#263238" d="M115.7 454.6c4-1 9.1-.5 12.3 2.3.1.2 0 .3-.1.3a57.5 57.5 0 0 0-12.1-2.1.3.3 0 0 1 0-.5ZM112.8 456.5c4-1 9.1-.5 12.3 2.3.2.1 0 .3-.1.3a56.9 56.9 0 0 0-12.1-2.1.3.3 0 0 1 0-.5Z"/><path fill="#37474f" d="m164 453-43.1-1s-5.3-77.5-4.3-103.4c1.1-28 13.2-111.6 13.2-111.6h36.4s-9.3 84-9.5 112c-.2 26 7.3 104 7.3 104Z"/><path fill="#263238" d="m129.8 237 27.7 92.9a3488 3488 0 0 1 8.7-92.9Z"/><path fill="#263238" d="m159.3 241-2.3 25-2.1 25c-1.4 16.6-2.7 33.3-3.7 50a175 175 0 0 0 .1 25q.7 12.6 1.6 25t2 25l2.3 25-1.8-25-1.8-25-1.4-25-.5-12.5c0-4.2.1-8.3.4-12.5 1-16.7 2.2-33.3 3.4-50ZM122.7 444.9c6.7 0 4.8-.2 11.5-.1a471.2 471.2 0 0 1 28 .7c-3 .5-24.7 0-28 0l-11.5-.4a.1.1 0 0 1 0-.2Z"/><path fill="#c95f50" d="m222.4 390.7 20.8 33.9c3.4 6.9 6.2 13 7.4 16.3a5.5 5.5 0 0 1 .5 2.5c-1.4 2.4-56 31-58.2 31.4s-3.4-6-2.2-8.8 17.3-23.1 17.3-23.1L187.5 409Z"/><path fill="#fff" d="M251.1 443.4c-1.4 2.4-56 31-58.2 31.4s-3.4-6-2.2-8.8 17.3-23.1 17.3-23.1l-3.6-6c8.9-4.8 25-13.2 35.1-18.3 2.3 3.5 3.7 6 3.7 6 3.4 6.9 6.3 13 7.4 16.3a5.2 5.2 0 0 1 .5 2.5Z"/><path fill="#f4e3d7" d="M193 474.8c2.2-.4 56.7-29 58.1-31.4.6-.9-3.1-9-7.9-18.8l-.1-.4-35.5 18.1.4.6s-16 20.3-17.3 23.1 0 9.2 2.2 8.8Z"/><path fill="#263238" d="M192.4 472.4c9.1-5 46.2-24.6 55.6-28.9a1656 1656 0 0 1-55.6 28.9ZM205 444.6c3.3-2.6 8-4.4 12.2-3.3v.3a57.3 57.3 0 0 0-11.9 3.4.3.3 0 0 1-.2-.4ZM203.3 447.5c3.2-2.6 8-4.3 12-3.2.2 0 .2.3 0 .3a57.1 57.1 0 0 0-11.7 3.4.3.3 0 0 1-.3-.5ZM201.5 450.4c3.2-2.5 8-4.3 12-3.2.2 0 .2.3 0 .3a57.8 57.8 0 0 0-11.8 3.4.3.3 0 0 1-.2-.4Z"/><path fill="#37474f" d="M129.8 237c.1.7 2.7 12.5 5.3 22.6a51 51 0 0 0 5 14.6c1.3.8 7.5 3.6 9.6 4.4 0 0 9.8 70.2 17.2 92 6.9 20 35.5 72.9 35.5 72.9l41-20.8s-32.3-53.6-35.6-63.4c-5.3-15.2-21.2-88.2-21.2-88.2s.4-6.3.3-8.5c-.2-4.4-6-22.6-7.3-25.7Z"/><path fill="#263238" d="M201.9 435.3c5.8-3.3 4.1-2.5 10-5.7 2.9-1.6 21.9-11.9 24.8-12.9l.1.1a480.8 480.8 0 0 1-24.6 13.4c-6 3.2-4.3 2.2-10.3 5.2a.1.1 0 0 1 0-.1ZM173 261.7c-1-.4-9.7-2.3-11.8-5.7a79 79 0 0 1-3.3-12.4c.1.5.1 10 2.8 13.9 1.9 2.8 11.1 4.5 12.2 4.5a.2.2 0 0 0 .1-.3ZM138.9 273.3a82.5 82.5 0 0 1 12.9 6 .1.1 0 0 1-.2.2c-4.3-1.8-8.7-3.6-13-5.7a.3.3 0 0 1 .3-.6ZM137.6 243.5c0-.1.3-.2.3 0a144.6 144.6 0 0 0 .7 14.5c.2 2.3 2 14.6 5.9 13.7.6-.1 1-.8 1-1.8a15.4 15.4 0 0 0-.5-3.7l-1-7.8a70.7 70.7 0 0 1 .2-14.7.1.1 0 0 1 .2 0 136.2 136.2 0 0 0 1.2 20.2c.5 3.2 2.1 8-1.2 8.6s-5.7-7.6-6.1-9.9a73.7 73.7 0 0 1-.7-19Z"/><path fill="#263238" d="M144.3 272a20.9 20.9 0 0 1 1 2.6 5.8 5.8 0 0 1 .3 2 .1.1 0 0 1-.3.1 7.4 7.4 0 0 1-.9-2l-.9-2.4a.4.4 0 0 1 .8-.3ZM230.8 414.6c-5.8-11-10.5-19.8-16.6-30.7l-9-16.1a99 99 0 0 1-6.4-16.8c-3.7-11.8-15-73.8-15.7-76.8-.4-1.8.4-12.1 0-15s-4.4-17.6-4.9-19a.1.1 0 0 0-.2 0c1.7 5.9 3.7 15.9 4.2 18.9s-.2 14 0 15.4 10.8 61 14.4 72.8a140.8 140.8 0 0 0 5.9 17.1c2.4 5.5 5.6 10.7 8.5 16 6.1 10.9 11 19.6 17.3 30.3.7 1.4 1.6 2.8 2.4 4.1l.1-.2ZM127.3 259.9a8.4 8.4 0 0 0 3.3-2c2-3 2.4-12 2.6-14.4 0-.1 0-.1 0 0 0 2.7 0 5.4-.3 8a28.8 28.8 0 0 1-1 6.2c-.6 1.6-3.8 2.8-4.6 2.4v-.2Z"/><path fill="#f4e3d7" d="M127.4 250.5c1.4 1.2 58 3 58.2 2.7a13.8 13.8 0 0 0 1.3-8.2c-2-15.4-10.4-49-22.9-60.5-4.7-4.3-13.9-4.4-17.4.2-6.5 8.3-17.7 42.2-20.7 57.4a12.9 12.9 0 0 0 1.5 8.4Z"/><path fill="#c95f50" d="M161.8 193.5c1.6 10 12.7 39.7 18.7 43.8 6.2 4.3 25.4 16.4 30.2 17.3 4 .7 11.7-22.5 9.6-23.4a240.6 240.6 0 0 1-27.1-13c-1.5-1.3-12.7-16.3-21.9-28-6.6-8.5-10.4-3.1-9.5 3.3Z"/><path fill="#c95f50" d="M210.7 254.6c2.4 1.3 15.7 7.4 19.3 8.1s14.1 2.1 15-.6-2.2-3.3-2.2-3.3 4.5-.2 5.1-3-4.2-3.6-4.2-3.6 4.7-.5 5-3.3-4.5-3-4.5-3 4.2-.1 3.6-2.6c-.8-3-8.6-1.7-12.6-2.8l-17.6-6.3Z"/><path fill="#263238" d="M244.6 246c-5.7 1-8.4.4-13.7-1.8-.1 0-.2 0-.1.1 5 2.7 8.2 3.9 13.9 2 .3-.1.2-.3 0-.3ZM244.2 252.1a31 31 0 0 1-14.7-1.9c5.4 2.4 8.7 3.5 14.7 2.2.2 0 .2-.3 0-.3ZM242.5 258.6c-6 .1-9.2-.4-14.5-3a.1.1 0 0 0 0 .2c5 3.2 9.1 3.9 14.4 3 .4 0 .4-.2 0-.2Z"/><path fill="#c95f50" d="M215.6 229.3s7.8-.9 11-.4 14.6 7.1 13.4 9.6c-1.6 3.3-9 .8-12.3-.8 0 0-3.8 7.5-9.4 6.9s-2.7-15.3-2.7-15.3Z"/><path fill="#263238" d="M239.2 239.3c-3.6 1.9-8-.6-11.4-2a.3.3 0 0 0-.5.3c-1.8 3-5.2 6.8-8.9 7.1v.2c4 .2 7.7-3.3 9.5-6.7 3.5 1.5 7.9 3.8 11.3 1 0 .1 0 0 0 0Z"/><path fill="#f4e3d7" d="m216.2 227.7-6.9 27.9s-20.8-9.2-29.2-17.1c-4.1-3.9-16.1-31.6-19.1-44-3.3-13.7 5.3-11.2 11.4-3.7 6.6 8 20.8 26 21.8 26.7.7.5 22 10.2 22 10.2Z"/><path fill="#263238" d="m206.6 238.6 1.5-6 1.6-6c0-.1.2 0 .1 0-.3 2-.8 3.9-1.2 5.8l-1.4 6.2a252.8 252.8 0 0 1-3.3 12l2.7-12ZM187 243.7c-3-1.9-6-3.7-8.4-6.4-2.7-3.6-4.4-7.9-6.4-12a203.7 203.7 0 0 1-8.6-22.3 179 179 0 0 0 2.3 5.5l7.2 16.5a118.2 118.2 0 0 0 5.3 10.7c2 3.4 5.7 5.6 8.6 8Z"/><path fill="#263238" d="M163.3 205.4a39.3 39.3 0 0 1 2.9 4.5 8.6 8.6 0 0 1-3-4.5Z"/><path fill="#c95f50" d="M149.8 191.8c3.2 1 9-3.3 11.5-7.3.2-.2 0-3.2-.2-6.8v-6.8l-14.1 2.5a35.6 35.6 0 0 1 .8 8.6 6.4 6.4 0 0 1-.1 1v.1c-.5 1.7-1 7.8 2 8.7Z"/><path fill="#263238" d="M161.3 181.3a17.1 17.1 0 0 1-13.9-5.5l-.4-2.4 14.1-2.6v7l.2 3.5ZM158.8 146.6c.8-.2 5.4 4.5 6 7s1 8 .2 8.4-6.7-15.3-6.2-15.4Z"/><path fill="#c95f50" d="M140.6 155.2c-.7 5.1 4 18.9 8 21.5 5.8 3.8 14.1 3 17-3.7 3-6.4-3.5-24.3-8-26.5-6.3-3.4-15.9 1.1-17 8.7Z"/><path fill="#263238" d="M166 164.7c.5 3.3.5 6.4-.3 8.3-3 6.7-11.3 7.5-17.1 3.7-1.6-1-3.4-4-4.8-7.4l2.3-6s2.2 4.1 4.4 5c3 1.1 8 .7 9.3-2.5l1.7-.4s3.1 1.3 4.5-.7Z" opacity=".3"/><path fill="#263238" d="M155.7 161.8c.3 1 .5 2-.3 2.7 1-.4.7-1.9.3-2.7Z"/><path fill="#263238" d="M154.5 161c-1.5.3-.7 3.4.7 3s.6-3.3-.7-3ZM161.1 160.3h.1c.2 1 .6 2 1.6 2.2-1.1.2-1.6-1.2-1.7-2.2Z"/><path fill="#263238" d="M161.7 159.1c1.5-.5 2.4 2.5 1 3s-2.3-2.5-1-3ZM153.2 160.2a9.7 9.7 0 0 0 1.1-.7c.4-.2.8-.3 1-.8a.7.7 0 0 0-.2-.8 1.7 1.7 0 0 0-1.7.1 2.4 2.4 0 0 0-1.2 1.3.7.7 0 0 0 1 .9ZM162.6 157.3a11.3 11.3 0 0 1-1.3 0 2.1 2.1 0 0 1-1.4-.2.7.7 0 0 1-.1-.8 1.7 1.7 0 0 1 1.5-.7 2.5 2.5 0 0 1 1.7.5.7.7 0 0 1-.4 1.2ZM157 170.8c.4.2.7.4 1 .3a2.6 2.6 0 0 0 1-.5 1.3 1.3 0 0 1-1 .9 1 1 0 0 1-1-.7Z"/><path fill="#263238" d="M157.3 167.7a3.4 3.4 0 0 0 2.6.9 4.4 4.4 0 0 0 1.1-.3h.3l.2-.2a.2.2 0 0 0 0-.2v-.1c0-.8-.5-2-.5-2 .4.1 1.9.4 1.8 0a50.4 50.4 0 0 0-3.9-9.4c0-.1-.2 0-.1 0 .8 3 2.2 6 3.1 9a6.2 6.2 0 0 0-1.6-.1l.8 2.4a4.6 4.6 0 0 1-3.7-.1s-.2 0 0 .1Z"/><path fill="#263238" d="M160.5 168.2a4 4 0 0 1-1.2 1.6 1.8 1.8 0 0 1-1 .3c-.8 0-1-.7-1-1.3a4 4 0 0 1 .1-1 5.1 5.1 0 0 0 3.1.4Z"/><path fill="#ff9cbd" d="M159.3 169.8a1.8 1.8 0 0 1-1 .3c-.8 0-1-.7-1-1.3a1.8 1.8 0 0 1 2 1Z"/><path fill="#263238" d="M143.7 167.4c2.5-.3 3.1-3.2 3.1-7.2 0-2.3-1.5-6.6-1.5-6.6s6.9 1.6 10.3.5 5.9-4.7 5.1-7.5c-.6-2.3-5.3-4.5-10.6-3.6a18 18 0 0 0-11.2 9.4s-4.2 3.2-2.7 6.6 4.7 8.8 7.5 8.4Z"/><path fill="#263238" d="M143.8 167.1c3.4 0 4-5.2 3.6-7.7s-2-5-3-7.5c1.7 2.8 3.8 6.5 3.4 10-.2 2.2-1 5.9-4 5.4v-.2ZM135.3 158c0-2.2 2-4.8 3.9-5.8-2.3 1.4-4.5 4.9-3.2 7.5a19.7 19.7 0 0 0 4.7 6.2 12.2 12.2 0 0 1-3.3-3.7c-.8-1.2-2.1-2.6-2.2-4.1Z"/><path fill="#263238" d="M138.5 152.8c2-4.8 7.3-10.8 12.9-10.7-5.9.4-10 6.3-12.7 10.9 0 .1-.3 0-.2-.2Z"/><path fill="#c95f50" d="M146 165.8s-4-4-5.8-2.5 1.7 7.7 4.3 8.2a2.5 2.5 0 0 0 3-2Z"/><path fill="#263238" d="M141.3 165a6.3 6.3 0 0 1 3.9 3.4 1.4 1.4 0 0 0-2.1 0s0 .1 0 .1a1.5 1.5 0 0 1 1.8.3 7.6 7.6 0 0 1 1 1.2c.1.1.4 0 .3-.2-.3-2.2-2.5-5-5-4.8Z"/><path fill="#ebebeb" d="m147.8 182.2 3.2 8.3 10.4-10.4 2.8 3.4S154 200 154 199.3l-3.3-7.2-5 5 .5-12.5Z"/><path fill="#263238" d="M145.6 190.9c.1-2 .2-4.2.5-6.2h.1c.4 2-.2 9.8-.2 11.7l4.6-4.2c.7 1.1 3.2 6.3 3.4 6.8a338.2 338.2 0 0 1 10.5-15.4A310 310 0 0 1 154 200a79.5 79.5 0 0 1-3.5-7.5c-.8.9-5.2 5.5-5.2 5.2a63.3 63.3 0 0 1 .2-6.8ZM58 446.2c203.1-.6 430.9-.6 634 0-203.1.6-430.9.6-634 0ZM91.7 473.2c99.5-.6 211-.6 310.6 0-99.5.6-211.2.6-310.7 0Z"/><path fill="#ad6359" d="M395.7 474.5c1.3-1 26.2-39.6 26.2-41.6 0-.8-5.4-4.8-12-9.4l-23.5-18-16.2 25 23.6 17.8s-3 19-2.7 21.3 3.3 6 4.6 4.9Z"/><path fill="#f4e3d7" d="M395.6 474.6a495 495 0 0 0 26.5-41.8c0-1-8-6.7-16.5-12.5L389.4 445l4.3 3.4s-3 19-2.8 21.2 3.4 6 4.7 5Z"/><path fill="#263238" d="M394.5 473c4-6.6 21-32.8 25.4-39 0 0 .1 0 0 0a1193.2 1193.2 0 0 1-25.4 39ZM391.2 466.3a6.2 6.2 0 0 1 4.1-2.9 6 6 0 0 1 4.4.8 7.2 7.2 0 0 0-8.4 2Z"/><path fill="#ad6359" d="M286.9 478.7c1.6.5 47.5-.4 49.2-1.5.6-.5.9-7.1 1-15.2 0-1.8 2.2-29.7 2.2-29.7l-28 .5-3.8 29.6s-17.4 8.2-19.1 9.7-3.1 6-1.5 6.6Z"/><path fill="#f4e3d7" d="M286.8 478.6c1.6.5 47.7-.2 49.4-1.3.8-.5 1.5-10.3 1.6-20.7l-29.5.4-.7 5.4s-17.5 8.1-19.3 9.6-3.1 6.1-1.5 6.6Z"/><path fill="#263238" d="M287.4 476.8c7.8-.3 39-.9 46.6-.6a1223.2 1223.2 0 0 1-46.6.6ZM291.2 470.4a6.2 6.2 0 0 1 4.7 1.8 6 6 0 0 1 1.8 4s-.1.1-.1 0a7.2 7.2 0 0 0-6.4-5.7v-.1Z"/><path fill="#455a64" d="m337.8 460.5-30 .3s4.9-57 5.2-59.3C315.5 384.6 329 330 329 330l33 .2s-16.7 55.6-18.6 73c-1.8 15.8-5.5 57.3-5.5 57.3Z"/><path fill="#263238" d="M355.5 335.8c-1.9 7-3.5 14-5.3 21s-3.4 14-5 21-3.4 14-5 21a139 139 0 0 0-2.3 20.6c-.6 8-2.7 23.2-2.8 31.3 0 .1.2 0 .2 0 .6-7.1 2.6-21.4 3-28.5s.8-14.2 2.2-21.2 3.2-13.7 4.8-20.6l5-21c1-3.8 1.8-7.7 2.7-11.6l2.7-12h-.2Z"/><path fill="#263238" d="M362 331.8s-10.2 32.9-15.6 55.6l-.4 1.4a99 99 0 0 0-.4 1.7l-12.5-60.3Z"/><path fill="#455a64" d="M410.3 422.8 392.5 447s-37.4-25.1-40.8-36c-4.4-14.1-10-57.6-10-57.6l-5.4-1c-1.8-1.8-4.7-22.5-4.7-22.5l38.6.2s5.5 15.9 2.3 30.3l6.4 36c1 5 31.4 26.3 31.4 26.3Z"/><path fill="#263238" d="M349.6 355.5a48.6 48.6 0 0 0-8.2-2.6c-2.9-.6-5.8-1-8.7-1.4-.2 0-.2.2 0 .2l8.3 2 8.5 1.9c.1 0 .2 0 0-.1Z"/><path fill="#263238" d="M341.1 340.8c-.1-3-.4-6-.7-8.9a.1.1 0 0 0-.2 0v8l.1 4c0 .9.4 3.5-1 3.5s-1.7-1.8-1.9-2.8l-.6-4.1c-.3-2.7-.4-5.4-.6-8.2 0 0-.2-.1-.2 0a37.6 37.6 0 0 0-.1 7.6l.4 3.9a10.6 10.6 0 0 0 .7 3 3 3 0 0 0 2.1 1.6V350.6l.1 1.4a6.7 6.7 0 0 0 .2 1.3.1.1 0 0 0 .2 0 6.2 6.2 0 0 0 .2-1.3V348.5a.3.3 0 0 0 0-.1 1.7 1.7 0 0 0 1.1-.9 5.8 5.8 0 0 0 .5-2.9c0-1.3-.2-2.5-.3-3.8ZM367 344.8c-.8 0-1.6.3-2.4.4a8.9 8.9 0 0 1-2.6-.3 10 10 0 0 1-4.6-2.5 14 14 0 0 1-3.1-4.8 26.6 26.6 0 0 1-1-2.6l-.8-3.1a.1.1 0 0 0-.2 0l.1 1.9.3 1.5a21.2 21.2 0 0 0 .9 3 14.5 14.5 0 0 0 3.3 5.2 9.5 9.5 0 0 0 5 2.6c1.7.2 4 0 5.2-1.3h-.1ZM369 333.4a95.5 95.5 0 0 1 2.3 13.3 50.6 50.6 0 0 1 .2 6.8 22.9 22.9 0 0 1-1 6.6v-.1c1 6.5 1.8 13 2.9 19.4l1.5 9.8.8 4.8.5 2.4a14.7 14.7 0 0 0 .6 2.3 10.2 10.2 0 0 0 1.4 1.8 40 40 0 0 0 5.4 5c2.4 2.2 5 4.3 7.5 6.4l15.5 12.1q-8-5.7-15.8-11.8a224.8 224.8 0 0 1-13-11.2 10 10 0 0 1-1.6-2 13.7 13.7 0 0 1-.7-2.5l-.5-2.4a410.7 410.7 0 0 1-2.4-14.5l-2.8-19.5v-.1a22.3 22.3 0 0 0 1.2-6.6 51.4 51.4 0 0 0-.1-6.7 87.7 87.7 0 0 0-1.9-13.3ZM326.9 339.7a5.5 5.5 0 0 0 1 .2 2.2 2.2 0 0 0 1-.1 4 4 0 0 0 1.7-1.8 11.4 11.4 0 0 0 1.2-3.2l.3-1.8c.1-.6.3-1.3.3-2h.1v2.3a20.2 20.2 0 0 1-.4 2 11.8 11.8 0 0 1-1.2 3.5 3.7 3.7 0 0 1-2 1.7 1.7 1.7 0 0 1-2-.7s0-.1 0-.1Z"/><path fill="#ad6359" d="M343 290.9c-5.2 5.9-25.3 24.9-35.7 24.1-9.6-.7-26.2-9.4-30.2-11.6-3.8-2.1 9-21.5 12.4-19.5a190.9 190.9 0 0 0 20 10.6c2.1.8 19.2-8 29.5-11.8 9.3-3.6 9 2.5 4 8.2Z"/><path fill="#fff" d="m325.2 308.6-8.8-16.7s-2.1 1.2-1.5 2.9 2.8 1.4 2.8 1.4a2.5 2.5 0 0 0-.8 2.8c.7 1.6 2.8 1 2.8 1s-1.7 1.6-.8 3.2 3 1 3 1a2.4 2.4 0 0 0-.7 3.2c1.2 2.3 4 1.2 4 1.2Z"/><path fill="#f4e3d7" d="m324.6 309.4-8.8-17.5a209.3 209.3 0 0 1 22.8-9.5c10.6-3.6 10 2.2 3.8 9.6s-17.8 17.4-17.8 17.4Z"/><path fill="#263238" d="M320 291.1a157.6 157.6 0 0 1 7.9 14.4s-.1.1-.2 0a158.6 158.6 0 0 1-7.8-14.3c-.1-.1 0-.2.1-.1Z"/><path d="m321.6 303.4 3 6s11.5-10 17.8-17.4c4.4-5.3 6-9.7 2.7-10.6Z" opacity=".1"/><path fill="#ad6359" d="M282.4 306c-2.5-.8-14-5.5-17-7.5s-10.7-8.4-9.4-10.7 3.8-.7 3.8-.7-2.9-3.2-1.3-5.5 5.2.5 5.2.5-2.7-3.5-1-5.6 5 1.2 5 1.2-2.6-3-.5-4.3c2.6-1.3 6.8 5 10.1 7l16 8Z"/><path fill="#263238" d="M267.4 277.5c3.1 4.6 5.3 6 10.3 8.3.1 0 0 .2 0 .1-5.2-1.7-8.1-3.1-10.5-8.3-.1-.2 0-.4.2-.1ZM263.5 281.8a29.5 29.5 0 0 0 11 9c-5.2-2.3-8.1-3.8-11.2-8.8-.1-.2 0-.4.2-.2ZM260.1 287.3c3.9 4 6.3 6 11.6 8a.1.1 0 0 1 0 .1 18.7 18.7 0 0 1-11.7-8c-.2-.3-.1-.4.1-.1Z"/><path fill="#ad6359" d="M296.6 289.7s-2.8-6.4-4.6-8.9-12.2-9.5-13.8-7.4c-2.1 2.8 3 8 6 10.2 0 0-5 6.4-2 11s14.4-4.9 14.4-4.9Z"/><path fill="#263238" d="M277.9 274.4c-.1 3.9 3.8 6.6 6.4 8.9a.3.3 0 0 1 0 .5c-1.9 2.8-3.7 7.4-2.4 10.7-2-3.3-.6-7.9 1.7-10.9-2.8-2.3-6.6-5.2-5.7-9.2Z"/><path fill="#f4e3d7" d="M369.6 329.6h-40.1c-.2-.2 1.8-35.3 7.3-45.8a9.5 9.5 0 0 1 13.5-2.3c12.8 9.5 19.3 48 19.3 48Z"/><path fill="#455a64" d="M370.2 330.2s-1.6-13.8-4.6-20.9c0 0-11 .2-14.4-2.8s-4.3-12.2-4.3-12.2l-13.7-.4s-4.9 24.6-4.3 36.1Z"/><path fill="#f4e3d7" d="M338.6 312.8s-3.6-4.7-4.1-9.8c-.4-3 .8-6 2-5.6 2.3.8 2.3 7 2.3 7s.6-7 3.5-7 2.8 5.2 1.7 7.8a18.8 18.8 0 0 1-5.4 7.6Z"/><path fill="#455a64" d="m334.9 294-1.7-.1s2-7.4 2.6-9a33 33 0 0 1 3.4-5h1.7a48.4 48.4 0 0 0-3.7 5.4c-.8 1.6-2.3 8.6-2.3 8.6Z"/><path fill="#ad6359" d="M357.9 287.5c13.4 18 31.3 54 33.8 59.9 1.6 4-19.3 13.4-20 10.5-1-3.7-17.9-50.8-21.8-68-2.3-9.6 4.5-7 8-2.4ZM377.2 367.7c4.6 5.1 6.5 5.7 8 12.1 1 4.2 4.1 5.4 5.2 1 1.8-7-2.6-15-5-17.2Z"/><path fill="#ad6359" d="M369.3 349.8s1.6 9.6 6 15.5c3 4.1 10.4 12.4 25.5 11 3.6-.3 8.4-3.3 2.4-4.9-4.3-1.1-7.4-.5-9.7-1.7 0 0 5.7-4.5 5.2-8a68 68 0 0 0-1.9-9.4 14.8 14.8 0 0 0-1.7.2s-.8-3.3-5-6.2Z"/><path fill="#ad6359" d="M378.7 368.8c2.6.6 8.1 1.8 13 1.2 5.4-.7 15.6-3.4 15-7.4-.3-2.9-4.3-2.2-4.3-2.2s4-2 3-4.6c-.9-2.3-4-1.6-4-1.6s2.3-1.6 1-3.7c-1.4-2.5-5.8 1.3-9.5.1a205 205 0 0 0-14.2 18.2Z"/><path fill="#263238" d="M390 364.4a21.6 21.6 0 0 0 12.3-3.9v-.1a53.4 53.4 0 0 1-12.3 4ZM389.5 359a24.2 24.2 0 0 0 12-4.6v-.2a57.6 57.6 0 0 1-12 4.8Z"/><path fill="#fff" d="m372.3 306-17.7 6.6s.9 2.3 2.6 1.9 1.8-2.6 1.8-2.6a2.5 2.5 0 0 0 2.6 1.1c1.8-.4 1.4-2.7 1.4-2.7s1.3 2 3 1.3 1.5-3 1.5-3a2.4 2.4 0 0 0 3 1.3c2.5-.9 1.8-3.8 1.8-3.8Z"/><path fill="#f4e3d7" d="m373 306.8-18.5 6.4a209.3 209.3 0 0 1-6.5-23.9c-2.1-11 3.5-9.6 10-2.5s15 20 15 20Z"/><path fill="#263238" d="M354.3 309a159.7 159.7 0 0 1 15.2-6c.1 0 .1.2 0 .2a159.6 159.6 0 0 1-15.2 6s-.1-.2 0-.2ZM349.4 295.4c.4 2.3 1 4.6 1.6 6.9a70.3 70.3 0 0 0-1.2-2.2l1 2c0 .4.2.7.4 1a1.4 1.4 0 0 0 0 .2l.3 1v.2a65.4 65.4 0 0 0 2.8 8.8c0 .1.2 0 .2 0a90.4 90.4 0 0 0-2.4-9l-2.7-9ZM320.2 258.6a2.8 2.8 0 0 0 5-1 2.6 2.6 0 0 0 3.1.8 2.5 2.5 0 0 0 1.3-3 2.5 2.5 0 0 1-1.4 2.9 2.3 2.3 0 0 1-2.5-.5 3.1 3.1 0 0 0 2.5 0 2.4 2.4 0 0 0 1.4-2.4 3.6 3.6 0 0 0 2.8-1.5 2.4 2.4 0 0 0 0-2.7 2.7 2.7 0 0 0 .8-4.9 2.3 2.3 0 0 0 .8-3.7 1.5 1.5 0 0 0 .8-1.5 2.6 2.6 0 0 0-1-1.7 1.9 1.9 0 0 0 0-1.8 1.7 1.7 0 0 0-2-.6 4.6 4.6 0 0 0-1.7-2.8 2.4 2.4 0 0 0-2.6-.1 3.3 3.3 0 0 0-4.7-1.7 2.3 2.3 0 0 0-2.1-.9 3.4 3.4 0 0 0-1.6.6 1.7 1.7 0 0 0-2-.4 2.3 2.3 0 0 0-1.2 1.6 1.4 1.4 0 0 1-.5.2 3 3 0 0 0-2 2 2 2 0 0 0-2.2 2.3 2.3 2.3 0 0 0-1.5 2.9 3.4 3.4 0 0 0-2 2 2 2 0 0 0 .3 2 1.2 1.2 0 0 0-.4 1.6 2.4 2.4 0 0 0 .4.5 2.6 2.6 0 0 1 .4.7 1.8 1.8 0 0 1 0 .8 3.4 3.4 0 0 0 0 .6 3 3 0 0 0 2.5 2.8 2.5 2.5 0 0 0 1.4 2.3 5 5 0 0 0 .8.5 1.4 1.4 0 0 1 .7.4l.2.5a2.1 2.1 0 0 0 1.5.8c-.3 2.6 2.7 3.8 4.7 2.4Zm-3.3-26.5a1.8 1.8 0 0 1 2 0v.1h-.3a2.5 2.5 0 0 0-.7-.1 2.5 2.5 0 0 0-1.3.4 3 3 0 0 0-.5.5 2.3 2.3 0 0 1 .8-1Zm16.5 6.1a1.8 1.8 0 0 0-1.7-1v-.1a1.6 1.6 0 0 1 2 .7 1.5 1.5 0 0 1 0 1.5 2 2 0 0 0-.3-1Zm-17.8 18a3.2 3.2 0 0 0 3.5 2.7c-1.8.3-3.5-.4-3.5-2.7Z"/><path fill="#f4e3d7" d="M328.3 258.3s-4.7-12.7 6.7-14.6Z"/><path fill="#ad6359" d="M348.8 282c-.9 1.3-6.7 7.2-10.8 5.9-1.4-.5.7-8 .7-8v-.5l.4-8.2 12.2-3.8s-1.6 13.3-2.5 14.7Z"/><path fill="#263238" d="M351.4 267.4s-1 8.6-2 12.7a14 14 0 0 1-10.4-4.8l.2-4.1Z"/><path fill="#ad6359" d="M356.7 255.4c6.1 14-1.6 19.3-4.6 20.6-2.7 1.2-12.2 4.9-19.7-8.4s-3-20.6 3.2-23.6 15-2.6 21.1 11.4Z"/><path fill="#263238" d="M354.3 255.6a9.8 9.8 0 0 0-1-.3 1.7 1.7 0 0 0-1.1-.2.5.5 0 0 0-.4.6 1.3 1.3 0 0 0 1 1 2 2 0 0 0 1.5 0 .6.6 0 0 0 0-1.1ZM344 258.9l.7-.8a1.8 1.8 0 0 1 .8-.7.5.5 0 0 1 .6.3 1.4 1.4 0 0 1-.3 1.3 2 2 0 0 1-1.2.8.6.6 0 0 1-.6-1ZM346.3 260.3c-1.6.4-.5 3.6 1 3.2s.3-3.6-1-3.3Z"/><path fill="#263238" d="M345.7 260.6c-.2.3-.4.7-.7.9s-.8-.1-1.1-.3c.2.6.6 1.1 1.3 1s.9-.8.8-1.5c0 0-.2-.2-.3 0ZM353.3 257.5c1.5-.6 2.7 2.5 1.3 3.1s-2.6-2.6-1.3-3Z"/><path fill="#263238" d="M354 257.5c.3 0 .7.3 1 .2s.5-.6.6-1a1.3 1.3 0 0 1-.2 1.6c-.5.4-1 0-1.4-.6-.1 0-.1-.3 0-.2ZM349.8 268.8a1.6 1.6 0 0 0 1 .3 2.6 2.6 0 0 0 1-.6 1.4 1.4 0 0 1-1.1 1 1.1 1.1 0 0 1-1-.7ZM352.6 263.8l1 2c0 .1-.1.2-.4.3a3.5 3.5 0 0 1-3.6-.1v-.1a5.3 5.3 0 0 0 3.4-.2l-1.2-2.4 1.7-.2-2.7-5.1.2-.1a50 50 0 0 1 3.4 5.5c0 .2-1.5.4-1.8.4Z"/><path fill="#263238" d="M352.7 266.3a4 4 0 0 1-1.2 1.6 1.7 1.7 0 0 1-1 .3c-.8 0-1-.7-1-1.3a4 4 0 0 1 0-1 5.1 5.1 0 0 0 3.2.4Z"/><path fill="#ff9cbd" d="M351.5 268a1.7 1.7 0 0 1-1 .2c-.8 0-1-.6-1-1.3a1.8 1.8 0 0 1 2 1Z"/><path fill="#263238" d="M344.1 245.9a6.8 6.8 0 0 1 1 3.9c-.7 3.7-4.9 4-5.9 5.7s.3 4-.5 5.6c-1.1 2.2-3.5 2.1-3.4 3.4s.4 5-1 6-15.7-22.6 3.5-27.4a14.4 14.4 0 0 1 8-.6c5.1 1 8.8 8.5 8.8 8.5a8.7 8.7 0 0 0-.8-.4c-1.2-.5-1.7-1.2-2.6-1.5-1.3-.5-1.8 0-3-.5a13 13 0 0 1-4.1-2.7Z"/><path fill="#263238" d="M343.5 244.9a12.6 12.6 0 0 1 1.4 2.8 5.5 5.5 0 0 1 .4 3 4 4 0 0 1-1.6 2.3c-.9.6-1.8 1-2.7 1.7a3 3 0 0 0-1 1.3 4.2 4.2 0 0 0-.1 1.6 5.6 5.6 0 0 1-.3 3 3.4 3.4 0 0 1-2.2 1.8 7.3 7.3 0 0 0-3 1 7.4 7.4 0 0 1 3-.8 3.7 3.7 0 0 0 2.6-1.9 5.5 5.5 0 0 0 .4-3.1 3.8 3.8 0 0 1 0-1.5 2.7 2.7 0 0 1 1-1c.7-.7 1.7-1 2.5-1.7a5.1 5.1 0 0 0 1.2-1.2 3.4 3.4 0 0 0 .6-1.5 6 6 0 0 0-.5-3.1 13.2 13.2 0 0 0-1.7-2.7Z"/><path fill="#263238" d="M344.1 245.7a10.6 10.6 0 0 0 1.7 2.3 5.1 5.1 0 0 0 2.5 1.6 7.6 7.6 0 0 0 1.5.1 2.3 2.3 0 0 1 1.2.4 7.1 7.1 0 0 0 1.2.9 3.3 3.3 0 0 0 1.4.3 3.6 3.6 0 0 1-1.3-.5 7.2 7.2 0 0 1-1-1 2.5 2.5 0 0 0-1.4-.6 8.4 8.4 0 0 1-1.4-.1 5.5 5.5 0 0 1-2.4-1.4 22.8 22.8 0 0 1-2-2Z"/><path fill="#ad6359" d="M335 267.7s-4.6-3.5-6.3-1.7 3 7.6 5.6 7.7a2.6 2.6 0 0 0 2.9-2.4Z"/><path fill="#263238" d="M330 267.7c2 .1 3.4 1.4 4.6 2.8a1.4 1.4 0 0 0-2.2.3l.1.1a1.6 1.6 0 0 1 1.8 0 8 8 0 0 1 1.3 1c.1.2.4 0 .2-.1-.7-2.3-3.3-4.7-5.7-4.1Z"/><path fill="#455a64" d="M346.9 294.3s.8-7 1.2-8l2.4-5-1.6-1-2.3 5c-.7 1.6-1.7 9-1.7 9Z"/><path fill="#263238" d="m248.6 174-6-3a33.2 33.2 0 0 1-5.6-4l-1.1-1a41 41 0 0 0-5.7-5.8c-4.5-3.5-9.7-5.4-14.9-2.4a11.2 11.2 0 0 0-3.9 3.6c-3 2.6-5.2 6-4.8 10 .2 3.2 1.9 6 3 9a73.6 73.6 0 0 1 3 9.8l1.9 7.1v1a32.1 32.1 0 0 0 1.7 7.2 20.2 20.2 0 0 0 8.9 10.8 17.8 17.8 0 0 0 7 2.1 18.4 18.4 0 0 1-11.5-6 21.4 21.4 0 0 1-4-6.6 29.8 29.8 0 0 1-1.6-6.5 38 38 0 0 0 4 9 19 19 0 0 0 13.4 9.3 22.2 22.2 0 0 0 15.6-3.8c5-3.8 18.8-14.5 10.8-27.8a32.8 32.8 0 0 0-9.6-9.7l2.9 1.7a23.2 23.2 0 0 1 5.4 5 17.3 17.3 0 0 1 3.4 7.8 18 18 0 0 0-7.2-12 42.5 42.5 0 0 0-6.3-3.8l-1.3-.8-3.6-2.3-2-1.4-1.7-1.3a15 15 0 0 1-1.3-1.2l-.5-.5a32.5 32.5 0 0 0 4 2.9c3.7 2.4 8 3.8 11.9 6a18 18 0 0 1 5.7 5.3v-.1c-2.2-3.7-6.2-6-10-7.7Z"/><path fill="#eb9481" d="M219.8 197a258.3 258.3 0 0 1-21.6-29.8c.2-.9-.7-14.8-2.2-24.7-.5-3.4-26.7-6.6-26.5-3.6.7 8.8 3.3 31.7 8.4 39.2 4.2 6 29.2 25.2 37.3 29s13.3.3 4.6-10.2Z"/><path fill="#eb9481" d="M169.6 140c-.3-3-.8-16.7 0-20.5s3.7-14.7 6.7-14.4 2.4 3.5 2.4 3.5 2-4.3 5-3.8 1.8 5.6 1.8 5.6 2.3-4.4 5.2-3.6 1 5.6 1 5.6 2-4 4.2-2.4c2.5 2-2 9-2.5 13.3l-1 19.9Z"/><path fill="#263238" d="M191.8 112c-3.2 5.3-3.8 8.1-3.8 14.2 0 .1-.1.1-.2 0-.5-6-.4-9.6 3.8-14.3.2-.3.4-.1.2.1ZM185.7 110a32.4 32.4 0 0 0-4.1 15.2c-.1-6.3.1-10 3.8-15.3.2-.2.4-.1.3.1ZM178.6 109c-2.4 5.7-3.2 9-2.9 15.3a.1.1 0 0 1-.2 0c-1-6.3 0-10.5 3-15.4.2-.3.3-.3.1.1Z"/><path fill="#eb9481" d="M192.5 147s5.2-5.6 7-8.6 4.2-16.6 1.3-17.2c-3.8-1-6.8 6.6-7.7 10.5 0 0-8.7-2-12 2.9s11.4 12.5 11.4 12.5Z"/><path fill="#263238" d="M199.7 121.2c-4 1.7-5 6.9-6.2 10.6a.4.4 0 0 1-.6.2c-3.7-.7-9-.5-11.8 2.4l-.1-.2c2.5-3.4 7.8-4 11.8-3 1.2-3.9 2.3-9 6.8-10Z"/><path fill="#c7c7c7" d="m168.2 145.3 29.3-.7s1.4 22.8 2.2 24c1.1 1.6 19.7 26 24 32s2.2 12.4-11.5 5.5-28.4-21.9-33.5-26.1c-4.1-3.4-10.5-34.8-10.5-34.8Z"/><path fill="#a6a6a6" d="m197.7 147.7-28.8.8-.1-.4 28.9-.8Zm.3 3.6-28.3.8v.5l28.3-.8v-.5Zm.2 4-27.6.8.1.5 27.6-.8Zm.4 4-27 .8v.5l27-.8Zm.3 4-26.3.8.2.4 26.1-.7v-.4Zm.5 4-25.6.8v.4l25.7-.7-.1-.3Zm2.4 4-26.8.9.1.4 27-.8Zm3 4-28.3.9.2.4 28.4-.8Zm3 4-28.9.9.5.4 28.7-.8Zm3 4-27.5.8.5.4 27.3-.7Zm3 4-26 .8.4.4 26-.8Zm3 4-24.6.7.5.4 24.5-.7Zm3 4-22.8.7.5.4 22.6-.7Zm3 4-20.7.6.6.4 20.3-.6Zm2.3 4-17.2.5.7.4 16.7-.4a4.4 4.4 0 0 0-.3-.7Zm-9.8 4.4 1 .4 8.8-.3a2.7 2.7 0 0 0 .2-.4Z"/><path d="M212.2 206a76.3 76.3 0 0 1-9-5.5l16.1-6 4.4 6c4.1 5.9 2.2 12.5-11.5 5.6Z" opacity=".1"/><path fill="#263238" d="M171.3 151.7c1 .1 10.3-.2 12.3-.3s10.3-.5 12.4-.8v-.1a312.3 312.3 0 0 0-24.6 1.2Z"/><path fill="#eb9481" d="M253.4 469.4c2-.8 47.6-37 48.5-39.5.3-1-34.8-45.4-34.8-45.4l-28 22.8 22.6 29.8s-11.2 21.7-11.9 24.5 1.6 8.5 3.6 7.8Z"/><path fill="#f4e3d7" d="m257.2 445.6.1-.2a1.9 1.9 0 0 0-.1.2Z"/><path fill="#263238" d="M253.4 469.4c2-.8 47.6-37 48.5-39.5a59 59 0 0 0-8.7-13.4c-7.1 8.3-34.7 40.2-37.7 38.1-1.2-.8.1-4.9 1-7.3-3 6-6.3 12.8-6.7 14.3-.6 2.8 1.6 8.5 3.6 7.8ZM281.6 403l-28.9 23.1s-47.8-56.4-49.5-64.9c-2-9.6-7.6-85-7.5-88.8.2-4.6 5.2-24.6 5.2-24.6h35.8s5 98.7 6 101.7c1.2 3.3 38.9 53.5 38.9 53.5Z"/><path fill="#37474f" d="M249.9 418.6a314.1 314.1 0 0 1 25-19.8c-1.7 1.9-17 14.5-24.9 20a.1.1 0 0 1-.1-.2ZM199.2 262.6a10.7 10.7 0 0 1 1.4-.4 9.4 9.4 0 0 0 1.5-.5 11.4 11.4 0 0 0 2.8-2 10.7 10.7 0 0 0 2.1-3.4l1.8-4.6h.1c0 .6-1 3.9-1.4 4.7a10.9 10.9 0 0 1-2.2 4 8.9 8.9 0 0 1-3 2 6.7 6.7 0 0 1-1.7.5 2.6 2.6 0 0 1-1.5-.1c-.1 0 0-.2 0-.2ZM230.8 249.5l.8 19.8.8 19.8 2 39.6 1 19.8.3 2.5a1 1 0 0 0 0 .4l.2.3a17.6 17.6 0 0 0 1 1.6l3 4 6.1 7.8q6.2 7.8 12.5 15.4l12.6 15.3-12.3-15.5-12.3-15.6-6-7.8-2.9-4-.7-1c-.3-.3-.4-.7-.4-1l-.2-2.5-1-19.8-2-39.6-1.2-19.8Z"/><path fill="#37474f" d="m202.4 356 .7 5.2c1 4.7 16.5 24.6 30 41.1l9.2-57.8a6483 6483 0 0 1-5.6-96.8H219Z"/><path fill="#eb9481" d="M152.2 468.2c1.9 1 59.2 11.4 61.6 10.4 1-.4 11.2-56.1 11.2-56.1l-35.6-6L182 453s-23.7 5.9-26.3 7.3-5.3 6.8-3.4 7.8Z"/><path fill="#f4e3d7" d="M172.5 455.4h.3Z"/><path fill="#263238" d="M152.2 468.2c1.9 1 59.2 11.4 61.6 10.4a59 59 0 0 0 4.3-15.4c-10.9.1-53 .5-53.5-3.2-.1-1.4 3.8-3.1 6.2-4-6.5 1.7-13.8 3.7-15.1 4.5-2.6 1.3-5.4 6.7-3.5 7.7ZM208 247.8s1 15.3 5.2 26.2c0 0 6.1 3.8 6.8 4.4l-36.3 163.4 37.2 7.3s14.6-79.2 15.8-84.7c2-8.7 17.8-82.8 18.5-87 1.5-8.8-6.6-29.6-6.6-29.6Z"/><path fill="#37474f" d="M187.5 433.7a327 327 0 0 1 32.2 6.6v.2a303.4 303.4 0 0 1-32.2-6.8ZM244 262.6c-.7-.2-1.5-.1-2.3-.2a17.1 17.1 0 0 1-6.6-2.2 9 9 0 0 1-3-3.3l-2.5-4.5-.2.1 1.8 4.6a8.8 8.8 0 0 0 3.2 3.8 13.8 13.8 0 0 0 4.7 1.9 14 14 0 0 0 2.5.2 6.7 6.7 0 0 0 2.4-.2c.2 0 0-.2 0-.2ZM212.3 273.6a61.4 61.4 0 0 1 9.8 4.4.1.1 0 0 1 0 .2c-3.3-1.4-6.7-2.7-10-4.3a.2.2 0 0 1 .2-.3ZM211 251h.3c0 4 .3 7.3.6 11 .2 1.7 1.7 11 4.6 10.3.5 0 .7-.6.8-1.3a11.8 11.8 0 0 0-.4-2.9c-.4-2-.6-3.9-.8-5.9a53.3 53.3 0 0 1 0-11 .1.1 0 0 1 .2 0 101.5 101.5 0 0 0 1 15.2c.4 2.5 1.6 6.1-1 6.5s-4.3-5.7-4.6-7.4a55.8 55.8 0 0 1-.6-14.5Z"/><path fill="#37474f" d="M216.4 272.6a15.3 15.3 0 0 1 .7 1.9 4.4 4.4 0 0 1 .3 1.6h-.2a5.7 5.7 0 0 1-.7-1.6l-.7-1.8a.3.3 0 0 1 .6-.1ZM245.5 247.8a315.8 315.8 0 0 1 5 23.4l.2 1.5v1.5l-.4 3-1.2 5.9-2.4 11.8L237 342l-9.8 47.1-4.9 23.6-4.8 23.6 5.2-23.5 5.1-23.5 10-47.1c3.3-15.7 6.6-31.5 9.7-47.2l2.3-11.8 1-6 .5-3a23.6 23.6 0 0 0-.3-3c-.5-4-1.4-7.9-2.4-11.8l-3-11.6Z"/><path fill="#c7c7c7" d="m201 247.8 2.1-15.2s-4-7.8-.7-14.6c1.7-3.5 10.8-19.7 16.8-24 5.6-4 11.5.1 14 3.7 7.4 10.2 10.9 18.3 18 50Z"/><path fill="#a6a6a6" d="M231.8 196H217l.4-.4h14a4.5 4.5 0 0 1 .4.4Zm2.8 3.6h-20.7l-.4.5H235Zm2.6 4H211l-.3.5h26.8Zm2.2 4h-31.1c0 .2-.2.4-.3.5h31.6Zm1.8 4h-35.3l-.3.5h35.8Zm1.5 4.1h-39.1l-.3.4H243Zm1.4 4h-42.4l-.1.4h42.6l-.1-.3Zm1.2 4H201v.5h44.3Zm1.1 4h-44.8v.5h45l-.2-.3Zm1 4h-44.6l.2.5h44.6l-.1-.3Zm1 4h-45.8v.5h46l-.1-.2Zm1 4.1h-47.3l-.1.4h47.5v-.2Zm1 4h-48.9v.5h49l-.1-.2Z"/><path fill="#263238" d="M210.6 231a49.5 49.5 0 0 1 7.3 1.3 48.5 48.5 0 0 1 5.3 1.7 8.3 8.3 0 0 0 2 .4 12.4 12.4 0 0 1-2 0 13.1 13.1 0 0 1-1.7-.4l-3.6-1a103.4 103.4 0 0 0-7.3-2ZM204.4 233a55.4 55.4 0 0 1 6.1-.2l3.1.3c.5 0 1 0 1.5.2s1 .2 1.6.3h-3.1l-3-.2-6.2-.2v-.2Z"/><path fill="#eb9481" d="M230 205c4 6.3 17.6 30 18 31.3s8.4 28.8 9.2 33.2c.5 3.1 22.1-6 21.5-8.8-1.4-6.2-6.5-23.8-10.2-31.2-3-6-26.5-28.6-33.2-33s-11.9-2-5.4 8.5Z"/><path fill="#eb9481" d="M265 279.5c-1-1-1.7-.5-1.4 2.2s3.5 13.4-.3 14.2-8.3-14.2-8.3-18.8a72.7 72.7 0 0 1 1.5-12c1.4 2.7 5.5 9 8.5 14.4Z"/><path fill="#eb9481" d="M277.8 256.7c3.8 7.9 9 17.5 8.2 27.4a4.9 4.9 0 0 1-1.3 3c-.3 4.4-2.4 5.6-2.4 5.6-1.6 4-4 5-4 5s-.4 5.2-3.6 5.5c-3.5.3-2.3-7-4-11.6-4.1-10.2-12.8-23.7-14.3-26.5Z"/><path fill="#263238" d="M274 277.8a71.2 71.2 0 0 1 3 9.2 70.5 70.5 0 0 1 1.2 10.5h.2a37.6 37.6 0 0 0-4.3-19.7c-.1-.2-.2-.1-.2 0ZM279.8 274.5c1 3 2.5 8.3 2.3 18.2h.1a33.6 33.6 0 0 0-2.3-18.3c0-.1-.2-.1-.1 0ZM283 272.7a53 53 0 0 1 1.7 14.4c.6-6.5 0-8.9-1.6-14.4 0-.2-.2-.2-.2 0Z"/><path fill="#c7c7c7" d="M278.6 254.3 255 265.6s-6.8-28.6-7.9-30-17.1-28.5-20.1-34.3-.5-11.4 10.8-3.5 25.9 24.6 30 29c3.2 3.5 10.8 27.5 10.8 27.5Z"/><path fill="#a6a6a6" d="m230.3 194-4.4 2.2a2.4 2.4 0 0 1 .1-.5l3.6-1.8a6.6 6.6 0 0 1 .7.1Zm4.4 1.8-8.3 4.2.1.4 8.7-4.4Zm4 2.5-10.5 5.3.2.4 10.6-5.4a4.7 4.7 0 0 0-.3-.3Zm3.5 2.8-12 6 .2.4 12.1-6.1Zm3.3 2.8-13.3 6.8.3.3 13.4-6.8Zm3.2 3-14.4 7.3.2.3 14.5-7.3Zm3 3-15.4 7.8.2.4 15.6-8-.3-.3Zm3 3-16.3 8.3.2.3 16.5-8.3Zm3 3-17.3 8.7.3.4 17.3-8.8Zm2.9 3-18 9.2.2.4 18.1-9.2Zm2.8 3.1-18.8 9.6.2.3 19-9.6Zm2.8 3.1-19.5 10 .3.3 19.5-10Zm2.6 3.3-20.6 10.5.1.4 20.7-10.5Zm1.7 3.6-21.2 10.8.1.5 21.3-10.9a3 3 0 0 1-.1-.4Zm1.6 3.8-21.8 11 .1.4 21.9-11Zm1.5 3.8-22.2 11.2v.4l22.3-11.2-.1-.4Zm1.3 3.8-22.5 11.4v.5l22.7-11.5-.1-.4Zm1.4 3.8-23 11.7.2.4 23-11.7-.2-.3Zm1.3 3.9L254.3 263l.1.4 23.3-11.8v-.5Z"/><path fill="#263238" d="M231 209.9a27 27 0 0 1 1.8 2l.3.3a49 49 0 0 1-1.6-3.4c1.3 1.9 2.4 4 3.6 5.9s12 20.3 12.7 22.2c.6 2 7.4 28.3 7.2 28.7s-.3.6-.5 0c0 0-6.8-26.8-7.4-28.6s-13-23-13.2-23.4l-1.3-1.5a27.2 27.2 0 0 1-1.7-2.2h.1ZM275 250c-.9.3-8.5 3.8-10.1 4.6s-8.3 4-10 5c1.8-.6 8.6-3.8 10.2-4.6s9.1-4.4 10-4.9l-.1-.1Z"/><path fill="#eb9481" d="M228.4 195c-.3 1-5.4 5-9.7 4.5-1.4-.2-.7-6-.7-6v-.6l-1.3-8 9.7-5.5 1.4-.7.4 5v.5a3.6 3.6 0 0 1 0 .4l.1 1.3v2a52.7 52.7 0 0 1 0 7.2Z"/><path fill="#263238" d="M228.5 193.5a15.3 15.3 0 0 1-11.3-5l-.5-3.6 9.7-5.4 1.4-.7.4 5a2.7 2.7 0 0 1 0 .4 2.6 2.6 0 0 1 0 .4l.1 1.3v1l.1 1c.2 2.1.2 4.2 0 5.6Z"/><path fill="#eb9481" d="M236.7 170.2c4.8 13.5-2.7 18-5.6 19-2.7 1-11.8 3.9-18-9s-1.5-19.5 4.4-22 14.3-1.5 19.2 12Z"/><path fill="#263238" d="M232.5 168.5a8 8 0 0 1 1 .1 1.6 1.6 0 0 1 1 .3.5.5 0 0 1 0 .6 1.3 1.3 0 0 1-1.2.4 1.8 1.8 0 0 1-1.2-.5.5.5 0 0 1 .4-1ZM224.3 172.4a9 9 0 0 1 .6-.8c.2-.4.3-.6.7-.8a.5.5 0 0 1 .6.3 1.3 1.3 0 0 1-.2 1.2 1.9 1.9 0 0 1-1 .9.5.5 0 0 1-.7-.8ZM227.6 174.2c.3 1 .5 2-.2 2.7 1-.5.7-1.9.2-2.7Z"/><path fill="#263238" d="M226.5 173.4c-1.6.4-.8 3.4.7 3.1s.6-3.3-.7-3Z"/><path fill="#263238" d="M226 173.8c-.3.2-.5.6-.8.7s-.7-.1-1-.4c.1.6.5 1.2 1.1 1s.9-.7.9-1.3h-.3ZM232.7 172.3h.1c.2 1 .6 2 1.6 2.2-1.1.2-1.6-1.2-1.7-2.2Z"/><path fill="#263238" d="M233.3 171.1c1.5-.5 2.4 2.5 1 3s-2.2-2.6-1-3Z"/><path fill="#263238" d="m234 171.1.9.3c.3 0 .5-.5.6-.9.3.6.2 1.2-.3 1.5s-1-.1-1.3-.7l.1-.2ZM229.7 182.1c.3.2.6.5.9.4a2.6 2.6 0 0 0 1-.4 1.3 1.3 0 0 1-1.1.7 1 1 0 0 1-1-.6s.1 0 .2 0ZM232.7 177.7a21.4 21.4 0 0 1 .7 2l-.3.2a3.3 3.3 0 0 1-3.4-.4 5 5 0 0 0 3.2 0c0-.3-1.1-2.4-1-2.4a5.9 5.9 0 0 1 1.6 0c-1.2-3-2.8-5.6-3.8-8.4 0-.1 0-.2.1-.1a49.1 49.1 0 0 1 4.5 8.8c.2.4-1.3.3-1.6.3Z"/><path fill="#263238" d="M233 179.7a4 4 0 0 1-1.1 1.6 1.8 1.8 0 0 1-1 .4c-.8.1-1-.6-1.1-1.2a4.5 4.5 0 0 1 0-1 5.2 5.2 0 0 0 3.2.2Z"/><path fill="#ff9cbd" d="M231.8 181.3a1.8 1.8 0 0 1-1 .4c-.8.1-1-.6-1-1.2a1.9 1.9 0 0 1 2 .8Z"/><path fill="#263238" d="M213.3 180.8a5.9 5.9 0 0 0 2.3-5.3 15.4 15.4 0 0 0 5.2-6.2l-.5 3.6c8.6-3.4 10-10.8 10-10.8a15.6 15.6 0 0 1 5 4.9s-1-5.5-4.6-8.6a9 9 0 0 0-8.9-2 12.9 12.9 0 0 0-11.6 6.2c-4.5 7.5 3 18.3 3 18.3Z"/><path fill="#263238" d="M226.8 170.1a17.3 17.3 0 0 1-4.2 2.6 14.4 14.4 0 0 0 5.8-5.3 13.5 13.5 0 0 0 1.3-3 9.3 9.3 0 0 0 .5-3.7h.2a11.3 11.3 0 0 1 0 3.7 10 10 0 0 1-1.4 3.3 11.5 11.5 0 0 1-2.2 2.5"/><path fill="#eb9481" d="M215.6 179s-4.2-3.5-5.9-1.9 2.3 7.3 4.8 7.6a2.4 2.4 0 0 0 2.8-2.1Z"/><path fill="#263238" d="M210.9 178.7v.1a6.1 6.1 0 0 1 4 2.9 1.3 1.3 0 0 0-2 .2 1.5 1.5 0 0 1 1.8.1 6.7 6.7 0 0 1 1 1.1c.2.1.4 0 .3-.2-.5-2-2.8-4.5-5.1-4.2Z"/><path fill="#fff" d="M284.6 147.6a19 19 0 0 1-31.7 12l-9.5 1.4 4.7-8.2a19 19 0 1 1 36.5-5.2Z"/><path fill="#263238" d="M284.6 147.6a19.2 19.2 0 0 1-3.8 9.7 21.6 21.6 0 0 1-1.7 2 20.3 20.3 0 0 1-2 1.6 18.7 18.7 0 0 1-4.6 2.6 19 19 0 0 1-5.1 1.2 21.1 21.1 0 0 1-2.7 0 16.4 16.4 0 0 1-2.6-.2 19 19 0 0 1-9.4-4.6h.2l-9.5 1.5h-.6l.3-.5 4.7-8.3v.4a19.2 19.2 0 0 1 23.8-25.5 19.4 19.4 0 0 1 7.4 4.5 19 19 0 0 1 5.6 15.6Zm0 0a19 19 0 0 0-5.8-15.6 19.3 19.3 0 0 0-7.3-4.3 19 19 0 0 0-8.4-.6 18.6 18.6 0 0 0-7.9 3 19.5 19.5 0 0 0-5.6 6.3 18.7 18.7 0 0 0-2.4 8 19 19 0 0 0 1.3 8.2v.4l-4.8 8.2-.4-.5 9.6-1.4.2.1a18.9 18.9 0 0 0 9 4.7 16 16 0 0 0 2.6.3 18 18 0 0 0 7.7-1.1 18 18 0 0 0 4.6-2.5 19.9 19.9 0 0 0 2-1.7 21.3 21.3 0 0 0 1.7-2 19.1 19.1 0 0 0 4-9.5Z"/><path fill="#f4e3d7" d="M273.8 149.2a24.8 24.8 0 0 1-8 7 24.8 24.8 0 0 1-8-7c-2.8-3.7-2.7-9.5 1.3-10.8 4.5-1.4 6.6 5.3 6.6 5.3s2.2-6.7 6.7-5.3c4 1.3 4.2 7.1 1.4 10.8Z"/><path fill="#fff" d="M497.1 92.1a19 19 0 0 0 31.7 12l9.5 1.4-4.7-8.2a18.7 18.7 0 0 0 1.3-9.1 19 19 0 1 0-37.8 4Z"/><path fill="#263238" d="M502.8 76.4a19 19 0 0 1 15.9-5.2 19.2 19.2 0 0 1 15.2 26.2v-.3l4.7 8.2.4.7-.7-.2-9.5-1.4h.2a19.2 19.2 0 0 1-9.4 4.6 21.8 21.8 0 0 1-5.2.2 19.1 19.1 0 0 1-5.1-1.2 18.7 18.7 0 0 1-4.6-2.6 17.4 17.4 0 0 1-3.7-3.7 19.1 19.1 0 0 1 1.8-25.3Zm-1.8 25.3a23 23 0 0 0 1.7 2 20 20 0 0 0 2 1.7 17.6 17.6 0 0 0 4.6 2.4 18 18 0 0 0 7.7 1.2 16 16 0 0 0 2.6-.3 18.8 18.8 0 0 0 9-4.7l.1-.1h.2l9.5 1.3-.4.5-4.7-8.2-.1-.1v-.2a18.7 18.7 0 0 0-1-16.3 19.6 19.6 0 0 0-5.7-6.2 18.7 18.7 0 0 0-7.9-3.1 19 19 0 0 0-8.4.6 18.8 18.8 0 0 0-9.2 29.5Z"/><path fill="#f4e3d7" d="M508 93.7a24.8 24.8 0 0 0 8 7 24.9 24.9 0 0 0 8-7c2.8-3.7 2.6-9.5-1.4-10.8-4.4-1.4-6.6 5.3-6.6 5.3s-2.2-6.7-6.7-5.3c-4 1.3-4.2 7.1-1.4 10.8Z"/></svg>