<svg xmlns="http://www.w3.org/2000/svg" viewBox="0 0 750 500"><path fill="#ebebeb" d="m68 76.6 13-.3 6.7-.1H94.8v12.1H81.2L68 88h-.3v-.3l.1-5.6Zm0 0v5.6l.2 5.6-.3-.3 13.2-.2h13.3l-.5.5V76.6l.4.4h-6.5l-6.5-.1ZM82.7 62.5l13.1-.3 6.7-.1H109.6v12.1h-.5l-13.2-.1-13.2-.2h-.3v-.2l.1-5.7Zm0 0 .1 5.6.2 5.6-.3-.3 13.2-.2h13.3l-.5.5V62.5l.5.4h-6.6l-6.6-.1ZM512.4 173.8l13.1-.3 6.7-.1H539.3v12.1h-13.7l-13.2-.2h-.3v-.3l.1-5.7Zm0 0 .2 5.6v5.6l-.2-.3 13.2-.2H539l-.5.5v-11.2l.5.4h-6.5l-6.6-.1ZM527.2 159.7l13.1-.3 6.7-.1H554v12.1H540.5l-13.2-.2h-.3v-.3l.1-5.6Zm0 0 .1 5.6.2 5.6-.3-.3 13.2-.2h13.3l-.5.5v-11.2l.5.4H547l-6.6-.1ZM53.1 62.5l13.2-.3 6.6-.1h7.2v12.1h-.5l-13.2-.1-13.3-.2H53V68Zm0 0 .2 5.6.1 5.6-.3-.3 13.3-.2h13.2l-.5.5V62.5l.5.4H73l-6.6-.1ZM402.5 293.9l-13 .3h-6.7l-6.7.1h-.5v-12.1h13.7l13.2.2h.3v.3l-.1 5.6Zm0 0-.1-5.7-.1-5.5.2.3-13.2.1h-13.2l.5-.4-.1 11.2-.4-.5h6.5l6.6.2ZM682 305.5l-13 .3h-6.7l-6.7.1h-.4v-12.1h13.6l13.3.2h.3v.3l-.2 5.6Zm0 0v-5.7l-.2-5.5.3.3-13.2.1-13.3.1.5-.5v11.2l-.5-.5 6.6.1 6.5.1ZM696.9 319.6l-13.2.3-6.6.1h-7.2V308h13.7l13.3.2h.2v6Zm0 0-.2-5.7-.1-5.5.3.3-13.3.2h-13.2l.5-.5v11.2l-.5-.4h13.2ZM94.6 319.6l-13.1.3-6.7.1H67.7V308h13.7l13.3.2h.3v.3l-.2 5.7Zm0 0-.1-5.6-.2-5.5.3.2-13.2.2H68l.5-.4v11.2l-.4-.5h6.5l6.6.1ZM655.5 62.5l13.1-.3 6.7-.1H682.4v12.1h-13.6l-13.3-.2h-.3v-.3l.2-5.6Zm0 0 .1 5.6.2 5.6-.3-.3 13.2-.2H682l-.5.5V62.5l.5.4h-6.6l-6.6-.1ZM221.8 153l13-.3 6.7-.1 6.7-.1h.5v12.1H235l-13.2-.2h-.3v-.3l.1-5.6Zm0 0 .1 5.6.1 5.5-.2-.2 13.2-.2h13.2l-.5.4.1-11.2.4.5h-6.5l-6.6-.1ZM147.3 84.8l-10.6-6.5-2 3.2a3 3 0 0 1-2.7 1.3 14.3 14.3 0 0 0-1.9 0 3 3 0 0 1-2.6-1.6l-1.8-3.3-11 5.9 1.8 3.3a3 3 0 0 1-.2 3l-1 1.7a3 3 0 0 1-2.6 1.5l-3.8-.1-.4 12.4 3.8.1a3 3 0 0 1 2.6 1.7l.4.8.4.8a3 3 0 0 1 0 3.1l-2 3.3 10.6 6.5 2-3.2a3 3 0 0 1 2.7-1.4 16 16 0 0 0 1.9 0 3 3 0 0 1 2.7 1.6l1.8 3.3 10.9-5.8-1.8-3.4a3 3 0 0 1 .2-3 16.2 16.2 0 0 0 1-1.6 3 3 0 0 1 2.6-1.6l3.8.1.4-12.4h-3.8a3 3 0 0 1-2.5-1.8l-.4-.8-.5-.8a3 3 0 0 1 0-3.1Zm-7.9 10.5a10.2 10.2 0 1 1-13.7-4.2 10.2 10.2 0 0 1 13.7 4.2ZM114.9 144.3l-4.3-7.6-2.3 1.4a2 2 0 0 1-2.2-.1 10.5 10.5 0 0 0-1.1-.7 2 2 0 0 1-1.2-1.8v-2.6h-8.6v2.6a2 2 0 0 1-1.2 1.8 9.7 9.7 0 0 0-1.1.7 2 2 0 0 1-2.2 0l-2.3-1.3-4.3 7.6 2.3 1.3a2 2 0 0 1 1 1.9V148.8a2 2 0 0 1-1 1.9L84 152l4.3 7.5 2.3-1.3a2 2 0 0 1 2.2 0 11.2 11.2 0 0 0 1.1.7 2 2 0 0 1 1.2 1.8v2.7h8.6v-2.7a2 2 0 0 1 1.2-1.8 11.2 11.2 0 0 0 1-.6 2 2 0 0 1 2.3-.1l2.3 1.3 4.3-7.5-2.3-1.3a2 2 0 0 1-1-2v-1.2a2 2 0 0 1 1-2Zm-8.3 3.8a7.1 7.1 0 1 1-7.1-7.1 7.1 7.1 0 0 1 7.1 7.1ZM666 197.8l-4.4-7.5-2.3 1.3a2 2 0 0 1-2.2 0 9.7 9.7 0 0 0-1.1-.7 2 2 0 0 1-1.1-1.9v-2.6h-8.7v2.6a2 2 0 0 1-1.2 1.8 10.5 10.5 0 0 0-1.1.7 2 2 0 0 1-2.2 0l-2.3-1.3-4.3 7.6 2.3 1.3a2 2 0 0 1 1 1.9V202.3a2 2 0 0 1-1 1.9l-2.3 1.3 4.3 7.5 2.3-1.3a2 2 0 0 1 2.2 0 9.6 9.6 0 0 0 1.1.7 2 2 0 0 1 1.2 1.9v2.7h8.7v-2.7a2 2 0 0 1 1-1.8 9.6 9.6 0 0 0 1.2-.7 2 2 0 0 1 2.2 0l2.3 1.3 4.3-7.5-2.3-1.4a2 2 0 0 1-1-1.9V201a2 2 0 0 1 1-1.9Zm-8.4 3.9a7.1 7.1 0 1 1-7-7.1 7.1 7.1 0 0 1 7 7Z"/><path fill="#ebebeb" d="M171.4 390.5H83.6V269h87.8z"/><path fill="#dbdbdb" d="M175.6 269H79.3v-4.5h96.3z"/><path fill="#ebebeb" d="M79.3 269H49v-4.5h30.3z"/><path fill="#dbdbdb" d="M83.5 390.5H53.7V269h29.8z"/><path fill="#c7c7c7" d="M161.9 325.3H93v-39h68.9Zm-68.7-.3h68.5v-38.5H93.2Z"/><path fill="#c7c7c7" d="M137.1 305.4h-13.4v-7.7h13.4z"/><path fill="#c7c7c7" d="M133.2 305h-13.6V298h13.6Zm-13.4-.3H133v-6.3h-13.2ZM161.9 374.2H93v-39h68.9Zm-68.7-.3h68.5v-38.4H93.2Z"/><path fill="#c7c7c7" d="M137.1 354.3h-13.4v-7.7h13.4z"/><path fill="#c7c7c7" d="M133.2 353.8h-13.6V347h13.6Zm-13.4-.2H133v-6.3h-13.2Z"/><path fill="#dbdbdb" d="M429.4 119.7v42.6h-42.6v-42.6z"/><path fill="#fff" d="M422.8 126.3v29.4h-29.4v-29.4z"/><path fill="#ebebeb" d="M422.8 126.3h-29.5v29.4l29.5-29.4z"/><path fill="#c7c7c7" d="M386.7 162.4h-4.2v-42.6h4.2z"/><path fill="#dbdbdb" d="M482.2 119.7v42.6h-42.6v-42.6z"/><path fill="#fff" d="M475.6 126.3v29.4h-29.4v-29.4z"/><path fill="#ebebeb" d="M466.9 126.3h-20.8v20.8l20.8-20.8z"/><path fill="#c7c7c7" d="M439.5 162.4h-4.2v-42.6h4.2z"/><path fill="#dbdbdb" d="M482.2 172.6v42.7h-95.5v-42.7z"/><path fill="#fff" d="M475.2 177.9v32h-81.5v-32z"/><path fill="#ebebeb" d="M447.1 177.8h-53.4v21.1l53.4-21.1z"/><path fill="#c7c7c7" d="M386.7 215.2h-4.2v-42.7h4.2z"/><path fill="#dbdbdb" d="M367.4 85.7v95.5h-95.5V85.7z"/><path fill="#fff" d="M278.9 92.6h81.5v81.5h-81.5z"/><path fill="#ebebeb" d="m279 151.3 58.8-58.7H279Z"/><path fill="#c7c7c7" d="M272 181h-4.2V85.7h4.2z"/><path fill="#ebebeb" fill-rule="evenodd" d="M199 212.6c-1.2-.7-2.3-1.9-4-1.7-.6 0-.5-.5-.5-.8v-18.6c0-.4 0-.8.4-1 4.8-2.5 6.8-7.2 9.7-11.2a18.5 18.5 0 0 0 3.4-14c-.2-1.5.5-2 1.7-2.4 1.5-.3 3 0 3.6 1.1a25.2 25.2 0 0 1 2.7 8.1c.3 2.4-.6 4.7-.9 7l-.9 5.1c.4.4 1 .2 1.4.2h15.7c2.2 0 3.2.6 3.6 2a4.2 4.2 0 0 1-2.3 4.6c-.4.2-1.1 0-1.1.7s.6.5 1 .8c1.9 1.3 1.5 4-.7 5.5-.5.4-1.5.2-1.5 1 0 .6 1 .6 1.3 1 1.6 1.5.8 4.3-1.5 5.5a9.2 9.2 0 0 0-.9.3c-.2.2-.5.4 0 .8 2.3 1.6 2.3 3.8 0 5.5l-.7.5a4.4 4.4 0 0 1-2.7.6h-24.6a3 3 0 0 1-2.2-.6ZM175.6 201.8V190c0-.8 0-1.2 1-1.2H191c1 0 1 .2 1 1q0 12 .2 23.8c0 1-.3 1.3-1.3 1.3h-14c-1.2 0-1.3-.3-1.3-1.3v-11.8ZM549.5 157.7c-.9-.5-1.6-1.3-2.8-1.2-.4 0-.3-.3-.3-.6V143c0-.3 0-.5.3-.7 3.3-1.7 4.7-5 6.7-7.8a12.9 12.9 0 0 0 2.4-9.7c-.1-1 .3-1.4 1.2-1.6a2.2 2.2 0 0 1 2.4.7 17.4 17.4 0 0 1 2 5.7c.1 1.6-.5 3.2-.6 4.8l-.7 3.6c.3.2.6 0 1 0h10.8c1.6 0 2.3.5 2.5 1.5a3 3 0 0 1-1.5 3.2c-.3.1-.8 0-.8.4s.4.4.7.6c1.3.9 1 2.7-.4 3.8-.4.3-1.1.2-1.1.7s.6.4 1 .7c1 1 .5 3-1 3.8a4 4 0 0 0-.7.3c-.1 0-.3.2 0 .5 1.6 1 1.6 2.7 0 3.8l-.4.4a3 3 0 0 1-2 .4h-17a2 2 0 0 1-1.7-.4ZM533.2 150.2V142c0-.6 0-.9.8-.9h10c.6 0 .7.2.7.8v16.5c0 .7 0 1-.8 1h-9.7c-.8 0-1-.4-1-1V150Z"/><ellipse cx="375" cy="451.7" fill="#ebebeb" rx="312.8" ry="16.4"/><path fill="#263238" d="m46.5 390.5 82.2-.2 82.1-.1L375 390l164.2.2 82.2.1 82.1.2-82.1.3h-82.2L375 391l-164.2-.2-82.1-.1-82.2-.2z"/><path fill="#f4e3d7" d="M304.2 427.2c-24.5 0-74.3-.4-94.5-3.4a88 88 0 0 1-27.8-9.4c-10.2-5-19.8-9.6-37.5-9.6-9.8 0-18 1.7-27.5 3.6-13 2.7-27.7 5.7-51.2 5.7-8.5 0-13.9-2.4-15.9-7.1-4.3-10.4 8.4-30.6 39-62 7.4-7.5 7.3-35.4 7.2-60-.1-23.3-.2-43.5 5.5-49.2a5.9 5.9 0 0 1 4.2-1.8H750v4H105.7a1.9 1.9 0 0 0-1.3.6c-4.6 4.6-4.5 26.8-4.4 46.4.1 26.6.2 54.1-8.3 62.9-16.3 16.7-42.9 46.3-38.2 57.6 1.4 3 5.4 4.6 12.2 4.6 23.2 0 37.7-3 50.5-5.6 9.7-2 18-3.7 28.2-3.7 18.7 0 29.2 5 39.3 10a84.6 84.6 0 0 0 26.6 9c26.4 4 107 3.4 107.7 3.3v4h-13.8Z"/><path d="M304.2 427.2c-24.5 0-74.3-.4-94.5-3.4a88 88 0 0 1-27.8-9.4c-10.2-5-19.8-9.6-37.5-9.6-9.8 0-18 1.7-27.5 3.6-13 2.7-27.7 5.7-51.2 5.7-8.5 0-13.9-2.4-15.9-7.1-4.3-10.4 8.4-30.6 39-62 7.4-7.5 7.3-35.4 7.2-60-.1-23.3-.2-43.5 5.5-49.2a5.9 5.9 0 0 1 4.2-1.8H750v4H105.7a1.9 1.9 0 0 0-1.3.6c-4.6 4.6-4.5 26.8-4.4 46.4.1 26.6.2 54.1-8.3 62.9-16.3 16.7-42.9 46.3-38.2 57.6 1.4 3 5.4 4.6 12.2 4.6 23.2 0 37.7-3 50.5-5.6 9.7-2 18-3.7 28.2-3.7 18.7 0 29.2 5 39.3 10a84.6 84.6 0 0 0 26.6 9c26.4 4 107 3.4 107.7 3.3v4h-13.8Z" opacity=".2"/><path fill="#eb9481" d="M599.3 440.8c-2.2.8-67.1 1.2-69.5-.3a1 1 0 0 1-.3-.3c-.8-2 .3-10.2-.1-20.3 0-.7 18-37.5 18-37.5l42.3-.6-19.5 37.5s24.3 10.6 26.8 12.5 4.5 8.2 2.3 9Z"/><path fill="#ebebeb" d="M599.3 440.8c-2.2.8-67.1 1.2-69.5-.3a1.2 1.2 0 0 1-.3-.3c-.8-2 .3-10.2 0-20.3 0-.3 1.7-4.2 4.2-9.4h41l-4.5 8.8s24.3 10.6 26.8 12.5 4.5 8.2 2.3 9Z"/><path fill="#263238" d="M574.3 420.3c-4.3 0-9.2 1.5-11.8 5 0 .1.1.3.3.2a58.9 58.9 0 0 1 11.6-4.7.3.3 0 0 0-.1-.5ZM577.6 421.5c-4.3 0-9.2 1.6-11.8 5 0 .2.1.3.2.3a59.1 59.1 0 0 1 11.6-4.8.3.3 0 0 0 0-.5ZM580.9 422.8c-4.3 0-9.2 1.5-11.8 5 0 .1.1.3.2.2a58.9 58.9 0 0 1 11.6-4.7.3.3 0 0 0 0-.5Z"/><path fill="#a6a6a6" d="M599.3 440.8c-2.2.8-67.1 1.2-69.5-.3-1-.5-1.6-9.1-.4-20.6l40.8-.6s24.3 10.6 26.8 12.5 4.5 8.2 2.3 9Z"/><path d="M599.3 440.8c-1 .3-14.5.6-29.3.7l8.8-18.4c7.2 3.2 16.7 7.5 18.2 8.7 2.4 2 4.5 8.2 2.3 9Z" opacity=".1"/><path fill="#263238" d="M598.3 438.3a1578.2 1578.2 0 0 0-63.8 1 1680.7 1680.7 0 0 0 63.8-1Z"/><path fill="#37474f" d="m573.1 418.1-49 .9s52.4-83.2 52-89.2c-.3-5.2-18.5-57-22.4-71a40 40 0 0 1 5.4-32.7h46s-5 21.1-8.2 24.7c0 0 26.4 58.3 27.2 74.7s-51 92.6-51 92.6Z"/><path fill="#263238" d="m570.2 410.1-11-.3a425.5 425.5 0 0 0-26.7.2c2.9.6 23.6.5 26.7.5 6.4 0 4.6 0 11-.2a.1.1 0 0 0 0-.2Z"/><path fill="#eb9481" d="M671.2 454.2c-2.2.8-67 1.2-69.5-.2a.8.8 0 0 1-.2-.4c-.8-2 .3-10.2-.1-20.3l.8-8.2c1.5-11.9 1.3-32.4 1.3-32.4l42.3-.6-3.6 33.2v7.4s24.2 10.6 26.7 12.5 4.5 8.3 2.3 9Z"/><path fill="#ebebeb" d="M671.2 454.2c-2.2.8-67 1.2-69.5-.2a.8.8 0 0 1-.2-.4c-.8-2 .3-10.2-.1-20.3l.8-8.2 40 .2v7.4s24.2 10.6 26.7 12.5 4.5 8.3 2.3 9Z"/><path fill="#a6a6a6" d="M671.2 454.2c-2.2.8-67 1.2-69.5-.3-.9-.5-1.6-9.1-.4-20.6l40.8-.6s24.3 10.6 26.8 12.5 4.5 8.3 2.3 9Z"/><path fill="#263238" d="M670.3 451.7a1696 1696 0 0 0-63.9 1 1680.7 1680.7 0 0 0 63.9-1ZM646.2 433.7c-4.2 0-9.1 1.6-11.7 5-.1.2 0 .3.2.2a58.8 58.8 0 0 1 11.6-4.7.3.3 0 0 0 0-.5ZM649.5 435c-4.2 0-9.1 1.5-11.7 5-.1.1 0 .3.2.2a58.8 58.8 0 0 1 11.6-4.7.3.3 0 0 0 0-.5ZM652.8 436.2c-4.2 0-9.1 1.5-11.7 5-.1.1 0 .3.2.2a58.8 58.8 0 0 1 11.6-4.7.3.3 0 0 0 0-.5Z"/><path fill="#37474f" d="m643.8 431.6-45.8.8s5.2-96.6 4.8-102.5c-.3-5.3-33.5-57-37.3-71s-4.7-23.6-1.9-32.8h52.3s-1 21.1-4.1 24.7c0 0 35.6 58.3 36.4 74.7s-4.4 106-4.4 106Z"/><path fill="#263238" d="m641.5 423.5-11-.3c-3 0-23.8-.4-26.7 0v.2c3 .6 23.6.5 26.8.5 6.4 0 4.5 0 11-.2v-.2ZM591.8 252.3c.7-.2 1.6 0 4.3-.1a15.7 15.7 0 0 0 2.3-.4 5 5 0 0 0 2.1-.8 11.2 11.2 0 0 0 2.4-3.3 17.3 17.3 0 0 0 1.7-4c0-.2.1-.1 0 0 0 .7-.1 1.5-.4 2.3a15.8 15.8 0 0 1-.8 2.2 8.8 8.8 0 0 1-2.4 3.6 8.4 8.4 0 0 1-4.5 1.2c-.9.1-4.3 0-4.7-.5v-.2ZM577.8 262a30.3 30.3 0 0 1-5.7-1.1 50.2 50.2 0 0 1-5.5-2.3 37.3 37.3 0 0 0-5.3-1.6 17.3 17.3 0 0 1-5.2-2.3c-.1 0-.2 0-.1.1a31 31 0 0 0 4.9 3.1c1.8.8 3.7 1.1 5.5 1.8a42.3 42.3 0 0 0 5.6 2 18 18 0 0 0 5.8.5v-.2Z"/><path fill="#263238" d="M565.5 258.1a19 19 0 0 0 1.2 3.8l1.6 3.6a153 153 0 0 0 3.6 7l7.5 13.8 15.7 27.4 3.8 7c1.3 2.2 2.5 4.5 3.6 7a11.7 11.7 0 0 1 .8 2 14.9 14.9 0 0 1 .1 2v4l-.2 7.9a690 690 0 0 1-2.5 31.4c.5-10.5 1.2-21 1.6-31.5l.2-7.8v-4a13.8 13.8 0 0 0-.2-1.8 12.4 12.4 0 0 0-.6-1.8c-2.3-4.7-4.9-9.3-7.4-13.9-5.1-9.2-10.4-18.3-15.4-27.5a464.1 464.1 0 0 1-10.8-21.2 65 65 0 0 1-1.5-3.6 18.4 18.4 0 0 1-1.1-3.8Z"/><path fill="#eb9481" d="M614 184.4c7.5 2 34.8 9 43.4 5.5 13.7-5.6 29.1-32 33-38.7 1.6-2.9-21.2-16.2-23.2-13.3-1.4 2-15.7 28-17.8 29.6s-23.1 4-35.9 4.8c-12.2.7-15.4 7.9.5 12.1Z"/><path fill="#eb9481" d="M698 141.9c-2.3 5.1-11.2 13.7-14.1 15s-18-13.5-17.7-16.7 9.6-19.9 14.8-22.4 19.5 18.8 17 24.1Z"/><path fill="#eb9481" d="M667.3 137a46.5 46.5 0 0 0-1.3-13.4c-1.5-5.3-4.3-12.8-1.5-13.7 5.7-1.9 12.6 17 12.6 17s1.8 8.8-3.7 11.1a6 6 0 0 1-6.1-1Z"/><path fill="#eb9481" d="M673.9 123.3c.3 3 3.6.9 3.6.9s-4 4.1-2.5 7 5.4.2 5.7 0c-.2.3-3.8 4.2-2 7s5.3-.5 5.6-.7c-.2.2-1.9 3.9 0 5.6 3.2 3.1 7.8-6 11.3-7l2.4 5.9s4.6-8.6 3-13.2a3.1 3.1 0 0 0-3.3-2.2s1.8-2.6.4-4.8c-.7-1.1-3.1-1-3.1-1a4 4 0 0 0 0-4c-1-1.6-3.4-1.2-3.4-1.2s.3-2.7-1.3-3.9c-3.2-2.5-17.1 5.2-16.4 11.6Z"/><path fill="#263238" d="M691.3 115.5v-.1a27.7 27.7 0 0 0-14 8.8c0 .2.1.4.3.3a56.7 56.7 0 0 1 13.6-9ZM695 120.6c.1 0 0-.1 0 0a26 26 0 0 0-14.5 10.5c-.1.2 0 .5.1.3 2.4-3.4 9.8-8.7 14.5-10.8ZM684.2 137.9c3.4-5 8-8.5 13.3-11.3.1 0 0-.1 0-.1-3 .7-6.1 2.8-8.5 4.7a15.9 15.9 0 0 0-5 6.5c0 .2.1.3.2.2Z"/><path fill="#263238" d="M677.4 124.2c-.1.1.3.1.1.3-.5.7-3.4 5.3-2.1 6.8 1 1.2 3.3.6 4.1 0l2-1.3-1.4 2a10 10 0 0 0-1.4 2.9 3.6 3.6 0 0 0 .2 2.9 2 2 0 0 0 2.4 1 6.2 6.2 0 0 0 2.6-1.7l2-2-1.2 2.6a9.1 9.1 0 0 0-.8 2.2 3.9 3.9 0 0 0 .2 2.3 1.9 1.9 0 0 0 1.6 1 4.1 4.1 0 0 0 2-.7 32.4 32.4 0 0 0 3.9-3.3l1.8-1.8a6 6 0 0 1 2.2-1.3 6.4 6.4 0 0 0-2 1.5l-1.7 1.9a27.7 27.7 0 0 1-3.7 3.5 4.7 4.7 0 0 1-2.5 1.1 2.6 2.6 0 0 1-2.4-1.6 4.7 4.7 0 0 1-.3-2.7 10 10 0 0 1 .8-2.6l.8.6a7 7 0 0 1-3 2 3 3 0 0 1-2-.1 3.4 3.4 0 0 1-1.5-1.4 4.5 4.5 0 0 1-.3-3.6 10.8 10.8 0 0 1 1.6-3.2l.6.6c-1 .7-3.5 1.6-5.3 0-2-2.5 2-7.1 2.7-8Z"/><path fill="#263238" d="M677.5 124.2a6 6 0 0 1-1.8.3 1.4 1.4 0 0 1-1.2-.6 2.8 2.8 0 0 1-.3-1.5l.2-1.9a4.8 4.8 0 0 0-.9 1.8 2.8 2.8 0 0 0 .3 2.1 2 2 0 0 0 .9.7 2 2 0 0 0 1.1.1 3.3 3.3 0 0 0 1.7-1Z"/><path fill="#f4e3d7" d="m654.8 155.3 22.1 19.1a43.3 43.3 0 0 1-19.2 16.8c-6 2.6-31.9-1.8-43.7-5.6s-17.6-11.8 1-14.2 32.5-3.4 33.6-4 6.2-12.1 6.2-12.1Z"/><path fill="#263238" d="M653.6 161.6c1.3 1.6 2.9 3 4.3 4.4l4.7 4.3a445 445 0 0 0 9.8 8.3l-9.1-8.8-4.7-4.2a61.7 61.7 0 0 0-5-4Z"/><path fill="#f4e3d7" d="m674 179.8-22.1-20 2.8-5.7 23.7 21.4-4.4 4.3z"/><path d="m674 179.8-22.1-20 2.8-5.7 23.7 21.4-4.4 4.3zM656 191.7c-8 1.5-31-2.6-42-6-11.9-3.8-17.6-11.9 1-14.3l2.4-.3Z" opacity=".1"/><path fill="#eb9481" d="M619 179.3c-3.7.1-9.4-7-11-11.8l2.1-7.1c.7-2.3 1.4-4.9 1.8-7.3l14.3 6.5a39 39 0 0 0-3.2 9 5 5 0 0 0-.1 1c0 2-.4 9.5-4 9.7Z"/><path fill="#263238" d="M626.2 159.6a42.8 42.8 0 0 0-2.8 7 18.4 18.4 0 0 1-13.7-4.7l.4-1.5c.7-2.3 1.4-4.9 1.8-7.3Z"/><path fill="#eb9481" d="M635 139.8c.3 5.6-6 20.1-10.6 22.6-6.6 3.6-15.6 2-18.2-5.6-2.5-7.3 6.2-26 11.1-28 7.2-3.1 17.2 2.6 17.7 11Z"/><path fill="#263238" d="M617.4 145.2v.2c-.4 1-.7 2.1 0 2.8-1-.5-.5-2.1 0-3Z"/><path fill="#263238" d="M618.8 144.6c1.6.5.4 3.7-1.1 3.2s-.3-3.7 1-3.2ZM611.8 143.1c-.4 1-1 2.2-2 2.2 1.1.3 1.9-1.2 2-2.2Z"/><path fill="#263238" d="M611.3 141.7c-1.5-.7-2.9 2.5-1.4 3.1s2.7-2.5 1.4-3ZM620.6 144a13.2 13.2 0 0 1-1.4-.1 2.3 2.3 0 0 1-1.5-.4.7.7 0 0 1 0-.9 1.8 1.8 0 0 1 1.6-.6 2.6 2.6 0 0 1 1.8.7.8.8 0 0 1-.5 1.3ZM610.7 139.6a11.2 11.2 0 0 0 1.4.2 2.3 2.3 0 0 0 1.5-.2.7.7 0 0 0 .2-.8 1.8 1.8 0 0 0-1.5-1 2.7 2.7 0 0 0-1.9.4.8.8 0 0 0 .3 1.4ZM615 154.7a1.6 1.6 0 0 1-1 .3 2.8 2.8 0 0 1-1-.7 1.5 1.5 0 0 0 1 1 1.1 1.1 0 0 0 1.1-.5s0-.1 0 0Z"/><path fill="#263238" d="M615.1 151.3a3.6 3.6 0 0 1-2.8.7 4.5 4.5 0 0 1-1.2-.4 1 1 0 0 1-.3-.1l-.2-.2a.3.3 0 0 1 0-.3v-.1l.7-2c-.3 0-2 .2-1.8-.2a55.4 55.4 0 0 1 5.2-9.8c0-.1.2 0 .2 0-1.3 3.3-3.1 6.2-4.4 9.4a6.4 6.4 0 0 1 1.7.1c.1 0-1 2.2-1 2.5a5 5 0 0 0 3.9.3s.1 0 0 .1Z"/><path fill="#263238" d="M611.7 151.4a4.3 4.3 0 0 0 1.1 1.8 2 2 0 0 0 1 .5c1 .1 1.3-.6 1.4-1.3a4.6 4.6 0 0 0 0-1.1 5.5 5.5 0 0 1-3.5 0Z"/><path fill="#ff97b8" d="M612.8 153.2a2 2 0 0 0 1 .5c1 .1 1.3-.6 1.4-1.3a2 2 0 0 0-2.4.8Z"/><path fill="#263238" d="M632.5 152.7c-4-1-4.7-6.3-2.7-9.8 0 0-11-1.8-9-10.5a9.8 9.8 0 0 1-8.3 1.6l-1.6 2.8c-1-.6-1.5-3.9 2-5.5a10.6 10.6 0 0 1 5.3-5.8 6 6 0 0 1 6.5 1 9.2 9.2 0 0 1 6.9.3 7.8 7.8 0 0 1 4.3 5.7 7.3 7.3 0 0 1 4.6 6 7.8 7.8 0 0 1-2.8 6.5s.9 1.9-.7 4.8c-1 2-3.3 3.2-4.5 2.9Z"/><path fill="#263238" d="M621.3 131.7a10.1 10.1 0 0 0-.7 2.1 8.5 8.5 0 0 0-.2 2.1 5.6 5.6 0 0 0 1.6 3.8 9 9 0 0 0 3.6 2.2l2 .5 2.2.4-2.2-.1-2.1-.4a9 9 0 0 1-3.9-2.2 5.9 5.9 0 0 1-1.6-4.2 8.9 8.9 0 0 1 1.3-4.2Z"/><path fill="#263238" d="M614.3 135a11.6 11.6 0 0 0 3.8-.8 7.2 7.2 0 0 0 1.6-1 8.7 8.7 0 0 0 1.4-1.3 4.6 4.6 0 0 1-1.1 1.7 5.1 5.1 0 0 1-1.7 1 6.3 6.3 0 0 1-2 .6 6 6 0 0 1-2-.2Z"/><path fill="#eb9481" d="M628.8 151.3s4.7-4 6.6-2.1-2.5 8.2-5.4 8.5a2.7 2.7 0 0 1-3.2-2.4Z"/><path fill="#263238" d="M634 151c-2 .3-3.3 1.8-4.5 3.3a1.5 1.5 0 0 1 2.3.2v.1a1.7 1.7 0 0 0-2 .1 8 8 0 0 0-1.2 1.2c-.2.2-.5 0-.3-.2.6-2.4 3.2-5.1 5.8-4.7Z"/><path fill="#f4e3d7" d="M551.3 229.5s7 7.8 14.9 12.4c.3.2 6.8-11.6 7.2-11.5.6.2-1.6 14.2-1.3 14.4 18 6.6 42.7 12 43.1 11.8s1.6-17.3 1.9-18.7c4.4-20.3 10.8-54 5.8-65.2-1.9-4-10.4-8-14.2-7-10 2.6-15.8 10-21.2 15.8-4 4.3-22.4 29.6-25.3 34-1.4 1.9-11 13.5-10.9 14Z"/><path fill="#f4e3d7" d="m605.1 166.8 3.7-4.4 14.8 7.1v5.3l-18.5-8z"/><path fill="#263238" d="M606.5 167.4c1.7.1 9.5 2 14.3 5.4"/><path fill="#eb9481" d="M614 186c1.1 7.9 10 41 14.4 45.8 8 8.4 32.7 13.6 40.5 14.5 3.4.4 8.3-27.2 4.7-27.9-2.4-.5-24.8-2-27.2-3.3s-15.3-22.7-21.2-34.4c-5.5-11.3-13.6-11.3-11.2 5.3Z"/><path fill="#eb9481" d="M704 244.9a3.9 3.9 0 0 1-4 2 5.7 5.7 0 0 1-1 3.7c-1.4 2-5 .5-5 .5a7 7 0 0 1-1.6 3.8c-1.5 1.7-5.3.7-5.3.7a6.2 6.2 0 0 1-3.6 2.5c-3.9.7-8-3.7-10.7-6.4s-7.7-13.1-8.8-15l7.7-18.4s9.9 1 17.8 4.7c5.2 2.5 9.2 7.6 10.3 9 2.3 3.2 5.6 10.2 4.2 12.9Z"/><path fill="#263238" d="M700.3 246.4c-1.6-3.9-4.3-7-6.8-10.4h-.1c2.5 3.4 4.3 7.1 6.7 10.5a.1.1 0 0 0 .2 0ZM694.3 250.8a11 11 0 0 0-1.7-2.4l-2-2.3a145 145 0 0 0-4.2-4.4l3.9 4.7 1.9 2.4a13 13 0 0 0 1.8 2.1.1.1 0 0 0 .3-.1ZM687 255.5a7.6 7.6 0 0 0-1.5-2l-1.9-2-3.7-4.2 3.5 4.4 1.8 2.2a7 7 0 0 0 1.8 1.7Z"/><path fill="#f4e3d7" d="m653.5 215-12.4 26.3a38.2 38.2 0 0 1-14-8.8c-4.6-4.7-13.3-34.7-14.2-47.5s4.6-20 13.8-3 18 31.7 19.3 32 7.5 1 7.5 1Z"/><path fill="#263238" d="M634.5 238.1a27.3 27.3 0 0 1-8-6.2 12 12 0 0 1-2.2-4l-2-5a146.5 146.5 0 0 1-6-20.3q-1.2-5.8-2-11.8s-.1 0-.1 0c.2 3.2.6 6.5 1 9.6l-.3-1.3a47.4 47.4 0 0 1-1-3.7 26.3 26.3 0 0 0 .8 3.8l.7 2q1 5.5 2.4 11c1 3.5 2 7 3.3 10.4q.9 2.6 2 5a18.4 18.4 0 0 0 2.4 4.6 20.2 20.2 0 0 0 9 6ZM649.4 215.2a61.4 61.4 0 0 0-3 5.6l-2.9 5.9-5.4 12h.2l6-11.6 2.6-5.8a64.2 64.2 0 0 0 2.6-6v-.1Z"/><path fill="#f4e3d7" d="m638.1 240.9 12-27.1 5.9.7-12.7 29.1-5.2-2.7z"/><path d="m638.1 240.9 12-27.1 5.9.7-12.7 29.1-5.2-2.7z" opacity=".1"/><path fill="#263238" d="M490.7 178a.5.5 0 0 1-.3.5l-2 .1c-1.6-4.4-3.4-7.8-3-6.5a22.6 22.6 0 0 1 1.3 6.6l-3.7.2c-1.5-7.7-3.3-13.4-3.2-11.6.4 7 0 9.4-.5 11.8l-29 1c-1-4.3-1.8-8.9-2-8.5a22 22 0 0 0-1.5 8.5h-6.1l-.7-4.8a24.8 24.8 0 0 1 1-9 44.2 44.2 0 0 1 3.8-8.3 24.7 24.7 0 0 0 2.3-5.6 24.2 24.2 0 0 0 .6-4.3c.4-5.2 3.4-9.7 8.3-11.1 9.3-8.8 18.6-5.1 21.4 1.6l.8 2.2c1 3 1.8 7 2.6 10a28.1 28.1 0 0 0 1.1 3.5c2.5 5.5 7.8 8.6 8.8 23.7Z"/><path fill="#263238" d="M454 138.4a10 10 0 0 0-5.8 8 25.3 25.3 0 0 1-1.3 6.5 23 23 0 0 1-3.7 5.7 17 17 0 0 0-4.2 9.4 28.7 28.7 0 0 0 1.1 11.9 30.6 30.6 0 0 1-.4-12.4c.7-4.2 3-6.8 5.4-10a17.3 17.3 0 0 0 3.6-8.4c.2-1.9.2-3.9 1-5.6a11.3 11.3 0 0 1 4.5-4.7.2.2 0 0 0-.3-.4ZM487.4 160.2c-2.3-3-4.6-5.5-6-9.2-1.2-3.3-1.9-6.9-3.1-10.2h-.1c1.9 6 2.3 12 6.1 17 2.1 2.7 4.2 5.2 5.6 8.5A29.2 29.2 0 0 1 492 177a.1.1 0 0 0 .2 0 24.1 24.1 0 0 0-4.8-16.9ZM456 136.4c1.4-.4 2.6-7.7-2.2-11.2s-11 .5-8.3 6.5c1.6 3.7 7.8 5.8 10.6 4.8Z"/><path fill="#263238" d="M447.1 124.8a8.2 8.2 0 0 0-2.7 4.6 5 5 0 0 0 1.4 4.7 9.9 9.9 0 0 0 4.8 2.3 14.7 14.7 0 0 0 2.7.3 7.6 7.6 0 0 0 2.8-.2 6.7 6.7 0 0 1-2.8.8 12.2 12.2 0 0 1-2.9 0 9.6 9.6 0 0 1-5.3-2.4 5.5 5.5 0 0 1-1.5-5.6 7.2 7.2 0 0 1 3.5-4.5Z"/><path fill="#f7a9a0" d="M446.5 167.5c-23.1 5.9-45.6 15.4-48 22.3-3.1 9.3 2.3 26.3 5.2 38 .8 3.5 27.6-3.6 26.7-7.3-1.1-4.5-9-21.5-9-22 0-1 21.6-18 26.8-21.9 8.8-6.5 8.6-11.7-1.7-9Z"/><path fill="#f7a9a0" d="M408.9 245.3c-3.2-5-5.9-17.7-5.3-21s22-8.6 24.7-6.4 12.2 19.7 11.7 25.7-27.8 6.8-31.1 1.7Z"/><path fill="#f7a9a0" d="M439 234.2c-2.8-1.4-2.8 2.7-2.8 2.7s-1.4-5.9-4.9-6.2-3.1 4.7-3.1 5c-.1-.3-1.6-5.7-5-5.6s-2.6 5-2.5 5.4c-.2-.3-2.5-3.8-5.1-3.2-4.6 1.2 1 10.4 0 14l-6.7-1s5.2 8.8 10.1 10a3.3 3.3 0 0 0 3.8-1.8s1.3 3.1 4 3.1c1.5 0 2.7-2.2 2.7-2.2a4.1 4.1 0 0 0 3.7 2.2c2 0 2.9-2.3 2.9-2.3s2.2 1.8 4.1 1c4-1.4 4.9-18.2-1.2-21.1Z"/><path fill="#263238" d="M436.3 254a29.1 29.1 0 0 0 0-17.3c-.1-.2-.5-.2-.4 0a59.5 59.5 0 0 1 .4 17.3ZM429.5 254.5s.1.1.1 0a27.4 27.4 0 0 0-1.3-18.9c0-.2-.4-.3-.3 0 1.7 4.1 2.3 13.5 1.5 19ZM420.3 235.2a37.5 37.5 0 0 1 2.6 18.2c1.1-3 1-7 .6-10.2a16.8 16.8 0 0 0-3-8.1c-.1-.1-.3 0-.2 0Z"/><path fill="#263238" d="M436.2 237a19.6 19.6 0 0 0-1.4-3.3 6.5 6.5 0 0 0-2.3-2.4 2 2 0 0 0-1.5-.3 3 3 0 0 0-1.4.7 3.7 3.7 0 0 0-1 3l.2 2.5-1-2.4a10.6 10.6 0 0 0-1.8-2.8 3.7 3.7 0 0 0-2.7-1.4 2.1 2.1 0 0 0-2.2 1.6 6.5 6.5 0 0 0 0 3.2l.7 3-1.6-2.5a9.7 9.7 0 0 0-1.6-2 4 4 0 0 0-2-1.1 2 2 0 0 0-2 .8 4.3 4.3 0 0 0-.4 2.3 35.4 35.4 0 0 0 .8 5.2l.5 2.7a6.4 6.4 0 0 1 0 2.6 6.7 6.7 0 0 0-.2-2.6l-.7-2.6a27.8 27.8 0 0 1-1.1-5.2 5 5 0 0 1 .4-2.9 2.7 2.7 0 0 1 2.8-1.2 5 5 0 0 1 2.6 1.3 11.3 11.3 0 0 1 1.8 2.1l-1 .4a7.4 7.4 0 0 1 0-3.8 3.1 3.1 0 0 1 1.2-1.7 3.5 3.5 0 0 1 2-.6 4.8 4.8 0 0 1 3.4 1.8 11.7 11.7 0 0 1 2 3.2l-1 .2a4.5 4.5 0 0 1 1.5-3.5 3.7 3.7 0 0 1 1.7-.8 2.7 2.7 0 0 1 2 .3 6.5 6.5 0 0 1 2.2 2.9 16 16 0 0 1 1.1 3.2Z"/><path fill="#f7a9a0" d="M430.4 220.6s20.9 14 11.5 19.4c-2.8 1.6-16.3 5-17 2.3-1-3.5 4.4-6 8-7 0 0-7.8-3.7-6.8-9.9a6.2 6.2 0 0 1 4.3-4.8Z"/><path fill="#263238" d="M442.6 239.5a13 13 0 0 1-3.3 1.9 27.9 27.9 0 0 1-3.7 1.1 44.5 44.5 0 0 1-7.6 1.4 7.2 7.2 0 0 1-2-.2 2.6 2.6 0 0 1-1-.4 1.8 1.8 0 0 1-.5-.5 2 2 0 0 1-.2-.6 3.2 3.2 0 0 1 .2-2.2 6.2 6.2 0 0 1 1.3-1.7 11.7 11.7 0 0 1 3.3-2 26 26 0 0 1 3.7-1.3v.8a16.1 16.1 0 0 1-2.5-1.6 15 15 0 0 1-2.1-2 10.4 10.4 0 0 1-1.5-2.5 7.5 7.5 0 0 1-.6-2.8 8.4 8.4 0 0 0 .8 2.7 10.6 10.6 0 0 0 1.7 2.2 14.8 14.8 0 0 0 2.1 1.8 15.2 15.2 0 0 0 2.4 1.4l1 .5-1 .4a29.2 29.2 0 0 0-3.6 1.3 11.5 11.5 0 0 0-3 2 3.1 3.1 0 0 0-1.3 2.8c.2.8 1.6 1 2.8 1a34.3 34.3 0 0 0 3.7-.4 58 58 0 0 0 3.7-.6 24.1 24.1 0 0 0 7.2-2.5Z"/><path fill="#a6a6a6" d="m426.7 195.7-18.2-19.5s21.7-7.7 35.3-10.2 16.7 3.9 7 12.7-24 17-24 17Z"/><path fill="#263238" d="m430.3 191.3-1.8-2.1a381.6 381.6 0 0 0-5.2-6c-2.4-2.8-4.7-5.5-7.2-8a83.3 83.3 0 0 0 6.6 8.3l3.6 4 1.9 2 2 1.9s.1 0 0-.1Z"/><path fill="#f7a9a0" d="m402.5 380.3-18.8 35.5a76.5 76.5 0 0 0-.2 19.5c2.4 1.6 65.3 2.7 67.5 2s.5-7-2-9-26.3-13.2-26.3-13.2l20.5-34.1Z"/><path fill="#ebebeb" d="M451 437.4c-2.1.7-65-.5-67.5-2-.2-.3-1.1-11.9.2-19.6l3.1-5.9 38.5 1-2.5 4.2s23.9 11.3 26.3 13.3 4.2 8.3 2 9Z"/><path fill="#455a64" d="M451.4 437.7c-2.2.7-65.8-.7-68.2-2.3-1-.6-1-9.6 0-21l39.7.7s24.1 11.4 26.5 13.4 4.2 8.5 2 9.2Z"/><path fill="#263238" d="M450.6 435.1a1681 1681 0 0 0-64.3-1 1693.8 1693.8 0 0 0 64.3 1ZM445.4 426.1a8.6 8.6 0 0 0-6.5 2.5 8.4 8.4 0 0 0-2.5 5.6c0 .1.1.1.1 0a10 10 0 0 1 8.9-8ZM427 416.2c-4.3-.1-9.2 1.3-12 4.7-.1.1 0 .3.2.2a58.5 58.5 0 0 1 11.8-4.3.3.3 0 0 0 0-.6Z"/><path fill="#263238" d="M430.2 417.6c-4.2-.2-9.2 1.2-12 4.7l.2.2a59.7 59.7 0 0 1 11.9-4.4.3.3 0 0 0 0-.5ZM433.5 419c-4.3-.2-9.2 1.2-12 4.6-.1.1 0 .3.2.2a58.1 58.1 0 0 1 11.8-4.3.3.3 0 0 0 0-.6Z"/><path fill="#263238" d="M436.8 420.3c-4.3-.2-9.3 1.2-12 4.7-.2.1 0 .3.2.2a59.7 59.7 0 0 1 11.8-4.4.3.3 0 0 0 0-.5ZM389.3 423.9c-4.8-.1-5 7.3-.2 7.4s5-7.3.1-7.4ZM431.8 405c-2.1-1.8-4.9-.1-6.2 1.7a22.3 22.3 0 0 0-4.1 10.8v.1a.5.5 0 0 0 .8.4c3.1-2 6.7-3.8 9-6.8 1.4-1.7 2.5-4.5.5-6.2Zm-5.4 9-4.5 3c.8-2 1.5-4.2 2.5-6.2a24.8 24.8 0 0 1 1.7-2.9c1-1.4 5.2-4.8 5.5-.2.2 2.5-3.4 5-5.2 6.2Z"/><path fill="#263238" d="M410.8 418.8c3.7.7 7.6-.3 11.2-.8a.5.5 0 0 0 .4-.8v-.1a22.3 22.3 0 0 0-10.2-5.5c-2.3-.5-5.4 0-5.8 2.8s2.3 4 4.4 4.4Zm-2.5-2.5c-2.8-3.7 2.7-3.9 4.3-3.5a24.1 24.1 0 0 1 3.1 1.1 66.8 66.8 0 0 1 6 3l-5.4.7c-2.1.2-6.4.8-8-1.3ZM382.6 406l46.3 5s61.2-77.4 61-106.7c-.2-15.1-44.6-62.6-44.6-62.6l-.6-20.8h-33s-14.9 27.1-9.3 41c5.7 14.3 36.9 45.2 38.3 49.6 2 5.9-58.1 94.6-58.1 94.6Z"/><path fill="#37474f" d="M388.8 399.8a34.6 34.6 0 0 1 3.8.1l4.2.3q4.1.3 8.1.8c5.5.6 11 1.3 16.3 2.1l9.3 1.6a.1.1 0 0 1 0 .2l-16.3-1.6c-5.4-.6-10.8-1-16.1-1.8l-4.7-.7c-1.6-.2-3-.4-4.6-.8-.1 0-.1-.2 0-.2Z"/><path fill="#f7a9a0" d="m456.3 399.6-4 41.4c.3 7.9.3 18.7 1.8 20 2.4 1.4 65.6 1.8 67.8 1s.2-7-2.3-9-26.7-12.5-26.7-12.5l3.6-41.3Z"/><path fill="#ebebeb" d="M521.9 462c-2.2.8-65.4.4-67.8-1-1.5-1.3-1.5-12.1-1.8-20l.5-5.7h40.6l-.5 5.2s24.2 10.6 26.7 12.5 4.5 8.3 2.3 9Z"/><path fill="#455a64" d="M522 462.3c-2.2.7-65.8.5-68.2-1-.9-.6-1.4-9.9-1.7-21.1h41s24.3 11 26.8 13 4.4 8.3 2.2 9Z"/><path fill="#263238" d="M521.1 459.7a1741.4 1741.4 0 0 0-64.2 0 1698.2 1698.2 0 0 0 64.3 0ZM515.8 450.8a8.6 8.6 0 0 0-6.4 2.6 8.3 8.3 0 0 0-2.4 5.7h.1a9.9 9.9 0 0 1 8.7-8.1v-.2ZM497.2 441.3c-4.2-.1-9.2 1.4-11.9 4.9 0 .1.1.2.3.2a58.4 58.4 0 0 1 11.7-4.6.3.3 0 0 0 0-.5ZM500.5 442.6c-4.3-.1-9.2 1.4-11.9 4.9l.2.2a59 59 0 0 1 11.8-4.6.3.3 0 0 0 0-.5ZM503.8 443.9c-4.3-.1-9.2 1.4-11.9 4.9l.2.2a58.4 58.4 0 0 1 11.8-4.6.3.3 0 0 0-.1-.5ZM507 445.1c-4.2 0-9.1 1.5-11.8 5l.2.2a59.1 59.1 0 0 1 11.8-4.6.3.3 0 0 0-.1-.6ZM459.7 449.6c-4.8 0-4.8 7.4 0 7.4s4.8-7.4 0-7.4Z"/><path fill="#263238" d="M501.9 429.9c-2.2-1.8-5 0-6.2 1.8a22.4 22.4 0 0 0-4 10.9.1.1 0 0 0 .2.1.5.5 0 0 0 .7.4c3-2.1 6.6-4 9-7 1.3-1.7 2.3-4.5.3-6.2Zm-5.3 9.1c-1.5 1-3 2-4.4 3.2.8-2.2 1.4-4.3 2.4-6.3a24.2 24.2 0 0 1 1.6-3c1-1.3 5.1-5 5.5-.2.3 2.5-3.3 5-5 6.3Z"/><path fill="#263238" d="M481.1 444.1c3.7.6 7.6-.4 11.2-1a.5.5 0 0 0 .4-.7v-.2a22.4 22.4 0 0 0-10.3-5.3c-2.3-.4-5.5.1-5.8 3-.3 2.6 2.4 3.9 4.5 4.2Zm-2.5-2.4c-3-3.7 2.6-4 4.2-3.6a26.3 26.3 0 0 1 3.1 1c2.2.9 4.1 2 6.1 3-1.8.1-3.6.5-5.4.7-2.1.3-6.5 1-8-1.1ZM429.8 266.6s31 59.6 32 64c1.4 6.9-13 104-13 104l49.5.2s12.5-92.6 9.5-110.9c-2.7-16.2-42.7-81.7-44.2-85.4a77.7 77.7 0 0 1-4-17.6H413s-2.3 24.1 8.7 41.6c0 0 5 2.3 8.1 4Z"/><path fill="#37474f" d="M451.4 425.4c5.7-.1 11.6-.3 17.4-.2s11.3.3 17 .6l9.6.6v.2c-5.7.3-11.5.3-17.2.2s-11.4-.1-17-.4l-9.7-.5c-.3 0-.5-.5-.1-.5ZM442 267.8a44 44 0 0 1-7.3-.7 72.3 72.3 0 0 1-7.2-2 55 55 0 0 0-7-1.1 24.7 24.7 0 0 1-6.8-2c-.1 0-.2 0-.1.1a42.5 42.5 0 0 0 6.5 2.9c2.4.7 4.8.8 7.2 1.4a59.4 59.4 0 0 0 7.4 1.7 26.2 26.2 0 0 0 7.3-.1c.1 0 0-.2 0-.2Z"/><path fill="#37474f" d="M429.8 266.6a1791.2 1791.2 0 0 1 25.8 50c2 4.2 4.1 8.4 6 12.7a7.3 7.3 0 0 1 .7 3.6c0 1.2 0 2.4-.2 3.6a570 570 0 0 1-4.5 34.9l1.6-14a592.6 592.6 0 0 0 2-21l.2-3.5a6.4 6.4 0 0 0-.6-3.2l-6.1-12.7-12.5-25.2-6.3-12.6Z"/><path fill="#f7a9a0" d="M450.4 168.3c-.1 1 2.3 8.9 6.8 10.2 1.5.5 4.2-7.4 4.2-7.4l.3-.5 4.7-7.5-7.4-9.5-1.1-1.3-2.5 4.8-.2.4-.3.4-.6 1.2-.5 1-.5 1a58.1 58.1 0 0 0-2.9 7.2Z"/><path fill="#263238" d="M455.3 157.1a17.8 17.8 0 0 0 6.4 13.5l4.7-7.5-7.4-9.5-1.1-1.3-2.6 4.8Z"/><path fill="#f7a9a0" d="M482.2 151c.3 15.4-8.9 17.5-12.3 17.5-3-.1-13.3-.1-15.3-15.5s5.2-20.5 12.1-21 15.2 3.4 15.5 19Z"/><path fill="#263238" d="M480.7 147.6a9.2 9.2 0 0 1-1-.3 1.7 1.7 0 0 1-1-.5.5.5 0 0 1 0-.6 1.4 1.4 0 0 1 1.3-.3 2 2 0 0 1 1.2.8.6.6 0 0 1-.5.9ZM470 149.2a9.3 9.3 0 0 0 1 .2 1.7 1.7 0 0 0 1.2 0 .6.6 0 0 0 .2-.6 1.4 1.4 0 0 0-1-.8 2 2 0 0 0-1.5.1.6.6 0 0 0 .1 1.1ZM472.4 151.6h-.1c0 1.1-.2 2.3-1.1 2.7 1.1-.1 1.3-1.7 1.2-2.7Z"/><path fill="#263238" d="M471.4 150.4c-1.6-.1-1.9 3.3-.3 3.4s1.8-3.2.3-3.4Z"/><path fill="#263238" d="M470.8 150.6c-.3.1-.7.5-1 .5s-.7-.4-1-.7c0 .6 0 1.3.8 1.4s1-.4 1.3-1c.1-.1 0-.3-.1-.2ZM478.4 151.3l.1.1c-.1 1 0 2.3.9 2.7 0 0 0 .1 0 0-1.2-.2-1.2-1.8-1-2.8Z"/><path fill="#263238" d="M479.4 150.3c1.8 0 1.7 3.4 0 3.4s-1.4-3.4 0-3.4Z"/><path fill="#263238" d="M480.2 150.6c.2.2.5.5.8.5s.7-.3 1-.6c0 .6-.3 1.3-1 1.4s-1-.5-1-1.2c0 0 0-.2.2-.1ZM471.8 159.7c.3.3.5.6.8.7a2.5 2.5 0 0 0 1.2-.1 1.4 1.4 0 0 1-1.4.5 1.1 1.1 0 0 1-.7-1l.1-.1ZM476.4 156.1l.1 2.3-.4.1a3.5 3.5 0 0 1-3.4-1.5h.1a5.3 5.3 0 0 0 3.2 1l-.2-2.7a6.4 6.4 0 0 1 1.7.5c-.2-3.4-1-6.6-1-10a.1.1 0 0 1 .2 0 53.7 53.7 0 0 1 1.5 10.7c0 .4-1.5-.3-1.8-.4Z"/><path fill="#263238" d="M476 158a4.3 4.3 0 0 1-1.6 1.4 2 2 0 0 1-1.1.2c-1-.2-1-1-.9-1.6a5 5 0 0 1 .3-1 5.6 5.6 0 0 0 3.4 1Z"/><path fill="#ff98b9" d="M474.4 159.4a2 2 0 0 1-1.1.2c-1-.2-1-1-.9-1.7a2 2 0 0 1 2 1.5Z"/><path fill="#263238" d="M456.2 154.1c2.8.5 3.8-6 3.8-6s12.3-1.5 13.8-11.4a16.8 16.8 0 0 0 8 9.6s0-11-8.4-13.4c0 0-10.6-4.4-17 3.8s-2.1 17-.2 17.4Z"/><path fill="#263238" d="M473.8 136a10.9 10.9 0 0 1-.7 4.5 11.3 11.3 0 0 1-2.5 3.9 10.7 10.7 0 0 1-.8.8l-.5.4-.5.3-1 .6-1 .5-.5.3-.6.1-1 .4-2.3.4 2.1-.7 1-.5.5-.2.5-.2 1-.6 1-.6.4-.4.4-.3a9.6 9.6 0 0 0 .8-.8 12.8 12.8 0 0 0 2.5-3.6 13.8 13.8 0 0 0 .7-2.1 13.4 13.4 0 0 0 .5-2.2Z"/><path fill="#f7a9a0" d="M458.3 153.3s-3.7-4.6-5.8-3.3 1 8.2 3.5 9a2.6 2.6 0 0 0 3.5-1.6Z"/><path fill="#263238" d="M453.4 152c1.9.7 3 2.3 3.7 4a1.4 1.4 0 0 0-2.2-.3v.1a1.6 1.6 0 0 1 1.9.5 8.2 8.2 0 0 1 1 1.3c0 .2.4 0 .3-.1-.2-2.4-2.2-5.5-4.7-5.5Z"/><path fill="#dbdbdb" d="m465.8 215.2-3.7 14.7-54.2-6.3s17.3-43.4 34.6-54.6c8.7-5.6 16.5-3 20.2 3.4 1 1.7 10.6 22.1 10.2 30.2-.3 7.2-7.1 12.6-7.1 12.6Z"/><path fill="#a6a6a6" d="m459.3 168.5-12.9-1.5 1-.4 11 1.3.9.6Zm2.7 3-19.7-2.4-.6.5 20.7 2.4-.4-.6Zm1.8 3.3-25-3-.5.5 25.7 3c0-.2 0-.4-.2-.5Zm1.5 3.2-29.3-3.4-.4.5 30 3.5-.3-.5Zm1.5 3.3-33.3-3.9c0 .2-.2.3-.3.5l33.8 4-.3-.6Zm1.3 3.3-36.8-4.3-.4.4 37.4 4.4Zm1.3 3.2-40.2-4.7-.3.5 40.6 4.7-.1-.5Zm1 3.3-43.2-5.1-.3.5 43.8 5-.2-.4Zm1 3.2-46-5.4a7 7 0 0 0-.3.5l46.5 5.4-.1-.5Zm1 3.2-48.8-5.7-.3.5 49.1 5.7v-.5Zm.5 3.1-51-5.9-.3.5 51.3 6v-.5Zm-52.6-3-.3.5 52.7 6.2a3.9 3.9 0 0 0 .1-.5Zm-1.6 3-.2.4 53.4 6.3a4.5 4.5 0 0 0 .1-.5Zm-1.5 2.9a5 5 0 0 0-.3.4l53.4 6.3c0-.2.2-.3.3-.5Zm-1.5 3-.2.4L468 213l.4-.5Zm-1.4 3-.3.4 51.6 6 .1-.5Zm-1.4 2.9-.2.4 52.2 6.1v-.5Zm-1.4 2.9-.2.5 52.8 6.1.1-.5Zm-1.3 3a3.8 3.8 0 0 0-.2.5l53.3 6.2.2-.5Zm-1.3 3-.2.4 53.9 6.3v-.5Z"/><path fill="#f7a9a0" d="M452.4 180.4c-1 10 .2 40.8 6.3 48.3s33.3 15 42.5 17.8c2.9.9 8.3-25.5 2.5-26.6-7.5-1.4-22.9-7-26.3-9-2.3-1.5-7.8-20-12.7-33.4-4-11.2-10.9-10-12.3 2.9Z"/><path fill="#f7a9a0" d="M536.7 243a3.9 3.9 0 0 1-3.7 2.4 5.7 5.7 0 0 1-.6 3.8c-1.2 2-4.9 1-4.9 1a7 7 0 0 1-1.2 4c-1.4 1.8-5.2 1.3-5.2 1.3a6.2 6.2 0 0 1-3.3 2.7c-3.8 1.2-8.4-2.7-11.4-5.2s-9-12.2-10.3-14l5.8-19s9.9 0 18.1 2.8a30 30 0 0 1 11.2 8c2.6 2.8 6.6 9.4 5.5 12.2Z"/><path fill="#263238" d="M533.1 245c-2-3.7-5-6.6-7.8-9.7v.1c2.8 3 5 6.6 7.7 9.7 0 0 .2 0 .1-.1ZM527.7 250a10.8 10.8 0 0 0-2-2.2 88.1 88.1 0 0 0-6.8-6 109.8 109.8 0 0 1 6.5 6.4 13 13 0 0 0 2 2c.2 0 .4-.2.3-.3ZM521 255.4a8 8 0 0 0-1.8-1.8 183 183 0 0 1-6.3-5.6l4 4 2 2a7.2 7.2 0 0 0 2 1.5s.1 0 .1 0Z"/><path fill="#a6a6a6" d="m475.4 204.7-23.7 12.2s-1.6-23-.3-36.7 8.3-15 14.2-3.4 9.8 27.9 9.8 27.9Z"/><path fill="#263238" d="M472.1 200c-.8.5-1.6.8-2.5 1.2l-2.5 1.2-4.7 2.2c-3.2 1.6-6.5 3-9.7 4.7v.1a84 84 0 0 0 9.8-4.1l4.9-2.4 2.4-1.3 2.4-1.4v-.1Z"/><path fill="#ad6359" d="M287 165.3c-22.4 8.5-43.6 20.6-45.1 27.7-2 9.6 4 32 8.2 43.4 1.2 3.3 27-6.8 25.7-10.4l-10.3-27c0-1 19.4-20.3 24.2-24.8 8-7.6 7.1-12.6-2.8-8.9Z"/><path fill="#ad6359" d="M257.3 253.1c-3.8-4.5-7.9-16.9-7.7-20.2s20.8-11 23.7-9.2 14.5 18.1 14.6 24.1-26.7 10-30.6 5.3Z"/><path fill="#ad6359" d="M285.9 238.6c-3-1-2.5 3-2.5 3s-2-5.7-5.6-5.5-2.5 5-2.5 5.4c0-.4-2.2-5.5-5.6-5s-2 5.2-2 5.5c-.1-.2-2.8-3.5-5.3-2.5-4.4 1.7 2.2 10.2 1.5 14l-6.6-.4s6 8.2 11.2 8.8a3.3 3.3 0 0 0 3.5-2.1s1.6 2.8 4.4 2.5c1.4-.1 2.4-2.5 2.4-2.5a4.1 4.1 0 0 0 3.9 1.8c1.9-.3 2.6-2.6 2.6-2.6s2.4 1.5 4.2.5c3.8-2 2.7-18.7-3.6-21Z"/><path fill="#263238" d="M285.5 258.6a29 29 0 0 0-2-17.2c-.2-.2-.5-.1-.4.1a60 60 0 0 1 2.4 17.1ZM278.8 259.9h.1a27.3 27.3 0 0 0-3.4-18.6c-.2-.2-.5-.3-.3 0 2 3.8 3.8 13.2 3.6 18.6ZM267.4 241.8a37.5 37.5 0 0 1 4.8 17.7c.7-3 0-7-.7-10.2a16.9 16.9 0 0 0-4-7.7s-.2 0-.1.2Z"/><path fill="#263238" d="M283.4 241.6a19.3 19.3 0 0 0-1.8-3 6.3 6.3 0 0 0-2.5-2.2 2.1 2.1 0 0 0-1.5 0 3 3 0 0 0-1.3.9 3.7 3.7 0 0 0-.6 3l.4 2.5-1.3-2.2a10.5 10.5 0 0 0-2.1-2.7 3.7 3.7 0 0 0-2.9-1 2.1 2.1 0 0 0-2 1.8 6.6 6.6 0 0 0 .4 3.2l1 2.8-1.9-2.3a10 10 0 0 0-1.8-1.8 4 4 0 0 0-2.2-.8 2 2 0 0 0-1.7 1 4.3 4.3 0 0 0-.2 2.4 33.8 33.8 0 0 0 1.4 5l.8 2.6a6.3 6.3 0 0 1 .3 2.7 6.6 6.6 0 0 0-.6-2.6c-.2-.9-.6-1.7-1-2.5a28.3 28.3 0 0 1-1.7-5.1 5 5 0 0 1 .1-2.9 2.8 2.8 0 0 1 2.6-1.6 5 5 0 0 1 2.7 1 10.7 10.7 0 0 1 2.1 2l-.9.5a7.4 7.4 0 0 1-.5-3.8 3 3 0 0 1 1-1.9 3.6 3.6 0 0 1 2-.8 4.7 4.7 0 0 1 3.6 1.4 11.4 11.4 0 0 1 2.3 3l-1 .3a4.5 4.5 0 0 1 1-3.7 3.8 3.8 0 0 1 1.7-1 2.7 2.7 0 0 1 2 .2 6.6 6.6 0 0 1 2.5 2.5 16.2 16.2 0 0 1 1.6 3.1Z"/><path fill="#ad6359" d="M275.8 226.1s22.3 11.4 13.6 18c-2.6 2-15.6 6.9-16.6 4.3-1.3-3.4 3.7-6.4 7.2-7.9 0 0-8.2-2.8-8-9a6.2 6.2 0 0 1 3.8-5.4Z"/><path fill="#263238" d="M290.1 243.5a13.1 13.1 0 0 1-3.1 2.2 28.2 28.2 0 0 1-3.5 1.6 45.1 45.1 0 0 1-7.4 2.2 7.2 7.2 0 0 1-2 0 2.8 2.8 0 0 1-1.1-.3 2 2 0 0 1-.5-.4 1.9 1.9 0 0 1-.3-.5 3.3 3.3 0 0 1 0-2.3 6 6 0 0 1 1-1.8 11.4 11.4 0 0 1 3.2-2.4 26.1 26.1 0 0 1 3.5-1.7v.8a15.8 15.8 0 0 1-2.7-1.3 14.2 14.2 0 0 1-2.3-1.8 9.7 9.7 0 0 1-1.8-2.3 7.7 7.7 0 0 1-1-2.7 8.6 8.6 0 0 0 1.3 2.6 10.5 10.5 0 0 0 1.9 2 13.8 13.8 0 0 0 2.3 1.5 14.2 14.2 0 0 0 2.5 1.1l1.1.4-1 .5a27.4 27.4 0 0 0-3.4 1.7 11.4 11.4 0 0 0-2.8 2.3 3.1 3.1 0 0 0-.9 3c.3.8 1.7.7 2.9.6a34.4 34.4 0 0 0 3.6-.8l3.7-1a24.3 24.3 0 0 0 6.8-3.2Z"/><path fill="#f4e3d7" d="M275.7 221.5 247 233.3s-9.1-34.5-5.4-41.9 27.8-20.2 41-25.5 17.2-1.1 6.8 9.6-22.4 23-22.3 23.6 8.7 22.4 8.7 22.4Z"/><path fill="#fff" d="M258.5 187.3a10 10 0 0 1 0 2.8 9.7 9.7 0 0 1-.8-2.7 10 10 0 0 1 0-2.8 10.1 10.1 0 0 1 .8 2.7Zm-4.8 32.8a10 10 0 0 0 0 2.8 9.7 9.7 0 0 0 .7 2.7 10.7 10.7 0 0 0-.8-5.5Zm12.3-46.4-.6.3a8.1 8.1 0 0 0 .6 1.9 8.3 8.3 0 0 0 0-2.2Zm10.2 4.4a10 10 0 0 0 2.8 0 9.9 9.9 0 0 0 2.7-.8 9.7 9.7 0 0 0-2.8 0 10.1 10.1 0 0 0-2.7.8ZM254 204a10.7 10.7 0 0 0 5.5-.8 10.7 10.7 0 0 0-5.5.8Zm33.7-40a11.2 11.2 0 0 0-1.3 1.4 9.7 9.7 0 0 0-1.4 2.4 10 10 0 0 0 2-2 10.2 10.2 0 0 0 1.2-2Zm-17.4 46.5a9.7 9.7 0 0 0-2 2 9.3 9.3 0 0 0-1.3 2.5 10 10 0 0 0 2-2 9.8 9.8 0 0 0 1.3-2.5Zm-25.5-20.3a10.7 10.7 0 0 0-3.3 4.4 9.7 9.7 0 0 0 2-2 9.8 9.8 0 0 0 1.3-2.4Zm-3 18.1h-.1l-.2.7a9 9 0 0 0 2.3 1.3 10.3 10.3 0 0 0-2-2Zm30.6-16.9a9.8 9.8 0 0 0-2.5-1.4 9.7 9.7 0 0 0 2 2l.8.6.5-.5-.9-.7Z"/><path fill="#263238" d="M246.4 227c4.4-2 3.1-1.5 7.5-3.3a269.5 269.5 0 0 1 18.6-7.2c-1.8 1.3-16.2 7-18.4 7.8l-7.7 2.9v-.2Z"/><path d="M289.2 175.5c-10.4 10.8-22.3 23-22.2 23.6s8.7 22.4 8.7 22.4L247 233.3a265 265 0 0 1-5.6-27.4l50.3-42.3c5.1 0 5 4.4-2.4 12Z" opacity=".1"/><path fill="#ad6359" d="M296.4 444.3c-2.2.7-67 1.2-69.5-.3a.8.8 0 0 1-.3-.4c-.7-1.9.3-10.2 0-20.3 0-.6 18-37.5 18-37.5l42.2-.6-19.5 37.6s24.3 10.5 26.8 12.5 4.5 8.2 2.3 9Z"/><path fill="#ebebeb" d="M296.4 444.3c-2.2.7-67 1.2-69.5-.3a.9.9 0 0 1-.3-.4c-.7-1.9.3-10.2 0-20.3l4.3-9.3h41l-4.6 8.8s24.3 10.5 26.8 12.5 4.5 8.2 2.3 9Z"/><path fill="#263238" d="M271.4 423.8c-4.2 0-9.1 1.5-11.7 5-.1.1 0 .3.2.2a58.9 58.9 0 0 1 11.6-4.7.3.3 0 0 0 0-.5ZM274.7 425c-4.2 0-9.1 1.5-11.7 5-.1.1 0 .3.2.2a58.9 58.9 0 0 1 11.6-4.7.3.3 0 0 0-.1-.5ZM278 426.3c-4.2 0-9.1 1.5-11.7 5-.1.1 0 .2.2.2a58.9 58.9 0 0 1 11.6-4.8.3.3 0 0 0-.1-.4Z"/><path fill="#f4e3d7" d="M296.4 444.3c-2.2.7-67 1.2-69.5-.3-1-.6-1.6-9.2-.4-20.7l40.8-.5s24.3 10.5 26.8 12.5 4.5 8.2 2.3 9Z"/><path d="M296.4 444.3c-1 .3-14.4.6-29.2.7l8.7-18.4a212 212 0 0 1 18.2 8.7c2.5 1.9 4.5 8.2 2.3 9Z" opacity=".1"/><path fill="#263238" d="M295.5 441.8a1675 1675 0 0 0-63.9 1 1681.5 1681.5 0 0 0 63.9-1Z"/><path fill="#455a64" d="m272.2 421.6-49 .9s42.4-83.2 42-89.2c-.3-5.3-18.5-57-22.3-71a39.9 39.9 0 0 1 5.3-32.7h46.1s-5 21.1-8.2 24.7c0 0 26.4 58.3 27.1 74.7s-41 92.6-41 92.6Z"/><path fill="#263238" d="M269.4 413.6c-6.5-.2-4.6-.3-11-.4-3.2 0-23.9-.4-26.8.1v.2c3 .5 23.6.5 26.7.5 6.5 0 4.6-.1 11-.2a.1.1 0 0 0 0-.2ZM293.6 380.2l-46.5-148.8 1.1-1.8h46.1s-5 21.1-8.2 24.8c0 0 26.4 58.2 27.1 74.6.4 8-9.4 30.5-19.6 51.2Z"/><path fill="#ad6359" d="M350.4 457.7c-2.2.8-67.1 1.2-69.5-.3a.9.9 0 0 1-.3-.3c-.8-2 .3-10.2-.1-20.3 0-.7.3-3.9.9-8.2 1.4-12 4.3-32.5 4.3-32.5l42.3-.5-6.7 33.2v7.4s24.3 10.6 26.7 12.5 4.6 8.2 2.4 9Z"/><path fill="#ebebeb" d="M350.4 457.7c-2.2.8-67.1 1.2-69.5-.3a.9.9 0 0 1-.3-.3c-.8-2 .3-10.2-.1-20.3 0-.7.3-3.9.9-8.2l40 .2-.1 7.4s24.3 10.6 26.8 12.5 4.4 8.2 2.3 9Z"/><path fill="#f4e3d7" d="M350.4 457.7c-2.2.8-67.1 1.2-69.5-.3-1-.5-1.6-9.1-.4-20.6l40.7-.6s24.4 10.6 26.9 12.5 4.4 8.2 2.3 9Z"/><path fill="#263238" d="M349.4 455.2a1696.5 1696.5 0 0 0-63.8 1 1681 1681 0 0 0 63.8-1ZM325.4 437.2c-4.3 0-9.2 1.5-11.8 5 0 .1.1.3.2.2a58.4 58.4 0 0 1 11.6-4.7.3.3 0 0 0 0-.5ZM328.6 438.4c-4.2 0-9 1.6-11.7 5 0 .2.1.3.2.3a58.5 58.5 0 0 1 11.6-4.8.3.3 0 0 0 0-.5ZM332 439.7c-4.3 0-9.2 1.5-11.8 5-.1.1.1.3.2.2a58.3 58.3 0 0 1 11.6-4.7.3.3 0 0 0 0-.5Z"/><path fill="#455a64" d="m322.9 435-45.7.8s15-96.5 14.7-102.5c-.3-5.3-33.4-57-37.3-71s-10.9-23.5-8-32.8H305s-1 21.2-4 24.8c0 0 35.6 58.3 36.4 74.7s-14.5 106-14.5 106Z"/><path fill="#263238" d="m320.7 427-11-.3c-3.2-.1-23.8-.4-26.8 0v.2c3 .5 23.6.5 26.8.5 6.4 0 4.6-.1 11-.2a.1.1 0 0 0 0-.2ZM281 255.7c.6 0 1.6.2 4.3 0a14.6 14.6 0 0 0 2.3-.4 5 5 0 0 0 2-.8 11 11 0 0 0 2.4-3.3 16.7 16.7 0 0 0 1.7-4.1h.1c0 .8-.2 1.6-.4 2.4a14.3 14.3 0 0 1-.8 2.2 8.8 8.8 0 0 1-2.4 3.6 8.3 8.3 0 0 1-4.5 1.2c-.9 0-4.3 0-4.8-.5l.1-.3ZM266.9 265.5a30 30 0 0 1-5.7-1.1 49.4 49.4 0 0 1-5.4-2.3 37.5 37.5 0 0 0-5.4-1.6 17.2 17.2 0 0 1-5.2-2.3s-.1 0 0 .1a31.2 31.2 0 0 0 4.8 3.1c1.8.8 3.7 1.1 5.5 1.8a41 41 0 0 0 5.6 2 18 18 0 0 0 5.8.5c.1 0 .1-.2 0-.2Z"/><path fill="#263238" d="M254.6 261.6a20.8 20.8 0 0 0 1.5 4.5l2 4.2a862 862 0 0 0 13.6 24.9l9.3 16.4c3.1 5.5 6.3 11 9.2 16.5a45.3 45.3 0 0 1 2 4.4 4.6 4.6 0 0 1 .3 1.3v1.2l-.2 2.4-1 9.4q-1.3 9.4-2.8 18.7t-3 18.6l-3.2 18.6 2.8-18.6 2.7-18.7 2.6-18.7 1-9.4.1-2.3v-1.2a3 3 0 0 0-.2-1 42.2 42.2 0 0 0-2-4.2c-5.8-11.1-12.3-22-18.3-33-3-5.5-6.1-11-9-16.6a229.4 229.4 0 0 1-6-12.9 20.5 20.5 0 0 1-1.4-4.5Z"/><path fill="#ad6359" d="M302.2 177.7c-3.7-.3-8.5-8-9.5-13 0-.3 1.4-3.2 3-6.8l2.6-7 13.4 8.1a38.6 38.6 0 0 0-4.2 8.4 5.2 5.2 0 0 0-.2 1 1.4 1.4 0 0 1 0 .2c-.3 2-1.6 9.3-5.1 9Z"/><path fill="#263238" d="M307.3 168.5v.1a10.1 10.1 0 0 1-1.6-.4c-8.4-3-7.6-13.3-7-17l13 7.8a38.9 38.9 0 0 0-4.2 8.5 5.2 5.2 0 0 0-.2 1Z"/><path fill="#ad6359" d="M299.7 133c-2.8 4.9-3.8 20.7-.9 25 4.2 6.2 13 8.9 18.7 3.4 5.6-5.3 6.4-26 3-30-5-6.1-16.5-5.5-20.8 1.6Z"/><path fill="#263238" d="M312.8 146c0 1.1-.3 2.3-1.3 2.6 1.2 0 1.5-1.6 1.3-2.7Z"/><path fill="#263238" d="M312 144.8c-1.7-.3-2.1 3.1-.5 3.4s2-3.2.5-3.4ZM318.8 146.6v.1c0 1 0 2.3.8 2.8-1.1-.3-1.1-1.9-.8-2.9Z"/><path fill="#263238" d="M319.9 145.6c1.7.1 1.4 3.5-.2 3.5s-1.3-3.5.2-3.5ZM310.6 143.4a13.8 13.8 0 0 0 1.3.6 2.4 2.4 0 0 0 1.5.3.7.7 0 0 0 .5-.8 1.8 1.8 0 0 0-1.2-1.3 2.7 2.7 0 0 0-2-.2.8.8 0 0 0 0 1.4ZM321.4 144a12.4 12.4 0 0 1-1.3-.4 2.4 2.4 0 0 1-1.3-.8.7.7 0 0 1 .2-1 1.8 1.8 0 0 1 1.8 0 2.6 2.6 0 0 1 1.5 1.2.8.8 0 0 1-.9 1ZM310.6 155.4c.2.3.4.7.8.8a2.7 2.7 0 0 0 1.2-.2s0 0 0 .1a1.4 1.4 0 0 1-1.4.4 1.2 1.2 0 0 1-.8-1h.2Z"/><path fill="#263238" d="M312 152.4a3.7 3.7 0 0 0 2.3 1.9 4.7 4.7 0 0 0 1.3.2 1 1 0 0 0 .3 0h.2a.3.3 0 0 0 .2-.2.4.4 0 0 0 0-.1v-.1l.2-2c.3.1 1.7 1 1.8.5a55 55 0 0 0-.2-11c0-.2-.2-.2-.2 0-.3 3.4 0 6.8-.3 10.2a6.5 6.5 0 0 0-1.6-.7c-.2 0-.1 2.4-.2 2.8a5 5 0 0 1-3.6-1.6s-.2 0-.1.1Z"/><path fill="#263238" d="M315.2 154a4.4 4.4 0 0 1-2 1.1 2 2 0 0 1-1 0c-1-.4-.8-1.1-.6-1.8a4.6 4.6 0 0 1 .5-1 5.6 5.6 0 0 0 3 1.7Z"/><path fill="#ff97b8" d="M313.3 155.2a2 2 0 0 1-1.2-.1c-.8-.3-.7-1.1-.5-1.8a2 2 0 0 1 1.7 1.9Z"/><path fill="#263238" d="M303.9 129c-.2 2.1-1 8.6-2.1 9.9s-3.4 4.2-4.6 4.6c.4-4.3 1.3-8.4 2.5-10.5a11 11 0 0 1 4.2-4Z" opacity=".2"/><path fill="#263238" d="M316.3 135.7a5.2 5.2 0 0 1-5 1.4 5.3 5.3 0 0 1-3.8-3.6 5.3 5.3 0 0 0 3.7 4 5.4 5.4 0 0 0 5.1-1.7s0-.1 0 0ZM312 122.4a8.2 8.2 0 0 0-7.2 3.2 5.8 5.8 0 0 0-1 3.7h.2a6.4 6.4 0 0 1 3.5-5.5 8.3 8.3 0 0 1 7.4-.2 5.2 5.2 0 0 1 2.6 2.5c0 .1.3 0 .2 0-.6-2-3-3.5-5.7-3.7ZM329 130.5a6.7 6.7 0 0 0-2.6-3.8c-1.7-1.3-3.8-1.3-6-1.3a9.2 9.2 0 0 1 5.2 1 6.6 6.6 0 0 1 2.7 3.5 6.4 6.4 0 0 1-3.3 7.7 6.5 6.5 0 0 1-5.1 0l-.1.1a6.5 6.5 0 0 0 9.1-7.2Z"/><path fill="#263238" d="M298.3 136s-2.3-5.7.4-8.5c1.5-1.7 6-1 6-1a8.1 8.1 0 0 1 5.5-3c3.8-.5 8 2.1 8 2.1s3.8-1.7 7 .6c4.4 3 3.1 10.1-1.8 12-3.4 1.3-7.6-2-7.6-2-.4 0-5.1 2.2-8-2 0 0-3 2-5.2.1a4 4 0 0 1-4.3 1.7Z"/><path fill="#ad6359" d="M300 146.2s-2.4-5.7-4.9-5-1.5 8.4.9 10a2.7 2.7 0 0 0 3.9-.7Z"/><path fill="#263238" d="M295.4 143.4c1.7 1.2 2.3 3.2 2.6 5a1.5 1.5 0 0 0-2.1-.8v.1a1.7 1.7 0 0 1 1.6 1 8.7 8.7 0 0 1 .6 1.7h.3c.6-2.5-.5-6.2-3-7Z"/><path fill="#f4e3d7" d="M243 240.8s57.4 13.8 57.9 13.5 4.9-4.1 5.6-8.6c2.3-15 5.4-63.4-.6-74-2.2-3.9-11.7-10-15.8-7.3-21.8 14.2-39.8 50.2-47 65.7a12.6 12.6 0 0 0-.1 10.7Z"/><path fill="#fff" d="M284.1 203.5a9.6 9.6 0 0 1 0 2.8 11 11 0 0 1-.8-5.5 9.6 9.6 0 0 1 .8 2.7Zm-14.2 41.2a9.3 9.3 0 0 0 0 2.6l.8.1a9.9 9.9 0 0 0-.8-2.7Zm28.6-18.7a10 10 0 0 0 0 2.8 9.7 9.7 0 0 0 .7 2.7 10 10 0 0 0 0-2.8 9.9 9.9 0 0 0-.7-2.7Zm-44.9-5.9a10 10 0 0 0 0 2.8 9.7 9.7 0 0 0 .8 2.7 10.7 10.7 0 0 0-.8-5.5Zm50.9-28.1a10 10 0 0 0 0 2.8 9.7 9.7 0 0 0 .8 2.7 10 10 0 0 0 0-2.8 9.9 9.9 0 0 0-.8-2.7Zm-28.3-13.9a10 10 0 0 0 2.8 0 9.9 9.9 0 0 0 2.7-.7 9.7 9.7 0 0 0-2.8 0 10.1 10.1 0 0 0-2.7.7Zm-19.1 25.3-.5.8h.2a9.7 9.7 0 0 0 2.7-.8 9.1 9.1 0 0 0-2.4 0Zm29.2 15.9a11 11 0 0 0 5.5-.8 10.7 10.7 0 0 0-5.5.8Zm-24 17.1a10 10 0 0 0 2.8 0 9.6 9.6 0 0 0 2.7-.7 10.7 10.7 0 0 0-5.5.8Zm29.4-50.5a9.7 9.7 0 0 0-2 2 10.2 10.2 0 0 0-1.4 2.4 9.4 9.4 0 0 0 2-2 10.2 10.2 0 0 0 1.4-2.5Zm16 33.6a7.5 7.5 0 0 0 1.2-1.1l.1-1.3a9.7 9.7 0 0 0-1.3 2.4Zm-18.2 19.7a10.7 10.7 0 0 0-3.3 4.5 9.7 9.7 0 0 0 2-2 10 10 0 0 0 1.3-2.5Zm-47.1-5.2-.5.7a8 8 0 0 0 0 1 10.8 10.8 0 0 0 1.1-1.2 10 10 0 0 0 1.4-2.5 10 10 0 0 0-2 2Zm27.9-23.4a9.7 9.7 0 0 0-2 2 9.3 9.3 0 0 0-1.3 2.4 10 10 0 0 0 2-2 9.8 9.8 0 0 0 1.3-2.4Zm29.1-33a10 10 0 0 0-2-2 9.8 9.8 0 0 0-2.4-1.4 9.7 9.7 0 0 0 2 2 10 10 0 0 0 2.4 1.4Zm1.8 31.5a10.8 10.8 0 0 0-4.5-3.3 10 10 0 0 0 2 2 9.8 9.8 0 0 0 2.5 1.3Zm2.3 38a9.9 9.9 0 0 0-2.4-1.4 10.8 10.8 0 0 0 4.2 3.3 9.6 9.6 0 0 0-1.8-1.8Zm-24.1-18.4a9.4 9.4 0 0 0-2-2 9.7 9.7 0 0 0-2.4-1.4 9.4 9.4 0 0 0 2 2 9.9 9.9 0 0 0 2.4 1.5Zm-5-35.3a9.7 9.7 0 0 0-2-2 9.8 9.8 0 0 0-2.5-1.3 9.7 9.7 0 0 0 2 2 10.2 10.2 0 0 0 2.4 1.3Z"/><path fill="#ad6359" d="M297.5 183c1 7.9 9.6 41.1 14 45.9 8 8.6 32.6 14 40.4 15 3.4.4 9-26.3 5.6-27.3s-25.5-2.8-27.8-4.2-15.1-22.8-20.8-34.6c-5.5-11.4-13.6-11.5-11.4 5.2Z"/><path fill="#ad6359" d="M386.8 244.2a3.9 3.9 0 0 1-4 1.7 5.7 5.7 0 0 1-1.1 3.8c-1.5 1.8-5 .2-5 .2a7 7 0 0 1-1.9 3.7c-1.6 1.6-5.3.6-5.3.6a6.2 6.2 0 0 1-3.7 2.2c-4 .7-7.9-4-10.4-6.8s-7.1-13.4-8.2-15.4l8.5-18s9.8 1.4 17.6 5.5c5 2.6 8.9 8 9.9 9.5 2 3.2 5 10.3 3.6 13Z"/><path fill="#263238" d="M383 245.6c-1.4-4-4-7.3-6.3-10.8 0 0-.2 0-.1.1 2.3 3.4 4 7.3 6.2 10.8a.1.1 0 0 0 .2-.1ZM376.8 249.7a10.8 10.8 0 0 0-1.5-2.5 86.2 86.2 0 0 0-6-7 134.2 134.2 0 0 1 5.5 7.4 13.8 13.8 0 0 0 1.8 2.2c.1.1.3 0 .2-.2ZM369.4 254.1a8 8 0 0 0-1.5-2l-1.8-2.2-3.5-4.4s-.2 0-.1.1l3.4 4.5 1.7 2.2a7.4 7.4 0 0 0 1.7 1.9s.1 0 .1-.1Z"/><path fill="#f4e3d7" d="m351.1 214.7-.6 31s-28.3-5.6-40.4-16.2c-5-4.3-13-34.8-13.7-47.5s4.8-20 13.8-3 17.7 32 19 32.2l22 3.5Z"/><path fill="#fff" d="M305.3 194.6a10 10 0 0 1 0 2.8 9.7 9.7 0 0 1-.8-2.7 10 10 0 0 1 0-2.8 9.9 9.9 0 0 1 .8 2.7Zm14.2 28.1a10 10 0 0 0 0 2.8 9.7 9.7 0 0 0 .7 2.7 10.7 10.7 0 0 0-.7-5.5Zm28.4 2.7a10 10 0 0 0 0 2.8 9.9 9.9 0 0 0 .8 2.7 9.7 9.7 0 0 0 0-2.8 10.1 10.1 0 0 0-.8-2.7Zm-35.6-42.6h-.3a10 10 0 0 0-2.7.8 9.6 9.6 0 0 0 2.8 0l.5-.1-.3-.7Zm23.3 37.7a10.7 10.7 0 0 0 5.4-.7 9.6 9.6 0 0 0-2.7 0 10 10 0 0 0-2.7.7Zm-22-16.4a10.7 10.7 0 0 0 5.5-.7 10.7 10.7 0 0 0-5.5.7Zm-2.6 11a10.3 10.3 0 0 0-2 2 9.8 9.8 0 0 0-1.4 2.4 10.8 10.8 0 0 0 3.3-4.4Zm38.2-.7a8.5 8.5 0 0 0-.9 1.8 8.3 8.3 0 0 0 1.7-1.7Zm-16 15.4a9.7 9.7 0 0 0-2 2 9.5 9.5 0 0 0-1.3 2.4 11 11 0 0 0 3.3-4.4Zm-35.7-54.2-.7-.5-.2.8.4.3a10 10 0 0 0 2.4 1.4 10 10 0 0 0-2-2Zm30.4 40.6a9.7 9.7 0 0 0-2-2 10.2 10.2 0 0 0-2.4-1.4 9.4 9.4 0 0 0 2 2 10.2 10.2 0 0 0 2.3 1.3Zm17.1 25.4a9.7 9.7 0 0 0-2-2 9.5 9.5 0 0 0-2.4-1.3 11 11 0 0 0 4.4 3.3Z"/><path fill="#263238" d="M317.4 234a23.6 23.6 0 0 1-7.8-5 12 12 0 0 1-2.2-4l-2-5.1a145 145 0 0 1-5.7-20.3q-1.2-5.9-2-11.8s-.1 0-.1 0c.2 3.2.6 6.4 1 9.6l-.4-1.3-1-3.8a26.3 26.3 0 0 0 .8 3.9l.7 2q.9 5.5 2.3 11a137.3 137.3 0 0 0 5 15.5 18.2 18.2 0 0 0 2.5 4.6c2.1 2.6 5.6 3.9 8.8 4.9.2 0 .2-.1.1-.1ZM345.4 216.2a60.7 60.7 0 0 0-.5 6.3l-.4 6.6-.1 13.1a738.9 738.9 0 0 0 1-13l.2-6.4a65.6 65.6 0 0 0-.1-6.6Z"/><path fill="#d3766a" d="M127.6 173.2c-21.1 11-40.9 25.5-41.5 32.8-.9 9.8 8.3 25 13.8 35.8 1.6 3.2 26-9.9 24.2-13.3-2-4-13.7-18.8-13.8-19.3-.1-1 17-22.4 21.1-27.5 7-8.4 5.6-13.4-3.8-8.5Z"/><path fill="#d3766a" d="M109 257.6c-4.3-4.1-9.8-15.9-10-19.2s19.4-13.4 22.5-12 16.5 16.4 17.3 22.4-25.4 13-29.9 8.8Z"/><path fill="#d3766a" d="M135.7 239.8c-3-.7-2.1 3.3-2.1 3.3s-2.8-5.4-6.2-4.8-2 5.2-1.9 5.6c-.1-.3-2.8-5.2-6.2-4.3s-1.4 5.5-1.2 5.8c-.2-.3-3.3-3.2-5.7-2-4.1 2.2 3.4 10 3.2 13.7l-6.7.5s7 7.4 12.2 7.4a3.3 3.3 0 0 0 3.2-2.5s2 2.7 4.7 2c1.4-.3 2-2.8 2-2.8a4 4 0 0 0 4 1.4c2-.6 2.4-3 2.4-3s2.5 1.2 4.3 0c3.5-2.3.5-18.8-6-20.3Z"/><path fill="#263238" d="M137.6 259.8a29.2 29.2 0 0 0-4-16.9c-.1-.1-.4 0-.4.1a59.9 59.9 0 0 1 4.4 16.8ZM131.1 261.8h.2a27.3 27.3 0 0 0-5.7-18c-.1-.3-.4-.3-.3 0a49.3 49.3 0 0 1 5.8 18ZM117.7 245.1a37.6 37.6 0 0 1 6.8 17.2c.3-3.2-.8-7.1-1.8-10.1a17 17 0 0 0-4.9-7.2c0-.1-.2 0-.1.1Z"/><path fill="#263238" d="M133.6 243.1a18.8 18.8 0 0 0-2.2-2.7 6.4 6.4 0 0 0-2.7-2 2.1 2.1 0 0 0-1.5.2 3.2 3.2 0 0 0-1.2 1 3.7 3.7 0 0 0-.3 3l.7 2.5-1.5-2.1a10.6 10.6 0 0 0-2.4-2.4 3.8 3.8 0 0 0-3-.7 2.1 2.1 0 0 0-1.8 2 6.5 6.5 0 0 0 .8 3.2l1.4 2.7-2.2-2.1a9.8 9.8 0 0 0-2-1.6 4 4 0 0 0-2.3-.6 2 2 0 0 0-1.6 1.2 4.3 4.3 0 0 0 0 2.4 34.7 34.7 0 0 0 2 4.9l1.2 2.4a6.6 6.6 0 0 1 .6 2.6 6.8 6.8 0 0 0-.9-2.5l-1.2-2.3a28.3 28.3 0 0 1-2.3-4.9 5 5 0 0 1-.2-2.9 2.7 2.7 0 0 1 2.3-1.8 5 5 0 0 1 2.9.7 10.7 10.7 0 0 1 2.2 1.6l-.8.6a7.4 7.4 0 0 1-1-3.7 3.1 3.1 0 0 1 .8-2 3.6 3.6 0 0 1 1.8-1 4.8 4.8 0 0 1 3.8 1 11.3 11.3 0 0 1 2.6 2.7l-.8.4a4.5 4.5 0 0 1 .6-3.7 3.8 3.8 0 0 1 1.5-1.2 2.7 2.7 0 0 1 2 0 6.5 6.5 0 0 1 2.8 2.1 15.4 15.4 0 0 1 1.9 3Z"/><path fill="#d3766a" d="M124.2 228.6s23.5 8.8 15.6 16.3c-2.4 2.2-14.7 8.6-16 6.1-1.7-3.2 3-6.8 6.2-8.6 0 0-8.4-1.8-8.9-8a6.2 6.2 0 0 1 3.1-5.8Z"/><path fill="#263238" d="M140.4 244.2a12.8 12.8 0 0 1-2.8 2.5 29 29 0 0 1-3.3 2 43.5 43.5 0 0 1-7 3 6.8 6.8 0 0 1-2 .4 2.6 2.6 0 0 1-1.2-.2 1.9 1.9 0 0 1-1-.9 3.2 3.2 0 0 1-.2-2.2 6.1 6.1 0 0 1 .8-2 11.6 11.6 0 0 1 2.8-2.7 27.5 27.5 0 0 1 3.3-2.1l.1.8a15.9 15.9 0 0 1-2.7-1 14.6 14.6 0 0 1-2.6-1.5 10.3 10.3 0 0 1-2-2 7.9 7.9 0 0 1-1.2-2.6 8.8 8.8 0 0 0 1.5 2.4 10.9 10.9 0 0 0 2.1 1.8 13.5 13.5 0 0 0 2.5 1.3 15.2 15.2 0 0 0 2.6.8l1.2.2-1 .6a27.6 27.6 0 0 0-3.1 2 11.2 11.2 0 0 0-2.6 2.7 3.1 3.1 0 0 0-.5 3c.4.8 1.7.5 2.9.2s2.4-.7 3.5-1.2l3.5-1.4a24.3 24.3 0 0 0 6.4-3.9Z"/><path fill="#d3766a" d="M98.5 374.3 82 409.8c-1.4 7.7-.1 13.4.3 17a5.5 5.5 0 0 0 .6 2.5c2.4 1.6 65.3 2.7 67.6 2s.4-7-2-9-26.4-13.2-26.4-13.2l17.2-34.1Z"/><path fill="#263238" d="M132.3 414h-.2ZM150.5 431.4c-2.2.7-65.1-.5-67.5-2a5.5 5.5 0 0 1-.6-2.5 57.2 57.2 0 0 1-.8-13.3c9.4 1.7 31.5 3.7 43.8 4.2h.1c2.9.1 5.2.2 6.7.1 5.8-.2 4.4-1.7 2.5-2.8 6.2 3 12.7 6.3 13.9 7.3 2.3 2 4.2 8.3 2 9Z"/><path fill="#263238" d="M132.2 413.9s-3.6-3.3-6.9 4Z"/><path fill="#d3766a" d="M85.6 402.2H125s36.4-62.3 34.4-85c-1.2-14-24.5-75.4-24.5-75.4l3.4-20.8h-27.8s-14.9 27-9.3 41c5.7 14.3 19 50.1 20.4 54.5 1.8 5.8-35.9 85.7-35.9 85.7ZM155.2 393.6 151 435c.3 7.9.7 14.8 1.2 18.3a5.6 5.6 0 0 0 .7 2.5c2.5 1.5 65.5 1 67.6.2s.2-7-2.2-9-26.7-12.5-26.7-12.5l4.5-40.9Z"/><path fill="#263238" d="M220.5 456c-2.2.8-65.1 1.3-67.5-.2a5.6 5.6 0 0 1-.8-2.4c-.4-3-.8-8.2-1-14.4a444 444 0 0 0 45 4.4h.1c2.8.1 5.1.2 6.7.1 6.4-.2 4-2 1.8-3 6.1 2.7 12.3 5.6 13.5 6.5 2.4 2 4.4 8.3 2.2 9Z"/><path fill="#263238" d="M203 439.6s-3.5-3.3-6.8 4Z"/><path fill="#d3766a" d="M128.4 266.6s31 59.6 32 64c1.5 6.9-7.9 88.5-7.9 88.5H193s10.5-76.9 7.5-95.2c-2.7-16.2-41.5-81.7-43-85.4a77.7 77.7 0 0 1-4-17.6h-42s-2.2 24.1 8.8 41.6c0 0 5 2.3 8.1 4Z"/><path fill="#f4e3d7" d="M116.5 330.6s43.4 11.2 85.7 0c0 0-.2-7.4-2.1-12.8-6.8-18.9-41.2-76.4-42.8-80.1s-3.8-16.8-3.8-16.8h-43s-13.3 23.8-11.1 38 19.7 55.2 20 56.9-3 14.8-3 14.8Z"/><g opacity=".1"><path d="M127.6 263.3a62.4 62.4 0 0 0-9.2.7 65.6 65.6 0 0 0-6.7 1.4 10 10 0 0 1-2.3.3s-.1.1 0 .1a17 17 0 0 0 2.2.1 14.3 14.3 0 0 0 2.2-.2l4.6-.8 9.2-1.4c.2 0 .2-.2 0-.2ZM135 266.6a65.5 65.5 0 0 0-7.6-1 48 48 0 0 0-3.8-.1h-1.8l-2 .2s-.1.1 0 .1l1.9.2h1.9l3.7.3a217.3 217.3 0 0 1 7.6.3Z"/></g><path fill="#d3766a" d="M133.6 173.9c.3 1 5.5 7.4 10.2 7 1.5-.2 1-8.6 1-8.6v-.6l1.5-8.7-10.4-6-1.5-.7-.5 5.4v.4l-.1.5-.1 1.4-.1 1v1.1a56.5 56.5 0 0 0 0 7.8Z"/><path fill="#263238" d="M133.9 161.7a17.7 17.7 0 0 0 11 10l1.4-8.7-10.4-6-1.5-.7-.5 5.4Z"/><path fill="#d3766a" d="M156.4 145.8c6.2 14.2-1.5 19.6-4.7 20.8-2.8 1.1-12.4 5-20-8.5s-3-20.8 3.2-24 15.3-2.5 21.5 11.7Z"/><path fill="#263238" d="M153.6 143.4a10.7 10.7 0 0 1-.9.7 1.7 1.7 0 0 1-1 .5.6.6 0 0 1-.5-.4 1.4 1.4 0 0 1 .6-1.2 2 2 0 0 1 1.3-.6.6.6 0 0 1 .5 1ZM144.4 149.6l1-.1a1.8 1.8 0 0 0 1-.5.6.6 0 0 0 0-.6 1.4 1.4 0 0 0-1.2-.4 2 2 0 0 0-1.3.7.6.6 0 0 0 .5 1ZM150.1 157.8c.3.2.7.4 1 .4a3.1 3.1 0 0 0 1-.6 1.4 1.4 0 0 1-1 1 1.1 1.1 0 0 1-1.1-.7s0-.1.1 0ZM153 152.7l1 2.2-.4.2a3.5 3.5 0 0 1-3.6 0c-.1-.1 0-.2 0-.2a5.3 5.3 0 0 0 3.4-.2c0-.2-1.4-2.4-1.2-2.4a6 6 0 0 1 1.7-.2c-1.5-3-3.4-5.8-4.7-8.8 0 0 0-.2.1 0a53.6 53.6 0 0 1 5.5 9c.2.5-1.5.5-1.8.4ZM144.8 151.4a3.2 3.2 0 0 1 .8-.5 3.4 3.4 0 0 1 .9-.4 2.6 2.6 0 0 1 1 0 2.4 2.4 0 0 1 1 .4l.4.4-.6.2a7.6 7.6 0 0 0-1.2.6 3 3 0 0 0-1 1 2 2 0 0 1 .7-1.4 3.8 3.8 0 0 1 1.3-.8v.6a2.3 2.3 0 0 0-1.6-.4 6.9 6.9 0 0 0-1.7.3Z"/><path fill="#263238" d="M147.5 153a6 6 0 0 0 1-1c0-.1.3-.5.2-.6a3 3 0 0 0-.5-.5 2 2 0 0 1 .7.4 1 1 0 0 1-.2.8 2.9 2.9 0 0 1-1.2.9ZM155.8 145.5a3.6 3.6 0 0 0-1 .3 3.8 3.8 0 0 0-.7.5 2.6 2.6 0 0 0-.6.8 2.3 2.3 0 0 0-.2 1v.7l.5-.4a5.9 5.9 0 0 1 1.2-.7 2.8 2.8 0 0 1 1.3-.2 2 2 0 0 0-1.5-.3 3.9 3.9 0 0 0-1.4.7l.5.2a2.3 2.3 0 0 1 .6-1.4 6.7 6.7 0 0 1 1.3-1.2Z"/><path fill="#263238" d="M155.5 148.6a5.6 5.6 0 0 1-1.5.3s-.6 0-.6-.2a2.7 2.7 0 0 1-.1-.7 1.8 1.8 0 0 0 0 .8.9.9 0 0 0 .7.3 2.8 2.8 0 0 0 1.5-.5ZM134 161a6.4 6.4 0 0 0 1.1-6.2 16.8 16.8 0 0 0 4-7.8c0 .4.4 2.8.4 4 8.4-5.6 8.1-13.8 8.1-13.8a16.8 16.8 0 0 1 6.5 4s-2.4-5.5-6.9-8c-5.4-3-17.8 1-20.7 9.3-3 9 7.4 18.5 7.4 18.5Z"/><path fill="#263238" d="M145.8 146.5a18.4 18.4 0 0 1-4 3.8 15.5 15.5 0 0 0 5-7 14.7 14.7 0 0 0 .7-3.5 10 10 0 0 0-.3-4c0-.1.1-.2.2 0a11.7 11.7 0 0 1 .8 3.9 10.7 10.7 0 0 1-.7 3.8 12.2 12.2 0 0 1-1.7 3"/><path fill="#f4e3d7" d="m154 213-.5 8h-43s0-25.6 15-43.3c6.7-7.9 13.9-8.8 19-3.4 1.3 1.4 13.8 19.1 15.3 27.1 1.3 7-5.9 11.5-5.9 11.5Z"/><path fill="#263238" d="M108.9 219.9h45.2v2.1h-45.2z"/><path fill="#d3766a" d="M136 185c0 10.3 4.3 40.7 11.2 47.5s34.6 11.6 44 13.4c3 .6 5.7-26.2-.2-26.6-7.6-.7-23.4-4.7-27-6.4-2.5-1.2-9.8-19-16-31.9-5.3-10.7-12-8.8-12 4Z"/><path fill="#d3766a" d="M226.2 238.9a3.9 3.9 0 0 1-3.4 2.7 5.7 5.7 0 0 1-.2 3.9c-1 2.1-4.8 1.5-4.8 1.5a7 7 0 0 1-.8 4c-1.2 2-5 1.8-5 1.8a6.2 6.2 0 0 1-3 3.1c-3.7 1.6-8.7-1.8-11.9-4s-10.2-11.2-11.7-12.8l3.8-19.6s9.9-1 18.4 1a30.3 30.3 0 0 1 12 6.7c2.7 2.5 7.4 8.8 6.6 11.7Z"/><path fill="#263238" d="M222.8 241.2c-2.3-3.5-5.6-6-8.7-8.9 0 0-.2 0-.1.1 3.1 2.8 5.7 6 8.7 8.9a.1.1 0 0 0 .2-.1ZM218 246.7a10.6 10.6 0 0 0-2.2-2l-2.4-2-5-3.4c0-.1-.2 0-.1 0l4.8 3.8 2.3 2a12.8 12.8 0 0 0 2.3 1.7c.2.1.3 0 .2-.2ZM211.8 252.8a7.6 7.6 0 0 0-2-1.6l-2.2-1.7-4.5-3.3s-.1 0 0 0c1.4 1.3 2.9 2.5 4.4 3.6l2.1 1.7a7 7 0 0 0 2.2 1.4s0 0 0-.1ZM133 135.2c-5.3 2.4-10.9 7.7-12.4 27s1.4 33.5 7 36.8 18 1.6 24.7-3.4c0 0-13.6-14.5-15.6-35.6-.6-6.8 3.5-17.4.9-22.3Z"/><path fill="#263238" d="m153.1 194.6-2.9-4.7-2.8-4.5a95.3 95.3 0 0 1-5-9.5 55 55 0 0 1-5.3-20.7c-.2-4.3.3-8.5.6-12.8a57.4 57.4 0 0 0-.2 22.5 67 67 0 0 0 8.4 19.7l3.3 5c1.2 1.8 2.5 3.4 3.8 5 0 .1.2 0 .1 0ZM127.5 140.8s0-.1-.1 0a44.1 44.1 0 0 0-8 20.8 61.7 61.7 0 0 0 .5 24.7 31.4 31.4 0 0 0 5.2 11.5c0 .1.2 0 .1 0a18 18 0 0 1-2.7-5.2 38.8 38.8 0 0 1-1.5-5.3 61.9 61.9 0 0 1-1.4-12 80.1 80.1 0 0 1 2.7-23.3 34.9 34.9 0 0 1 5.2-11.2Z"/><path fill="#263238" d="M122.7 190.8a50.4 50.4 0 0 1-2-5.4 55 55 0 0 1-2.3-11.2 50.3 50.3 0 0 1 2.9-22.2 56.2 56.2 0 0 1 5.8-11.3s0-.1 0 0a47 47 0 0 0-5.1 49.5c1 2 2.2 3.9 3.3 5.8 0 .1.2 0 .1 0a28.9 28.9 0 0 1-2.7-5.2Z"/><path fill="#d3766a" d="M137.7 156.8s-4.4-4-6.3-2.2 2.3 7.9 5 8.2a2.6 2.6 0 0 0 3-2.2Z"/><path fill="#263238" d="M132.6 156.3v.1c2 .3 3.3 1.7 4.3 3.2a1.4 1.4 0 0 0-2.2.2s0 0 .1 0a1.6 1.6 0 0 1 1.9.2 8.2 8.2 0 0 1 1.1 1.2c.2.1.4 0 .3-.2-.5-2.3-3-5-5.5-4.7Z"/></svg>